<?xml version="1.0" encoding="UTF-8" standalone="no"?>
<!-- Created with Inkscape (http://www.inkscape.org/) -->

<svg
   xmlns:dc="http://purl.org/dc/elements/1.1/"
   xmlns:cc="http://creativecommons.org/ns#"
   xmlns:rdf="http://www.w3.org/1999/02/22-rdf-syntax-ns#"
   xmlns:svg="http://www.w3.org/2000/svg"
   xmlns="http://www.w3.org/2000/svg"
   xmlns:sodipodi="http://sodipodi.sourceforge.net/DTD/sodipodi-0.dtd"
   xmlns:inkscape="http://www.inkscape.org/namespaces/inkscape"
   width="163.57869"
   height="97.840919"
   viewBox="0 0 43.280194 25.887077"
   version="1.1"
   id="svg8"
   inkscape:version="0.92.3 (2405546, 2018-03-11)"
   sodipodi:docname="bee.svg">
  <defs
     id="defs2" />
  <sodipodi:namedview
     id="base"
     pagecolor="#ffffff"
     bordercolor="#666666"
     borderopacity="1.0"
     inkscape:pageopacity="0.0"
     inkscape:pageshadow="2"
     inkscape:zoom="3.959798"
     inkscape:cx="63.506952"
     inkscape:cy="43.530286"
     inkscape:document-units="mm"
     inkscape:current-layer="layer1"
     showgrid="false"
     units="px"
     fit-margin-top="0"
     fit-margin-left="0"
     fit-margin-right="0"
     fit-margin-bottom="0"
     inkscape:pagecheckerboard="true"
     inkscape:window-width="1920"
     inkscape:window-height="1017"
     inkscape:window-x="-8"
     inkscape:window-y="-8"
     inkscape:window-maximized="1" />
  <metadata
     id="metadata5">
    <rdf:RDF>
      <cc:Work
         rdf:about="">
        <dc:format>image/svg+xml</dc:format>
        <dc:type
           rdf:resource="http://purl.org/dc/dcmitype/StillImage" />
        <dc:title></dc:title>
      </cc:Work>
    </rdf:RDF>
  </metadata>
  <g
     inkscape:label="Layer 1"
     inkscape:groupmode="layer"
     id="layer1"
     transform="translate(-6.3321033,-253.02095)">
    <path
       style="fill:#f9f9f9;fill-opacity:1;stroke:#000000;stroke-width:0.29475898px;stroke-linecap:butt;stroke-linejoin:miter;stroke-opacity:1"
       d="m 20.754898,268.05256 c 0,-0.0766 0.0156,-0.15548 0,-0.22978 -0.0039,-0.0186 -0.03686,0.0135 -0.04823,0 -0.0021,-0.002 0,-0.26014 0,-0.28723 0,-0.0191 0.01137,-0.0439 0,-0.0574 -0.01137,-0.0135 -0.03686,0.0135 -0.04823,0 -0.02273,-0.0271 0.01438,-0.0806 0,-0.11489 -0.01021,-0.0242 -0.03806,-0.0332 -0.04823,-0.0574 -0.0096,-0.0227 0.0099,-0.1606 0,-0.17234 -0.01137,-0.0135 -0.03686,0.0135 -0.04823,0 -0.01161,-0.0139 0.01161,-0.21595 0,-0.22977 -0.01137,-0.0135 -0.03686,0.0135 -0.04823,0 -0.02273,-0.0271 0.01438,-0.0806 0,-0.1149 -0.01021,-0.0242 -0.03806,-0.0332 -0.04823,-0.0574 -0.01438,-0.0343 0.01438,-0.0806 0,-0.11489 -0.01021,-0.0242 -0.03807,-0.0332 -0.04823,-0.0575 -0.01438,-0.0343 0.01438,-0.0806 0,-0.1149 -0.01021,-0.0242 -0.03806,-0.0332 -0.04823,-0.0574 -0.0096,-0.0227 0.0099,-0.16059 0,-0.17234 -0.01137,-0.0135 -0.03686,0.0135 -0.04823,0 -0.02273,-0.0271 0.01438,-0.0806 0,-0.11489 -0.01021,-0.0242 -0.03806,-0.0332 -0.04823,-0.0575 -0.01438,-0.0343 0.01438,-0.0806 0,-0.1149 -0.01021,-0.0242 -0.03806,-0.0332 -0.04823,-0.0575 -0.0096,-0.0227 0.0099,-0.16058 0,-0.17233 -0.01137,-0.0135 -0.03686,0.0135 -0.04823,0 -0.0099,-0.0122 0.0096,-0.14956 0,-0.17233 -0.02033,-0.0484 -0.07612,-0.0664 -0.09645,-0.11489 -0.01666,-0.0396 0.01692,-0.26706 0,-0.28722 -0.01137,-0.0135 -0.03686,0.0135 -0.04823,0 -0.02273,-0.0271 0.02273,-0.0878 0,-0.1149 -0.01137,-0.0135 -0.03686,0.0135 -0.04823,0 -0.01693,-0.0202 0.01666,-0.24754 0,-0.28721 -0.01021,-0.0242 -0.03806,-0.0332 -0.04823,-0.0575 -0.0071,-0.0171 0.01137,-0.0439 0,-0.0574 -0.01137,-0.0135 -0.03686,0.0135 -0.04823,0 -0.0132,-0.0157 0.01309,-0.19862 0,-0.22978 -0.01021,-0.0242 -0.03806,-0.0332 -0.04823,-0.0574 -0.01465,-0.0349 0.01465,-0.30978 0,-0.34466 -0.01021,-0.0242 -0.03806,-0.0332 -0.04823,-0.0575 -0.01929,-0.046 0.01929,-0.12637 0,-0.17233 -0.01021,-0.0242 -0.03806,-0.0332 -0.04823,-0.0575 -0.0071,-0.0171 0.01137,-0.0439 0,-0.0574 -0.01137,-0.0135 -0.03686,0.0135 -0.04823,0 -0.01137,-0.0135 0,-0.0383 0,-0.0575 0,-0.0227 0.0103,-0.2627 0,-0.28723 -0.01021,-0.0242 -0.03806,-0.0332 -0.04823,-0.0574 -0.01929,-0.046 0.01929,-0.12639 0,-0.17233 -0.01021,-0.0242 -0.04104,-0.0317 -0.04823,-0.0574 -0.0089,-0.0317 0,-0.28681 0,-0.34466 0,-0.0192 0.0071,-0.0404 0,-0.0575 -0.01021,-0.0242 -0.03807,-0.0332 -0.04823,-0.0575 -0.0071,-0.0171 0,-0.0383 0,-0.0574 0,-0.0958 0,-0.19148 0,-0.28723 0,-0.0191 0,-0.0383 0,-0.0574 0,-0.0191 0.0071,-0.0404 0,-0.0574 -0.01021,-0.0242 -0.04104,-0.0317 -0.04823,-0.0575 -0.01525,-0.0545 0,-0.11489 0,-0.17233 0,-0.13403 0,-0.26808 0,-0.40211 0,-0.36382 0,-0.72763 0,-1.09144 0,-0.0212 -0.0019,-0.22747 0,-0.22978 0.01137,-0.0135 0.03686,0.0135 0.04823,0 0.02273,-0.0271 -0.01438,-0.0806 0,-0.1149 0.01021,-0.0242 0.03807,-0.0332 0.04823,-0.0574 0.01438,-0.0343 -0.01438,-0.0806 0,-0.1149 0.01021,-0.0242 0.03806,-0.0332 0.04823,-0.0574 0.0096,-0.0227 -0.0099,-0.1606 0,-0.17234 0.01137,-0.0135 0.03686,0.0135 0.04823,0 0.01137,-0.0135 -0.0071,-0.0404 0,-0.0574 0.01021,-0.0242 0.03806,-0.0332 0.04823,-0.0574 0.01438,-0.0343 -0.02273,-0.0878 0,-0.11489 0.01137,-0.0135 0.03686,0.0135 0.04823,0 0.02412,-0.0287 -0.02411,-0.14362 0,-0.17233 0.01137,-0.0135 0.03686,0.0135 0.04823,0 0.02273,-0.0271 -0.01438,-0.0806 0,-0.1149 0.110363,-0.2629 -0.01999,0.24376 0.09645,-0.17233 0.0051,-0.0181 0,-0.0383 0,-0.0575 0.01608,-0.0191 0.03807,-0.0332 0.04823,-0.0574 0.01438,-0.0343 -0.02273,-0.0878 0,-0.11489 0.09979,-0.11879 -0.0039,0.18163 0.09645,-0.0574 0.01438,-0.0343 -0.02273,-0.0878 0,-0.1149 0.01137,-0.0135 0.03686,0.0135 0.04823,0 0.02273,-0.0271 -0.01438,-0.0806 0,-0.11489 0.06009,-0.14317 0.03636,0.0283 0.09645,-0.1149 0.0071,-0.0171 -0.01137,-0.0439 0,-0.0574 0.01137,-0.0135 0.03686,0.0135 0.04823,0 0.02273,-0.0271 -0.01438,-0.0806 0,-0.11489 0.159957,-0.19052 -0.02273,0.0542 0.04823,-0.1149 0.01021,-0.0242 0.03807,-0.0332 0.04823,-0.0574 0.0071,-0.0171 -0.0071,-0.0404 0,-0.0575 0.01021,-0.0242 0.0279,-0.0453 0.04823,-0.0574 0.01438,-0.009 0.04104,0.0171 0.04823,0 0.01438,-0.0343 0,-0.0766 0,-0.1149 0,-0.0191 -0.01137,-0.0439 0,-0.0574 0.01137,-0.0135 0.03686,0.0135 0.04823,0 0.01137,-0.0135 -0.01137,-0.0439 0,-0.0574 0.01137,-0.0135 0.04104,0.0171 0.04823,0 0.01438,-0.0343 -0.01021,-0.0785 0,-0.1149 0.01438,-0.0513 0.07612,-0.0664 0.09645,-0.11489 0.01438,-0.0343 -0.01438,-0.0806 0,-0.1149 0.01021,-0.0242 0.03806,-0.0332 0.04823,-0.0575 0.0071,-0.0171 -0.0071,-0.0404 0,-0.0575 0.02034,-0.0484 0.07612,-0.0664 0.09646,-0.11489 0.01438,-0.0343 -0.01438,-0.0806 0,-0.1149 0.01021,-0.0242 0.03806,-0.0332 0.04823,-0.0574 0.01438,-0.0343 -0.01438,-0.0806 0,-0.11489 0.100354,-0.23907 -0.0034,0.0614 0.09645,-0.0574 0.02273,-0.0271 -0.02273,-0.0878 0,-0.1149 0.01137,-0.0135 0.03686,0.0135 0.04823,0 0.02273,-0.0271 -0.01438,-0.0806 0,-0.11489 0.01021,-0.0242 0.03806,-0.0332 0.04823,-0.0575 0.01438,-0.0343 -0.02273,-0.0878 0,-0.1149 0.01137,-0.0135 0.03686,0.0135 0.04823,0 0.01137,-0.0135 -0.01137,-0.0439 0,-0.0575 0.09979,-0.1189 -0.0039,0.18163 0.09646,-0.0575 0.0071,-0.0172 -0.0071,-0.0404 0,-0.0574 0.01021,-0.0242 0.03806,-0.0332 0.04823,-0.0575 0.0071,-0.0171 -0.01137,-0.0439 0,-0.0574 0.01137,-0.0135 0.03686,0.0135 0.04823,0 0.09979,-0.11891 -0.152489,0.005 0.04823,-0.11489 0.01438,-0.009 0.03686,0.0135 0.04823,0 0.01137,-0.0135 -0.0071,-0.0404 0,-0.0575 0.01021,-0.0242 0.03806,-0.0332 0.04823,-0.0574 0.0071,-0.0171 -0.0071,-0.0404 0,-0.0574 0.01021,-0.0242 0.03806,-0.0332 0.04823,-0.0574 0.0071,-0.0172 -0.01137,-0.0439 0,-0.0575 0.01137,-0.0135 0.03686,0.0135 0.04823,0 0.01137,-0.0135 -0.01137,-0.0439 0,-0.0574 0.01137,-0.0135 0.03686,0.0135 0.04823,0 0.02273,-0.0271 -0.01438,-0.0806 0,-0.1149 0.01021,-0.0242 0.03806,-0.0332 0.04823,-0.0575 0.0071,-0.0172 -0.0071,-0.0404 0,-0.0574 0.159957,-0.19052 -0.02273,0.0541 0.04823,-0.1149 0.02033,-0.0484 0.07612,-0.0664 0.09645,-0.11489 0.0071,-0.0172 -0.01137,-0.0439 0,-0.0575 0.01137,-0.0135 0.03686,0.0135 0.04823,0 0.02273,-0.0271 -0.02273,-0.0878 0,-0.1149 0.01137,-0.0135 0.03686,0.0135 0.04823,0 0.01137,-0.0135 -0.01137,-0.0439 0,-0.0575 0.01137,-0.0135 0.03686,0.0135 0.04823,0 0.01137,-0.0135 -0.01137,-0.0439 0,-0.0574 0.01137,-0.0135 0.03686,0.0135 0.04823,0 0.02274,-0.0271 -0.02274,-0.0878 0,-0.11489 0.01137,-0.0135 0.03686,0.0135 0.04823,0 0.01137,-0.0135 -0.01137,-0.0439 0,-0.0575 0.01137,-0.0135 0.03686,0.0135 0.04823,0 0.01137,-0.0135 -0.01137,-0.0439 0,-0.0574 0.01137,-0.0135 0.03686,0.0135 0.04823,0 0.09979,-0.11891 -0.152489,0.005 0.04823,-0.11489 0.01437,-0.009 0.03686,0.0135 0.04823,0 0.01137,-0.0135 -0.01137,-0.0439 0,-0.0574 0.01137,-0.0135 0.03385,0.009 0.04823,0 0.05788,-0.0344 0.08681,-0.13788 0.144687,-0.17234 0.01437,-0.009 0.03385,0.009 0.04823,0 0.02033,-0.0122 0.0279,-0.0453 0.04823,-0.0574 0.01437,-0.009 0.03385,0.009 0.04823,0 0.02033,-0.0122 0.0279,-0.0453 0.04823,-0.0574 0.01437,-0.009 0.03385,0.009 0.04823,0 0.200717,-0.11951 -0.05156,0.004 0.04823,-0.11489 0.02274,-0.0271 0.0677,0.0171 0.09647,0 0.200717,-0.11952 -0.05156,0.004 0.04823,-0.1149 0.02274,-0.0271 0.0677,0.0171 0.09645,0 0.04067,-0.0242 0.05579,-0.0907 0.09645,-0.1149 0.01437,-0.009 0.03385,0.009 0.04823,0 0.02033,-0.0122 0.0279,-0.0454 0.04823,-0.0575 0.01437,-0.009 0.03385,0.009 0.04823,0 0.02033,-0.0121 0.0279,-0.0453 0.04823,-0.0575 0.02876,-0.0171 0.0677,0.0171 0.09645,0 0.02033,-0.0122 0.0279,-0.0453 0.04823,-0.0574 0.01437,-0.009 0.03385,0.009 0.04823,0 0.02033,-0.0122 0.0279,-0.0453 0.04823,-0.0575 0.03859,-0.023 0.106101,0.023 0.144686,0 0.02033,-0.0122 0.0279,-0.0453 0.04823,-0.0574 0.03032,-0.0181 0.162605,0.018 0.19292,0 0.02033,-0.0122 0.0279,-0.0453 0.04823,-0.0574 0.01745,-0.0109 0.2076,0 0.241147,0 0.01607,0 0.03686,0.0135 0.04823,0 0.01137,-0.0135 -0.01137,-0.0439 0,-0.0574 0.0021,-0.002 0.218406,0 0.241144,0 0.08039,0 0.160765,0 0.241147,0 0.01607,0 0.03686,0.0135 0.04823,0 0.01137,-0.0135 -0.01137,-0.0439 0,-0.0575 0.02274,-0.0271 0.0677,0.0171 0.09647,0 0.02033,-0.0122 0.0279,-0.0453 0.04823,-0.0574 0.01247,-0.007 0.255189,0 0.289376,0 0.225069,0 0.450138,0 0.67521,0 0.02274,0 0.238959,0.002 0.241144,0 0.01137,-0.0135 -0.01137,-0.0439 0,-0.0574 0.01137,-0.0135 0.03215,0 0.04823,0 0.01607,0 0.03215,0 0.04823,0 0.128612,0 0.257223,0 0.385834,0 0.208993,0 0.417987,0 0.626981,0 0.03419,0 0.276903,-0.007 0.289373,0 0.02033,0.0122 0.0279,0.0454 0.04823,0.0574 0.01437,0.009 0.03686,-0.0135 0.04823,0 0.01137,0.0135 -0.01137,0.0439 0,0.0574 0.02274,0.0271 0.0677,-0.0171 0.09645,0 0.02033,0.0122 0.0279,0.0453 0.04823,0.0575 0.01437,0.009 0.03686,-0.0135 0.04823,0 0.01137,0.0135 -0.01137,0.0439 0,0.0574 0.02412,0.0287 0.120573,-0.0287 0.14469,0 0.01137,0.0135 -0.01137,0.0439 0,0.0574 0.02274,0.0271 0.0677,-0.0171 0.09645,0 0.103197,0.0614 -0.0067,0.0534 0.09645,0.1149 0.01437,0.009 0.03385,-0.009 0.04823,0 0.02033,0.0122 0.0279,0.0454 0.04823,0.0574 0.01437,0.009 0.03686,-0.0135 0.04823,0 0.01137,0.0135 -0.01137,0.0439 0,0.0575 0.01137,0.0135 0.03385,-0.009 0.04823,0 0.04067,0.0242 0.05579,0.0907 0.09645,0.1149 0.01437,0.009 0.03385,-0.009 0.04823,0 0.02033,0.0122 0.0279,0.0453 0.04823,0.0574 0.01437,0.009 0.03686,-0.0135 0.04823,0 0.01137,0.0135 -0.01137,0.0439 0,0.0575 0.02274,0.0271 0.07372,-0.0271 0.09645,0 0.01137,0.0135 -0.01137,0.0439 0,0.0575 0.01137,0.0135 0.03686,-0.0135 0.04823,0 0.01137,0.0135 -0.01137,0.0439 0,0.0574 0.01137,0.0135 0.03686,-0.0135 0.04823,0 0.01137,0.0135 -0.01137,0.0439 0,0.0575 0.01137,0.0135 0.03385,-0.009 0.04823,0 0.02033,0.0122 0.0279,0.0454 0.04823,0.0574 0.01437,0.009 0.03385,-0.009 0.04823,0 0.04067,0.0242 0.05579,0.0907 0.09645,0.11489 0.02876,0.0172 0.07372,-0.0271 0.09645,0 0.01137,0.0135 -0.01137,0.0439 0,0.0575 0.01137,0.0135 0.03385,-0.009 0.04823,0 0.02033,0.0122 0.0279,0.0453 0.04823,0.0574 0.01437,0.009 0.03686,-0.0135 0.04823,0 0.01137,0.0135 -0.01137,0.0439 0,0.0574 0.01137,0.0135 0.03686,-0.0135 0.04823,0 0.01137,0.0135 -0.01137,0.0439 0,0.0574 0.01137,0.0135 0.03686,-0.0135 0.04823,0 0.01137,0.0135 -0.01137,0.0439 0,0.0575 0.02274,0.0271 0.07372,-0.0271 0.09645,0 0.01137,0.0135 -0.01137,0.0439 0,0.0574 0.01137,0.0135 0.03686,-0.0135 0.04823,0 0.01137,0.0135 -0.01137,0.0439 0,0.0575 0.01137,0.0135 0.03686,-0.0135 0.04823,0 0.01137,0.0135 -0.01137,0.0439 0,0.0574 0.01137,0.0135 0.03686,-0.0135 0.04823,0 0.09978,0.11891 -0.15249,-0.005 0.04823,0.11489 0.01437,0.009 0.03686,-0.0135 0.04823,0 0.02274,0.0271 -0.02274,0.0878 0,0.1149 0.01137,0.0135 0.03686,-0.0135 0.04823,0 0.01137,0.0135 -0.01137,0.0439 0,0.0574 0.01137,0.0135 0.03686,-0.0135 0.04823,0 0.03221,0.0384 -0.03221,0.0765 0,0.11489 0.01137,0.0135 0.03686,-0.0135 0.04823,0 0.02274,0.0271 -0.02274,0.0878 0,0.1149 0.01137,0.0135 0.03686,-0.0135 0.04823,0 0.01321,0.0157 -0.01308,0.19862 0,0.22978 0.01021,0.0242 0.03807,0.0332 0.04823,0.0575 0.0096,0.0227 -0.0099,0.16058 0,0.17233 0.01137,0.0135 0.03686,-0.0135 0.04823,0 0.01137,0.0135 0,0.0383 0,0.0574 0,0.0407 -0.0062,0.32981 0,0.34467 0.01011,0.0242 0.03805,0.0332 0.04823,0.0574 0.01308,0.0311 -0.01321,0.21406 0,0.22978 0.01137,0.0135 0.03686,-0.0135 0.04823,0 0.01137,0.0135 0,0.0383 0,0.0575 0,0.0192 0,0.0383 0,0.0575 0,0.19148 0,0.38296 0,0.57444 0,0.0191 0,0.0383 0,0.0574 0,0.0192 -0.01137,0.0439 0,0.0575 0.01137,0.0135 0.03686,-0.0135 0.04823,0 0.01137,0.0135 0,0.0383 0,0.0575 0,0.15319 0,0.30637 0,0.45955 0,0.21063 0,0.42126 0,0.63189 0,0.04 0.0087,0.26645 0,0.28722 -0.01011,0.0242 -0.03807,0.0332 -0.04823,0.0574 -0.01437,0.0343 0.01437,0.0806 0,0.11489 -0.01021,0.0242 -0.03806,0.0332 -0.04823,0.0574 -0.01928,0.046 0.01928,0.12639 0,0.17233 -0.01011,0.0242 -0.03807,0.0332 -0.04823,0.0575 -0.01437,0.0343 0.01436,0.0806 0,0.1149 -0.01021,0.0242 -0.04104,0.0317 -0.04823,0.0574 -0.0074,0.0263 0.01072,0.20423 0,0.22978 -0.01021,0.0242 -0.03807,0.0332 -0.04823,0.0574 -0.01666,0.0396 0.01694,0.26706 0,0.28722 -0.01137,0.0135 -0.03686,-0.0135 -0.04823,0 -0.02274,0.0271 0.01437,0.0806 0,0.11489 -0.01011,0.0242 -0.03805,0.0332 -0.04823,0.0574 -0.01515,0.0361 0.01515,0.19368 0,0.22978 -0.01011,0.0242 -0.03805,0.0332 -0.04823,0.0574 -0.01437,0.0343 0.01437,0.0806 0,0.11489 -0.01021,0.0242 -0.03805,0.0332 -0.04823,0.0575 -0.01515,0.0361 0.01515,0.19367 0,0.22978 -0.01011,0.0242 -0.03807,0.0332 -0.04823,0.0574 -0.0071,0.0171 0.0071,0.0404 0,0.0575 -0.01021,0.0242 -0.04104,0.0317 -0.04823,0.0574 -0.01021,0.0363 0.01011,0.0785 0,0.11489 -0.0071,0.0257 -0.04105,0.0317 -0.04823,0.0575 -0.01011,0.0363 0,0.0766 0,0.1149 0,0.0191 0.0071,0.0404 0,0.0574 -0.01011,0.0242 -0.03807,0.0332 -0.04823,0.0575 -0.01437,0.0343 0.01011,0.0785 0,0.1149 -0.01137,0.0406 -0.03686,0.0743 -0.04823,0.11489 -0.01526,0.0545 0.01526,0.11782 0,0.17234 -0.0071,0.0256 -0.03807,0.0332 -0.04823,0.0574 -0.01529,0.0365 0.01567,0.24992 0,0.28723 -0.01011,0.0242 -0.04104,0.0317 -0.04823,0.0575 -0.02196,0.0784 0.02196,0.26623 0,0.34466 -0.01437,0.0514 -0.08208,0.0635 -0.09645,0.1149 -0.01011,0.0363 0,0.0766 0,0.1149 0,0.0191 0.0071,0.0404 0,0.0574 -0.01011,0.0242 -0.04105,0.0317 -0.04823,0.0575 -0.01599,0.0571 0.0205,0.23841 0,0.28723 -0.0071,0.0171 -0.04104,-0.0171 -0.04823,0 -0.04823,0.1149 0.02412,0.0862 0,0.17233 -0.01137,0.0406 -0.03686,0.0743 -0.04823,0.1149 -0.0051,0.0181 0.01137,0.0439 0,0.0575 -0.01137,0.0135 -0.04104,-0.0172 -0.04823,0 -0.03216,0.0766 0.03216,0.21063 0,0.28721 -0.0071,0.0172 -0.04104,-0.0171 -0.04823,0 -0.01515,0.0361 0.01515,0.19368 0,0.22978 -0.02033,0.0484 -0.07612,0.0664 -0.09645,0.1149 -0.01515,0.0361 0.01515,0.19367 0,0.22977 -0.01011,0.0242 -0.03216,0.0383 -0.04823,0.0575 0,0.0383 0.01011,0.0786 0,0.1149 -0.0071,0.0257 -0.03805,0.0332 -0.04823,0.0574 -0.0071,0.0171 0.0051,0.0393 0,0.0575 -0.01137,0.0406 -0.03686,0.0743 -0.04823,0.11489 -0.0051,0.0181 0.0071,0.0404 0,0.0575 -0.01011,0.0242 -0.04104,0.0317 -0.04823,0.0574 -0.01011,0.0364 0.01011,0.0785 0,0.11489 -0.0071,0.0257 -0.03807,0.0332 -0.04823,0.0575 -0.0071,0.0172 0.0071,0.0404 0,0.0574 -0.01021,0.0242 -0.03806,0.0332 -0.04823,0.0575 -0.01437,0.0343 0.01011,0.0785 0,0.1149 -0.11645,0.41609 0.01391,-0.0906 -0.09646,0.17233 -0.0258,0.0614 0.02579,0.0534 0,0.11489 -0.01011,0.0242 -0.03805,0.0332 -0.04823,0.0575 -0.0096,0.0227 0.0099,0.16059 0,0.17233 -0.09978,0.11891 0.0039,-0.18162 -0.09645,0.0575 -0.01437,0.0343 0.01011,0.0786 0,0.1149 -0.01607,0.0383 -0.03215,0.0766 -0.04823,0.11489 -0.01607,0 -0.03686,-0.0135 -0.04823,0 -0.01137,0.0135 0.0071,0.0404 0,0.0574 -0.01011,0.0242 -0.03807,0.0332 -0.04823,0.0575 -0.0071,0.0171 0,0.0383 0,0.0574 0,0.0383 0.01011,0.0785 0,0.11489 -0.01437,0.0514 -0.07612,0.0664 -0.09646,0.1149 -0.0071,0.0171 0.0071,0.0404 0,0.0574 -0.0258,0.0614 -0.07066,0.0534 -0.09645,0.11489 -0.0071,0.0172 0.0071,0.0404 0,0.0575 -0.01011,0.0242 -0.03807,0.0332 -0.04823,0.0574 -0.0071,0.0171 0.01137,0.0439 0,0.0575 -0.01137,0.0135 -0.03686,-0.0135 -0.04823,0 -0.188227,0.22418 0.01116,0.0309 -0.04823,0.17233 -0.01011,0.0242 -0.03807,0.0332 -0.04823,0.0574 -0.0071,0.0171 0.0071,0.0404 0,0.0574 -0.01011,0.0242 -0.03805,0.0332 -0.04823,0.0575 -0.0071,0.0172 0.01137,0.0439 0,0.0574 -0.01137,0.0135 -0.03686,-0.0135 -0.04823,0 -0.01137,0.0135 0.0071,0.0404 0,0.0575 -0.01011,0.0242 -0.03805,0.0332 -0.04823,0.0575 -0.0071,0.0171 0.0071,0.0404 0,0.0574 -0.01011,0.0242 -0.03807,0.0332 -0.04823,0.0574 -0.01437,0.0343 0.02274,0.0878 0,0.1149 -0.01137,0.0135 -0.03686,-0.0135 -0.04823,0 -0.01137,0.0135 0.01137,0.0439 0,0.0574 -0.01137,0.0135 -0.03686,-0.0135 -0.04823,0 -0.02274,0.0271 0.02274,0.0878 0,0.11489 -0.01137,0.0135 -0.03686,-0.0135 -0.04823,0 -0.02274,0.0271 0.02274,0.0878 0,0.1149 -0.01137,0.0135 -0.03686,-0.0135 -0.04823,0 -0.09979,0.11891 0.15249,-0.005 -0.04823,0.11489 -0.01437,0.009 -0.03686,-0.0135 -0.04823,0 -0.01137,0.0135 0.0071,0.0404 0,0.0574 -0.01011,0.0242 -0.03807,0.0332 -0.04823,0.0574 -0.0071,0.0171 0.01137,0.0439 0,0.0575 -0.01137,0.0135 -0.03686,-0.0135 -0.04823,0 -0.01137,0.0135 0.01137,0.0439 0,0.0574 -0.01137,0.0135 -0.03686,-0.0135 -0.04823,0 -0.01137,0.0135 0.01137,0.0439 0,0.0575 -0.01137,0.0135 -0.03686,-0.0135 -0.04823,0 -0.01137,0.0135 0.01137,0.0439 0,0.0575 -0.01137,0.0135 -0.03686,-0.0135 -0.04823,0 -0.02274,0.0271 0.02274,0.0878 0,0.1149 -0.01137,0.0135 -0.03686,-0.0135 -0.04823,0 -0.01137,0.0135 0.01137,0.0439 0,0.0575 -0.01137,0.0135 -0.03686,-0.0135 -0.04823,0 -0.01137,0.0135 0.01137,0.0439 0,0.0575 -0.01137,0.0135 -0.03686,-0.0135 -0.04823,0 -0.01137,0.0135 0.0071,0.0404 0,0.0574 -0.01021,0.0242 -0.03807,0.0332 -0.04823,0.0575 -0.0071,0.0171 0.01137,0.0439 0,0.0574 -0.01137,0.0135 -0.03686,-0.0135 -0.04823,0 -0.01137,0.0135 0.01137,0.0439 0,0.0574 -0.01137,0.0135 -0.03686,-0.0135 -0.04823,0 -0.02274,0.0271 0.02274,0.0878 0,0.11489 -0.01137,0.0135 -0.03686,-0.0135 -0.04823,0 -0.01137,0.0135 0.01137,0.0439 0,0.0574 -0.01137,0.0135 -0.03686,-0.0135 -0.04823,0 -0.01137,0.0135 0.01137,0.0439 0,0.0574 -0.01137,0.0135 -0.03686,-0.0135 -0.04823,0 -0.01137,0.0135 0.0071,0.0404 0,0.0574 -0.01011,0.0242 -0.03807,0.0332 -0.04823,0.0575 -0.0071,0.0172 0.01137,0.0439 0,0.0574 -0.128995,0.15364 0.03253,-0.15365 -0.09645,0 -0.01137,0.0135 0.01137,0.0439 0,0.0575 -0.01137,0.0135 -0.03686,-0.0135 -0.04823,0 -0.01137,0.0135 0.0071,0.0404 0,0.0574 -0.02034,0.0484 -0.07612,0.0665 -0.09645,0.11489 -0.0071,0.0171 0.01137,0.0439 0,0.0575 -0.01137,0.0135 -0.03686,-0.0135 -0.04823,0 -0.01137,0.0135 0.01137,0.0439 0,0.0574 -0.01137,0.0135 -0.03686,-0.0135 -0.04823,0 -0.128994,0.15364 0.128995,-0.0388 0,0.11489 -0.06431,0.0766 -0.04823,-0.0957 -0.04823,0.0574 -0.0643,0.0574 -0.123985,0.12286 -0.192893,0.17203 -0.0097,0.007 -0.126919,0 -0.144688,0 -0.09645,0 -0.192917,0 -0.289375,0 -0.01608,0 -0.03215,0 -0.04823,0 -0.01608,0 -0.03686,0.0135 -0.04823,0 -0.06431,-0.0766 0.08039,-0.0575 -0.04823,-0.0575 -0.0117,0 -0.143136,0.002 -0.144688,0 -0.01137,-0.0135 0.01137,-0.0439 0,-0.0575 -0.0099,-0.0122 -0.125565,0.0109 -0.144687,0 -0.02033,-0.0122 -0.0279,-0.0453 -0.04823,-0.0574 -0.01438,-0.009 -0.03385,0.009 -0.04823,0 -0.02033,-0.0121 -0.0279,-0.0453 -0.04823,-0.0574 -0.02876,-0.0172 -0.07372,0.0271 -0.09646,0 -0.01137,-0.0135 0.01137,-0.0439 0,-0.0575 -0.01493,-0.0177 -0.226212,0.0178 -0.241146,0 -0.01137,-0.0135 0.01137,-0.0439 0,-0.0574 -0.01137,-0.0135 -0.03216,0 -0.04823,0 -0.08039,0 -0.160764,0 -0.241146,0 -0.01608,0 -0.03686,0.0135 -0.04823,0 -0.01137,-0.0135 0.01137,-0.0439 0,-0.0575 -0.01161,-0.0139 -0.181312,0.0139 -0.192918,0 -0.01137,-0.0135 0.01137,-0.0439 0,-0.0575 -0.01693,-0.0202 -0.207833,0.0198 -0.241146,0 -0.02033,-0.0122 -0.0279,-0.0454 -0.04823,-0.0574 -0.01468,-0.009 -0.122967,0 -0.144687,0 -0.03419,0 -0.276906,0.007 -0.289376,0 -0.02033,-0.0122 -0.0279,-0.0454 -0.04823,-0.0574 -0.03043,-0.0181 -0.210719,0.0181 -0.241146,0 -0.02033,-0.0122 -0.0279,-0.0453 -0.04823,-0.0574 -0.02876,-0.0171 -0.0677,0.0171 -0.09646,0 -0.02033,-0.0122 -0.03215,-0.0383 -0.04823,-0.0575 -0.01608,0 -0.03385,0.009 -0.04823,0 -0.02034,-0.0122 -0.0279,-0.0454 -0.04823,-0.0574 -0.01912,-0.0109 -0.134828,0.0122 -0.144687,0 -0.01137,-0.0135 0.01137,-0.0439 0,-0.0575 -0.02411,-0.0287 -0.120574,0.0287 -0.144688,0 -0.01137,-0.0135 0.01137,-0.0439 0,-0.0574 -0.02273,-0.0271 -0.07372,0.0271 -0.09645,0 -0.01137,-0.0135 0.01137,-0.0439 0,-0.0574 -0.01137,-0.0135 -0.03215,0 -0.04823,0 -0.03215,0 -0.0677,0.0171 -0.09645,0 -0.01438,-0.009 0.01137,-0.0439 0,-0.0574 -0.02411,-0.0287 -0.120574,0.0287 -0.144688,0 -0.01137,-0.0135 0.01137,-0.0439 0,-0.0575 -0.0099,-0.0122 -0.125566,0.0109 -0.144688,0 -0.220727,-0.13145 0.204657,0.0238 -0.144688,-0.1149 -0.07234,-0.0287 -0.04823,0.0574 -0.144688,0 -0.01438,-0.009 0.01137,-0.0439 0,-0.0574 -0.0099,-0.0122 -0.125565,0.0109 -0.144687,0 -0.02033,-0.0122 -0.0279,-0.0453 -0.04823,-0.0575 -0.01438,-0.009 -0.03385,0.009 -0.04823,0 -0.02033,-0.0122 -0.0279,-0.0454 -0.04823,-0.0574 -0.01438,-0.009 -0.03385,0.009 -0.04823,0 -0.02033,-0.0122 -0.0279,-0.0453 -0.04823,-0.0575 -0.01438,-0.009 -0.03385,0.009 -0.04823,0 -0.02033,-0.0122 -0.0279,-0.0453 -0.04823,-0.0575 -0.01912,-0.0109 -0.134828,0.0122 -0.144688,0 -0.01137,-0.0135 0.01137,-0.0439 0,-0.0574 -0.01137,-0.0135 -0.03686,0.0135 -0.04823,0 -0.01137,-0.0135 0,-0.0383 0,-0.0574 -0.09645,-0.0575 -0.192917,-0.11489 -0.289376,-0.17233 z"
       id="path937-8"
       inkscape:connector-curvature="0"
       inkscape:export-filename="D:\Crap\Unity Projects\Jump n RPG\Assets\Sprites\bee.png"
       inkscape:export-xdpi="58.871075"
       inkscape:export-ydpi="58.871075" />
    <ellipse
       style="opacity:1;fill:#ffd42a;fill-opacity:1;stroke:#000000;stroke-width:0.43200001;stroke-miterlimit:4;stroke-dasharray:none;stroke-opacity:1"
       id="path10"
       cx="25.925144"
       cy="270.00577"
       rx="19.377041"
       ry="8.6862593"
       inkscape:export-filename="D:\Crap\Unity Projects\Jump n RPG\Assets\Sprites\bee.png"
       inkscape:export-xdpi="58.871075"
       inkscape:export-ydpi="58.871075" />
    <path
       style="fill:none;stroke:#000000;stroke-width:0.26458332px;stroke-linecap:butt;stroke-linejoin:miter;stroke-opacity:1"
       d="m 14.835565,262.93488 v 14.17411"
       id="path853"
       inkscape:connector-curvature="0"
       inkscape:export-filename="D:\Crap\Unity Projects\Jump n RPG\Assets\Sprites\bee.png"
       inkscape:export-xdpi="58.871075"
       inkscape:export-ydpi="58.871075" />
    <path
       style="fill:none;stroke:#000000;stroke-width:0.26458332px;stroke-linecap:butt;stroke-linejoin:miter;stroke-opacity:1"
       d="m 16.961681,262.27342 v 15.35529"
       id="path855"
       inkscape:connector-curvature="0"
       inkscape:export-filename="D:\Crap\Unity Projects\Jump n RPG\Assets\Sprites\bee.png"
       inkscape:export-xdpi="58.871075"
       inkscape:export-ydpi="58.871075" />
    <path
       style="opacity:1;fill:#000000;fill-opacity:1;stroke:#000000;stroke-width:0.29156354;stroke-miterlimit:4;stroke-dasharray:none;stroke-opacity:1"
       d="m 61.031707,125.39058 c -1.227679,-0.33163 -2.714286,-0.75109 -3.303572,-0.93211 l -1.071428,-0.32913 V 97.99392 71.858504 l 0.714285,-0.250296 c 0.392858,-0.137662 1.799108,-0.532752 3.125,-0.877978 1.325893,-0.345225 2.55134,-0.667968 2.723215,-0.717207 0.296672,-0.08499 0.3125,1.331024 0.3125,27.958222 0,15.426265 -0.06027,28.042025 -0.133929,28.035035 -0.07366,-0.007 -1.138393,-0.28406 -2.366071,-0.6157 z"
       id="path895"
       inkscape:connector-curvature="0"
       transform="matrix(0.26458333,0,0,0.26458333,0,244.08332)"
       inkscape:export-filename="D:\Crap\Unity Projects\Jump n RPG\Assets\Sprites\bee.png"
       inkscape:export-xdpi="58.871075"
       inkscape:export-ydpi="58.871075" />
    <ellipse
       style="opacity:1;fill:#000000;fill-opacity:1;stroke:#000000;stroke-width:0.75011629;stroke-miterlimit:4;stroke-dasharray:none;stroke-opacity:1"
       id="path897"
       cx="11.221169"
       cy="268.88803"
       rx="1.9434345"
       ry="1.6363287"
       inkscape:export-filename="D:\Crap\Unity Projects\Jump n RPG\Assets\Sprites\bee.png"
       inkscape:export-xdpi="58.871075"
       inkscape:export-ydpi="58.871075" />
    <path
       style="fill:none;stroke:#000000;stroke-width:0.26458332px;stroke-linecap:butt;stroke-linejoin:miter;stroke-opacity:1"
       d="m 45.215402,268.51003 4.362656,1.16897"
       id="path899"
       inkscape:connector-curvature="0"
       inkscape:export-filename="D:\Crap\Unity Projects\Jump n RPG\Assets\Sprites\bee.png"
       inkscape:export-xdpi="58.871075"
       inkscape:export-ydpi="58.871075" />
    <path
       style="fill:none;stroke:#000000;stroke-width:0.26458332px;stroke-linecap:butt;stroke-linejoin:miter;stroke-opacity:1"
       d="m 49.578058,269.679 -4.386902,1.17547"
       id="path909"
       inkscape:connector-curvature="0"
       inkscape:export-filename="D:\Crap\Unity Projects\Jump n RPG\Assets\Sprites\bee.png"
       inkscape:export-xdpi="58.871075"
       inkscape:export-ydpi="58.871075" />
    <path
       style="opacity:1;fill:#000000;fill-opacity:1;stroke:#000000;stroke-width:0.29156354;stroke-miterlimit:4;stroke-dasharray:none;stroke-opacity:1"
       d="m 172.00325,97.820441 c -0.007,-1.677053 -0.10159,-2.755005 -0.30522,-3.490275 -0.16204,-0.585105 -0.25938,-1.099068 -0.21631,-1.142142 0.10138,-0.101371 13.29999,3.424177 13.29999,3.552627 0,0.05349 -1.90849,0.606773 -4.24107,1.229516 -2.33259,0.622743 -5.20536,1.389763 -6.38393,1.70449 l -2.14286,0.572233 z"
       id="path911"
       inkscape:connector-curvature="0"
       transform="matrix(0.26458333,0,0,0.26458333,0,244.08332)"
       inkscape:export-filename="D:\Crap\Unity Projects\Jump n RPG\Assets\Sprites\bee.png"
       inkscape:export-xdpi="58.871075"
       inkscape:export-ydpi="58.871075" />
    <path
       style="fill:none;stroke:#000000;stroke-width:0.26458332px;stroke-linecap:butt;stroke-linejoin:miter;stroke-opacity:1"
       d="m 20.977678,261.65921 v 16.72545"
       id="path913"
       inkscape:connector-curvature="0"
       inkscape:export-filename="D:\Crap\Unity Projects\Jump n RPG\Assets\Sprites\bee.png"
       inkscape:export-xdpi="58.871075"
       inkscape:export-ydpi="58.871075" />
    <path
       style="fill:none;stroke:#000000;stroke-width:0.26458332px;stroke-linecap:butt;stroke-linejoin:miter;stroke-opacity:1"
       d="m 23.387276,261.42298 v 17.19791"
       id="path915"
       inkscape:connector-curvature="0"
       inkscape:export-filename="D:\Crap\Unity Projects\Jump n RPG\Assets\Sprites\bee.png"
       inkscape:export-xdpi="58.871075"
       inkscape:export-ydpi="58.871075" />
    <path
       style="opacity:1;fill:#000000;fill-opacity:1;stroke:#000000;stroke-width:0.29156354;stroke-miterlimit:4;stroke-dasharray:none;stroke-opacity:1"
       d="m 86.031707,129.47308 c -0.34375,-0.0331 -1.549107,-0.14377 -2.678572,-0.24592 -1.129464,-0.10215 -2.395089,-0.23204 -2.8125,-0.28865 l -0.758928,-0.10293 V 97.973945 67.112305 l 0.758928,-0.100011 c 0.916602,-0.120788 3.784759,-0.395659 5.803572,-0.556186 l 1.473214,-0.117144 v 31.625729 31.625727 l -0.580357,-0.0286 c -0.319196,-0.0157 -0.861607,-0.0557 -1.205357,-0.0888 z"
       id="path917"
       inkscape:connector-curvature="0"
       transform="matrix(0.26458333,0,0,0.26458333,0,244.08332)"
       inkscape:export-filename="D:\Crap\Unity Projects\Jump n RPG\Assets\Sprites\bee.png"
       inkscape:export-xdpi="58.871075"
       inkscape:export-ydpi="58.871075" />
    <path
       style="fill:none;stroke:#000000;stroke-width:0.26458332px;stroke-linecap:butt;stroke-linejoin:miter;stroke-opacity:1"
       d="m 26.411086,261.28124 v 17.43415"
       id="path919"
       inkscape:connector-curvature="0"
       inkscape:export-filename="D:\Crap\Unity Projects\Jump n RPG\Assets\Sprites\bee.png"
       inkscape:export-xdpi="58.871075"
       inkscape:export-ydpi="58.871075" />
    <path
       style="fill:none;stroke:#000000;stroke-width:0.26458332px;stroke-linecap:butt;stroke-linejoin:miter;stroke-opacity:1"
       d="M 28.678944,261.32848 V 278.5264"
       id="path921"
       inkscape:connector-curvature="0"
       inkscape:export-filename="D:\Crap\Unity Projects\Jump n RPG\Assets\Sprites\bee.png"
       inkscape:export-xdpi="58.871075"
       inkscape:export-ydpi="58.871075" />
    <path
       style="fill:none;stroke:#000000;stroke-width:0.26458332px;stroke-linecap:butt;stroke-linejoin:miter;stroke-opacity:1"
       d="m 32.411458,261.75371 v 16.44196"
       id="path923"
       inkscape:connector-curvature="0"
       inkscape:export-filename="D:\Crap\Unity Projects\Jump n RPG\Assets\Sprites\bee.png"
       inkscape:export-xdpi="58.871075"
       inkscape:export-ydpi="58.871075" />
    <path
       style="fill:none;stroke:#000000;stroke-width:0.26458332px;stroke-linecap:butt;stroke-linejoin:miter;stroke-opacity:1"
       d="m 34.017857,262.17893 v 15.7805"
       id="path925"
       inkscape:connector-curvature="0"
       inkscape:export-filename="D:\Crap\Unity Projects\Jump n RPG\Assets\Sprites\bee.png"
       inkscape:export-xdpi="58.871075"
       inkscape:export-ydpi="58.871075" />
    <path
       style="fill:none;stroke:#000000;stroke-width:0.26458332px;stroke-linecap:butt;stroke-linejoin:miter;stroke-opacity:1"
       d="m 36.899926,262.84039 v 14.22135"
       id="path927"
       inkscape:connector-curvature="0"
       inkscape:export-filename="D:\Crap\Unity Projects\Jump n RPG\Assets\Sprites\bee.png"
       inkscape:export-xdpi="58.871075"
       inkscape:export-ydpi="58.871075" />
    <path
       style="fill:none;stroke:#000000;stroke-width:0.26458332px;stroke-linecap:butt;stroke-linejoin:miter;stroke-opacity:1"
       d="m 38.931548,263.50185 v 12.89843"
       id="path929"
       inkscape:connector-curvature="0"
       inkscape:export-filename="D:\Crap\Unity Projects\Jump n RPG\Assets\Sprites\bee.png"
       inkscape:export-xdpi="58.871075"
       inkscape:export-ydpi="58.871075" />
    <path
       style="opacity:1;fill:#000000;fill-opacity:1;stroke:#000000;stroke-width:0.29156354;stroke-miterlimit:4;stroke-dasharray:none;stroke-opacity:1"
       d="M 100.31742,97.975361 V 65.997498 l 2.63393,0.106131 c 1.44866,0.05837 3.13616,0.149962 3.75,0.203533 l 1.11607,0.0974 v 31.576899 31.576899 l -1.47321,0.0992 c -0.81027,0.0545 -2.49777,0.14339 -3.75,0.19743 l -2.27679,0.0983 z"
       id="path931"
       inkscape:connector-curvature="0"
       transform="matrix(0.26458333,0,0,0.26458333,0,244.08332)"
       inkscape:export-filename="D:\Crap\Unity Projects\Jump n RPG\Assets\Sprites\bee.png"
       inkscape:export-xdpi="58.871075"
       inkscape:export-ydpi="58.871075" />
    <path
       style="opacity:1;fill:#000000;fill-opacity:1;stroke:#000000;stroke-width:0.29156354;stroke-miterlimit:4;stroke-dasharray:none;stroke-opacity:1"
       d="m 122.99599,97.983172 v -29.95265 l 2.36607,0.418245 c 1.30134,0.230035 2.42634,0.420298 2.5,0.422807 0.0737,0.0025 0.13393,13.092506 0.13393,29.088882 v 29.084324 l -0.66964,0.10892 c -0.3683,0.0599 -1.4933,0.26039 -2.5,0.44552 l -1.83036,0.3366 z"
       id="path933"
       inkscape:connector-curvature="0"
       transform="matrix(0.26458333,0,0,0.26458333,0,244.08332)"
       inkscape:export-filename="D:\Crap\Unity Projects\Jump n RPG\Assets\Sprites\bee.png"
       inkscape:export-xdpi="58.871075"
       inkscape:export-ydpi="58.871075" />
    <path
       style="opacity:1;fill:#000000;fill-opacity:1;stroke:#000000;stroke-width:0.29156354;stroke-miterlimit:4;stroke-dasharray:none;stroke-opacity:1"
       d="M 139.96028,97.967322 V 72.051705 l 0.48624,0.122039 c 0.51783,0.129967 4.5683,1.577214 5.54054,1.979655 l 0.58036,0.240228 v 23.584959 23.584964 l -0.49107,0.1953 c -1.20798,0.48041 -5.18116,1.8962 -5.625,2.00439 l -0.49107,0.1197 z"
       id="path935"
       inkscape:connector-curvature="0"
       transform="matrix(0.26458333,0,0,0.26458333,0,244.08332)"
       inkscape:export-filename="D:\Crap\Unity Projects\Jump n RPG\Assets\Sprites\bee.png"
       inkscape:export-xdpi="58.871075"
       inkscape:export-ydpi="58.871075" />
    <path
       style="fill:#f9f9f9;fill-opacity:1;stroke:#000000;stroke-width:0.29475898px;stroke-linecap:butt;stroke-linejoin:miter;stroke-opacity:1"
       d="m 24.837548,268.31028 c 0.02539,-0.0723 0.06626,-0.14152 0.07617,-0.21679 0.0025,-0.0188 -0.03925,5.2e-4 -0.0455,-0.016 -0.0013,-0.003 0.08624,-0.24543 0.09522,-0.27099 0.0063,-0.018 0.02528,-0.0377 0.01903,-0.0542 -0.0063,-0.0165 -0.03925,5.2e-4 -0.0455,-0.016 -0.01246,-0.0331 0.04029,-0.0713 0.03809,-0.10839 -0.0016,-0.0262 -0.0249,-0.0439 -0.02647,-0.0702 -0.0015,-0.0246 0.06258,-0.14823 0.05713,-0.16259 -0.0063,-0.0165 -0.03925,5.2e-4 -0.0455,-0.016 -0.0063,-0.017 0.08254,-0.19989 0.07617,-0.21678 -0.0063,-0.0165 -0.03925,5.2e-4 -0.0455,-0.016 -0.01246,-0.0331 0.04029,-0.0713 0.03809,-0.1084 -0.0016,-0.0262 -0.0249,-0.0439 -0.02647,-0.0701 -0.0022,-0.0371 0.04029,-0.0713 0.03809,-0.10839 -0.0016,-0.0262 -0.02491,-0.0439 -0.02644,-0.0702 -0.0022,-0.0371 0.04029,-0.0713 0.03809,-0.1084 -0.0016,-0.0262 -0.0249,-0.0439 -0.02648,-0.0702 -0.0015,-0.0246 0.06258,-0.14822 0.05713,-0.16259 -0.0063,-0.0165 -0.03925,5.2e-4 -0.0455,-0.016 -0.01246,-0.0331 0.04029,-0.0713 0.03809,-0.10839 -0.0016,-0.0262 -0.0249,-0.0439 -0.02644,-0.0702 -0.0022,-0.0371 0.04029,-0.0713 0.03809,-0.1084 -0.0016,-0.0262 -0.0249,-0.0439 -0.02644,-0.0702 -0.0015,-0.0246 0.06257,-0.14822 0.05713,-0.16259 -0.0063,-0.0165 -0.03925,5.2e-4 -0.0455,-0.016 -0.0053,-0.0148 0.05864,-0.13792 0.05713,-0.16259 -0.0031,-0.0524 -0.0498,-0.0879 -0.05291,-0.14037 -0.0026,-0.0429 0.104495,-0.24635 0.09521,-0.27098 -0.0063,-0.0165 -0.03925,5.2e-4 -0.0455,-0.016 -0.01246,-0.0331 0.05055,-0.0753 0.03809,-0.10841 -0.0063,-0.0165 -0.03925,5.2e-4 -0.0455,-0.016 -0.0093,-0.0247 0.09778,-0.22801 0.09521,-0.27096 -0.0016,-0.0262 -0.0249,-0.0439 -0.02644,-0.0702 -0.001,-0.0185 0.02528,-0.0377 0.01903,-0.0542 -0.0063,-0.0165 -0.03925,5.2e-4 -0.0455,-0.016 -0.0072,-0.0192 0.07819,-0.18305 0.07617,-0.21679 -0.0016,-0.0262 -0.0249,-0.0439 -0.02648,-0.0701 -0.0023,-0.0378 0.116516,-0.28741 0.114257,-0.32517 -0.0016,-0.0262 -0.0249,-0.0439 -0.02644,-0.0702 -0.0029,-0.0498 0.06009,-0.11283 0.05713,-0.16259 -0.0016,-0.0262 -0.0249,-0.0439 -0.02644,-0.0702 -0.001,-0.0185 0.02528,-0.0376 0.01903,-0.0542 -0.0063,-0.0165 -0.03925,5.2e-4 -0.0455,-0.016 -0.0063,-0.0165 0.0127,-0.0361 0.01906,-0.0542 0.0075,-0.0214 0.0968,-0.24444 0.09522,-0.27099 -0.0016,-0.0262 -0.0249,-0.0439 -0.02647,-0.0702 -0.003,-0.0498 0.0601,-0.11284 0.05713,-0.16258 -0.0016,-0.0262 -0.02821,-0.0435 -0.02648,-0.0701 0.0021,-0.0329 0.09508,-0.2706 0.114257,-0.32517 0.0064,-0.0181 0.02009,-0.0358 0.01906,-0.0542 -0.0016,-0.0262 -0.02491,-0.0439 -0.02644,-0.0702 -0.001,-0.0185 0.0127,-0.0361 0.01903,-0.0541 0.03176,-0.0904 0.06348,-0.18067 0.09522,-0.271 0.0063,-0.018 0.0127,-0.0361 0.01903,-0.0542 0.0063,-0.018 0.02009,-0.0358 0.01903,-0.0541 -0.0016,-0.0262 -0.02821,-0.0435 -0.02644,-0.0702 0.0037,-0.0565 0.03809,-0.10839 0.05713,-0.16258 0.04443,-0.12645 0.08887,-0.25292 0.133302,-0.37937 0.120609,-0.34325 0.241214,-0.68649 0.361819,-1.02973 0.007,-0.02 0.07362,-0.21523 0.07617,-0.21678 0.0152,-0.009 0.0303,0.0249 0.0455,0.016 0.03043,-0.018 0.01315,-0.0808 0.03809,-0.1084 0.01765,-0.0194 0.04692,-0.0187 0.06453,-0.0382 0.02494,-0.0276 0.01315,-0.0808 0.03809,-0.10841 0.01765,-0.0194 0.04691,-0.0187 0.06453,-0.0382 0.01658,-0.0182 0.0439,-0.1548 0.05713,-0.1626 0.0152,-0.009 0.0303,0.025 0.0455,0.016 0.0152,-0.009 0.0067,-0.0405 0.01903,-0.0541 0.01765,-0.0195 0.04691,-0.0187 0.06453,-0.0382 0.02494,-0.0276 0.0077,-0.0904 0.03809,-0.10839 0.0152,-0.009 0.0303,0.0249 0.0455,0.016 0.03227,-0.0191 0.02486,-0.14349 0.05713,-0.16259 0.0152,-0.009 0.0303,0.025 0.0455,0.016 0.03043,-0.018 0.01315,-0.0808 0.03809,-0.1084 0.191275,-0.21145 -0.09967,0.22335 0.148125,-0.13061 0.01081,-0.0154 0.0127,-0.0361 0.01906,-0.0542 0.0215,-0.0127 0.04692,-0.0187 0.06453,-0.0382 0.02494,-0.0276 0.0077,-0.0904 0.03809,-0.10839 0.133527,-0.079 -0.06389,0.17007 0.110025,-0.0222 0.02494,-0.0276 0.0077,-0.0904 0.03809,-0.1084 0.0152,-0.009 0.0303,0.0249 0.0455,0.016 0.03043,-0.018 0.01315,-0.0808 0.03809,-0.10839 0.104154,-0.11515 0.02492,0.0387 0.129086,-0.0764 0.01237,-0.0138 0.0038,-0.0452 0.01903,-0.0541 0.0152,-0.009 0.0303,0.0249 0.0455,0.016 0.03043,-0.018 0.01315,-0.0808 0.03809,-0.1084 0.214071,-0.12672 -0.03941,0.0436 0.08359,-0.0924 0.01766,-0.0195 0.04692,-0.0187 0.06453,-0.0382 0.01237,-0.0138 0.0067,-0.0405 0.01906,-0.0543 0.01766,-0.0194 0.04134,-0.0335 0.06453,-0.0382 0.01655,-0.004 0.03305,0.0297 0.0455,0.016 0.02494,-0.0276 0.02539,-0.0723 0.03809,-0.10841 0.0063,-0.018 0.0038,-0.0452 0.01903,-0.0541 0.0152,-0.009 0.0303,0.025 0.0455,0.016 0.0152,-0.009 0.0038,-0.0452 0.01903,-0.0542 0.0152,-0.009 0.03305,0.0297 0.0455,0.016 0.02494,-0.0276 0.01639,-0.0774 0.03809,-0.1084 0.03057,-0.0436 0.09383,-0.0374 0.129083,-0.0764 0.02494,-0.0276 0.01315,-0.0808 0.03809,-0.1084 0.01765,-0.0195 0.04691,-0.0187 0.06456,-0.0383 0.01237,-0.0138 0.0067,-0.0405 0.01906,-0.0543 0.03524,-0.0389 0.09383,-0.0374 0.129092,-0.0764 0.02494,-0.0276 0.01315,-0.0808 0.03809,-0.1084 0.01766,-0.0195 0.04691,-0.0187 0.06453,-0.0382 0.02494,-0.0276 0.01315,-0.0808 0.03809,-0.1084 0.173933,-0.19228 -0.02356,0.0568 0.110025,-0.0222 0.03043,-0.018 0.0077,-0.0904 0.03809,-0.1084 0.0152,-0.009 0.0303,0.0249 0.0455,0.016 0.03043,-0.018 0.01315,-0.0808 0.03809,-0.1084 0.01766,-0.0194 0.04691,-0.0187 0.06456,-0.0383 0.02494,-0.0276 0.0077,-0.0904 0.03809,-0.1084 0.0152,-0.009 0.0303,0.025 0.0455,0.016 0.0152,-0.009 0.0038,-0.0452 0.01906,-0.0543 0.133564,-0.0791 -0.06389,0.17007 0.110067,-0.0223 0.0124,-0.0139 0.0067,-0.0405 0.01903,-0.0541 0.01765,-0.0195 0.04691,-0.0187 0.06456,-0.0383 0.01237,-0.0138 0.0038,-0.0452 0.01903,-0.0542 0.0152,-0.009 0.0303,0.025 0.0455,0.016 0.133567,-0.0791 -0.145523,-0.0458 0.08359,-0.0924 0.01655,-0.004 0.0303,0.0249 0.0455,0.016 0.0152,-0.009 0.0067,-0.0405 0.01906,-0.0542 0.01766,-0.0195 0.04691,-0.0187 0.06453,-0.0382 0.01237,-0.0138 0.0067,-0.0405 0.01903,-0.0541 0.01765,-0.0195 0.04691,-0.0187 0.06453,-0.0382 0.0124,-0.0139 0.0038,-0.0452 0.01906,-0.0543 0.0152,-0.009 0.0303,0.025 0.0455,0.016 0.0152,-0.009 0.0038,-0.0452 0.01903,-0.0541 0.0152,-0.009 0.0303,0.0249 0.0455,0.016 0.03043,-0.018 0.01315,-0.0808 0.03809,-0.1084 0.01765,-0.0195 0.04691,-0.0187 0.06456,-0.0383 0.0124,-0.0139 0.0067,-0.0405 0.01903,-0.0541 0.21407,-0.12672 -0.03938,0.0435 0.08359,-0.0924 0.03523,-0.0389 0.09383,-0.0374 0.129083,-0.0764 0.0124,-0.0139 0.0038,-0.0452 0.01906,-0.0543 0.0152,-0.009 0.0303,0.025 0.0455,0.016 0.03043,-0.018 0.0077,-0.0904 0.03809,-0.10841 0.0152,-0.009 0.0303,0.025 0.0455,0.016 0.0152,-0.009 0.0038,-0.0452 0.01906,-0.0543 0.0152,-0.009 0.0303,0.025 0.0455,0.016 0.0152,-0.009 0.0038,-0.0452 0.01903,-0.0542 0.0152,-0.009 0.0303,0.025 0.0455,0.016 0.03044,-0.018 0.0077,-0.0904 0.03809,-0.10839 0.0152,-0.009 0.0303,0.025 0.0455,0.016 0.0152,-0.009 0.0038,-0.0452 0.01906,-0.0542 0.0152,-0.009 0.0303,0.025 0.0455,0.016 0.0152,-0.009 0.0038,-0.0452 0.01903,-0.0542 0.0152,-0.009 0.0303,0.025 0.0455,0.016 0.133566,-0.0791 -0.145525,-0.0458 0.08359,-0.0924 0.01654,-0.004 0.0303,0.0249 0.0455,0.016 0.0152,-0.009 0.0038,-0.0452 0.01903,-0.0542 0.0152,-0.009 0.02895,0.0197 0.0455,0.016 0.06601,-0.0133 0.12761,-0.1013 0.193637,-0.11463 0.01654,-0.004 0.02895,0.0197 0.0455,0.016 0.02323,-0.005 0.04134,-0.0335 0.06453,-0.0382 0.01654,-0.004 0.02895,0.0197 0.0455,0.016 0.02323,-0.005 0.04134,-0.0335 0.06453,-0.0382 0.01654,-0.004 0.02895,0.0197 0.0455,0.016 0.228986,-0.0462 -0.04997,-0.0133 0.08359,-0.0924 0.03044,-0.018 0.0582,0.0386 0.09101,0.032 0.228989,-0.0462 -0.04997,-0.0133 0.08359,-0.0924 0.03044,-0.018 0.0582,0.0386 0.091,0.032 0.04639,-0.009 0.0827,-0.0671 0.129087,-0.0764 0.01654,-0.004 0.02895,0.0197 0.0455,0.016 0.02323,-0.005 0.04137,-0.0336 0.06457,-0.0383 0.01654,-0.004 0.02895,0.0197 0.0455,0.016 0.02319,-0.005 0.04134,-0.0335 0.06457,-0.0383 0.0328,-0.007 0.0582,0.0386 0.091,0.032 0.02323,-0.005 0.04134,-0.0335 0.06453,-0.0382 0.01654,-0.004 0.02895,0.0197 0.0455,0.016 0.02322,-0.005 0.04134,-0.0335 0.06456,-0.0383 0.04403,-0.009 0.09248,0.0569 0.136505,0.048 0.02323,-0.005 0.04134,-0.0335 0.06453,-0.0382 0.0346,-0.007 0.147443,0.0709 0.18201,0.064 0.02322,-0.005 0.04134,-0.0335 0.06453,-0.0382 0.02008,-0.005 0.195861,0.0688 0.227511,0.0799 0.01516,0.005 0.0303,0.025 0.0455,0.016 0.0152,-0.009 0.0038,-0.0452 0.01903,-0.0541 0.0026,-0.001 0.206056,0.0724 0.227508,0.0799 0.07584,0.0267 0.151674,0.0533 0.227511,0.0799 0.01516,0.005 0.0303,0.025 0.0455,0.016 0.0152,-0.009 0.0038,-0.0452 0.01906,-0.0542 0.03044,-0.018 0.0582,0.0386 0.09101,0.032 0.02322,-0.005 0.04134,-0.0335 0.06453,-0.0382 0.01409,-0.002 0.240759,0.0846 0.273013,0.0959 0.212342,0.0746 0.424684,0.14922 0.637029,0.22383 0.02145,0.008 0.224783,0.0811 0.227508,0.0799 0.0152,-0.009 0.0038,-0.0452 0.01903,-0.0541 0.0152,-0.009 0.03033,0.0107 0.0455,0.016 0.01516,0.005 0.03033,0.0107 0.0455,0.016 0.121339,0.0426 0.242678,0.0853 0.364016,0.1279 0.197175,0.0693 0.394351,0.13857 0.591527,0.20786 0.03226,0.0113 0.263566,0.0852 0.27301,0.0959 0.01514,0.0182 0.01127,0.0521 0.02647,0.0701 0.01057,0.0133 0.03925,-5.2e-4 0.0455,0.016 0.0063,0.0165 -0.02528,0.0377 -0.01903,0.0541 0.01247,0.0331 0.06954,0.006 0.091,0.032 0.01514,0.0182 0.01131,0.052 0.02644,0.0702 0.01057,0.0132 0.03925,-5.2e-4 0.0455,0.016 0.0063,0.0165 -0.02528,0.0377 -0.01903,0.0542 0.01324,0.0351 0.123269,0.0129 0.136508,0.048 0.0063,0.0165 -0.02528,0.0376 -0.01903,0.0542 0.01247,0.0331 0.06954,0.006 0.091,0.032 0.07701,0.0921 -0.02402,0.0482 0.05291,0.14038 0.01057,0.0132 0.03492,0.003 0.0455,0.016 0.01514,0.0183 0.01127,0.0521 0.02647,0.0701 0.01057,0.0133 0.03925,-5.2e-4 0.0455,0.016 0.0063,0.0165 -0.02528,0.0376 -0.01906,0.0542 0.0063,0.0165 0.03492,0.003 0.0455,0.016 0.03035,0.0363 0.02257,0.10406 0.05291,0.14037 0.01057,0.0133 0.03492,0.003 0.0455,0.016 0.01514,0.0183 0.01131,0.052 0.02647,0.0701 0.01057,0.0133 0.03925,-5.1e-4 0.0455,0.016 0.0063,0.0165 -0.02528,0.0376 -0.01906,0.0542 0.01247,0.0331 0.07853,-10e-4 0.091,0.032 0.0063,0.0165 -0.02528,0.0377 -0.01906,0.0543 0.0063,0.0165 0.03925,-5.1e-4 0.0455,0.016 0.0063,0.0165 -0.02528,0.0376 -0.01903,0.0542 0.0063,0.0165 0.03925,-5.2e-4 0.0455,0.016 0.0063,0.0165 -0.02528,0.0377 -0.01906,0.0543 0.0063,0.0165 0.03492,0.003 0.0455,0.016 0.01514,0.0183 0.01127,0.0521 0.02648,0.0701 0.01057,0.0133 0.03492,0.003 0.0455,0.016 0.03035,0.0363 0.02257,0.10407 0.05291,0.14037 0.02143,0.0258 0.07854,-0.001 0.091,0.032 0.0063,0.0165 -0.02528,0.0377 -0.01906,0.0543 0.0063,0.0165 0.03492,0.003 0.0455,0.016 0.01514,0.0183 0.01131,0.052 0.02647,0.0701 0.01057,0.0133 0.03925,-5.1e-4 0.0455,0.016 0.0063,0.0165 -0.02528,0.0376 -0.01903,0.0542 0.0063,0.0165 0.03925,-5.2e-4 0.0455,0.016 0.0063,0.0165 -0.02528,0.0376 -0.01903,0.0542 0.0063,0.0165 0.03925,-5.2e-4 0.0455,0.016 0.0063,0.0165 -0.02528,0.0376 -0.01906,0.0542 0.01247,0.0331 0.07854,-0.001 0.091,0.032 0.0063,0.0165 -0.02528,0.0377 -0.01903,0.0542 0.0063,0.0165 0.03925,-5.1e-4 0.0455,0.016 0.0063,0.0165 -0.02528,0.0376 -0.01906,0.0542 0.0063,0.0165 0.03925,-5.2e-4 0.0455,0.016 0.0063,0.0165 -0.02528,0.0376 -0.01903,0.0541 0.0063,0.0165 0.03925,-5.1e-4 0.0455,0.016 0.05472,0.14527 -0.14221,-0.0553 0.0074,0.12438 0.01057,0.0133 0.03925,-5.1e-4 0.0455,0.016 0.01247,0.0331 -0.05056,0.0753 -0.03809,0.10841 0.0063,0.0165 0.03925,-5.2e-4 0.0455,0.016 0.0063,0.0165 -0.02528,0.0376 -0.01903,0.0542 0.0063,0.0165 0.03925,-5.2e-4 0.0455,0.016 0.01766,0.0469 -0.05575,0.0615 -0.03809,0.10839 0.0063,0.0165 0.03925,-5.2e-4 0.0455,0.016 0.01247,0.0331 -0.05056,0.0753 -0.03809,0.1084 0.0063,0.0165 0.03925,-5.2e-4 0.0455,0.016 0.0073,0.0192 -0.07818,0.18305 -0.07617,0.21679 0.0016,0.0262 0.02491,0.0439 0.02644,0.0702 0.0015,0.0246 -0.06257,0.14822 -0.05713,0.16259 0.0063,0.0165 0.03925,-5.2e-4 0.0455,0.016 0.0063,0.0165 -0.0127,0.0361 -0.01903,0.0541 -0.01349,0.0384 -0.115183,0.30911 -0.11426,0.32518 0.0015,0.0262 0.02489,0.0439 0.02647,0.0701 0.002,0.0337 -0.08342,0.19758 -0.07617,0.21679 0.0063,0.0165 0.03925,-5.2e-4 0.0455,0.016 0.0063,0.0165 -0.0127,0.0361 -0.01906,0.0542 -0.0064,0.0181 -0.0127,0.0361 -0.01906,0.0543 -0.06348,0.18065 -0.126953,0.3613 -0.19043,0.54195 -0.0063,0.018 -0.0127,0.0361 -0.01903,0.0542 -0.0064,0.0181 -0.02528,0.0376 -0.01906,0.0542 0.0063,0.0165 0.03925,-5.2e-4 0.0455,0.016 0.0063,0.0165 -0.0127,0.0361 -0.01906,0.0542 -0.05078,0.14453 -0.101564,0.28905 -0.152344,0.43357 -0.06983,0.19872 -0.13965,0.39744 -0.209475,0.59616 -0.01326,0.0377 -0.08012,0.25427 -0.09522,0.27098 -0.01756,0.0195 -0.04692,0.0187 -0.06453,0.0382 -0.02493,0.0276 -0.01316,0.0808 -0.03809,0.10839 -0.01765,0.0195 -0.04691,0.0187 -0.06453,0.0382 -0.03344,0.037 -0.02371,0.12563 -0.05713,0.16258 -0.01756,0.0195 -0.04692,0.0187 -0.06457,0.0383 -0.02493,0.0276 -0.01317,0.0808 -0.03809,0.10841 -0.01765,0.0194 -0.04923,0.0163 -0.06453,0.0382 -0.0157,0.0224 -0.05759,0.19624 -0.07617,0.21679 -0.01766,0.0195 -0.04692,0.0187 -0.06453,0.0382 -0.02885,0.0318 -0.07255,0.25758 -0.09522,0.27098 -0.0152,0.009 -0.0303,-0.025 -0.0455,-0.016 -0.03044,0.018 -0.01316,0.0808 -0.03809,0.1084 -0.01756,0.0195 -0.04691,0.0187 -0.06453,0.0382 -0.02626,0.029 -0.04991,0.18775 -0.07617,0.21679 -0.01756,0.0195 -0.0469,0.0187 -0.06453,0.0382 -0.02493,0.0276 -0.01316,0.0808 -0.03809,0.10839 -0.01765,0.0195 -0.0469,0.0187 -0.06456,0.0383 -0.02626,0.029 -0.04991,0.18774 -0.07617,0.21679 -0.01756,0.0195 -0.04692,0.0187 -0.06453,0.0382 -0.01237,0.0138 -0.0067,0.0405 -0.01906,0.0542 -0.01765,0.0195 -0.04923,0.0163 -0.06453,0.0382 -0.02167,0.0309 -0.01648,0.0774 -0.03809,0.10839 -0.01522,0.0219 -0.04924,0.0163 -0.06456,0.0383 -0.02157,0.0309 -0.02539,0.0723 -0.03809,0.1084 -0.0063,0.018 -0.0067,0.0405 -0.01903,0.0542 -0.01756,0.0195 -0.04692,0.0187 -0.06457,0.0383 -0.02493,0.0276 -0.01648,0.0774 -0.03809,0.1084 -0.02419,0.0345 -0.05941,0.0579 -0.08359,0.0924 -0.03246,0.0464 -0.02466,0.11622 -0.05713,0.1626 -0.01519,0.0218 -0.04692,0.0187 -0.06453,0.0382 -0.02653,0.0294 -0.06807,0.24099 -0.09522,0.27099 -0.01756,0.0195 -0.04923,0.0163 -0.06456,0.0383 -0.04671,0.0667 -0.06754,0.25846 -0.114257,0.32517 -0.0306,0.0437 -0.09849,0.0327 -0.129086,0.0764 -0.02157,0.0309 -0.02539,0.0723 -0.03809,0.1084 -0.0063,0.018 -0.0067,0.0405 -0.01903,0.0542 -0.01756,0.0195 -0.04924,0.0163 -0.06456,0.0383 -0.03402,0.0486 -0.05969,0.23172 -0.09522,0.27099 -0.01237,0.0138 -0.03305,-0.0297 -0.0455,-0.016 -0.08359,0.0924 -0.0058,0.0893 -0.05713,0.16258 -0.02419,0.0345 -0.05941,0.0579 -0.08359,0.0924 -0.01081,0.0154 -0.0038,0.0452 -0.01906,0.0543 -0.0152,0.009 -0.03302,-0.0298 -0.0455,-0.016 -0.05573,0.0616 -0.03948,0.20938 -0.09521,0.27097 -0.0124,0.0139 -0.03305,-0.0297 -0.0455,-0.016 -0.02626,0.029 -0.04991,0.18775 -0.07617,0.21678 -0.03523,0.0389 -0.09383,0.0374 -0.129086,0.0764 -0.02626,0.029 -0.04991,0.18774 -0.07617,0.21678 -0.01756,0.0195 -0.04304,0.0255 -0.06456,0.0383 -0.0127,0.0361 -0.01652,0.0775 -0.03809,0.1084 -0.01522,0.0219 -0.0469,0.0187 -0.06453,0.0382 -0.01237,0.0138 -0.0082,0.0388 -0.01906,0.0543 -0.02419,0.0345 -0.05941,0.0579 -0.08359,0.0924 -0.01081,0.0154 -0.0067,0.0405 -0.01906,0.0542 -0.01756,0.0195 -0.04923,0.0163 -0.06453,0.0382 -0.02161,0.031 -0.01649,0.0774 -0.03809,0.10839 -0.01522,0.0219 -0.04692,0.0187 -0.06456,0.0383 -0.0124,0.0139 -0.0067,0.0405 -0.01903,0.0541 -0.01765,0.0195 -0.04691,0.0187 -0.06456,0.0383 -0.02493,0.0276 -0.01649,0.0774 -0.03809,0.10841 -0.247802,0.35395 0.04316,-0.0809 -0.148134,0.13061 -0.0447,0.0494 0.0066,0.0589 -0.03809,0.10839 -0.01756,0.0195 -0.0469,0.0187 -0.06456,0.0383 -0.01658,0.0182 -0.0439,0.1548 -0.05713,0.16259 -0.133557,0.0791 0.06389,-0.17006 -0.110057,0.0223 -0.02493,0.0276 -0.01652,0.0775 -0.03809,0.1084 -0.02786,0.0308 -0.05573,0.0616 -0.08359,0.0924 -0.01516,-0.005 -0.0303,-0.025 -0.0455,-0.016 -0.0152,0.009 -0.0067,0.0405 -0.01903,0.0541 -0.01756,0.0195 -0.04692,0.0187 -0.06456,0.0383 -0.01237,0.0138 -0.0127,0.0361 -0.01903,0.0542 -0.0127,0.0361 -0.01648,0.0774 -0.03809,0.10839 -0.0306,0.0437 -0.09383,0.0374 -0.129095,0.0764 -0.01237,0.0138 -0.0067,0.0405 -0.01903,0.0542 -0.0447,0.0494 -0.08437,0.027 -0.129082,0.0764 -0.0124,0.0139 -0.0067,0.0405 -0.01906,0.0542 -0.01756,0.0195 -0.04692,0.0187 -0.06453,0.0382 -0.01237,0.0138 -0.0038,0.0452 -0.01906,0.0543 -0.0152,0.009 -0.0303,-0.0249 -0.0455,-0.016 -0.2519,0.14911 2.86e-4,0.0329 -0.102631,0.1466 -0.01756,0.0195 -0.04692,0.0187 -0.06453,0.0382 -0.01237,0.0138 -0.0067,0.0405 -0.01903,0.0541 -0.01756,0.0195 -0.0469,0.0187 -0.06456,0.0383 -0.0124,0.0139 -0.0038,0.0452 -0.01903,0.0541 -0.0152,0.009 -0.0303,-0.0249 -0.0455,-0.016 -0.0152,0.009 -0.0067,0.0405 -0.01906,0.0542 -0.01756,0.0195 -0.0469,0.0187 -0.06456,0.0383 -0.01237,0.0138 -0.0067,0.0405 -0.01903,0.0542 -0.01756,0.0195 -0.04692,0.0187 -0.06453,0.0382 -0.02493,0.0276 -0.0077,0.0904 -0.03809,0.10841 -0.0152,0.009 -0.0303,-0.025 -0.0455,-0.016 -0.0152,0.009 -0.0038,0.0452 -0.01903,0.0541 -0.0152,0.009 -0.0303,-0.0249 -0.0455,-0.016 -0.03044,0.018 -0.0077,0.0904 -0.03809,0.1084 -0.0152,0.009 -0.0303,-0.025 -0.0455,-0.016 -0.03044,0.018 -0.0077,0.0904 -0.03809,0.1084 -0.0152,0.009 -0.0303,-0.025 -0.0455,-0.016 -0.133567,0.0791 0.145525,0.0458 -0.08359,0.0924 -0.01654,0.004 -0.0303,-0.025 -0.0455,-0.016 -0.0152,0.009 -0.0067,0.0405 -0.01903,0.0541 -0.01756,0.0195 -0.04692,0.0187 -0.06453,0.0382 -0.01237,0.0138 -0.0038,0.0452 -0.01906,0.0542 -0.0152,0.009 -0.0303,-0.025 -0.0455,-0.016 -0.0152,0.009 -0.0038,0.0452 -0.01903,0.0541 -0.0152,0.009 -0.0303,-0.0249 -0.0455,-0.016 -0.0152,0.009 -0.0038,0.0452 -0.01906,0.0543 -0.0152,0.009 -0.0303,-0.025 -0.0455,-0.016 -0.0152,0.009 -0.0038,0.0452 -0.01906,0.0543 -0.0152,0.009 -0.0303,-0.0249 -0.0455,-0.016 -0.03044,0.018 -0.0077,0.0904 -0.03809,0.10841 -0.0152,0.009 -0.0303,-0.025 -0.0455,-0.016 -0.0152,0.009 -0.0038,0.0452 -0.01906,0.0542 -0.0152,0.009 -0.0303,-0.025 -0.0455,-0.016 -0.0152,0.009 -0.0038,0.0452 -0.01906,0.0543 -0.0152,0.009 -0.0303,-0.025 -0.0455,-0.016 -0.0152,0.009 -0.0067,0.0405 -0.01903,0.0541 -0.01765,0.0195 -0.04692,0.0187 -0.06456,0.0383 -0.01237,0.0138 -0.0038,0.0452 -0.01903,0.0542 -0.0152,0.009 -0.0303,-0.025 -0.0455,-0.016 -0.0152,0.009 -0.0038,0.0452 -0.01903,0.0541 -0.0152,0.009 -0.0303,-0.0249 -0.0455,-0.016 -0.03044,0.018 -0.0077,0.0904 -0.03809,0.1084 -0.0152,0.009 -0.0303,-0.025 -0.0455,-0.016 -0.0152,0.009 -0.0038,0.0452 -0.01903,0.0541 -0.0152,0.009 -0.0303,-0.0249 -0.0455,-0.016 -0.0152,0.009 -0.0038,0.0452 -0.01903,0.0542 -0.0152,0.009 -0.0303,-0.025 -0.0455,-0.016 -0.0152,0.009 -0.0067,0.0405 -0.01903,0.0541 -0.01756,0.0195 -0.04692,0.0187 -0.06456,0.0383 -0.0124,0.0139 -0.0038,0.0452 -0.01903,0.0542 -0.172633,0.10219 0.08163,-0.13418 -0.091,-0.032 -0.0152,0.009 -0.0038,0.0452 -0.01906,0.0542 -0.0152,0.009 -0.0303,-0.0249 -0.0455,-0.016 -0.0152,0.009 -0.0067,0.0405 -0.01903,0.0542 -0.03524,0.0389 -0.09386,0.0375 -0.129083,0.0764 -0.01237,0.0138 -0.0038,0.0452 -0.01906,0.0542 -0.0152,0.009 -0.0303,-0.025 -0.0455,-0.016 -0.0152,0.009 -0.0038,0.0452 -0.01903,0.0541 -0.0152,0.009 -0.0303,-0.0249 -0.0455,-0.016 -0.172633,0.10219 0.134563,0.006 -0.03809,0.1084 -0.08607,0.051 -0.01378,-0.10628 -0.06453,0.0382 -0.07969,0.0328 -0.157703,0.0748 -0.239015,0.0984 -0.01147,0.003 -0.119742,-0.0421 -0.136506,-0.048 -0.091,-0.032 -0.182008,-0.064 -0.273012,-0.0959 -0.01517,-0.005 -0.03033,-0.0107 -0.0455,-0.016 -0.01517,-0.005 -0.03925,5.1e-4 -0.0455,-0.016 -0.03528,-0.0936 0.09491,-0.0276 -0.02644,-0.0702 -0.01104,-0.004 -0.135705,-0.0456 -0.136507,-0.048 -0.0063,-0.0165 0.02528,-0.0376 0.01906,-0.0543 -0.0053,-0.0148 -0.122078,-0.0313 -0.136505,-0.048 -0.01514,-0.0183 -0.01131,-0.052 -0.02648,-0.0701 -0.01058,-0.0133 -0.03492,-0.003 -0.0455,-0.016 -0.01517,-0.0181 -0.01131,-0.052 -0.02647,-0.0701 -0.02143,-0.0258 -0.07854,10e-4 -0.09101,-0.032 -0.0063,-0.0165 0.02528,-0.0376 0.01906,-0.0542 -0.0082,-0.0217 -0.219321,-0.0582 -0.22751,-0.0799 -0.0063,-0.0165 0.02528,-0.0376 0.01903,-0.0541 -0.0063,-0.0165 -0.03034,-0.0107 -0.0455,-0.016 -0.07584,-0.0267 -0.151673,-0.0533 -0.22751,-0.0799 -0.01517,-0.005 -0.03925,5.1e-4 -0.0455,-0.016 -0.0063,-0.0165 0.02528,-0.0376 0.01906,-0.0543 -0.0063,-0.017 -0.175667,-0.047 -0.182009,-0.0639 -0.0063,-0.0165 0.02528,-0.0376 0.01906,-0.0542 -0.0093,-0.0247 -0.202645,-0.0502 -0.22751,-0.0799 -0.01514,-0.0183 -0.01127,-0.0521 -0.02647,-0.0702 -0.01087,-0.0134 -0.116013,-0.0408 -0.136505,-0.048 -0.03226,-0.0113 -0.263568,-0.0852 -0.273013,-0.0959 -0.01514,-0.0182 -0.01127,-0.0521 -0.02647,-0.0701 -0.02271,-0.0272 -0.204804,-0.0528 -0.22751,-0.0799 -0.01514,-0.0182 -0.01131,-0.052 -0.02647,-0.0702 -0.02146,-0.0257 -0.06954,-0.006 -0.09101,-0.032 -0.01514,-0.0182 -0.01763,-0.0468 -0.02644,-0.0702 -0.01517,-0.005 -0.03492,-0.003 -0.0455,-0.016 -0.01515,-0.0182 -0.01127,-0.0521 -0.02648,-0.0701 -0.01442,-0.0166 -0.131248,-0.0332 -0.136505,-0.048 -0.0063,-0.0165 0.02528,-0.0376 0.01906,-0.0542 -0.01323,-0.0351 -0.123271,-0.0129 -0.136507,-0.048 -0.0063,-0.0165 0.02528,-0.0377 0.01903,-0.0542 -0.01246,-0.0331 -0.07853,0.001 -0.091,-0.032 -0.0063,-0.0165 0.02528,-0.0376 0.01903,-0.0541 -0.0063,-0.0165 -0.03033,-0.0107 -0.0455,-0.016 -0.03033,-0.0107 -0.06954,-0.006 -0.091,-0.032 -0.01058,-0.0132 0.02528,-0.0376 0.01903,-0.0541 -0.01323,-0.0351 -0.12327,-0.0129 -0.136507,-0.048 -0.0063,-0.0165 0.02528,-0.0376 0.01906,-0.0543 -0.0053,-0.0148 -0.122079,-0.0313 -0.136506,-0.048 -0.164669,-0.19719 0.185194,0.0903 -0.09842,-0.15637 -0.05873,-0.0511 -0.06453,0.0382 -0.136506,-0.048 -0.01058,-0.0133 0.02528,-0.0376 0.01903,-0.0542 -0.0053,-0.0148 -0.122078,-0.0313 -0.136506,-0.048 -0.01514,-0.0183 -0.01131,-0.052 -0.02644,-0.0702 -0.01058,-0.0133 -0.03492,-0.003 -0.0455,-0.016 -0.01514,-0.0183 -0.01127,-0.0521 -0.02647,-0.0701 -0.01058,-0.0133 -0.03492,-0.003 -0.0455,-0.016 -0.01514,-0.0183 -0.01131,-0.052 -0.02644,-0.0702 -0.01058,-0.0133 -0.03492,-0.003 -0.0455,-0.016 -0.01514,-0.0182 -0.01131,-0.052 -0.02644,-0.0702 -0.01443,-0.0166 -0.131248,-0.0332 -0.136506,-0.048 -0.0063,-0.0165 0.02528,-0.0376 0.01903,-0.0542 -0.0063,-0.0165 -0.03925,5.2e-4 -0.0455,-0.016 -0.0063,-0.0165 0.0127,-0.0361 0.01903,-0.0541 -0.07193,-0.0862 -0.143921,-0.17235 -0.215884,-0.25852 z"
       id="path937"
       inkscape:connector-curvature="0"
       inkscape:export-filename="D:\Crap\Unity Projects\Jump n RPG\Assets\Sprites\bee.png"
       inkscape:export-xdpi="58.871075"
       inkscape:export-ydpi="58.871075" />
    <path
       style="fill:none;stroke:#000000;stroke-width:0.565;stroke-linecap:butt;stroke-linejoin:miter;stroke-miterlimit:4;stroke-dasharray:none;stroke-opacity:1"
       d="m 8.4099701,267.4706 4.8010659,-2.1292"
       id="path981"
       inkscape:connector-curvature="0"
       sodipodi:nodetypes="cc"
       inkscape:export-filename="D:\Crap\Unity Projects\Jump n RPG\Assets\Sprites\bee.png"
       inkscape:export-xdpi="58.871075"
       inkscape:export-ydpi="58.871075" />
  </g>
</svg>
