<?xml version="1.0" encoding="UTF-8" standalone="no"?>
<!-- Created with Inkscape (http://www.inkscape.org/) -->

<svg
   xmlns:dc="http://purl.org/dc/elements/1.1/"
   xmlns:cc="http://creativecommons.org/ns#"
   xmlns:rdf="http://www.w3.org/1999/02/22-rdf-syntax-ns#"
   xmlns:svg="http://www.w3.org/2000/svg"
   xmlns="http://www.w3.org/2000/svg"
   xmlns:sodipodi="http://sodipodi.sourceforge.net/DTD/sodipodi-0.dtd"
   xmlns:inkscape="http://www.inkscape.org/namespaces/inkscape"
   width="10.871436mm"
   height="16.908541mm"
   viewBox="0 0 10.871436 16.908541"
   version="1.1"
   id="svg998"
   inkscape:version="0.92.3 (2405546, 2018-03-11)"
   sodipodi:docname="bee_wing.svg">
  <defs
     id="defs992" />
  <sodipodi:namedview
     id="base"
     pagecolor="#ffffff"
     bordercolor="#666666"
     borderopacity="1.0"
     inkscape:pageopacity="0.0"
     inkscape:pageshadow="2"
     inkscape:zoom="0.35"
     inkscape:cx="-369.4547"
     inkscape:cy="-128.04687"
     inkscape:document-units="mm"
     inkscape:current-layer="layer1"
     showgrid="false"
     fit-margin-top="0"
     fit-margin-left="0"
     fit-margin-right="0"
     fit-margin-bottom="0"
     inkscape:window-width="1920"
     inkscape:window-height="1017"
     inkscape:window-x="-8"
     inkscape:window-y="-8"
     inkscape:window-maximized="1" />
  <metadata
     id="metadata995">
    <rdf:RDF>
      <cc:Work
         rdf:about="">
        <dc:format>image/svg+xml</dc:format>
        <dc:type
           rdf:resource="http://purl.org/dc/dcmitype/StillImage" />
        <dc:title></dc:title>
      </cc:Work>
    </rdf:RDF>
  </metadata>
  <g
     inkscape:label="Layer 1"
     inkscape:groupmode="layer"
     id="layer1"
     transform="translate(-90.570009,-98.045724)">
    <path
       style="fill:#f9f9f9;fill-opacity:1;stroke:#000000;stroke-width:0.29475898px;stroke-linecap:butt;stroke-linejoin:miter;stroke-opacity:1"
       d="m 91.9807,113.07733 c 0,-0.0766 0.0156,-0.15548 0,-0.22978 -0.0039,-0.0186 -0.03686,0.0135 -0.04823,0 -0.0021,-0.002 0,-0.26014 0,-0.28723 0,-0.0191 0.01137,-0.0439 0,-0.0574 -0.01137,-0.0135 -0.03686,0.0135 -0.04823,0 -0.02273,-0.0271 0.01438,-0.0806 0,-0.11489 -0.01021,-0.0242 -0.03806,-0.0332 -0.04823,-0.0574 -0.0096,-0.0227 0.0099,-0.1606 0,-0.17234 -0.01137,-0.0135 -0.03686,0.0135 -0.04823,0 -0.01161,-0.0139 0.01161,-0.21595 0,-0.22977 -0.01137,-0.0135 -0.03686,0.0135 -0.04823,0 -0.02273,-0.0271 0.01438,-0.0806 0,-0.1149 -0.01021,-0.0242 -0.03806,-0.0332 -0.04823,-0.0574 -0.01438,-0.0343 0.01438,-0.0806 0,-0.11489 -0.01021,-0.0242 -0.03807,-0.0332 -0.04823,-0.0575 -0.01438,-0.0343 0.01438,-0.0806 0,-0.1149 -0.01021,-0.0242 -0.03806,-0.0332 -0.04823,-0.0574 -0.0096,-0.0227 0.0099,-0.16059 0,-0.17234 -0.01137,-0.0135 -0.03686,0.0135 -0.04823,0 -0.02273,-0.0271 0.01438,-0.0806 0,-0.11489 -0.01021,-0.0242 -0.03806,-0.0332 -0.04823,-0.0575 -0.01438,-0.0343 0.01438,-0.0806 0,-0.1149 -0.01021,-0.0242 -0.03806,-0.0332 -0.04823,-0.0575 -0.0096,-0.0227 0.0099,-0.16058 0,-0.17233 -0.01137,-0.0135 -0.03686,0.0135 -0.04823,0 -0.0099,-0.0122 0.0096,-0.14956 0,-0.17233 -0.02033,-0.0484 -0.07612,-0.0664 -0.09645,-0.11489 -0.01666,-0.0396 0.01692,-0.26706 0,-0.28722 -0.01137,-0.0135 -0.03686,0.0135 -0.04823,0 -0.02273,-0.0271 0.02273,-0.0878 0,-0.1149 -0.01137,-0.0135 -0.03686,0.0135 -0.04823,0 -0.01693,-0.0202 0.01666,-0.24754 0,-0.28721 -0.01021,-0.0242 -0.03806,-0.0332 -0.04823,-0.0575 -0.0071,-0.0171 0.01137,-0.0439 0,-0.0574 -0.01137,-0.0135 -0.03686,0.0135 -0.04823,0 -0.0132,-0.0157 0.01309,-0.19862 0,-0.22978 -0.01021,-0.0242 -0.03806,-0.0332 -0.04823,-0.0574 -0.01465,-0.0349 0.01465,-0.30978 0,-0.34466 -0.01021,-0.0242 -0.03806,-0.0332 -0.04823,-0.0575 -0.01929,-0.046 0.01929,-0.12637 0,-0.17233 -0.01021,-0.0242 -0.03806,-0.0332 -0.04823,-0.0575 -0.0071,-0.0171 0.01137,-0.0439 0,-0.0574 -0.01137,-0.0135 -0.03686,0.0135 -0.04823,0 -0.01137,-0.0135 0,-0.0383 0,-0.0575 0,-0.0227 0.0103,-0.2627 0,-0.28723 -0.01021,-0.0242 -0.03806,-0.0332 -0.04823,-0.0574 -0.01929,-0.046 0.01929,-0.12639 0,-0.17233 -0.01021,-0.0242 -0.04104,-0.0317 -0.04823,-0.0574 -0.0089,-0.0317 0,-0.28681 0,-0.34466 0,-0.0192 0.0071,-0.0404 0,-0.0575 -0.01021,-0.0242 -0.03807,-0.0332 -0.04823,-0.0575 -0.0071,-0.0171 0,-0.0383 0,-0.0574 0,-0.0958 0,-0.19148 0,-0.28723 0,-0.0191 0,-0.0383 0,-0.0574 0,-0.0191 0.0071,-0.0404 0,-0.0574 -0.01021,-0.0242 -0.04104,-0.0317 -0.04823,-0.0575 -0.01525,-0.0545 0,-0.11489 0,-0.17233 0,-0.13403 0,-0.26808 0,-0.40211 0,-0.36382 0,-0.72763 0,-1.09144 0,-0.0212 -0.0019,-0.22747 0,-0.22978 0.01137,-0.0135 0.03686,0.0135 0.04823,0 0.02273,-0.0271 -0.01438,-0.0806 0,-0.1149 0.01021,-0.0242 0.03807,-0.0332 0.04823,-0.0574 0.01438,-0.0343 -0.01438,-0.0806 0,-0.1149 0.01021,-0.0242 0.03806,-0.0332 0.04823,-0.0574 0.0096,-0.0227 -0.0099,-0.1606 0,-0.17234 0.01137,-0.0135 0.03686,0.0135 0.04823,0 0.01137,-0.0135 -0.0071,-0.0404 0,-0.0574 0.01021,-0.0242 0.03806,-0.0332 0.04823,-0.0574 0.01438,-0.0343 -0.02273,-0.0878 0,-0.11489 0.01137,-0.0135 0.03686,0.0135 0.04823,0 0.02412,-0.0287 -0.02411,-0.14362 0,-0.17233 0.01137,-0.0135 0.03686,0.0135 0.04823,0 0.02273,-0.0271 -0.01438,-0.0806 0,-0.1149 0.110363,-0.2629 -0.01999,0.24376 0.09645,-0.17233 0.0051,-0.0181 0,-0.0383 0,-0.0575 0.01608,-0.0191 0.03807,-0.0332 0.04823,-0.0574 0.01438,-0.0343 -0.02273,-0.0878 0,-0.11489 0.09979,-0.11879 -0.0039,0.18163 0.09645,-0.0574 0.01438,-0.0343 -0.02273,-0.0878 0,-0.1149 0.01137,-0.0135 0.03686,0.0135 0.04823,0 0.02273,-0.0271 -0.01438,-0.0806 0,-0.11489 0.06009,-0.14317 0.03636,0.0283 0.09645,-0.1149 0.0071,-0.0171 -0.01137,-0.0439 0,-0.0574 0.01137,-0.0135 0.03686,0.0135 0.04823,0 0.02273,-0.0271 -0.01438,-0.0806 0,-0.11489 0.159957,-0.19052 -0.02273,0.0542 0.04823,-0.1149 0.01021,-0.0242 0.03807,-0.0332 0.04823,-0.0574 0.0071,-0.0171 -0.0071,-0.0404 0,-0.0575 0.01021,-0.0242 0.0279,-0.0453 0.04823,-0.0574 0.01438,-0.009 0.04104,0.0171 0.04823,0 0.01438,-0.0343 0,-0.0766 0,-0.1149 0,-0.0191 -0.01137,-0.0439 0,-0.0574 0.01137,-0.0135 0.03686,0.0135 0.04823,0 0.01137,-0.0135 -0.01137,-0.0439 0,-0.0574 0.01137,-0.0135 0.04104,0.0171 0.04823,0 0.01438,-0.0343 -0.01021,-0.0785 0,-0.1149 0.01438,-0.0513 0.07612,-0.0664 0.09645,-0.11489 0.01438,-0.0343 -0.01438,-0.0806 0,-0.1149 0.01021,-0.0242 0.03806,-0.0332 0.04823,-0.0575 0.0071,-0.0171 -0.0071,-0.0404 0,-0.0575 0.02034,-0.0484 0.07612,-0.0664 0.09646,-0.11489 0.01438,-0.0343 -0.01438,-0.0806 0,-0.1149 0.01021,-0.0242 0.03806,-0.0332 0.04823,-0.0574 0.01438,-0.0343 -0.01438,-0.0806 0,-0.11489 0.100354,-0.23907 -0.0034,0.0614 0.09645,-0.0574 0.02273,-0.0271 -0.02273,-0.0878 0,-0.1149 0.01137,-0.0135 0.03686,0.0135 0.04823,0 0.02273,-0.0271 -0.01438,-0.0806 0,-0.11489 0.01021,-0.0242 0.03806,-0.0332 0.04823,-0.0575 0.01438,-0.0343 -0.02273,-0.0878 0,-0.1149 0.01137,-0.0135 0.03686,0.0135 0.04823,0 0.01137,-0.0135 -0.01137,-0.0439 0,-0.0575 0.09979,-0.1189 -0.0039,0.18163 0.09646,-0.0575 0.0071,-0.0172 -0.0071,-0.0404 0,-0.0574 0.01021,-0.0242 0.03806,-0.0332 0.04823,-0.0575 0.0071,-0.0171 -0.01137,-0.0439 0,-0.0574 0.01137,-0.0135 0.03686,0.0135 0.04823,0 0.09979,-0.11891 -0.152489,0.005 0.04823,-0.11489 0.01438,-0.009 0.03686,0.0135 0.04823,0 0.01137,-0.0135 -0.0071,-0.0404 0,-0.0575 0.01021,-0.0242 0.03806,-0.0332 0.04823,-0.0574 0.0071,-0.0171 -0.0071,-0.0404 0,-0.0574 0.01021,-0.0242 0.03806,-0.0332 0.04823,-0.0574 0.0071,-0.0172 -0.01137,-0.0439 0,-0.0575 0.01137,-0.0135 0.03686,0.0135 0.04823,0 0.01137,-0.0135 -0.01137,-0.0439 0,-0.0574 0.01137,-0.0135 0.03686,0.0135 0.04823,0 0.02273,-0.0271 -0.01438,-0.0806 0,-0.1149 0.01021,-0.0242 0.03806,-0.0332 0.04823,-0.0575 0.0071,-0.0172 -0.0071,-0.0404 0,-0.0574 0.159957,-0.19052 -0.02273,0.0541 0.04823,-0.1149 0.02033,-0.0484 0.07612,-0.0664 0.09645,-0.11489 0.0071,-0.0172 -0.01137,-0.0439 0,-0.0575 0.01137,-0.0135 0.03686,0.0135 0.04823,0 0.02273,-0.0271 -0.02273,-0.0878 0,-0.114895 0.01137,-0.0135 0.03686,0.0135 0.04823,0 0.01137,-0.0135 -0.01137,-0.0439 0,-0.0575 0.01137,-0.0135 0.03686,0.0135 0.04823,0 0.01137,-0.0135 -0.01137,-0.0439 0,-0.0574 0.01137,-0.0135 0.03686,0.0135 0.04823,0 0.02274,-0.0271 -0.02274,-0.0878 0,-0.114891 0.01137,-0.0135 0.03686,0.0135 0.04823,0 0.01137,-0.0135 -0.01137,-0.0439 0,-0.0575 0.01137,-0.0135 0.03686,0.0135 0.04823,0 0.01137,-0.0135 -0.01137,-0.0439 0,-0.0574 0.01137,-0.0135 0.03686,0.0135 0.04823,0 0.09979,-0.11891 -0.152488,0.005 0.04823,-0.11489 0.01437,-0.009 0.03686,0.0135 0.04823,0 0.01137,-0.0135 -0.01137,-0.0439 0,-0.0574 0.01137,-0.0135 0.03385,0.009 0.04823,0 0.05788,-0.0344 0.08681,-0.13788 0.144688,-0.17234 0.01437,-0.009 0.03385,0.009 0.04823,0 0.02033,-0.0122 0.0279,-0.0453 0.04823,-0.0574 0.01437,-0.009 0.03385,0.009 0.04823,0 0.02033,-0.0122 0.0279,-0.0453 0.04823,-0.0574 0.01437,-0.009 0.03385,0.009 0.04823,0 0.200716,-0.119509 -0.05156,0.004 0.04823,-0.11489 0.02274,-0.0271 0.0677,0.0171 0.09647,0 0.200716,-0.119519 -0.05156,0.004 0.04823,-0.114899 0.02274,-0.0271 0.0677,0.0171 0.09645,0 0.04067,-0.0242 0.05579,-0.0907 0.09645,-0.1149 0.01437,-0.009 0.03385,0.009 0.04823,0 0.02033,-0.0122 0.0279,-0.0454 0.04823,-0.0575 0.01437,-0.009 0.03385,0.009 0.04823,0 0.02033,-0.0121 0.0279,-0.0453 0.04823,-0.0575 0.02876,-0.0171 0.0677,0.0171 0.09645,0 0.02033,-0.0122 0.0279,-0.0453 0.04823,-0.0574 0.01437,-0.009 0.03385,0.009 0.04823,0 0.02033,-0.0122 0.0279,-0.0453 0.04823,-0.0575 0.03859,-0.023 0.1061,0.023 0.144685,0 0.02033,-0.0122 0.0279,-0.0453 0.04823,-0.0574 0.03032,-0.0181 0.162605,0.018 0.192921,0 0.02033,-0.0122 0.0279,-0.0453 0.04823,-0.0574 0.01745,-0.0109 0.2076,0 0.241147,0 0.01607,0 0.03686,0.0135 0.04823,0 0.01137,-0.0135 -0.01137,-0.0439 0,-0.0574 0.0021,-0.002 0.218406,0 0.241144,0 0.08039,0 0.160765,0 0.241147,0 0.01607,0 0.03686,0.0135 0.04823,0 0.01137,-0.0135 -0.01137,-0.0439 0,-0.0575 0.02274,-0.0271 0.0677,0.0171 0.09647,0 0.02033,-0.0122 0.0279,-0.0453 0.04823,-0.0574 0.01247,-0.007 0.255189,0 0.289376,0 0.225069,0 0.450138,0 0.67521,0 0.02274,0 0.238958,0.002 0.241144,0 0.01137,-0.0135 -0.01137,-0.0439 0,-0.0574 0.01137,-0.0135 0.03215,0 0.04823,0 0.01607,0 0.03215,0 0.04823,0 0.128612,0 0.257223,0 0.385834,0 0.208993,0 0.417987,0 0.626981,0 0.03419,0 0.276903,-0.007 0.289373,0 0.02033,0.0122 0.0279,0.0454 0.04823,0.0574 0.01437,0.009 0.03686,-0.0135 0.04823,0 0.01137,0.0135 -0.01137,0.0439 0,0.0574 0.02274,0.0271 0.0677,-0.0171 0.09645,0 0.02033,0.0122 0.0279,0.0453 0.04823,0.0575 0.01437,0.009 0.03686,-0.0135 0.04823,0 0.01137,0.0135 -0.01137,0.0439 0,0.0574 0.02412,0.0287 0.120573,-0.0287 0.14469,0 0.01137,0.0135 -0.01137,0.0439 0,0.0574 0.02274,0.0271 0.0677,-0.0171 0.09645,0 0.103197,0.0614 -0.0067,0.0534 0.09645,0.1149 0.01437,0.009 0.03385,-0.009 0.04823,0 0.02033,0.0122 0.0279,0.0454 0.04823,0.0574 0.01437,0.009 0.03686,-0.0135 0.04823,0 0.01137,0.0135 -0.01137,0.0439 0,0.0575 0.01137,0.0135 0.03385,-0.009 0.04823,0 0.04067,0.0242 0.05579,0.0907 0.09645,0.1149 0.01437,0.009 0.03385,-0.009 0.04823,0 0.02033,0.0122 0.0279,0.0453 0.04823,0.0574 0.01437,0.009 0.03686,-0.0135 0.04823,0 0.01137,0.0135 -0.01137,0.0439 0,0.0575 0.02274,0.0271 0.07372,-0.0271 0.09645,0 0.01137,0.0135 -0.01137,0.0439 0,0.0575 0.01137,0.0135 0.03686,-0.0135 0.04823,0 0.01137,0.0135 -0.01137,0.0439 0,0.0574 0.01137,0.0135 0.03686,-0.0135 0.04823,0 0.01137,0.0135 -0.01137,0.0439 0,0.0575 0.01137,0.0135 0.03385,-0.009 0.04823,0 0.02033,0.0122 0.0279,0.0454 0.04823,0.0574 0.0144,0.009 0.0339,-0.009 0.0482,0 0.0407,0.0242 0.0558,0.0907 0.0965,0.11489 0.0288,0.0172 0.0737,-0.0271 0.0965,0 0.0114,0.0135 -0.0114,0.0439 0,0.0575 0.0114,0.0135 0.0339,-0.009 0.0482,0 0.0203,0.0122 0.0279,0.0453 0.0482,0.0574 0.0144,0.009 0.0369,-0.0135 0.0482,0 0.0114,0.0135 -0.0114,0.0439 0,0.0574 0.0114,0.0135 0.0369,-0.0135 0.0482,0 0.0114,0.0135 -0.0114,0.0439 0,0.0574 0.0114,0.0135 0.0369,-0.0135 0.0482,0 0.0114,0.0135 -0.0114,0.0439 0,0.0575 0.0227,0.0271 0.0737,-0.0271 0.0965,0 0.0114,0.0135 -0.0114,0.0439 0,0.0574 0.0114,0.0135 0.0369,-0.0135 0.0482,0 0.0114,0.0135 -0.0114,0.0439 0,0.0575 0.0114,0.0135 0.0369,-0.0135 0.0482,0 0.0114,0.0135 -0.0114,0.0439 0,0.0574 0.0114,0.0135 0.0369,-0.0135 0.0482,0 0.0998,0.11891 -0.15249,-0.005 0.0482,0.11489 0.0144,0.009 0.0369,-0.0135 0.0482,0 0.0227,0.0271 -0.0227,0.0878 0,0.1149 0.0114,0.0135 0.0369,-0.0135 0.0482,0 0.0114,0.0135 -0.0114,0.0439 0,0.05739 0.0114,0.0135 0.0369,-0.0135 0.0482,0 0.0322,0.0384 -0.0322,0.0765 0,0.11489 0.0114,0.0135 0.0369,-0.0135 0.0482,0 0.0227,0.0271 -0.0227,0.0878 0,0.1149 0.0114,0.0135 0.0369,-0.0135 0.0482,0 0.0132,0.0157 -0.0131,0.19862 0,0.22978 0.0102,0.0242 0.0381,0.0332 0.0482,0.0575 0.01,0.0227 -0.01,0.16058 0,0.17233 0.0114,0.0135 0.0369,-0.0135 0.0482,0 0.0114,0.0135 0,0.0383 0,0.0574 0,0.0407 -0.006,0.32981 0,0.34467 0.0101,0.0242 0.038,0.0332 0.0482,0.0574 0.0131,0.0311 -0.0132,0.21406 0,0.22978 0.0114,0.0135 0.0369,-0.0135 0.0482,0 0.0114,0.0135 0,0.0383 0,0.0575 0,0.0192 0,0.0383 0,0.0575 0,0.19148 0,0.38296 0,0.57444 0,0.0191 0,0.0383 0,0.0574 0,0.0192 -0.0114,0.0439 0,0.0575 0.0114,0.0135 0.0369,-0.0135 0.0482,0 0.0114,0.0135 0,0.0383 0,0.0575 0,0.15319 0,0.30637 0,0.45955 0,0.21063 0,0.42126 0,0.63189 0,0.04 0.009,0.26645 0,0.28722 -0.0101,0.0242 -0.0381,0.0332 -0.0482,0.0574 -0.0144,0.0343 0.0144,0.0806 0,0.11489 -0.0102,0.0242 -0.0381,0.0332 -0.0482,0.0574 -0.0193,0.046 0.0193,0.12639 0,0.17233 -0.0101,0.0242 -0.0381,0.0332 -0.0482,0.0575 -0.0144,0.0343 0.0144,0.0806 0,0.1149 -0.0102,0.0242 -0.041,0.0317 -0.0482,0.0574 -0.007,0.0263 0.0107,0.20423 0,0.22978 -0.0102,0.0242 -0.0381,0.0332 -0.0482,0.0574 -0.0167,0.0396 0.0169,0.26706 0,0.28722 -0.0114,0.0135 -0.0369,-0.0135 -0.0482,0 -0.0227,0.0271 0.0144,0.0806 0,0.11489 -0.0101,0.0242 -0.038,0.0332 -0.0482,0.0574 -0.0151,0.0361 0.0152,0.19368 0,0.22978 -0.0101,0.0242 -0.038,0.0332 -0.0482,0.0574 -0.0144,0.0343 0.0144,0.0806 0,0.11489 -0.0102,0.0242 -0.038,0.0332 -0.0482,0.0575 -0.0152,0.0361 0.0151,0.19367 0,0.22978 -0.0101,0.0242 -0.0381,0.0332 -0.0482,0.0574 -0.007,0.0171 0.007,0.0404 0,0.0575 -0.0102,0.0242 -0.041,0.0317 -0.0482,0.0574 -0.0102,0.0363 0.0101,0.0785 0,0.11489 -0.007,0.0257 -0.041,0.0317 -0.0482,0.0575 -0.0101,0.0363 0,0.0766 0,0.1149 0,0.0191 0.007,0.0404 0,0.0574 -0.0101,0.0242 -0.0381,0.0332 -0.0482,0.0575 -0.0144,0.0343 0.0101,0.0785 0,0.1149 -0.0114,0.0406 -0.0369,0.0743 -0.0482,0.11489 -0.0153,0.0545 0.0153,0.11782 0,0.17234 -0.007,0.0256 -0.0381,0.0332 -0.0482,0.0574 -0.0153,0.0365 0.0157,0.24992 0,0.28723 -0.0101,0.0242 -0.041,0.0317 -0.0482,0.0575 -0.022,0.0784 0.022,0.26623 0,0.34466 -0.0144,0.0514 -0.0821,0.0635 -0.0965,0.1149 -0.0101,0.0363 0,0.0766 0,0.1149 0,0.0191 0.007,0.0404 0,0.0574 -0.0101,0.0242 -0.041,0.0317 -0.0482,0.0575 -0.016,0.0571 0.0205,0.23841 0,0.28723 -0.007,0.0171 -0.041,-0.0171 -0.0482,0 -0.0482,0.1149 0.0241,0.0862 0,0.17233 -0.0114,0.0406 -0.0369,0.0743 -0.0482,0.1149 -0.005,0.0181 0.0114,0.0439 0,0.0575 -0.0114,0.0135 -0.041,-0.0172 -0.0482,0 -0.0322,0.0766 0.0322,0.21063 0,0.28721 -0.007,0.0172 -0.041,-0.0171 -0.0482,0 -0.0151,0.0361 0.0152,0.19368 0,0.22978 -0.0203,0.0484 -0.0761,0.0664 -0.0964,0.1149 -0.0152,0.0361 0.0151,0.19367 0,0.22977 -0.0101,0.0242 -0.0322,0.0383 -0.0482,0.0575 0,0.0383 0.0101,0.0786 0,0.1149 -0.007,0.0257 -0.03805,0.0332 -0.04823,0.0574 -0.0071,0.0171 0.0051,0.0393 0,0.0575 -0.01137,0.0406 -0.03686,0.0743 -0.04823,0.11489 -0.0051,0.0181 0.0071,0.0404 0,0.0575 -0.01011,0.0242 -0.04104,0.0317 -0.04823,0.0574 -0.01011,0.0364 0.01011,0.0785 0,0.11489 -0.0071,0.0257 -0.03807,0.0332 -0.04823,0.0575 -0.0071,0.0172 0.0071,0.0404 0,0.0574 -0.01021,0.0242 -0.03806,0.0332 -0.04823,0.0575 -0.01437,0.0343 0.01011,0.0785 0,0.1149 -0.11645,0.41609 0.01391,-0.0906 -0.09646,0.17233 -0.0258,0.0614 0.02579,0.0534 0,0.11489 -0.01011,0.0242 -0.03805,0.0332 -0.04823,0.0575 -0.0096,0.0227 0.0099,0.16059 0,0.17233 -0.09978,0.11891 0.0039,-0.18162 -0.09645,0.0575 -0.01437,0.0343 0.01011,0.0786 0,0.1149 -0.01607,0.0383 -0.03215,0.0766 -0.04823,0.11489 -0.01607,0 -0.03686,-0.0135 -0.04823,0 -0.01137,0.0135 0.0071,0.0404 0,0.0574 -0.01011,0.0242 -0.03807,0.0332 -0.04823,0.0575 -0.0071,0.0171 0,0.0383 0,0.0574 0,0.0383 0.01011,0.0785 0,0.11489 -0.01437,0.0514 -0.07612,0.0664 -0.09646,0.1149 -0.0071,0.0171 0.0071,0.0404 0,0.0574 -0.0258,0.0614 -0.07066,0.0534 -0.09645,0.11489 -0.0071,0.0172 0.0071,0.0404 0,0.0575 -0.01011,0.0242 -0.03807,0.0332 -0.04823,0.0574 -0.0071,0.0171 0.01137,0.0439 0,0.0575 -0.01137,0.0135 -0.03686,-0.0135 -0.04823,0 -0.188227,0.22418 0.01116,0.0309 -0.04823,0.17233 -0.01011,0.0242 -0.03807,0.0332 -0.04823,0.0574 -0.0071,0.0171 0.0071,0.0404 0,0.0574 -0.01011,0.0242 -0.03805,0.0332 -0.04823,0.0575 -0.0071,0.0172 0.01137,0.0439 0,0.0574 -0.01137,0.0135 -0.03686,-0.0135 -0.04823,0 -0.01137,0.0135 0.0071,0.0404 0,0.0575 -0.01011,0.0242 -0.03805,0.0332 -0.04823,0.0575 -0.0071,0.0171 0.0071,0.0404 0,0.0574 -0.01011,0.0242 -0.03807,0.0332 -0.04823,0.0574 -0.01437,0.0343 0.02274,0.0878 0,0.1149 -0.01137,0.0135 -0.03686,-0.0135 -0.04823,0 -0.01137,0.0135 0.01137,0.0439 0,0.0574 -0.01137,0.0135 -0.03686,-0.0135 -0.04823,0 -0.02274,0.0271 0.02274,0.0878 0,0.11489 -0.01137,0.0135 -0.03686,-0.0135 -0.04823,0 -0.02274,0.0271 0.02274,0.0878 0,0.1149 -0.01137,0.0135 -0.03686,-0.0135 -0.04823,0 -0.09979,0.11891 0.152489,-0.005 -0.04823,0.11491 -0.01437,0.009 -0.03686,-0.0135 -0.04823,0 -0.01137,0.0135 0.0071,0.0404 0,0.0574 -0.01011,0.0242 -0.03807,0.0332 -0.04823,0.0574 -0.0071,0.0171 0.01137,0.0439 0,0.0575 -0.01137,0.0135 -0.03686,-0.0135 -0.04823,0 -0.01137,0.0135 0.01137,0.0439 0,0.0574 -0.01137,0.0135 -0.03686,-0.0135 -0.04823,0 -0.01137,0.0135 0.01137,0.0439 0,0.0575 -0.01137,0.0135 -0.03686,-0.0135 -0.04823,0 -0.01137,0.0135 0.01137,0.0439 0,0.0575 -0.01137,0.0135 -0.03686,-0.0135 -0.04823,0 -0.02274,0.0271 0.02274,0.0878 0,0.1149 -0.01137,0.0135 -0.03686,-0.0135 -0.04823,0 -0.01137,0.0135 0.01137,0.0439 0,0.0575 -0.01137,0.0135 -0.03686,-0.0135 -0.04823,0 -0.01137,0.0135 0.01137,0.0439 0,0.0575 -0.01137,0.0135 -0.03686,-0.0135 -0.04823,0 -0.01137,0.0135 0.0071,0.0404 0,0.0574 -0.01021,0.0242 -0.03807,0.0332 -0.04823,0.0575 -0.0071,0.0171 0.01137,0.0439 0,0.0574 -0.01137,0.0135 -0.03686,-0.0135 -0.04823,0 -0.01137,0.0135 0.01137,0.0439 0,0.0574 -0.01137,0.0135 -0.03686,-0.0135 -0.04823,0 -0.02274,0.0271 0.02274,0.0878 0,0.11489 -0.01137,0.0135 -0.03686,-0.0135 -0.04823,0 -0.01137,0.0135 0.01137,0.0439 0,0.0574 -0.01137,0.0135 -0.03686,-0.0135 -0.04823,0 -0.01137,0.0135 0.01137,0.0439 0,0.0574 -0.01137,0.0135 -0.03686,-0.0135 -0.04823,0 -0.01137,0.0135 0.0071,0.0404 0,0.0574 -0.01011,0.0242 -0.03807,0.0332 -0.04823,0.0575 -0.0071,0.0172 0.01137,0.0439 0,0.0574 -0.128995,0.15364 0.03253,-0.15365 -0.09645,0 -0.01137,0.0135 0.01137,0.0439 0,0.0575 -0.01137,0.0135 -0.03686,-0.0135 -0.04823,0 -0.01137,0.0135 0.0071,0.0404 0,0.0574 -0.02034,0.0484 -0.07612,0.0665 -0.09645,0.11489 -0.0071,0.0171 0.01137,0.0439 0,0.0575 -0.01137,0.0135 -0.03686,-0.0135 -0.04823,0 -0.01137,0.0135 0.01137,0.0439 0,0.0574 -0.01137,0.0135 -0.03686,-0.0135 -0.04823,0 -0.128994,0.15364 0.128995,-0.0388 0,0.11489 -0.06431,0.0766 -0.04823,-0.0957 -0.04823,0.0574 -0.0643,0.0574 -0.123986,0.12286 -0.192894,0.17203 -0.0097,0.007 -0.126918,0 -0.144688,0 -0.09645,0 -0.192917,0 -0.289375,0 -0.01608,0 -0.03215,0 -0.04823,0 -0.01608,0 -0.03686,0.0135 -0.04823,0 -0.06431,-0.0766 0.08039,-0.0575 -0.04823,-0.0575 -0.0117,0 -0.143136,0.002 -0.144688,0 -0.01137,-0.0135 0.01137,-0.0439 0,-0.0575 -0.0099,-0.0122 -0.125565,0.0109 -0.144687,0 -0.02033,-0.0122 -0.0279,-0.0453 -0.04823,-0.0574 -0.01438,-0.009 -0.03385,0.009 -0.04823,0 -0.02033,-0.0121 -0.0279,-0.0453 -0.04823,-0.0574 -0.02876,-0.0172 -0.07372,0.0271 -0.09646,0 -0.01137,-0.0135 0.01137,-0.0439 0,-0.0575 -0.01493,-0.0177 -0.226212,0.0178 -0.241146,0 -0.01137,-0.0135 0.01137,-0.0439 0,-0.0574 -0.01137,-0.0135 -0.03216,0 -0.04823,0 -0.08039,0 -0.160764,0 -0.241146,0 -0.01608,0 -0.03686,0.0135 -0.04823,0 -0.01137,-0.0135 0.01137,-0.0439 0,-0.0575 -0.01161,-0.0139 -0.181311,0.0139 -0.192917,0 -0.01137,-0.0135 0.01137,-0.0439 0,-0.0575 -0.01693,-0.0202 -0.207834,0.0198 -0.241146,0 -0.02033,-0.0122 -0.0279,-0.0454 -0.04823,-0.0574 -0.01468,-0.009 -0.122967,0 -0.144688,0 -0.03419,0 -0.276905,0.007 -0.289375,0 -0.02033,-0.0122 -0.0279,-0.0454 -0.04823,-0.0574 -0.03043,-0.0181 -0.210719,0.0181 -0.241146,0 -0.02033,-0.0122 -0.0279,-0.0453 -0.04823,-0.0574 -0.02876,-0.0171 -0.0677,0.0171 -0.09646,0 -0.02033,-0.0122 -0.03215,-0.0383 -0.04823,-0.0575 -0.01608,0 -0.03385,0.009 -0.04823,0 -0.02034,-0.0122 -0.0279,-0.0454 -0.04823,-0.0574 -0.01912,-0.0109 -0.134829,0.0122 -0.144688,0 -0.01137,-0.0135 0.01137,-0.0439 0,-0.0575 -0.02411,-0.0287 -0.120574,0.0287 -0.144687,0 -0.01137,-0.0135 0.01137,-0.0439 0,-0.0574 -0.02273,-0.0271 -0.07372,0.0271 -0.09645,0 -0.01137,-0.0135 0.01137,-0.0439 0,-0.0574 -0.01137,-0.0135 -0.03215,0 -0.04823,0 -0.03215,0 -0.0677,0.0171 -0.09645,0 -0.01438,-0.009 0.01137,-0.0439 0,-0.0574 -0.02411,-0.0287 -0.120574,0.0287 -0.144688,0 -0.01137,-0.0135 0.01137,-0.0439 0,-0.0575 -0.0099,-0.0122 -0.125566,0.0109 -0.144688,0 -0.220727,-0.13145 0.204657,0.0238 -0.144688,-0.1149 -0.07234,-0.0287 -0.04823,0.0574 -0.144688,0 -0.01438,-0.009 0.01137,-0.0439 0,-0.0574 -0.0099,-0.0122 -0.125565,0.0109 -0.144687,0 -0.02033,-0.0122 -0.0279,-0.0453 -0.04823,-0.0575 -0.01438,-0.009 -0.03385,0.009 -0.04823,0 -0.02033,-0.0122 -0.0279,-0.0454 -0.04823,-0.0574 -0.01438,-0.009 -0.03385,0.009 -0.04823,0 -0.02033,-0.0122 -0.0279,-0.0453 -0.04823,-0.0575 -0.01438,-0.009 -0.03385,0.009 -0.04823,0 -0.02033,-0.0122 -0.0279,-0.0453 -0.04823,-0.0575 -0.01912,-0.0109 -0.134828,0.0122 -0.144688,0 -0.01137,-0.0135 0.01137,-0.0439 0,-0.0574 -0.01137,-0.0135 -0.03686,0.0135 -0.04823,0 -0.01137,-0.0135 0,-0.0383 0,-0.0574 -0.09645,-0.0575 -0.192917,-0.11489 -0.289376,-0.17233 z"
       id="path937-8"
       inkscape:connector-curvature="0"
       inkscape:export-filename="D:\Crap\Unity Projects\Jump n RPG\Assets\Sprites\bee.png"
       inkscape:export-xdpi="58.871075"
       inkscape:export-ydpi="58.871075" />
  </g>
</svg>
