<?xml version="1.0" encoding="UTF-8" standalone="no"?>
<!-- Created with Inkscape (http://www.inkscape.org/) -->

<svg
   xmlns:dc="http://purl.org/dc/elements/1.1/"
   xmlns:cc="http://creativecommons.org/ns#"
   xmlns:rdf="http://www.w3.org/1999/02/22-rdf-syntax-ns#"
   xmlns:svg="http://www.w3.org/2000/svg"
   xmlns="http://www.w3.org/2000/svg"
   xmlns:sodipodi="http://sodipodi.sourceforge.net/DTD/sodipodi-0.dtd"
   xmlns:inkscape="http://www.inkscape.org/namespaces/inkscape"
   width="61.389683mm"
   height="28.603222mm"
   viewBox="0 0 61.389683 28.603222"
   version="1.1"
   id="svg334"
   inkscape:version="0.92.3 (2405546, 2018-03-11)"
   sodipodi:docname="cloud4.svg">
  <defs
     id="defs328" />
  <sodipodi:namedview
     id="base"
     pagecolor="#ffffff"
     bordercolor="#666666"
     borderopacity="1.0"
     inkscape:pageopacity="0.0"
     inkscape:pageshadow="2"
     inkscape:zoom="0.35"
     inkscape:cx="-205.41659"
     inkscape:cy="-34.518108"
     inkscape:document-units="mm"
     inkscape:current-layer="layer1"
     showgrid="false"
     fit-margin-top="0"
     fit-margin-left="0"
     fit-margin-right="0"
     fit-margin-bottom="0"
     inkscape:window-width="1920"
     inkscape:window-height="1017"
     inkscape:window-x="-8"
     inkscape:window-y="-8"
     inkscape:window-maximized="1" />
  <metadata
     id="metadata331">
    <rdf:RDF>
      <cc:Work
         rdf:about="">
        <dc:format>image/svg+xml</dc:format>
        <dc:type
           rdf:resource="http://purl.org/dc/dcmitype/StillImage" />
        <dc:title></dc:title>
      </cc:Work>
    </rdf:RDF>
  </metadata>
  <g
     inkscape:label="Layer 1"
     inkscape:groupmode="layer"
     id="layer1"
     transform="translate(-47.168259,-111.0972)">
    <g
       id="g102"
       transform="matrix(0.35277777,0,0,-0.35277777,99.039644,119.16734)"
       inkscape:export-filename="D:\Crap\Unity Projects\Jump n RPG\Assets\Sprites\cloud4.png"
       inkscape:export-xdpi="62.160828"
       inkscape:export-ydpi="62.160828">
      <path
         d="m 0,0 c -1.581,0 -3.122,-0.164 -4.629,-0.425 -1.308,13.085 -12.348,23.301 -25.775,23.301 -5.793,0 -11.123,-1.924 -15.438,-5.137 -3.183,3.175 -7.575,5.137 -12.427,5.137 -3.969,0 -7.621,-1.33 -10.565,-3.548 -3.574,2.235 -7.785,3.548 -12.311,3.548 -9.677,0 -17.969,-5.91 -21.478,-14.317 -3.488,2.124 -7.572,3.368 -11.956,3.368 -12.742,0 -23.072,-10.331 -23.072,-23.072 0,-1.046 0.094,-2.069 0.228,-3.08 -5.764,-3.588 -9.614,-9.963 -9.614,-17.254 0,-11.231 9.105,-20.336 20.336,-20.336 3.488,0 6.769,0.882 9.638,2.43 2.959,-5.261 8.582,-8.819 15.044,-8.819 5.397,0 10.21,2.481 13.373,6.358 3.767,-2.446 8.25,-3.879 13.075,-3.879 7.293,0 13.81,3.258 18.222,8.384 4.754,-5.01 11.458,-8.151 18.908,-8.151 7.902,0 14.967,3.527 19.751,9.076 4.849,-4.666 11.427,-7.549 18.69,-7.549 14.901,0 26.981,12.081 26.981,26.983 C 26.981,-12.081 14.901,0 0,0"
         style="fill:#ffffff;fill-opacity:1;fill-rule:nonzero;stroke:none"
         id="path104"
         inkscape:connector-curvature="0" />
    </g>
  </g>
</svg>
