<?xml version="1.0" encoding="UTF-8" standalone="no"?>
<!-- Created with Inkscape (http://www.inkscape.org/) -->

<svg
   xmlns:dc="http://purl.org/dc/elements/1.1/"
   xmlns:cc="http://creativecommons.org/ns#"
   xmlns:rdf="http://www.w3.org/1999/02/22-rdf-syntax-ns#"
   xmlns:svg="http://www.w3.org/2000/svg"
   xmlns="http://www.w3.org/2000/svg"
   xmlns:sodipodi="http://sodipodi.sourceforge.net/DTD/sodipodi-0.dtd"
   xmlns:inkscape="http://www.inkscape.org/namespaces/inkscape"
   width="38.737911"
   height="94.010277"
   viewBox="0 0 10.249406 24.873552"
   version="1.1"
   id="svg1653"
   inkscape:version="0.92.3 (2405546, 2018-03-11)"
   sodipodi:docname="flag1.svg">
  <defs
     id="defs1647" />
  <sodipodi:namedview
     id="base"
     pagecolor="#ffffff"
     bordercolor="#666666"
     borderopacity="1.0"
     inkscape:pageopacity="0.0"
     inkscape:pageshadow="2"
     inkscape:zoom="5.6"
     inkscape:cx="69.903862"
     inkscape:cy="67.056653"
     inkscape:document-units="mm"
     inkscape:current-layer="layer1"
     showgrid="false"
     units="px"
     fit-margin-top="0"
     fit-margin-left="0"
     fit-margin-right="0"
     fit-margin-bottom="0"
     inkscape:window-width="1920"
     inkscape:window-height="1017"
     inkscape:window-x="-8"
     inkscape:window-y="-8"
     inkscape:window-maximized="1" />
  <metadata
     id="metadata1650">
    <rdf:RDF>
      <cc:Work
         rdf:about="">
        <dc:format>image/svg+xml</dc:format>
        <dc:type
           rdf:resource="http://purl.org/dc/dcmitype/StillImage" />
        <dc:title></dc:title>
      </cc:Work>
    </rdf:RDF>
  </metadata>
  <g
     inkscape:label="Layer 1"
     inkscape:groupmode="layer"
     id="layer1"
     transform="translate(-11.398187,-271.85991)">
    <path
       style="fill:none;stroke:#000000;stroke-width:0.26458332px;stroke-linecap:butt;stroke-linejoin:miter;stroke-opacity:1"
       d="m 11.525998,296.69932 c 0.0833,-0.31186 0.09783,-0.58656 0.10023,-0.93131 0.0319,-0.34689 -0.105038,-0.57847 -0.06682,-0.93541 -0.02975,-0.34663 0.04671,-0.63402 0.06682,-0.93952 0.08522,-0.36608 -0.01541,-0.88647 0.06682,-1.28552 -0.0218,-0.46286 0.04383,-1.01314 -0.03341,-1.42055 -0.110557,-0.44454 0.08053,-0.84778 -0.03342,-1.23605 -0.01197,-0.55395 0.0027,-1.1307 0.06682,-1.65303 -0.01754,-0.40197 -0.01191,-0.74736 -0.03341,-1.15328 0.03874,-0.27391 -0.02846,-0.58157 -0.03341,-0.86858 0.147629,-0.40072 -0.01125,-0.7246 4e-6,-1.20266 0.0589,-0.2297 0.06739,-0.48213 0.13364,-0.66809 0.0079,-0.23711 0.0125,-0.47745 0.06682,-0.66812 -0.0081,-0.43574 0.06956,-0.83594 0.06682,-1.26946 0.06335,-0.32858 0.158305,-0.68763 0.16705,-1.08367 0.03341,-0.28429 -0.0088,-0.51789 -0.03341,-0.83516 v -2.1903 c 0.08094,-0.21212 -0.100225,-0.87919 -0.100225,-0.87919 0.01692,-0.32113 0.167951,-0.61983 0.133631,-0.87401 -0.05846,-0.52641 -0.0248,-1.14494 -0.03341,-1.7212 0.0175,-0.38883 -0.09842,-0.59402 -0.06681,-0.95007 0.06642,-0.21823 -0.05373,-0.75666 2e-6,-0.98758 0.09749,-0.29244 0.02595,-0.61675 0.03341,-0.96883"
       id="path1659"
       inkscape:connector-curvature="0"
       sodipodi:nodetypes="ccccccccccccccccccccccc" />
    <path
       style="fill:none;stroke:#000000;stroke-width:0.26458332px;stroke-linecap:butt;stroke-linejoin:miter;stroke-opacity:1"
       d="m 11.99374,271.97773 c 9.421231,4.81002 9.432785,4.77692 9.432785,4.77692 l -9.399383,3.79426 v 0"
       id="path2309"
       inkscape:connector-curvature="0" />
    <path
       style="opacity:1;fill:#aad400;fill-opacity:1;stroke:#aad400;stroke-width:0.5618673;stroke-miterlimit:4;stroke-dasharray:none;stroke-opacity:1"
       d="m 45.986721,32.409631 c 0.0198,-4.456257 0.01482,-4.608562 -0.178725,-5.468381 l -0.199094,-0.884455 0.242464,-1.079831 c 0.133356,-0.593908 0.242358,-1.340993 0.242228,-1.660189 C 46.092675,21.066061 45.920908,14.58916 45.859585,14.49285 45.74346,14.310472 45.70773,9.3189899 45.81953,8.8971319 45.87159,8.7007033 45.91089,8.0478015 45.90687,7.446239 c -0.004,-0.6015625 0.0036,-1.09375 0.01693,-1.09375 0.01333,0 1.428034,0.7166871 3.143795,1.592638 7.363844,3.759478 20.219271,10.292803 25.181072,12.797408 l 5.365077,2.708168 -16.693242,6.741072 c -9.181283,3.707589 -16.751947,6.754731 -16.823696,6.771427 -0.113318,0.02637 -0.127779,-0.571808 -0.110085,-4.553571 z"
       id="path2313"
       inkscape:connector-curvature="0"
       transform="matrix(0.26458333,0,0,0.26458333,0,270.54167)" />
  </g>
</svg>
