<?xml version="1.0" encoding="UTF-8" standalone="no"?>
<!-- Created with Inkscape (http://www.inkscape.org/) -->

<svg
   xmlns:dc="http://purl.org/dc/elements/1.1/"
   xmlns:cc="http://creativecommons.org/ns#"
   xmlns:rdf="http://www.w3.org/1999/02/22-rdf-syntax-ns#"
   xmlns:svg="http://www.w3.org/2000/svg"
   xmlns="http://www.w3.org/2000/svg"
   xmlns:sodipodi="http://sodipodi.sourceforge.net/DTD/sodipodi-0.dtd"
   xmlns:inkscape="http://www.inkscape.org/namespaces/inkscape"
   width="38.737911"
   height="94.010277"
   viewBox="0 0 10.249406 24.873552"
   version="1.1"
   id="svg1653"
   inkscape:version="0.92.3 (2405546, 2018-03-11)"
   sodipodi:docname="flag2.svg">
  <defs
     id="defs1647" />
  <sodipodi:namedview
     id="base"
     pagecolor="#ffffff"
     bordercolor="#666666"
     borderopacity="1.0"
     inkscape:pageopacity="0.0"
     inkscape:pageshadow="2"
     inkscape:zoom="15.839192"
     inkscape:cx="33.757838"
     inkscape:cy="70.22275"
     inkscape:document-units="mm"
     inkscape:current-layer="layer1"
     showgrid="false"
     units="px"
     fit-margin-top="0"
     fit-margin-left="0"
     fit-margin-right="0"
     fit-margin-bottom="0"
     inkscape:window-width="1920"
     inkscape:window-height="1017"
     inkscape:window-x="-8"
     inkscape:window-y="-8"
     inkscape:window-maximized="1" />
  <metadata
     id="metadata1650">
    <rdf:RDF>
      <cc:Work
         rdf:about="">
        <dc:format>image/svg+xml</dc:format>
        <dc:type
           rdf:resource="http://purl.org/dc/dcmitype/StillImage" />
        <dc:title></dc:title>
      </cc:Work>
    </rdf:RDF>
  </metadata>
  <g
     inkscape:label="Layer 1"
     inkscape:groupmode="layer"
     id="layer1"
     transform="translate(-11.398187,-271.85991)">
    <path
       style="fill:none;stroke:#000000;stroke-width:0.26458332px;stroke-linecap:butt;stroke-linejoin:miter;stroke-opacity:1"
       d="m 11.525998,296.69932 c 0.0833,-0.31186 0.09783,-0.58656 0.10023,-0.93131 0.0319,-0.34689 -0.105038,-0.57847 -0.06682,-0.93541 -0.02975,-0.34663 0.04671,-0.63402 0.06682,-0.93952 0.08522,-0.36608 -0.01541,-0.88647 0.06682,-1.28552 -0.0218,-0.46286 0.04383,-1.01314 -0.03341,-1.42055 -0.110557,-0.44454 0.08053,-0.84778 -0.03342,-1.23605 -0.01197,-0.55395 0.0027,-1.1307 0.06682,-1.65303 -0.01754,-0.40197 -0.01191,-0.74736 -0.03341,-1.15328 0.03874,-0.27391 -0.02846,-0.58157 -0.03341,-0.86858 0.147629,-0.40072 -0.01125,-0.7246 4e-6,-1.20266 0.0589,-0.2297 0.06739,-0.48213 0.13364,-0.66809 0.0079,-0.23711 0.0125,-0.47745 0.06682,-0.66812 -0.0081,-0.43574 0.06956,-0.83594 0.06682,-1.26946 0.06335,-0.32858 0.158305,-0.68763 0.16705,-1.08367 0.03341,-0.28429 -0.0088,-0.51789 -0.03341,-0.83516 v -2.1903 c 0.08094,-0.21212 -0.100225,-0.87919 -0.100225,-0.87919 0.01692,-0.32113 0.167951,-0.61983 0.133631,-0.87401 -0.05846,-0.52641 -0.0248,-1.14494 -0.03341,-1.7212 0.0175,-0.38883 -0.09842,-0.59402 -0.06681,-0.95007 0.06642,-0.21823 -0.05373,-0.75666 2e-6,-0.98758 0.09749,-0.29244 0.02595,-0.61675 0.03341,-0.96883"
       id="path1659"
       inkscape:connector-curvature="0"
       sodipodi:nodetypes="ccccccccccccccccccccccc" />
    <path
       style="fill:none;stroke:#000000;stroke-width:0.26458332px;stroke-linecap:butt;stroke-linejoin:miter;stroke-opacity:1"
       d="m 11.99374,271.97773 c 0.02977,0.0389 0.05955,0.0779 0.08932,0.11682 0.0056,0 0.01277,-0.004 0.0167,0 0.0039,0.004 -0.0039,0.0128 0,0.0167 0.0039,0.004 0.01277,-0.004 0.0167,0 0.0079,0.008 -0.0079,0.0255 0,0.0334 0.0039,0.004 0.01277,-0.004 0.0167,0 0.02191,0.0219 -0.02191,0.0115 0,0.0334 0.0039,0.004 0.01277,-0.004 0.01671,0 0.0039,0.004 -0.0039,0.0128 0,0.0167 0.0039,0.004 0.01277,-0.004 0.0167,0 0.0039,0.004 -0.0039,0.0128 0,0.0167 0.0079,0.008 0.02553,-0.008 0.03341,0 0.0039,0.004 -0.0039,0.0128 0,0.0167 0.0084,0.008 0.04176,-0.008 0.05011,0 0.0039,0.004 -0.0039,0.0128 0,0.0167 7.56e-4,7.6e-4 0.07564,0 0.08352,0 0.0041,0 0.04958,-5.3e-4 0.05011,0 0.0039,0.004 -0.0039,0.0128 0,0.0167 0.0052,0.005 0.07835,-0.005 0.08352,0 0.0039,0.004 -0.0039,0.0128 0,0.0167 0.0039,0.004 0.01114,0 0.0167,0 0.02784,0 0.05568,0 0.08352,0 0.0056,0 0.01277,-0.004 0.0167,0 0.0084,0.008 -0.0084,0.0418 0,0.0501 0.0039,0.004 0.01277,-0.004 0.0167,0 6.72e-4,6.8e-4 0,0.0607 0,0.0668 0,0.0557 0,0.11136 0,0.16704 0,0.006 0,0.0111 0,0.0167 0,0.006 -0.0039,0.0128 0,0.0167 0.0039,0.004 0.01277,-0.004 0.0167,0 0.0039,0.004 -0.0039,0.0128 0,0.0167 0.0039,0.004 0.01114,0 0.0167,0 0.01162,0 0.07748,-0.003 0.08352,0 0.007,0.004 0.0097,0.0132 0.0167,0.0167 0.005,0.002 0.01277,-0.004 0.0167,0 0.0039,0.004 -0.0039,0.0128 0,0.0167 0.0039,0.004 0.01114,0 0.0167,0 0.02227,0 0.04454,0 0.06682,0 0.0056,0 0.01114,0 0.0167,0 0.0056,0 0.01172,-0.002 0.0167,0 0.007,0.004 0.0097,0.0132 0.0167,0.0167 0.005,0.002 0.01114,0 0.0167,0 0.01184,0 0.09591,-0.002 0.100226,0 0.007,0.004 0.0097,0.0132 0.0167,0.0167 0.006,0.003 0.0719,0 0.08352,0 0.0056,0 0.01277,-0.004 0.0167,0 0.0039,0.004 -0.0039,0.0128 0,0.0167 0.0039,0.004 0.01173,-0.002 0.0167,0 0.007,0.004 0.0097,0.0132 0.0167,0.0167 0.005,0.002 0.01277,-0.004 0.0167,0 0.0039,0.004 -0.0039,0.0128 0,0.0167 0.0039,0.004 0.01277,-0.004 0.0167,0 0.0079,0.008 -0.0079,0.0255 0,0.0334 0.0039,0.004 0.01277,-0.004 0.0167,0 0.0039,0.004 -0.0039,0.0128 0,0.0167 0.0039,0.004 0.01277,-0.004 0.0167,0 0,0.0446 -0.0056,-0.006 0.0167,0.0167 0.0079,0.008 -0.005,0.0234 0,0.0334 0.0035,0.007 0.01318,0.01 0.0167,0.0167 0.005,0.01 -0.0079,0.0255 0,0.0334 0.0039,0.004 0.01277,-0.004 0.0167,0 0.0039,0.004 -0.0039,0.0128 0,0.0167 0.0039,0.004 0.01277,-0.004 0.0167,0 0.0084,0.008 -0.0084,0.0418 0,0.0501 0.0039,0.004 0.01277,-0.004 0.0167,0 0.0039,0.004 0,0.0111 0,0.0167 0,0.0278 0,0.0557 0,0.0835 0,0.006 -0.0039,0.0128 0,0.0167 0.0039,0.004 0.01277,-0.004 0.0167,0 0.0084,0.008 -0.0084,0.0418 0,0.0501 0.0079,0.008 0.02553,-0.008 0.03341,0 0.0039,0.004 0,0.0111 0,0.0167 0.0056,0 0.01277,-0.004 0.0167,0 0.0039,0.004 -0.0039,0.0128 0,0.0167 0.0039,0.004 0.01114,0 0.0167,0 0.0056,0 0.01114,0 0.0167,0 0.05011,0 0.100226,0 0.150339,0 0.04455,0 0.08909,0 0.133635,0 0.01114,0 0.02227,0 0.03341,0 0.0056,0 0.01172,-0.002 0.0167,0 0.04916,0.0246 -0.02593,0.0167 0.05011,0.0167 0.08909,0 0.178179,0 0.267269,0 0.0041,0 0.04958,-5.4e-4 0.05011,0 0.0039,0.004 -0.0039,0.0128 0,0.0167 0.0084,0.008 0.04176,-0.008 0.05011,0 0.0039,0.004 -0.0039,0.0128 0,0.0167 0.0079,0.008 0.02553,-0.008 0.03341,0 0.0039,0.004 -0.0039,0.0128 0,0.0167 0.0079,0.008 0.02553,-0.008 0.03341,0 0.0039,0.004 -0.0025,0.0117 0,0.0167 0.007,0.0141 0.02637,0.0193 0.03341,0.0334 0.0025,0.005 -0.0039,0.0128 0,0.0167 0.0079,0.008 0.02553,-0.008 0.03341,0 0.0039,0.004 -0.0025,0.0117 0,0.0167 0.0035,0.007 0.01318,0.01 0.01671,0.0167 0.0025,0.005 -0.0039,0.0128 0,0.0167 0.0039,0.004 0.01277,-0.004 0.0167,0 0.0039,0.004 -0.0039,0.0128 0,0.0167 0.0079,0.008 0.02554,-0.008 0.03341,0 0.02089,0.0209 -0.02089,0.0125 0,0.0334 0.0039,0.004 0.01277,-0.004 0.0167,0 0.0039,0.004 -0.0025,0.0117 0,0.0167 0.0035,0.007 0.01318,0.01 0.0167,0.0167 0.0025,0.005 -0.0039,0.0128 0,0.0167 0.0039,0.004 0.01277,-0.004 0.0167,0 0.0039,0.004 -0.0039,0.0128 0,0.0167 0.0039,0.004 0.01277,-0.004 0.0167,0 0.0084,0.008 -0.0084,0.0418 0,0.0501 0.0039,0.004 0.01277,-0.004 0.0167,0 0.0084,0.008 -0.0084,0.0418 0,0.0501 0.0039,0.004 0.01277,-0.004 0.0167,0 0.0079,0.008 -0.005,0.0235 0,0.0334 0.0164,0.0328 0.03175,0.008 0.05011,0.0167 0.007,0.004 0.0097,0.0132 0.0167,0.0167 0.01054,0.005 0.07298,-0.005 0.08352,0 0.007,0.004 0.0097,0.0132 0.0167,0.0167 0.0071,0.004 0.07692,0 0.08352,0 0.05568,0 0.111362,0 0.167043,0 0.06682,0 0.133635,0 0.200453,0 0.02227,0 0.04454,0 0.06682,0 0.01114,0 0.02249,-0.002 0.03341,0 0.01727,0.003 0.03285,0.0133 0.05011,0.0167 0.01638,0.003 0.03341,0 0.05011,0 0.03898,0 0.07795,0 0.11693,0 0.0056,0 0.01114,0 0.0167,0 0.0056,0 0.01172,-0.002 0.0167,0 0.007,0.004 0.01114,0.0111 0.0167,0.0167 0.01114,0 0.02284,-0.004 0.03341,0 0.0075,0.002 0.0097,0.0132 0.01671,0.0167 0.005,0.002 0.01114,0 0.0167,0 0.01194,0 0.09168,-0.003 0.100227,0 0.0075,0.002 0.0097,0.0132 0.0167,0.0167 0.01035,0.005 0.06187,-0.005 0.06682,0 0.0039,0.004 -0.0039,0.0128 0,0.0167 0.0046,0.005 0.05776,-0.005 0.06682,0 0.06952,0.0348 -0.01786,-0.001 0.0167,0.0334 0.0039,0.004 0.01277,-0.004 0.0167,0 0.0084,0.008 -0.0084,0.0418 0,0.0501 0.0039,0.004 0.01277,-0.004 0.0167,0 0.0039,0.004 -0.0039,0.0128 0,0.0167 0.0039,0.004 0.01277,-0.004 0.0167,0 0.0034,0.003 -0.0033,0.0435 0,0.0501 0.0035,0.007 0.01318,0.01 0.0167,0.0167 0.005,0.01 -0.0079,0.0255 0,0.0334 0.0039,0.004 0.01277,-0.004 0.0167,0 0.0079,0.008 -0.0079,0.0255 0,0.0334 0.0039,0.004 0.01277,-0.004 0.0167,0 0.0079,0.008 -0.0079,0.0255 0,0.0334 0.0039,0.004 0.01277,-0.004 0.0167,0 0.0083,0.008 -0.0083,0.0251 0,0.0334 0.0039,0.004 0.01277,-0.004 0.0167,0 0.004,0.004 -0.004,0.0628 0,0.0668 0.0079,0.008 0.02553,-0.008 0.03341,0 0.0039,0.004 -0.0039,0.0128 0,0.0167 0.0039,0.004 0.01172,-0.002 0.01671,0 0.007,0.004 0.0097,0.0132 0.0167,0.0167 0.01,0.005 0.02554,-0.008 0.03341,0 0.0039,0.004 -0.0039,0.0128 0,0.0167 0.0084,0.008 0.04176,-0.008 0.05011,0 0.0039,0.004 -0.0039,0.0128 0,0.0167 0.004,0.004 0.0628,-0.004 0.06682,0 0.0039,0.004 -0.0039,0.0128 0,0.0167 0.0039,0.004 0.01172,-0.002 0.0167,0 0.007,0.004 0.0097,0.0132 0.0167,0.0167 0.01,0.005 0.02554,-0.008 0.03341,0 0.0039,0.004 -0.0039,0.0128 0,0.0167 0.04425,0.0443 -0.01084,-0.0442 0.03341,0 0.0084,0.008 -0.0084,0.0418 0,0.0501 0.0039,0.004 0.01277,-0.004 0.0167,0 0.0039,0.004 0,0.0111 0,0.0167 0,0.0278 0,0.0557 0,0.0835 0,0.004 -5.29e-4,0.0496 0,0.0501 0.0079,0.008 0.02345,-0.005 0.03341,0 0.007,0.004 0.0097,0.0132 0.0167,0.0167 0.0105,0.005 0.05632,-0.005 0.06682,0 0.007,0.004 0.0097,0.0132 0.0167,0.0167 0.01,0.005 0.02345,-0.005 0.03341,0 0.007,0.004 0.0097,0.0132 0.01671,0.0167 0.005,0.002 0.01277,-0.004 0.0167,0 0.0039,0.004 -0.0039,0.0128 0,0.0167 0.0079,0.008 0.02345,-0.005 0.03341,0 0.007,0.004 0.0097,0.0132 0.0167,0.0167 0.01336,0.007 0.03675,-0.007 0.05011,0 0.01409,0.007 0.01932,0.0264 0.03341,0.0334 0.0105,0.005 0.05632,-0.005 0.06682,0 0.007,0.004 0.0097,0.0132 0.0167,0.0167 0.01,0.005 0.02554,-0.008 0.03341,0 0.0039,0.004 0,0.0111 0,0.0167 0,0.008 0.0025,0.045 0,0.0501 -0.0035,0.007 -0.01318,0.01 -0.0167,0.0167 -0.0022,0.004 0,0.0581 0,0.0668 0,0.006 -0.0039,0.0128 0,0.0167 0.03456,0.0346 -0.0013,-0.0528 0.03341,0.0167 0.0025,0.005 -0.0039,0.0128 0,0.0167 0.0039,0.004 0.01172,-0.002 0.0167,0 0.007,0.004 0.0097,0.0132 0.0167,0.0167 0.01154,0.006 0.07766,-0.006 0.08352,0 0.0039,0.004 -0.0039,0.0128 0,0.0167 0.0079,0.008 0.02554,-0.008 0.03341,0 0.03456,0.0346 -0.05281,-0.001 0.0167,0.0334 0.01,0.005 0.02553,-0.008 0.03341,0 0.0039,0.004 -0.0039,0.0128 0,0.0167 0.0039,0.004 0.01277,-0.004 0.0167,0 0.0039,0.004 -0.0039,0.0128 0,0.0167 0.0084,0.008 0.04176,-0.008 0.05011,0 0.0039,0.004 -0.0025,0.0117 0,0.0167 0.03476,0.0695 -0.0012,-0.0179 0.03341,0.0167 0.0039,0.004 -0.0039,0.0128 0,0.0167 0.0079,0.008 0.02553,-0.008 0.03341,0 0.0039,0.004 -0.0039,0.0128 0,0.0167 0.0039,0.004 0.01277,-0.004 0.0167,0 0.0039,0.004 -0.0039,0.0128 0,0.0167 0.0039,0.004 0.01277,-0.004 0.0167,0 0.0039,0.004 -0.0039,0.0128 0,0.0167 0.0039,0.004 0.01277,-0.004 0.0167,0 0.0039,0.004 -0.0039,0.0128 0,0.0167 0.0039,0.004 0.01277,-0.004 0.0167,0 0.0039,0.004 -0.0039,0.0128 0,0.0167 0.0079,0.008 0.02345,-0.005 0.03341,0 0.007,0.004 0.0097,0.0132 0.0167,0.0167 0.006,0.003 0.0719,0 0.08352,0 0.0056,0 0.01277,-0.004 0.01671,0 0.0039,0.004 -0.0039,0.0128 0,0.0167 0.004,0.004 0.0628,-0.004 0.06682,0 0.0039,0.004 -0.0039,0.0128 0,0.0167 0.0039,0.004 0.01277,-0.004 0.0167,0 0.0039,0.004 -0.0039,0.0128 0,0.0167 0.0084,0.008 0.04176,-0.008 0.05011,0 0.0039,0.004 -0.0039,0.0128 0,0.0167 0.0039,0.004 0.01172,-0.002 0.0167,0 0.007,0.004 0.0097,0.0132 0.0167,0.0167 0.01,0.005 0.02345,-0.005 0.03341,0 0.007,0.004 0.0097,0.0132 0.0167,0.0167 0.01,0.005 0.02553,-0.008 0.03341,0 0.0039,0.004 -0.0039,0.0128 0,0.0167 0.0079,0.008 0.02554,-0.008 0.03341,0 0.0039,0.004 -0.0039,0.0128 0,0.0167 0.0039,0.004 0.01277,-0.004 0.0167,0 0.03456,0.0346 -0.05282,-0.001 0.0167,0.0334 0.005,0.002 0.01277,-0.004 0.0167,0 0.0039,0.004 -0.0039,0.0128 0,0.0167 0.03456,0.0346 -0.0014,-0.0528 0.03341,0.0167 0.0025,0.005 -0.0039,0.0128 0,0.0167 0.0039,0.004 0.01277,-0.004 0.0167,0 0.0039,0.004 -0.0039,0.0128 0,0.0167 0.0039,0.004 0.01277,-0.004 0.0167,0 0.01948,0.0195 -0.01948,0.0139 0,0.0334 0.02227,0.0223 0.0167,-0.0278 0.0167,0.0167 -0.0333,0.006 -0.06647,0.0125 -0.0999,0.0175 -0.01101,0.002 -0.02227,0 -0.03341,0 -0.02227,0 -0.04454,0 -0.06682,0 -0.06682,0 -0.133635,0 -0.200452,0 -0.0079,0 -0.08277,-7.5e-4 -0.08352,0 -0.0039,0.004 0.0039,0.0128 0,0.0167 -0.03456,0.0346 0.0014,-0.0528 -0.03341,0.0167 -0.0033,0.007 0.0034,0.0467 0,0.0501 -0.0039,0.004 -0.01277,-0.004 -0.0167,0 -0.0039,0.004 0,0.0111 0,0.0167 0,0.0278 0,0.0557 0,0.0835 0,0.008 -0.0025,0.045 0,0.0501 0.0035,0.007 0.01318,0.01 0.0167,0.0167 0.0025,0.005 -0.0025,0.0117 0,0.0167 0.0035,0.007 0.01318,0.01 0.0167,0.0167 0.0067,0.0134 -0.0067,0.0368 0,0.0501 0.0035,0.007 0.01318,0.01 0.0167,0.0167 0.0022,0.004 0,0.0581 0,0.0668 0,0.004 5.37e-4,0.0496 0,0.0501 -0.0046,0.005 -0.05776,-0.005 -0.06682,0 -0.007,0.004 -0.0097,0.0132 -0.0167,0.0167 -0.0051,0.003 -0.04259,0 -0.05011,0 -0.03898,0 -0.07795,0 -0.11693,0 -0.08909,0 -0.17818,0 -0.26727,0 -0.03341,0 -0.06682,0 -0.100226,0 -0.01098,0 -0.04069,-0.003 -0.05011,0 -0.01181,0.004 -0.0216,0.0128 -0.03341,0.0167 -0.01149,0.004 -0.04026,-0.005 -0.05011,0 -0.007,0.004 -0.0097,0.0132 -0.0167,0.0167 -0.0051,0.003 -0.04259,0 -0.05011,0 -0.03341,0 -0.06682,0 -0.100226,0 -0.0056,0 -0.01114,0 -0.0167,0 -0.0056,0 -0.01277,-0.004 -0.01671,0 -0.0039,0.004 0.0039,0.0128 0,0.0167 -0.0039,0.004 -0.01277,-0.004 -0.0167,0 -0.0017,0.002 -0.0017,0.0484 0,0.0501 0.0039,0.004 0.01277,-0.004 0.0167,0 0.0039,0.004 -0.0025,0.0117 0,0.0167 0.007,0.0141 0.02637,0.0193 0.03341,0.0334 0.005,0.01 -0.0079,0.0255 0,0.0334 0.0039,0.004 0.01277,-0.004 0.0167,0 0.0039,0.004 0,0.0111 0,0.0167 0.0056,0 0.01277,-0.004 0.0167,0 0.0017,0.002 0.0017,0.0484 0,0.0501 -0.004,0.004 -0.0628,-0.004 -0.06682,0 -0.0039,0.004 0.0039,0.0128 0,0.0167 -0.0026,0.003 -0.04361,-0.002 -0.05011,0 -0.01181,0.004 -0.0216,0.0128 -0.03341,0.0167 -0.01056,0.004 -0.02284,-0.004 -0.03341,0 -0.01181,0.004 -0.02133,0.0137 -0.03341,0.0167 -0.0108,0.003 -0.02249,-0.002 -0.03341,0 -0.01727,0.003 -0.03285,0.0132 -0.05011,0.0167 -0.02184,0.004 -0.04521,-0.005 -0.06682,0 -0.01208,0.003 -0.02133,0.0137 -0.03341,0.0167 -0.0108,0.003 -0.02249,-0.002 -0.03341,0 -0.01727,0.003 -0.03285,0.0133 -0.05011,0.0167 -0.01092,0.002 -0.02249,-0.002 -0.03341,0 -0.01727,0.003 -0.03285,0.0133 -0.05011,0.0167 -0.01092,0.002 -0.02249,-0.002 -0.03341,0 -0.01727,0.003 -0.03341,0.0111 -0.05011,0.0167 -0.0167,0.006 -0.03341,0.0111 -0.05011,0.0167 -0.0167,0.006 -0.03275,0.0138 -0.05011,0.0167 -0.01648,0.003 -0.03364,-0.003 -0.05011,0 -0.01737,0.003 -0.03341,0.0111 -0.05011,0.0167 -0.0357,0.0119 -0.08022,0.0282 -0.11693,0.0334 -0.03307,0.005 -0.06727,-0.005 -0.100227,0 -0.03096,0.005 -0.05626,0.0198 -0.08352,0.0334 -0.01114,0.006 -0.02133,0.0137 -0.03341,0.0167 -0.0108,0.003 -0.02249,-0.002 -0.03341,0 -0.181674,0.0606 0.04402,-0.009 -0.08352,0.0167 -0.01727,0.003 -0.03285,0.0132 -0.05011,0.0167 -0.01092,0.002 -0.02261,-0.003 -0.03341,0 -0.01208,0.003 -0.02133,0.0137 -0.03341,0.0167 -0.029,0.007 -0.07122,-0.007 -0.100226,0 -0.01208,0.003 -0.0216,0.0128 -0.03341,0.0167 -0.0056,0 -0.01114,0 -0.0167,0 -0.0056,0 -0.01142,-0.002 -0.0167,0 -0.01181,0.004 -0.0216,0.0128 -0.03341,0.0167 -0.01051,0.003 -0.06846,0 -0.08352,0 -0.0056,0 -0.01277,-0.004 -0.0167,0 -0.0084,0.008 0.0084,0.0418 0,0.0501 -0.0039,0.004 -0.01277,-0.004 -0.0167,0 -0.02367,0.0237 0.02367,0.01 0,0.0334 -0.0079,0.008 -0.02553,-0.008 -0.03341,0 -0.0039,0.004 0.0039,0.0128 0,0.0167 -0.0079,0.008 -0.02345,-0.005 -0.03341,0 -0.007,0.004 -0.0097,0.0132 -0.0167,0.0167 -0.01,0.005 -0.02345,-0.005 -0.03341,0 -0.007,0.004 -0.0097,0.0132 -0.0167,0.0167 -0.0051,0.003 -0.04259,0 -0.05011,0 -0.05011,0 -0.100226,0 -0.150339,0 -0.004,0 -0.06307,-0.002 -0.06682,0 -0.007,0.004 -0.0092,0.0142 -0.0167,0.0167 -0.02113,0.007 -0.04569,-0.007 -0.06682,0 -0.0075,0.002 -0.0092,0.0142 -0.0167,0.0167 -0.01585,0.005 -0.03341,0 -0.05011,0 -0.04454,0 -0.08909,0 -0.133635,0 -0.04454,0 -0.08909,0 -0.133634,0 -0.0056,0 -0.01114,0 -0.0167,0 -0.0056,0 -0.01277,-0.004 -0.0167,0 -0.0017,0.002 -0.0017,0.0484 0,0.0501 0.0039,0.004 0.01277,-0.004 0.0167,0 5.38e-4,5.4e-4 0,0.0461 0,0.0501 0,0.0446 -0.0056,-0.006 0.0167,0.0167 0.0039,0.004 0,0.0111 0,0.0167 0,0.006 0.0025,0.0117 0,0.0167 -0.0035,0.007 -0.01318,0.01 -0.0167,0.0167 -0.0025,0.005 0.0025,0.0117 0,0.0167 -0.01002,0.02 -0.04009,0.0301 -0.05011,0.0501 -0.0025,0.005 0.0039,0.0128 0,0.0167 -0.0039,0.004 -0.01172,-0.002 -0.0167,0 -0.01481,0.007 -0.03491,0.04 -0.05011,0.0501 -0.08439,0.0562 -3.87e-4,1.3e-4 -0.05011,0.0167 -0.120997,0.0403 0.02634,-0.005 -0.05011,0.0334 -0.005,0.002 -0.01142,-0.002 -0.0167,0 -0.100117,0.0334 0.04196,-0.004 -0.06682,0.0501 -0.01,0.005 -0.0226,-0.003 -0.03341,0 -0.03243,0.008 -0.05358,0.0381 -0.08352,0.0501 -0.01034,0.004 -0.0226,-0.003 -0.03341,0 -0.02416,0.006 -0.0437,0.0242 -0.06682,0.0334 -0.01635,0.007 -0.03377,0.0102 -0.05011,0.0167 -0.01156,0.005 -0.0216,0.0128 -0.03341,0.0167 -0.02178,0.007 -0.04504,0.009 -0.06682,0.0167 -0.01181,0.004 -0.0212,0.0143 -0.03341,0.0167 -0.01638,0.003 -0.03373,-0.003 -0.05011,0 -0.01221,0.002 -0.02185,0.0121 -0.03341,0.0167 -0.01635,0.007 -0.03341,0.0111 -0.05011,0.0167 -0.0167,0.006 -0.03275,0.0138 -0.05011,0.0167 -0.01648,0.003 -0.03373,-0.003 -0.05011,0 -0.01221,0.002 -0.02185,0.0121 -0.03341,0.0167 -0.01635,0.007 -0.03376,0.0102 -0.05011,0.0167 -0.01156,0.005 -0.0216,0.0128 -0.03341,0.0167 -0.02178,0.007 -0.04504,0.009 -0.06682,0.0167 -0.01181,0.004 -0.0212,0.0143 -0.03341,0.0167 -0.01638,0.003 -0.03373,-0.003 -0.05011,0 -0.01221,0.002 -0.0216,0.0128 -0.03341,0.0167 -0.01056,0.004 -0.02227,0 -0.03341,0 -0.007,0 -0.09526,-0.002 -0.100226,0 -0.007,0.004 -0.0097,0.0132 -0.0167,0.0167 -0.005,0.002 -0.01277,-0.004 -0.0167,0 -0.0039,0.004 0.0039,0.0128 0,0.0167 -0.0039,0.004 -0.01277,-0.004 -0.0167,0 -0.0039,0.004 0.0039,0.0128 0,0.0167 -0.0039,0.004 -0.01277,-0.004 -0.0167,0 -0.02261,0.0226 0.02261,0.0108 0,0.0334 -0.0079,0.008 -0.02345,-0.005 -0.03341,0 -0.007,0.004 -0.0097,0.0132 -0.0167,0.0167 -0.01,0.005 -0.02553,-0.008 -0.03341,0 -0.0039,0.004 0.0039,0.0128 0,0.0167 -0.0039,0.004 -0.01277,-0.004 -0.0167,0 -0.0039,0.004 0.0039,0.0128 0,0.0167 -0.0079,0.008 -0.02553,-0.008 -0.03341,0 -0.0039,0.004 0.0039,0.0128 0,0.0167 -0.01102,0.011 -0.02238,-0.011 -0.03341,0 -0.0039,0.004 0.0039,0.0128 0,0.0167 -0.0039,0.004 -0.01277,-0.004 -0.0167,0 -0.0039,0.004 0.0039,0.0128 0,0.0167 -0.0039,0.004 -0.01277,-0.004 -0.0167,0 -0.0039,0.004 0.0039,0.0128 0,0.0167 -0.0039,0.004 -0.01114,0 -0.0167,0 -0.0056,0 -0.01114,0 -0.0167,0 -0.03341,0 -0.06682,0 -0.100226,0 -0.0056,0 -0.01278,-0.004 -0.0167,0 -0.01068,0.0108 -0.01501,0.0263 -0.02251,0.0395"
       id="path2315"
       inkscape:connector-curvature="0" />
    <path
       style="opacity:1;fill:#aad400;fill-opacity:1;stroke:#aad400;stroke-width:0.39730015;stroke-miterlimit:4;stroke-dasharray:none;stroke-opacity:1"
       d="m 2.6956472,20.246728 c 0,-0.03762 0.054953,-0.286212 0.122117,-0.552427 0.2035947,-0.806976 0.2564569,-1.371716 0.1871394,-1.999257 -0.03452,-0.312516 -0.076082,-2.045559 -0.092359,-3.851206 C 2.8866194,10.968034 2.8660642,10.428731 2.7468168,9.4956933 2.629054,8.5742707 2.6196735,8.3399961 2.6772982,7.7594934 2.7191339,7.3380471 2.7241783,6.8066394 2.6908599,6.3308279 2.6041977,5.0932292 2.6134994,4.3468525 2.7211522,3.9001484 2.7847545,3.6362316 2.8203829,3.1933344 2.8209831,2.6591508 l 9.332e-4,-0.8306232 0.2051872,0.053908 c 0.112853,0.029649 0.3827531,0.087693 0.5997781,0.1289865 l 0.3945908,0.075079 v 0.3406408 c 0,0.3302536 0.116118,0.725782 0.2345637,0.7989854 0.1223809,0.075636 1.0136962,0.2865543 1.3753669,0.3254635 0.6995644,0.075261 0.7012943,0.076116 0.8723377,0.4312235 0.1550608,0.3219259 0.2870556,0.7672744 0.3425196,1.1556567 0.02804,0.1963465 0.028706,0.1966531 0.5114639,0.2354456 0.2658631,0.021364 1.0216661,0.058228 1.6795622,0.08192 l 1.1961746,0.043077 0.335875,0.3528229 c 0.220846,0.2319903 0.380708,0.4745359 0.466784,0.7082164 0.208826,0.5669221 0.384097,0.6181637 2.360831,0.6902041 1.434622,0.052284 2.645637,0.1812624 2.748776,0.2927576 0.03931,0.042498 0.175244,0.3489347 0.498538,1.1238916 0.0542,0.1299195 0.249139,0.2411903 0.786378,0.4488613 0.295791,0.1143385 0.312428,0.1339285 0.396279,0.4665894 0.09773,0.3877136 0.186042,0.4785981 0.555706,0.5718721 0.242422,0.06117 0.607673,0.194121 0.889666,0.323842 0.07955,0.0366 0.158737,0.166913 0.203803,0.335413 0.07962,0.297701 0.347228,0.550158 0.662165,0.624682 0.203098,0.04806 0.762946,0.37367 0.992669,0.577342 0.221434,0.196323 0.365694,0.259012 0.711485,0.309184 0.359268,0.05213 0.342238,0.131516 -0.04052,0.188914 -0.152686,0.0229 -0.322524,0.09126 -0.377418,0.151916 -0.205702,0.227299 -0.288991,1.112959 -0.138545,1.473225 0.03991,0.09558 -0.06384,0.108358 -1.112993,0.137085 -1.181636,0.03235 -1.844827,0.100572 -2.1482,0.220969 -0.185797,0.07374 -0.342616,0.480468 -0.271563,0.704337 0.04265,0.13437 -0.0092,0.15197 -1.010091,0.342831 -0.548966,0.104684 -0.800406,0.165981 -1.552345,0.378434 -0.194034,0.05482 -0.457744,0.09968 -0.586022,0.09968 -0.128279,0 -0.331731,0.04115 -0.452117,0.09145 -0.120386,0.0503 -0.467503,0.136737 -0.771371,0.19208 -1.475891,0.268806 -1.720475,0.332035 -1.720475,0.444775 0,0.229883 -0.225278,0.270142 -2.1150068,0.377975 -0.34724,0.01981 -0.751981,0.06677 -0.8994248,0.104353 -0.2372679,0.06047 -0.2755701,0.09614 -0.3332528,0.310362 -0.035845,0.133119 -0.046987,0.314495 -0.02476,0.403057 0.055006,0.219161 -0.024936,0.297217 -0.611336,0.596914 -0.7307962,0.373494 -1.2104742,0.565695 -1.8545359,0.743088 -0.3134116,0.08632 -0.7829183,0.228211 -1.0433483,0.315308 -0.2604299,0.0871 -0.6439722,0.173547 -0.8523162,0.19211 -0.4044628,0.03604 -0.6496774,0.133674 -0.9360784,0.372716 -0.1929084,0.161011 -0.295045,0.188896 -0.295045,0.08056 z"
       id="path2317"
       inkscape:connector-curvature="0"
       transform="matrix(0.26458333,0,0,0.26458333,11.398187,271.85991)" />
  </g>
</svg>
