<?xml version="1.0" encoding="UTF-8" standalone="no"?>
<!-- Created with Inkscape (http://www.inkscape.org/) -->

<svg
   xmlns:dc="http://purl.org/dc/elements/1.1/"
   xmlns:cc="http://creativecommons.org/ns#"
   xmlns:rdf="http://www.w3.org/1999/02/22-rdf-syntax-ns#"
   xmlns:svg="http://www.w3.org/2000/svg"
   xmlns="http://www.w3.org/2000/svg"
   xmlns:sodipodi="http://sodipodi.sourceforge.net/DTD/sodipodi-0.dtd"
   xmlns:inkscape="http://www.inkscape.org/namespaces/inkscape"
   width="256.71695"
   height="15.818144"
   viewBox="0 0 67.923025 4.1852173"
   version="1.1"
   id="svg8"
   inkscape:version="0.92.3 (2405546, 2018-03-11)"
   sodipodi:docname="grass1.svg">
  <defs
     id="defs2" />
  <sodipodi:namedview
     id="base"
     pagecolor="#ffffff"
     bordercolor="#666666"
     borderopacity="1.0"
     inkscape:pageopacity="0.0"
     inkscape:pageshadow="2"
     inkscape:zoom="2.8"
     inkscape:cx="112.4341"
     inkscape:cy="7.0996158"
     inkscape:document-units="mm"
     inkscape:current-layer="layer1"
     showgrid="false"
     units="px"
     fit-margin-top="0"
     fit-margin-left="0"
     fit-margin-right="0"
     fit-margin-bottom="0"
     inkscape:window-width="1920"
     inkscape:window-height="1017"
     inkscape:window-x="-8"
     inkscape:window-y="-8"
     inkscape:window-maximized="1" />
  <metadata
     id="metadata5">
    <rdf:RDF>
      <cc:Work
         rdf:about="">
        <dc:format>image/svg+xml</dc:format>
        <dc:type
           rdf:resource="http://purl.org/dc/dcmitype/StillImage" />
        <dc:title></dc:title>
      </cc:Work>
    </rdf:RDF>
  </metadata>
  <g
     inkscape:label="Layer 1"
     inkscape:groupmode="layer"
     id="layer1"
     transform="translate(-5.6618354,-289.33476)">
    <path
       style="fill:none;stroke:#000000;stroke-width:0.26458332px;stroke-linecap:butt;stroke-linejoin:miter;stroke-opacity:1"
       d="M 71.154017,293.5037 H 6.8035714 c -1.2284224,-0.94497 -1.3100771,0.28705 -1.2284224,-0.94497 -0.2399189,-0.63798 -0.1262083,-1.68965 0.377976,-2.0789 0.5967946,-0.21931 1.0619906,-0.62713 1.9843748,-0.4725 0.3225964,0.32747 0.9899292,0.31728 1.7008927,0.2835 0.8496675,-0.13058 1.6387035,-0.33143 2.6374475,-0.378 1.519311,-0.17242 3.154615,-0.0648 4.73306,-0.0945 0.672361,-0.16137 1.923103,-0.14105 2.598588,-4e-5 0.731322,0.26095 1.806195,0.1782 2.787556,0.18904 0.627544,-0.2229 1.670639,-0.0303 2.456842,-0.0945 0.788169,-0.14334 1.83276,-0.19508 2.775016,-0.189 1.405956,0.0314 2.954566,-0.0799 4.217531,0.0945 0.852493,0.328 1.790299,0.29667 2.826436,0.2835 1.139434,0.0398 2.160643,-0.0386 3.20442,-0.0945 1.193475,-0.06 2.398102,-0.3469 3.504634,-0.4725 1.795353,-0.19037 3.726149,-0.0538 5.583491,-0.0945 1.719608,-0.21443 3.601704,-0.0366 5.386155,-0.0945 1.053733,0.28808 2.215013,0.31654 3.40177,0.2835 0.853955,-0.25441 2.288533,-0.319 3.023798,0.0945 0.856752,0.56301 2.296405,0.32973 3.496267,0.378 0.757658,-0.25072 1.881893,0.0613 2.551329,-0.189 0.960366,-0.0344 1.973144,0.1298 2.645813,-0.2835 0.75663,0.0521 1.224363,-0.18468 1.924563,-0.189 0.693873,0.005 1.490648,-0.54357 2.233148,-0.189 0.823691,0.12128 1.524152,0.36574 1.984363,0.85049 0.186623,0.43291 0.31643,1.4595 0.09449,1.98439 0.0037,0.85413 -0.604244,1.09666 -1.228402,1.32296 -0.248763,0.35207 -0.782137,0.35517 -1.322691,0.0945 -0.257567,0.003 -0.07952,0.0265 0,0"
       id="path12"
       inkscape:connector-curvature="0"
       sodipodi:nodetypes="cccccccccccccccccccccccccccccc"
       inkscape:export-filename="D:\Crap\Unity Projects\Jump n RPG\Assets\Sprites\grass.png"
       inkscape:export-xdpi="221.32135"
       inkscape:export-ydpi="221.32135" />
    <path
       style="opacity:1;fill:#aad400;fill-opacity:1;stroke:none;stroke-width:2.24746919;stroke-miterlimit:4;stroke-dasharray:none;stroke-opacity:1"
       d="M 270.15459,86.533336 C 269.76132,86.364341 214.75129,86.215115 147.75251,86.201295 26.791627,86.176341 26.057727,86.171934 24.895366,85.463242 24.252225,85.071119 23.3059,84.749691 22.792421,84.748956 c -0.839647,-0.0012 -0.956454,-0.168084 -1.160714,-1.658324 -0.645968,-4.71285 -0.0095,-6.551744 2.702779,-7.80834 2.604089,-1.206492 4.562816,-1.455754 5.920876,-0.753474 1.944431,1.005504 4.566164,1.066992 9.363515,0.219604 3.518032,-0.621413 6.924546,-0.866025 16.071428,-1.15404 14.220479,-0.447771 16.793597,-0.431115 19.091275,0.12358 1.919507,0.463399 7.441811,0.533633 15.015868,0.190975 2.553572,-0.115527 10.195929,-0.308139 16.983022,-0.428028 10.63524,-0.187864 12.6444,-0.139142 14.54228,0.352648 4.92273,1.275608 20.11404,0.997473 29.36756,-0.537686 5.58134,-0.925946 13.5111,-1.401938 19.10714,-1.146927 2.35714,0.107414 6.9375,0.01616 10.17857,-0.202797 6.19284,-0.418361 15.89132,-0.146227 24.77345,0.695131 3.7373,0.354015 5.0371,0.346898 6.96429,-0.03813 4.07211,-0.813564 7.30246,-0.585568 10.58369,0.746991 2.77917,1.128662 3.00335,1.160537 8.21428,1.167909 7.18038,0.01016 18.81972,-0.447456 21.25,-0.835468 1.08036,-0.172487 3.65179,-0.570812 5.71429,-0.885167 2.0625,-0.314354 5.4375,-0.881508 7.5,-1.260341 3.63789,-0.668196 3.83096,-0.669655 6.45817,-0.0488 3.20338,0.757011 5.65858,2.023683 6.32073,3.260939 0.34212,0.639281 0.42995,1.879259 0.31064,4.385691 -0.19334,4.061855 -0.63335,4.98807 -2.8518,6.003076 -0.81826,0.374374 -1.79971,0.921841 -2.181,1.216593 -0.76149,0.588657 -1.77746,0.651761 -2.87817,0.17877 z"
       id="path15"
       inkscape:connector-curvature="0"
       transform="matrix(0.26458333,0,0,0.26458333,0,270.54165)"
       inkscape:export-filename="D:\Crap\Unity Projects\Jump n RPG\Assets\Sprites\grass.png"
       inkscape:export-xdpi="221.32135"
       inkscape:export-ydpi="221.32135" />
  </g>
</svg>
