<?xml version="1.0" encoding="UTF-8" standalone="no"?>
<!-- Created with Inkscape (http://www.inkscape.org/) -->

<svg
   xmlns:dc="http://purl.org/dc/elements/1.1/"
   xmlns:cc="http://creativecommons.org/ns#"
   xmlns:rdf="http://www.w3.org/1999/02/22-rdf-syntax-ns#"
   xmlns:svg="http://www.w3.org/2000/svg"
   xmlns="http://www.w3.org/2000/svg"
   xmlns:sodipodi="http://sodipodi.sourceforge.net/DTD/sodipodi-0.dtd"
   xmlns:inkscape="http://www.inkscape.org/namespaces/inkscape"
   width="80.68531"
   height="90.041588"
   viewBox="0 0 21.347988 23.823503"
   version="1.1"
   id="svg3992"
   sodipodi:docname="melon.svg"
   inkscape:version="0.92.3 (2405546, 2018-03-11)">
  <defs
     id="defs3986">
    <inkscape:path-effect
       effect="bspline"
       id="path-effect4012"
       is_visible="true"
       weight="33.333333"
       steps="2"
       helper_size="0"
       apply_no_weight="true"
       apply_with_weight="true"
       only_selected="false" />
  </defs>
  <sodipodi:namedview
     id="base"
     pagecolor="#ffffff"
     bordercolor="#666666"
     borderopacity="1.0"
     inkscape:pageopacity="0.0"
     inkscape:pageshadow="2"
     inkscape:zoom="5.6"
     inkscape:cx="24.619364"
     inkscape:cy="21.040152"
     inkscape:document-units="mm"
     inkscape:current-layer="layer1"
     showgrid="false"
     units="px"
     inkscape:window-width="1920"
     inkscape:window-height="1017"
     inkscape:window-x="-8"
     inkscape:window-y="-8"
     inkscape:window-maximized="1"
     fit-margin-top="0"
     fit-margin-left="0"
     fit-margin-right="0"
     fit-margin-bottom="0" />
  <metadata
     id="metadata3989">
    <rdf:RDF>
      <cc:Work
         rdf:about="">
        <dc:format>image/svg+xml</dc:format>
        <dc:type
           rdf:resource="http://purl.org/dc/dcmitype/StillImage" />
        <dc:title></dc:title>
      </cc:Work>
    </rdf:RDF>
  </metadata>
  <g
     inkscape:label="Layer 1"
     inkscape:groupmode="layer"
     id="layer1"
     transform="translate(-2.2423489,-272.38945)">
    <rect
       style="fill:#000000;fill-opacity:1;stroke:#000000;stroke-width:0.23548858;stroke-opacity:1"
       id="rect5790-1"
       width="5.0528059"
       height="1.7180464"
       x="6.9447403"
       y="294.32394"
       ry="0.85902321" />
    <path
       style="fill:none;stroke:#000000;stroke-width:0.26458332px;stroke-linecap:butt;stroke-linejoin:miter;stroke-opacity:1"
       d="m 2.3529017,291.49102 c 0.3364303,0.50806 0.6954922,1.14174 1.3615744,1.58327 0.8139299,0.41137 1.3661271,0.57513 2.1312581,0.88477 0.7693714,0.46538 1.7548929,0.51878 2.6408869,0.63564 1.0825312,0.18842 1.7780909,0.24435 2.7449589,0.41593 1.108008,0.0215 2.107529,0.0874 3.092989,0.11808 0.609999,-0.0122 1.461234,0.0697 2.012776,-0.06 1.005944,-0.16704 1.478473,-0.19616 2.27572,-0.46362 0.757028,-0.28063 1.52044,-0.56261 2.269183,-0.84972 0.768094,-0.35481 1.291005,-0.76762 1.896213,-1.21972 0.381358,-0.3284 0.532786,-0.68066 0.693958,-0.99757"
       id="path4014"
       inkscape:connector-curvature="0"
       sodipodi:nodetypes="ccccccccccc" />
    <path
       style="fill:none;stroke:#000000;stroke-width:0.26458332px;stroke-linecap:butt;stroke-linejoin:miter;stroke-opacity:1"
       d="m 3.5925008,289.58756 c 0.6958123,0.52949 1.2716329,1.63819 2.036764,1.94783 0.7693713,0.46538 1.7548929,0.51878 2.6408871,0.63564 1.0825308,0.18842 1.7780901,0.24435 2.7449581,0.41593 1.108009,0.0215 2.10753,0.0874 3.09299,0.11808 0.609999,-0.0122 1.461234,0.0697 2.012776,-0.06 1.005944,-0.16704 1.478473,-0.19616 2.27572,-0.46362 0.757027,-0.28063 1.520439,-0.56261 2.269182,-0.84972 0.768094,-0.35481 1.314628,-0.9566 1.919836,-1.4087"
       id="path4014-0"
       inkscape:connector-curvature="0"
       sodipodi:nodetypes="ccccccccc" />
    <path
       style="fill:none;stroke:#000000;stroke-width:0.26458332px;stroke-linecap:butt;stroke-linejoin:miter;stroke-opacity:1"
       d="M 2.3529017,291.49102 C 13.314211,274.81282 13.550446,272.45047 13.550446,272.45047"
       id="path4033"
       inkscape:connector-curvature="0"
       sodipodi:nodetypes="cc" />
    <path
       style="fill:none;stroke:#000000;stroke-width:0.26458332px;stroke-linecap:butt;stroke-linejoin:miter;stroke-opacity:1"
       d="M 23.472419,291.53808 13.550446,272.45047"
       id="path4035"
       inkscape:connector-curvature="0"
       sodipodi:nodetypes="cc" />
    <path
       style="fill:#ff5555;stroke-width:0.17857143"
       d="m 52.208435,83.15514 c -8.34337,-0.335105 -11.898671,-0.606669 -15.892857,-1.213946 -2.308036,-0.350913 -5.401786,-0.800025 -6.875,-0.998023 -3.641579,-0.489427 -5.513705,-0.953577 -7.268174,-1.80197 -1.958059,-0.946843 -2.610824,-1.508902 -5.116834,-4.405809 -1.161491,-1.342666 -2.242194,-2.549077 -2.40156,-2.680913 -0.260917,-0.215842 -0.186754,-0.393583 0.745095,-1.785714 0.569168,-0.850307 2.603507,-3.996905 4.520751,-6.992441 C 36.168831,37.888642 46.592278,20.015709 50.613971,10.645565 51.33098,8.9750086 51.41576,8.8525484 51.602999,9.2169939 c 0.112636,0.2192387 7.612659,14.6527701 16.666716,32.0745141 9.054058,17.421745 16.396434,31.735884 16.316393,31.809196 -0.285023,0.261065 -3.372091,2.779833 -4.074102,3.324097 -1.329092,1.030437 -2.666044,1.648416 -7.23251,3.343075 -5.275022,1.957611 -5.765947,2.096428 -9.975731,2.820809 -3.238973,0.557334 -6.798212,0.739044 -11.09533,0.566455 z"
       id="path4043"
       inkscape:connector-curvature="0"
       transform="matrix(0.26458333,0,0,0.26458333,0,270.54167)" />
    <path
       style="fill:#ff5555;stroke-width:0.17857143"
       d="M 48.012006,82.917671 C 46.538792,82.836863 44.128078,82.679633 42.654864,82.568269 39.255756,82.311321 26.863399,80.547912 24.981627,80.053401 23.330747,79.619565 21.366464,78.737792 20.30703,77.954958 19.674023,77.487219 15.926713,73.477942 14.886323,72.155299 l -0.340127,-0.432402 1.087177,-1.678643 C 33.462567,42.515279 45.681585,21.874399 50.432021,11.260917 50.950137,10.103336 51.43466,9.2194077 51.508739,9.2966314 51.77199,9.5710628 79.877671,63.795553 83.251108,70.537412 l 1.265413,2.528944 -2.180829,1.806343 c -2.645352,2.191097 -4.467305,3.137486 -9.772836,5.076368 -4.223507,1.543461 -5.505658,1.898395 -9.193707,2.545061 -2.390232,0.419105 -3.216803,0.475089 -7.678571,0.520062 -2.75,0.02772 -6.205357,-0.01571 -7.678572,-0.09652 z"
       id="path4045"
       inkscape:connector-curvature="0"
       transform="matrix(0.26458333,0,0,0.26458333,0,270.54167)" />
    <path
       style="fill:#ccff00;stroke-width:0.17857143"
       d="m 53.059194,92.284805 c -9.134049,-0.300915 -11.096727,-0.453615 -16.875,-1.312906 -3.044643,-0.452771 -6.369809,-0.941247 -7.389258,-1.085502 -2.551299,-0.361015 -3.986392,-0.73849 -5.557171,-1.461709 -0.736607,-0.33915 -2.655853,-1.134537 -4.26499,-1.767527 -4.050876,-1.593503 -5.166887,-2.213463 -6.446015,-3.580856 -0.93497,-0.999485 -2.8604237,-3.622789 -2.8604237,-3.897138 0,-0.05439 0.9147317,-1.501455 2.0327367,-3.215695 l 2.032737,-3.116801 0.962033,1.020131 c 0.529119,0.561072 1.576997,1.743345 2.328619,2.627274 1.576804,1.854365 2.549505,2.642323 4.481564,3.630388 1.818933,0.930212 3.595353,1.391554 7.323589,1.901961 1.688975,0.231225 5.280686,0.743152 7.981579,1.137615 4.509844,0.658658 5.515662,0.741931 12.321428,1.020112 4.075893,0.1666 8.214286,0.259054 9.196429,0.205453 2.23116,-0.121767 8.062464,-1.08906 10.06665,-1.669851 1.651116,-0.478474 9.680755,-3.451548 10.605828,-3.92694 1.026518,-0.527523 2.500029,-1.591572 4.398011,-3.175885 l 1.856202,-1.549439 0.438616,0.766864 c 0.241237,0.421776 0.865959,1.616393 1.388266,2.654704 l 0.949654,1.887839 -0.482,0.880018 c -0.826463,1.508922 -1.275506,1.986054 -3.223475,3.425117 -3.528965,2.607021 -4.500258,3.105402 -10.215433,5.241652 -5.085314,1.900817 -5.942426,2.140769 -10.068034,2.818578 -4.040433,0.663814 -5.344889,0.728257 -10.982142,0.542543 z"
       id="path4047"
       inkscape:connector-curvature="0"
       transform="matrix(0.26458333,0,0,0.26458333,0,270.54167)" />
    <ellipse
       style="fill:#ffffff;fill-opacity:1;stroke:#000000;stroke-width:0.26458332;stroke-opacity:1"
       id="path4870"
       cx="16.959797"
       cy="277.89056"
       rx="2.0552456"
       ry="1.6536458" />
    <ellipse
       style="fill:#ffffff;fill-opacity:1;stroke:#000000;stroke-width:0.26458332;stroke-opacity:1"
       id="path5417"
       cx="17.739372"
       cy="277.79608"
       rx="0.1889881"
       ry="0.14174107" />
    <path
       style="fill:#000000;fill-opacity:1;stroke:#000000;stroke-width:0.26458332px;stroke-linecap:butt;stroke-linejoin:miter;stroke-opacity:1"
       d="m 16.732398,287.16179 c -0.0079,0.008 -0.01575,0.0158 -0.02362,0.0236 -0.002,0 -0.0045,-10e-4 -0.0059,0 -0.0014,0.001 0.0014,0.005 0,0.006 -0.0014,10e-4 -0.0045,-0.001 -0.0059,0 -0.0014,10e-4 0.0014,0.005 0,0.006 -0.0014,0.001 -0.0045,-10e-4 -0.0059,0 -0.0014,0.001 0.0014,0.005 0,0.006 -0.0014,10e-4 -0.0041,-8.8e-4 -0.0059,0 -0.0025,10e-4 -0.0039,0.004 -0.0059,0.006 -0.002,0.002 -0.0047,0.003 -0.0059,0.006 -8.73e-4,0.002 0.0014,0.005 0,0.006 -0.0014,0.001 -0.0045,-10e-4 -0.0059,0 -0.0014,0.001 0.0014,0.005 0,0.006 -0.01222,0.0122 4.76e-4,-0.0187 -0.01181,0.006 -8.73e-4,0.002 0.0014,0.005 0,0.006 -0.0014,10e-4 -0.0045,-0.001 -0.0059,0 -0.0014,10e-4 0.0014,0.005 0,0.006 -0.0014,0.001 -0.0045,-10e-4 -0.0059,0 -0.0028,0.003 0.0028,0.009 0,0.0118 -0.0014,0.001 -0.0045,-10e-4 -0.0059,0 -0.01427,0.0143 0.01427,-0.002 0,0.0118 -0.0014,0.001 -0.0045,-10e-4 -0.0059,0 -0.0014,0.001 0.0014,0.005 0,0.006 -0.0014,10e-4 -0.0045,-10e-4 -0.0059,0 -0.0014,10e-4 8.73e-4,0.004 0,0.006 -0.0012,0.002 -0.0047,0.003 -0.0059,0.006 -0.0018,0.004 0.0028,0.009 0,0.0118 -0.0014,10e-4 -0.0045,-10e-4 -0.0059,0 -0.0029,0.003 0.0029,0.0148 0,0.0177 -0.0014,0.001 -0.0045,-10e-4 -0.0059,0 -0.0014,0.001 0.0014,0.005 0,0.006 -0.0014,10e-4 -0.0045,-0.001 -0.0059,0 -0.0012,10e-4 0.0012,0.0154 0,0.0177 -0.0012,0.002 -0.0047,0.003 -0.0059,0.006 -0.0016,0.003 0.0016,0.022 0,0.0236 -0.0014,10e-4 -0.0045,-0.001 -0.0059,0 -0.0014,10e-4 0,0.004 0,0.006 0,0.01 0,0.0197 0,0.0295 0,0.002 0,0.004 0,0.006 0,0.002 -0.0014,0.005 0,0.006 0.0014,0.001 0.0045,-10e-4 0.0059,0 0.0014,0.001 -0.0014,0.005 0,0.006 0.0014,10e-4 0.0045,-0.001 0.0059,0 0.0014,10e-4 -0.0014,0.005 0,0.006 0.0014,0.001 0.0045,-10e-4 0.0059,0 0.0028,0.003 -0.0028,0.009 0,0.0118 0.0014,0.001 0.0045,-10e-4 0.0059,0 0.0014,0.001 -0.0014,0.005 0,0.006 0.0014,10e-4 0.0045,-10e-4 0.0059,0 0.0014,10e-4 -0.0014,0.005 0,0.006 0.0014,0.001 0.0045,-10e-4 0.0059,0 0.0014,0.001 -0.0014,0.005 0,0.006 0.0014,10e-4 0.0045,-10e-4 0.0059,0 0.0028,0.003 -0.0028,0.009 0,0.0118 0.0014,10e-4 0.0045,-10e-4 0.0059,0 0.0028,0.003 -0.0028,0.009 0,0.0118 0.0014,0.001 0.0045,-10e-4 0.0059,0 0.0014,0.001 -8.73e-4,0.004 0,0.006 0.0012,0.002 0.0047,0.003 0.0059,0.006 8.73e-4,0.002 -0.0014,0.005 0,0.006 0.0028,0.003 0.009,-0.003 0.01181,0 0.0014,10e-4 -0.0014,0.005 0,0.006 0.0014,0.001 0.0045,-10e-4 0.0059,0 0.0014,0.001 -0.0014,0.005 0,0.006 0.0014,10e-4 0.0045,-0.001 0.0059,0 0.0014,10e-4 -0.0014,0.005 0,0.006 0.0014,0.001 0.0045,-10e-4 0.0059,0 0.0014,0.001 -0.0014,0.005 0,0.006 0.0014,10e-4 0.0045,-0.001 0.0059,0 0.01222,0.0122 -0.01867,-4.8e-4 0.0059,0.0118 0.0035,0.002 0.009,-0.003 0.01181,0 0.0014,10e-4 -0.0014,0.005 0,0.006 0.0028,0.003 0.009,-0.003 0.01181,0 0.0014,0.001 -0.0014,0.005 0,0.006 0.0014,10e-4 0.0045,-0.001 0.0059,0 0.0014,10e-4 -0.0014,0.005 0,0.006 2.38e-4,2.4e-4 0.02146,0 0.02363,0 0.002,0 0.0039,0 0.0059,0 0.002,0 0.0045,-10e-4 0.0059,0 0.0079,0.008 -0.0098,0.006 0.0059,0.006 0.002,0 0.0039,0 0.0059,0 0.002,0 0.0045,-0.001 0.0059,0 0.0014,10e-4 -0.0014,0.005 0,0.006 0.0014,0.001 0.0039,0 0.0059,0 0.002,0 0.0039,0 0.0059,0 0.01378,0 0.02756,0 0.04134,0 0.002,0 0.0045,0.001 0.0059,0 0.0014,-10e-4 -0.0014,-0.005 0,-0.006 0.0014,-0.001 0.0041,8.7e-4 0.0059,0 0.0025,-0.001 0.0034,-0.005 0.0059,-0.006 0.0023,-10e-4 0.01651,0.001 0.01772,0 0.0014,-10e-4 -0.0014,-0.005 0,-0.006 0.0014,-0.001 0.0045,10e-4 0.0059,0 0.0014,-0.001 -0.0014,-0.005 0,-0.006 0.0028,-0.003 0.009,0.003 0.01181,0 0.0014,-10e-4 -0.0014,-0.005 0,-0.006 0.0014,-0.001 0.0045,10e-4 0.0059,0 0.0014,-0.001 -0.0014,-0.005 0,-0.006 0.0014,-10e-4 0.0045,0.001 0.0059,0 0.0014,-10e-4 -0.0014,-0.005 0,-0.006 0.0014,-0.001 0.0045,10e-4 0.0059,0 0.0014,-0.001 -0.0014,-0.005 0,-0.006 0.0014,-10e-4 0.0045,0.001 0.0059,0 0.0014,-10e-4 -0.0014,-0.005 0,-0.006 0.0014,-0.001 0.0045,10e-4 0.0059,0 0.0014,-0.001 -8.73e-4,-0.004 0,-0.006 0.0012,-0.002 0.0047,-0.003 0.0059,-0.006 8.73e-4,-0.002 -0.0014,-0.005 0,-0.006 0.0028,-0.003 0.009,0.003 0.01181,0 0.0028,-0.003 -0.0028,-0.009 0,-0.0118 0.0014,-10e-4 0.0042,8.7e-4 0.0059,0 0.005,-0.002 0.0068,-0.009 0.01181,-0.0118 0.0018,-8.8e-4 0.0045,10e-4 0.0059,0 0.0028,-0.003 -0.0028,-0.009 0,-0.0118 0.0028,-0.003 0.009,0.003 0.01181,0 0.0014,-10e-4 -0.0014,-0.005 0,-0.006 0.0014,-10e-4 0.0045,0.001 0.0059,0 0.0014,-10e-4 -0.0014,-0.005 0,-0.006 0.0014,-10e-4 0.0042,8.7e-4 0.0059,0 0.02458,-0.0123 -0.0063,3.9e-4 0.0059,-0.0118 0.0014,-0.001 0.0045,10e-4 0.0059,0 0.0014,-0.001 -0.0014,-0.005 0,-0.006 0.0014,-10e-4 0.0045,0.001 0.0059,0 0.0014,-10e-4 -0.0014,-0.005 0,-0.006 0.0014,-0.001 0.0045,10e-4 0.0059,0 0.0014,-0.001 -8.73e-4,-0.004 0,-0.006 0.0025,-0.005 0.0093,-0.007 0.01181,-0.0118 8.73e-4,-0.002 -0.0014,-0.005 0,-0.006 0.01222,-0.0122 -4.76e-4,0.0187 0.01181,-0.006 8.73e-4,-0.002 -8.73e-4,-0.004 0,-0.006 0.0025,-0.005 0.0093,-0.007 0.01181,-0.0118 8.73e-4,-0.002 0,-0.004 0,-0.006 0.002,-0.002 0.0047,-0.003 0.0059,-0.006 8.73e-4,-0.002 -0.0014,-0.005 0,-0.006 0.01222,-0.0122 -4.76e-4,0.0187 0.01181,-0.006 8.73e-4,-0.002 -8.73e-4,-0.004 0,-0.006 0.0012,-0.002 0.0047,-0.003 0.0059,-0.006 8.73e-4,-0.002 0,-0.004 0,-0.006 0.002,-0.002 0.0047,-0.003 0.0059,-0.006 8.73e-4,-0.002 -0.0014,-0.005 0,-0.006 0.0014,-10e-4 0.0045,0.001 0.0059,0 0.0028,-0.003 -0.0018,-0.008 0,-0.0118 0.0012,-0.002 0.0047,-0.003 0.0059,-0.006 8.73e-4,-0.002 -0.0014,-0.005 0,-0.006 0.0014,-10e-4 0.0045,10e-4 0.0059,0 0.003,-0.003 -0.0029,-0.0148 0,-0.0177 0.0014,-10e-4 0.0045,10e-4 0.0059,0 0.0018,-0.002 -0.0018,-0.0277 0,-0.0295 0.0014,-0.001 0.0045,10e-4 0.0059,0 0.0014,-0.001 0,-0.004 0,-0.006 0,-0.002 0,-0.004 0,-0.006 0,-0.0216 0,-0.0433 0,-0.065 0,-0.002 0,-0.004 0,-0.006 0,-0.002 0.0014,-0.005 0,-0.006 -0.0014,-0.001 -0.0045,10e-4 -0.0059,0 -0.0028,-0.003 0.0028,-0.009 0,-0.0118 -0.0014,-0.001 -0.0045,10e-4 -0.0059,0 -0.0014,-0.001 8.73e-4,-0.004 0,-0.006 -0.01229,-0.0246 3.97e-4,0.006 -0.01181,-0.006 -0.0014,-0.001 0.0014,-0.005 0,-0.006 -0.0014,-10e-4 -0.0045,10e-4 -0.0059,0 -0.0014,-10e-4 0.0014,-0.005 0,-0.006 -0.0014,-0.001 -0.0222,10e-4 -0.02362,0 -0.0014,-0.001 0.0014,-0.005 0,-0.006 -0.0014,-10e-4 -0.0039,0 -0.0059,0 -0.002,0 -0.0039,0 -0.0059,0 -0.02953,0 -0.05906,0 -0.08859,0 -0.0022,0 -0.02339,2.3e-4 -0.02362,0 -0.0014,-10e-4 0.0014,-0.005 0,-0.006 -0.0014,-0.001 -0.0039,0 -0.0059,0 -0.01181,0 -0.02362,0 -0.03543,0 -0.01575,0 -0.0315,0 -0.04725,0 -0.0027,0 -0.01592,-9e-4 -0.01772,0 -0.0025,10e-4 -0.0034,0.005 -0.0059,0.006 -0.0035,0.002 -0.0083,-0.002 -0.01181,0 -0.02458,0.0123 0.0063,-4e-4 -0.0059,0.0118 -0.0028,0.003 -0.009,-0.003 -0.01181,0 -0.01222,0.0122 0.01867,-4.8e-4 -0.0059,0.0118 -0.0018,8.7e-4 -0.0045,-10e-4 -0.0059,0 -0.0028,0.003 0.0028,0.009 0,0.0118 -0.0014,0.001 -0.0039,0 -0.0059,0 -0.0079,0.002 -0.01834,-2.6e-4 -0.02363,0.006 -0.0081,0.009 -0.0062,0.0243 -0.01181,0.0354 -4.76e-4,9.8e-4 -0.01615,0 -0.01772,0"
       id="path5460-1"
       inkscape:connector-curvature="0" />
    <path
       style="fill:#000000;fill-opacity:1;stroke:#000000;stroke-width:0.26458332px;stroke-linecap:butt;stroke-linejoin:miter;stroke-opacity:1"
       d="m 12.766622,285.58125 c -0.05104,0.0322 -0.04725,0.0215 -0.04725,0.0591 0,0.004 0.0028,0.009 0,0.0118 -0.01575,0.0157 -0.01181,-0.0197 -0.01181,0.0118 0,0.003 3.7e-4,0.0351 0,0.0354 -0.0028,0.003 -0.009,-0.003 -0.01181,0 -0.0056,0.006 0.0035,0.0166 0,0.0236 -0.0025,0.005 -0.0093,0.007 -0.01181,0.0118 -0.0035,0.007 0.0056,0.0181 0,0.0236 -0.0028,0.003 -0.009,-0.003 -0.01181,0 -0.0059,0.006 0.0059,0.0295 0,0.0354 -0.0028,0.003 -0.009,-0.003 -0.01181,0 -0.0028,0.003 0,0.008 0,0.0118 0,0.004 0,0.008 0,0.0118 0,0.0512 0,0.10237 0,0.15355 0,0.0276 0,0.0551 0,0.0827 0,0.004 -0.0028,0.009 0,0.0118 0.0028,0.003 0.009,-0.003 0.01181,0 0.0056,0.006 -0.0056,0.0181 0,0.0236 0.0028,0.003 0.009,-0.003 0.01181,0 0.0028,0.003 -0.0028,0.009 0,0.0118 0.0028,0.003 0.009,-0.003 0.01181,0 0.0028,0.003 -0.0018,0.008 0,0.0118 0.0025,0.005 0.0093,0.007 0.01181,0.0118 0.0018,0.004 -0.0028,0.009 0,0.0118 0.0056,0.006 0.01806,-0.006 0.02363,0 0.0028,0.003 -0.0028,0.009 0,0.0118 0.02444,0.0244 -9.53e-4,-0.0373 0.02362,0.0118 0.0018,0.004 -0.0028,0.009 0,0.0118 0.0056,0.006 0.01806,-0.006 0.02363,0 0.0028,0.003 -0.0028,0.009 0,0.0118 0.0059,0.006 0.02953,-0.006 0.03543,0 0.0028,0.003 -0.0028,0.009 0,0.0118 0.0059,0.006 0.02953,-0.006 0.03543,0 0.0028,0.003 -0.0028,0.009 0,0.0118 0.0056,0.006 0.01806,-0.006 0.02363,0 0.0028,0.003 -0.0028,0.009 0,0.0118 0.0028,0.003 0.009,-0.003 0.01181,0 0.0028,0.003 -0.0028,0.009 0,0.0118 0.0028,0.003 0.0444,-0.003 0.04725,0 0.0028,0.003 -0.0028,0.009 0,0.0118 0.0028,0.003 0.0079,0 0.01181,0 0.02362,0 0.04725,0 0.07087,0 0.02362,0 0.04725,0 0.07087,0 0.0039,0 0.009,0.003 0.01181,0 0.0028,-0.003 -0.0028,-0.009 0,-0.0118 0.0028,-0.003 0.0083,0.002 0.01181,0 0.04916,-0.0246 -0.01263,8.2e-4 0.01181,-0.0236 0.0028,-0.003 0.009,0.003 0.01181,0 0.0056,-0.006 -0.0035,-0.0166 0,-0.0236 0.0025,-0.005 0.0093,-0.007 0.01181,-0.0118 0.0018,-0.004 -0.0018,-0.008 0,-0.0118 0.02458,-0.0492 -8.21e-4,0.0126 0.02362,-0.0118 0.0028,-0.003 -0.0028,-0.0444 0,-0.0473 0.0028,-0.003 0.009,0.003 0.01181,0 0.0028,-0.003 0,-0.008 0,-0.0118 0,-0.0276 0,-0.0551 0,-0.0827 0,-0.004 0,-0.008 0,-0.0118 0,-0.004 0.0028,-0.009 0,-0.0118 -0.0028,-0.003 -0.0083,0.002 -0.01181,0 -0.01,-0.005 -0.01366,-0.0186 -0.02362,-0.0236 -0.0315,0 0.0039,0.004 -0.01181,-0.0118 -0.0028,-0.003 -0.009,0.003 -0.01181,0 -0.0028,-0.003 0.0028,-0.009 0,-0.0118 -0.0028,-0.003 -0.0083,0.002 -0.01181,0 -0.01,-0.005 -0.01366,-0.0186 -0.02363,-0.0236 -0.0035,-0.002 -0.009,0.003 -0.01181,0 -0.0028,-0.003 0.0028,-0.009 0,-0.0118 -0.0056,-0.006 -0.01806,0.006 -0.02363,0 -0.0028,-0.003 0.0028,-0.009 0,-0.0118 -0.0028,-0.003 -0.009,0.003 -0.01181,0 -0.0028,-0.003 0.0028,-0.009 0,-0.0118 -0.0028,-0.003 -0.009,0.003 -0.01181,0 -0.0028,-0.003 0.0028,-0.009 0,-0.0118 -0.0056,-0.006 -0.01658,0.004 -0.02362,0 -0.005,-0.002 -0.0068,-0.009 -0.01181,-0.0118 -0.007,-0.004 -0.01658,0.004 -0.02363,0 -0.005,-0.002 -0.0068,-0.009 -0.01181,-0.0118 -0.0035,-0.002 -0.009,0.003 -0.01181,0 -0.0028,-0.003 0.0028,-0.009 0,-0.0118 -0.0056,-0.006 -0.01806,0.006 -0.02363,0 -0.0028,-0.003 0.0028,-0.009 0,-0.0118 -0.0056,-0.006 -0.01805,0.006 -0.02362,0 -0.0028,-0.003 0.0028,-0.009 0,-0.0118 -0.0056,-0.006 -0.01806,0.006 -0.02363,0 -0.0028,-0.003 0.0028,-0.009 0,-0.0118 -0.0028,-0.003 -0.009,0.003 -0.01181,0 -0.0028,-0.003 0.0018,-0.008 0,-0.0118 -0.0025,-0.005 -0.0093,-0.007 -0.01181,-0.0118 -0.0035,-0.007 0.0056,-0.0181 0,-0.0236 -0.0028,-0.003 -0.009,0.003 -0.01181,0 -0.0056,-0.006 0.0056,-0.0181 0,-0.0236 -0.0028,-0.003 -0.009,0.003 -0.01181,0 -0.0028,-0.003 0.0028,-0.009 0,-0.0118 -0.0028,-0.003 -0.009,0.003 -0.01181,0 -0.0028,-0.003 0.0028,-0.009 0,-0.0118 -0.0028,-0.003 -0.009,0.003 -0.01181,0 -0.0056,-0.006 0.0056,-0.018 0,-0.0236 -0.0028,-0.003 -0.009,0.003 -0.01181,0 -0.0028,-0.003 0.0028,-0.009 0,-0.0118 -0.0028,-0.003 -0.0083,0.002 -0.01181,0 -0.005,-0.002 -0.0068,-0.009 -0.01181,-0.0118 -0.007,-0.004 -0.01805,0.006 -0.02362,0 -0.0028,-0.003 0,-0.008 0,-0.0118 0,-0.004 0,-0.008 0,-0.0118"
       id="path5456-9"
       inkscape:connector-curvature="0" />
    <path
       style="fill:#000000;fill-opacity:1;stroke:#000000;stroke-width:0.26458332px;stroke-linecap:butt;stroke-linejoin:miter;stroke-opacity:1"
       d="m 8.4198951,284.58906 c -0.051044,0.0322 -0.047247,0.0215 -0.047247,0.0591 0,0.004 0.00278,0.009 0,0.0118 -0.015748,0.0157 -0.011811,-0.0197 -0.011811,0.0118 0,0.003 3.704e-4,0.0351 0,0.0354 -0.00278,0.003 -0.00903,-0.003 -0.011811,0 -0.00557,0.006 0.00352,0.0166 0,0.0236 -0.00249,0.005 -0.00932,0.007 -0.011811,0.0118 -0.00352,0.007 0.00557,0.0181 0,0.0236 -0.00278,0.003 -0.00903,-0.003 -0.011811,0 -0.00591,0.006 0.00591,0.0295 0,0.0354 -0.00278,0.003 -0.00903,-0.003 -0.011811,0 -0.00278,0.003 0,0.008 0,0.0118 0,0.004 0,0.008 0,0.0118 0,0.0512 0,0.10237 0,0.15355 0,0.0276 0,0.0551 0,0.0827 0,0.004 -0.00278,0.009 0,0.0118 0.00278,0.003 0.00903,-0.003 0.011811,0 0.00557,0.006 -0.00557,0.0181 0,0.0236 0.00278,0.003 0.00903,-0.003 0.011811,0 0.00278,0.003 -0.00278,0.009 0,0.0118 0.00278,0.003 0.00903,-0.003 0.011811,0 0.00278,0.003 -0.00177,0.008 0,0.0118 0.00249,0.005 0.00932,0.007 0.011811,0.0118 0.00177,0.004 -0.00278,0.009 0,0.0118 0.00557,0.006 0.018055,-0.006 0.023625,0 0.00278,0.003 -0.00278,0.009 0,0.0118 0.024439,0.0244 -9.525e-4,-0.0373 0.023625,0.0118 0.00177,0.004 -0.00278,0.009 0,0.0118 0.00557,0.006 0.018055,-0.006 0.023625,0 0.00278,0.003 -0.00278,0.009 0,0.0118 0.00591,0.006 0.029529,-0.006 0.035435,0 0.00278,0.003 -0.00278,0.009 0,0.0118 0.00591,0.006 0.029529,-0.006 0.035435,0 0.00278,0.003 -0.00278,0.009 0,0.0118 0.00557,0.006 0.018055,-0.006 0.023625,0 0.00278,0.003 -0.00278,0.009 0,0.0118 0.00278,0.003 0.00903,-0.003 0.011811,0 0.00278,0.003 -0.00278,0.009 0,0.0118 0.00284,0.003 0.044405,-0.003 0.047247,0 0.00278,0.003 -0.00278,0.009 0,0.0118 0.00278,0.003 0.00787,0 0.011811,0 0.023625,0 0.047247,0 0.07087,0 0.023625,0 0.047247,0 0.07087,0 0.00394,0 0.00903,0.003 0.011811,0 0.00278,-0.003 -0.00278,-0.009 0,-0.0118 0.00278,-0.003 0.00829,0.002 0.011811,0 0.049158,-0.0246 -0.012626,8.2e-4 0.011811,-0.0236 0.00278,-0.003 0.00903,0.003 0.011811,0 0.00557,-0.006 -0.00352,-0.0166 0,-0.0236 0.00249,-0.005 0.00932,-0.007 0.011811,-0.0118 0.00177,-0.004 -0.00177,-0.008 0,-0.0118 0.02458,-0.0492 -8.202e-4,0.0126 0.023625,-0.0118 0.00284,-0.003 -0.00284,-0.0444 0,-0.0473 0.00278,-0.003 0.00903,0.003 0.011811,0 0.00278,-0.003 0,-0.008 0,-0.0118 0,-0.0276 0,-0.0551 0,-0.0827 0,-0.004 0,-0.008 0,-0.0118 0,-0.004 0.00278,-0.009 0,-0.0118 -0.00278,-0.003 -0.00829,0.002 -0.011811,0 -0.00996,-0.005 -0.013663,-0.0186 -0.023625,-0.0236 -0.031498,0 0.00394,0.004 -0.011811,-0.0118 -0.00278,-0.003 -0.00903,0.003 -0.011811,0 -0.00278,-0.003 0.00278,-0.009 0,-0.0118 -0.00278,-0.003 -0.00829,0.002 -0.011811,0 -0.00996,-0.005 -0.013663,-0.0186 -0.023625,-0.0236 -0.00352,-0.002 -0.00903,0.003 -0.011811,0 -0.00278,-0.003 0.00278,-0.009 0,-0.0118 -0.00557,-0.006 -0.018055,0.006 -0.023625,0 -0.00278,-0.003 0.00278,-0.009 0,-0.0118 -0.00278,-0.003 -0.00903,0.003 -0.011811,0 -0.00278,-0.003 0.00278,-0.009 0,-0.0118 -0.00278,-0.003 -0.00903,0.003 -0.011811,0 -0.00278,-0.003 0.00278,-0.009 0,-0.0118 -0.00557,-0.006 -0.016581,0.004 -0.023625,0 -0.00498,-0.002 -0.00683,-0.009 -0.011811,-0.0118 -0.00704,-0.004 -0.016582,0.004 -0.023625,0 -0.00498,-0.002 -0.00683,-0.009 -0.011811,-0.0118 -0.00352,-0.002 -0.00903,0.003 -0.011811,0 -0.00278,-0.003 0.00278,-0.009 0,-0.0118 -0.00557,-0.006 -0.018055,0.006 -0.023625,0 -0.00278,-0.003 0.00278,-0.009 0,-0.0118 -0.00557,-0.006 -0.018055,0.006 -0.023625,0 -0.00278,-0.003 0.00278,-0.009 0,-0.0118 -0.00557,-0.006 -0.018055,0.006 -0.023625,0 -0.00278,-0.003 0.00278,-0.009 0,-0.0118 -0.00278,-0.003 -0.00903,0.003 -0.011811,0 -0.00278,-0.003 0.00177,-0.008 0,-0.0118 -0.00249,-0.005 -0.00932,-0.007 -0.011811,-0.0118 -0.00352,-0.007 0.00557,-0.0181 0,-0.0236 -0.00278,-0.003 -0.00903,0.003 -0.011811,0 -0.00557,-0.006 0.00557,-0.0181 0,-0.0236 -0.00278,-0.003 -0.00903,0.003 -0.011811,0 -0.00278,-0.003 0.00278,-0.009 0,-0.0118 -0.00278,-0.003 -0.00903,0.003 -0.011811,0 -0.00278,-0.003 0.00278,-0.009 0,-0.0118 -0.00278,-0.003 -0.00903,0.003 -0.011811,0 -0.00557,-0.006 0.00557,-0.018 0,-0.0236 -0.00278,-0.003 -0.00903,0.003 -0.011811,0 -0.00278,-0.003 0.00278,-0.009 0,-0.0118 -0.00278,-0.003 -0.00829,0.002 -0.011811,0 -0.00498,-0.002 -0.00683,-0.009 -0.011811,-0.0118 -0.00704,-0.004 -0.018055,0.006 -0.023625,0 -0.00278,-0.003 0,-0.008 0,-0.0118 0,-0.004 0,-0.008 0,-0.0118"
       id="path5456-5"
       inkscape:connector-curvature="0" />
    <path
       style="fill:#000000;fill-opacity:1;stroke:#000000;stroke-width:0.26458332px;stroke-linecap:butt;stroke-linejoin:miter;stroke-opacity:1"
       d="m 7.6609697,287.58701 c -0.00787,0.008 -0.015748,0.0158 -0.023625,0.0236 -0.00196,0 -0.00451,-0.001 -0.00591,0 -0.0014,10e-4 0.0014,0.005 0,0.006 -0.0014,0.001 -0.00451,-10e-4 -0.00591,0 -0.0014,0.001 0.0014,0.005 0,0.006 -0.0014,10e-4 -0.00451,-0.001 -0.00591,0 -0.0014,10e-4 0.0014,0.005 0,0.006 -0.0014,0.001 -0.00415,-8.8e-4 -0.00591,0 -0.00249,0.001 -0.00394,0.004 -0.00591,0.006 -0.00196,0.002 -0.00466,0.003 -0.00591,0.006 -8.731e-4,0.002 0.0014,0.005 0,0.006 -0.0014,10e-4 -0.00451,-0.001 -0.00591,0 -0.0014,10e-4 0.0014,0.005 0,0.006 -0.012218,0.0122 4.763e-4,-0.0187 -0.011811,0.006 -8.731e-4,0.002 0.0014,0.005 0,0.006 -0.0014,0.001 -0.00451,-10e-4 -0.00591,0 -0.0014,0.001 0.0014,0.005 0,0.006 -0.0014,10e-4 -0.00451,-0.001 -0.00591,0 -0.00278,0.003 0.00278,0.009 0,0.0118 -0.0014,10e-4 -0.00451,-10e-4 -0.00591,0 -0.014272,0.0143 0.014272,-0.002 0,0.0118 -0.0014,10e-4 -0.00451,-10e-4 -0.00591,0 -0.0014,10e-4 0.0014,0.005 0,0.006 -0.0014,10e-4 -0.00451,-0.001 -0.00591,0 -0.0014,10e-4 8.732e-4,0.004 0,0.006 -0.00124,0.002 -0.00466,0.003 -0.00591,0.006 -0.00177,0.004 0.00278,0.009 0,0.0118 -0.0014,10e-4 -0.00451,-0.001 -0.00591,0 -0.00295,0.003 0.00295,0.0148 0,0.0177 -0.0014,10e-4 -0.00451,-0.001 -0.00591,0 -0.0014,10e-4 0.0014,0.005 0,0.006 -0.0014,0.001 -0.00451,-10e-4 -0.00591,0 -0.00122,0.001 0.00116,0.0154 0,0.0177 -0.00124,0.002 -0.00466,0.003 -0.00591,0.006 -0.00161,0.003 0.00161,0.022 0,0.0236 -0.0014,0.001 -0.00451,-10e-4 -0.00591,0 -0.0014,0.001 0,0.004 0,0.006 0,0.01 0,0.0197 0,0.0295 0,0.002 0,0.004 0,0.006 0,0.002 -0.0014,0.005 0,0.006 0.0014,10e-4 0.00451,-10e-4 0.00591,0 0.0014,10e-4 -0.0014,0.005 0,0.006 0.0014,0.001 0.00451,-10e-4 0.00591,0 0.0014,0.001 -0.0014,0.005 0,0.006 0.0014,10e-4 0.00451,-10e-4 0.00591,0 0.00278,0.003 -0.00278,0.009 0,0.0118 0.0014,10e-4 0.00451,-10e-4 0.00591,0 0.0014,10e-4 -0.0014,0.005 0,0.006 0.0014,10e-4 0.00451,-0.001 0.00591,0 0.0014,10e-4 -0.0014,0.005 0,0.006 0.0014,10e-4 0.00451,-10e-4 0.00591,0 0.0014,10e-4 -0.0014,0.005 0,0.006 0.0014,10e-4 0.00451,-0.001 0.00591,0 0.00278,0.003 -0.00278,0.009 0,0.0118 0.0014,10e-4 0.00451,-0.001 0.00591,0 0.00278,0.003 -0.00278,0.009 0,0.0118 0.0014,10e-4 0.00451,-0.001 0.00591,0 0.0014,10e-4 -8.731e-4,0.004 0,0.006 0.00124,0.002 0.00466,0.003 0.00591,0.006 8.732e-4,0.002 -0.0014,0.005 0,0.006 0.00278,0.003 0.00903,-0.003 0.011811,0 0.0014,0.001 -0.0014,0.005 0,0.006 0.0014,10e-4 0.00451,-0.001 0.00591,0 0.0014,10e-4 -0.0014,0.005 0,0.006 0.0014,0.001 0.00451,-10e-4 0.00591,0 0.0014,0.001 -0.0014,0.005 0,0.006 0.0014,10e-4 0.00451,-0.001 0.00591,0 0.0014,10e-4 -0.0014,0.005 0,0.006 0.0014,0.001 0.00451,-10e-4 0.00591,0 0.012219,0.0122 -0.018672,-4.8e-4 0.00591,0.0118 0.00352,0.002 0.00903,-0.003 0.011811,0 0.0014,0.001 -0.0014,0.005 0,0.006 0.00278,0.003 0.00903,-0.003 0.011811,0 0.0014,10e-4 -0.0014,0.005 0,0.006 0.0014,0.001 0.00451,-10e-4 0.00591,0 0.0014,0.001 -0.0014,0.005 0,0.006 2.376e-4,2.4e-4 0.021455,0 0.023625,0 0.00196,0 0.00394,0 0.00591,0 0.00196,0 0.00451,-0.001 0.00591,0 0.00787,0.008 -0.00984,0.006 0.00591,0.006 0.00196,0 0.00394,0 0.00591,0 0.00196,0 0.00451,-10e-4 0.00591,0 0.0014,0.001 -0.0014,0.005 0,0.006 0.0014,10e-4 0.00394,0 0.00591,0 0.00196,0 0.00394,0 0.00591,0 0.01378,0 0.027561,0 0.041341,0 0.00196,0 0.00451,10e-4 0.00591,0 0.0014,-0.001 -0.0014,-0.005 0,-0.006 0.0014,-10e-4 0.00415,8.7e-4 0.00591,0 0.00249,-10e-4 0.00342,-0.005 0.00591,-0.006 0.00235,-0.001 0.01651,10e-4 0.017717,0 0.0014,-0.001 -0.0014,-0.005 0,-0.006 0.0014,-10e-4 0.00451,0.001 0.00591,0 0.0014,-10e-4 -0.0014,-0.005 0,-0.006 0.00278,-0.003 0.00903,0.003 0.011811,0 0.0014,-0.001 -0.0014,-0.005 0,-0.006 0.0014,-10e-4 0.00451,0.001 0.00591,0 0.0014,-10e-4 -0.0014,-0.005 0,-0.006 0.0014,-0.001 0.00451,10e-4 0.00591,0 0.0014,-0.001 -0.0014,-0.005 0,-0.006 0.0014,-10e-4 0.00451,0.001 0.00591,0 0.0014,-10e-4 -0.0014,-0.005 0,-0.006 0.0014,-0.001 0.00451,10e-4 0.00591,0 0.0014,-0.001 -0.0014,-0.005 0,-0.006 0.0014,-10e-4 0.00451,0.001 0.00591,0 0.0014,-10e-4 -8.731e-4,-0.004 0,-0.006 0.00124,-0.002 0.00466,-0.003 0.00591,-0.006 8.731e-4,-0.002 -0.0014,-0.005 0,-0.006 0.00278,-0.003 0.00903,0.003 0.011811,0 0.00278,-0.003 -0.00278,-0.009 0,-0.0118 0.0014,-0.001 0.00415,8.7e-4 0.00591,0 0.00498,-0.002 0.00683,-0.009 0.011811,-0.0118 0.00177,-8.8e-4 0.00451,10e-4 0.00591,0 0.00278,-0.003 -0.00278,-0.009 0,-0.0118 0.00278,-0.003 0.00903,0.003 0.011811,0 0.0014,-0.001 -0.0014,-0.005 0,-0.006 0.0014,-10e-4 0.00451,10e-4 0.00591,0 0.0014,-10e-4 -0.0014,-0.005 0,-0.006 0.0014,-0.001 0.00415,8.7e-4 0.00591,0 0.02458,-0.0123 -0.00631,3.9e-4 0.00591,-0.0118 0.0014,-10e-4 0.00451,0.001 0.00591,0 0.0014,-10e-4 -0.0014,-0.005 0,-0.006 0.0014,-10e-4 0.00451,10e-4 0.00591,0 0.0014,-10e-4 -0.0014,-0.005 0,-0.006 0.0014,-10e-4 0.00451,0.001 0.00591,0 0.0014,-10e-4 -8.732e-4,-0.004 0,-0.006 0.00249,-0.005 0.00932,-0.007 0.011811,-0.0118 8.731e-4,-0.002 -0.0014,-0.005 0,-0.006 0.012218,-0.0122 -4.763e-4,0.0187 0.011811,-0.006 8.731e-4,-0.002 -8.732e-4,-0.004 0,-0.006 0.00249,-0.005 0.00932,-0.007 0.011811,-0.0118 8.731e-4,-0.002 0,-0.004 0,-0.006 0.00196,-0.002 0.00466,-0.003 0.00591,-0.006 8.731e-4,-0.002 -0.0014,-0.005 0,-0.006 0.012219,-0.0122 -4.763e-4,0.0187 0.011811,-0.006 8.731e-4,-0.002 -8.732e-4,-0.004 0,-0.006 0.00124,-0.002 0.00466,-0.003 0.00591,-0.006 8.731e-4,-0.002 0,-0.004 0,-0.006 0.00196,-0.002 0.00466,-0.003 0.00591,-0.006 8.731e-4,-0.002 -0.0014,-0.005 0,-0.006 0.0014,-0.001 0.00451,10e-4 0.00591,0 0.00278,-0.003 -0.00177,-0.008 0,-0.0118 0.00124,-0.002 0.00466,-0.003 0.00591,-0.006 8.731e-4,-0.002 -0.0014,-0.005 0,-0.006 0.0014,-0.001 0.00451,10e-4 0.00591,0 0.00295,-0.003 -0.00295,-0.0148 0,-0.0177 0.0014,-10e-4 0.00451,0.001 0.00591,0 0.00183,-0.002 -0.00183,-0.0277 0,-0.0295 0.0014,-10e-4 0.00451,0.001 0.00591,0 0.0014,-10e-4 0,-0.004 0,-0.006 0,-0.002 0,-0.004 0,-0.006 0,-0.0216 0,-0.0433 0,-0.065 0,-0.002 0,-0.004 0,-0.006 0,-0.002 0.0014,-0.005 0,-0.006 -0.0014,-10e-4 -0.00451,0.001 -0.00591,0 -0.00278,-0.003 0.00278,-0.009 0,-0.0118 -0.0014,-10e-4 -0.00451,0.001 -0.00591,0 -0.0014,-10e-4 8.731e-4,-0.004 0,-0.006 -0.01229,-0.0246 3.968e-4,0.006 -0.011811,-0.006 -0.0014,-10e-4 0.0014,-0.005 0,-0.006 -0.0014,-0.001 -0.00451,10e-4 -0.00591,0 -0.0014,-0.001 0.0014,-0.005 0,-0.006 -0.00143,-10e-4 -0.022204,0.001 -0.023625,0 -0.0014,-10e-4 0.0014,-0.005 0,-0.006 -0.0014,-0.001 -0.00394,0 -0.00591,0 -0.00196,0 -0.00394,0 -0.00591,0 -0.029529,0 -0.059059,0 -0.088588,0 -0.00217,0 -0.023386,2.3e-4 -0.023625,0 -0.0014,-0.001 0.0014,-0.005 0,-0.006 -0.0014,-10e-4 -0.00394,0 -0.00591,0 -0.011811,0 -0.023625,0 -0.035435,0 -0.015748,0 -0.031498,0 -0.047247,0 -0.00266,0 -0.01592,-9e-4 -0.017717,0 -0.00249,0.001 -0.00342,0.005 -0.00591,0.006 -0.00352,0.002 -0.00829,-0.002 -0.011811,0 -0.02458,0.0123 0.00631,-4e-4 -0.00591,0.0118 -0.00278,0.003 -0.00903,-0.003 -0.011811,0 -0.012219,0.0122 0.018672,-4.8e-4 -0.00591,0.0118 -0.00177,8.7e-4 -0.00451,-0.001 -0.00591,0 -0.00278,0.003 0.00278,0.009 0,0.0118 -0.0014,10e-4 -0.00394,0 -0.00591,0 -0.00787,0.002 -0.018341,-2.6e-4 -0.023625,0.006 -0.0081,0.009 -0.00624,0.0243 -0.011811,0.0354 -4.762e-4,9.8e-4 -0.016147,0 -0.017716,0"
       id="path5460-5"
       inkscape:connector-curvature="0" />
    <path
       style="fill:#000000;fill-opacity:1;stroke:#000000;stroke-width:0.26458332px;stroke-linecap:butt;stroke-linejoin:miter;stroke-opacity:1"
       d="m 10.865068,284.84169 c -0.01277,0.0511 -0.01181,0.031 -0.01181,0.0591 0,0.004 0.0028,0.009 0,0.0118 -0.0028,0.003 -0.0083,-0.002 -0.01181,0 -0.04916,0.0246 0.01263,-8.2e-4 -0.01181,0.0236 -0.0028,0.003 -0.009,-0.003 -0.01181,0 -0.0056,0.006 0.0056,0.0181 0,0.0236 -0.0028,0.003 -0.009,-0.003 -0.01181,0 -0.0056,0.006 0.0056,0.0181 0,0.0236 -0.0028,0.003 -0.009,-0.003 -0.01181,0 -0.0028,0.003 0.0028,0.009 0,0.0118 -0.0028,0.003 -0.009,-0.003 -0.01181,0 -0.0059,0.006 0.0059,0.0295 0,0.0354 -0.0028,0.003 -0.009,-0.003 -0.01181,0 -0.0028,0.003 0.0018,0.008 0,0.0118 -0.0025,0.005 -0.0093,0.007 -0.01181,0.0118 -0.0035,0.007 0.0056,0.0181 0,0.0236 -0.0028,0.003 -0.009,-0.003 -0.01181,0 -0.0028,0.003 0.0028,0.009 0,0.0118 -0.0028,0.003 -0.009,-0.003 -0.01181,0 -0.0028,0.003 0,0.008 0,0.0118 0,0.004 0,0.008 0,0.0118 0,0.0315 0.0039,-0.004 -0.01181,0.0118 -0.0059,0.006 0.0059,0.0295 0,0.0354 -0.0028,0.003 -0.009,-0.003 -0.01181,0 -0.0059,0.006 0.0059,0.0295 0,0.0354 -0.0028,0.003 -0.009,-0.003 -0.01181,0 -0.0056,0.006 0.0056,0.018 0,0.0236 -0.0028,0.003 -0.009,-0.003 -0.01181,0 -0.0028,0.003 0,0.008 0,0.0118 0,0.004 0,0.008 0,0.0118 0,0.0354 0,0.0709 0,0.1063 0,0.004 -4.76e-4,0.0468 0,0.0472 0.0028,0.003 0.009,-0.003 0.01181,0 0.0028,0.003 -0.0028,0.009 0,0.0118 0.0028,0.003 0.009,-0.003 0.01181,0 0.0056,0.006 -0.0056,0.0181 0,0.0236 0.0028,0.003 0.009,-0.003 0.01181,0 0.0056,0.006 -0.0056,0.0181 0,0.0236 0.0028,0.003 0.009,-0.003 0.01181,0 0.0028,0.003 -0.0028,0.009 0,0.0118 0.0028,0.003 0.009,-0.003 0.01181,0 0.0028,0.003 -0.0028,0.009 0,0.0118 0.0028,0.003 0.009,-0.003 0.01181,0 0.0056,0.006 -0.0056,0.0181 0,0.0236 0.0028,0.003 0.009,-0.003 0.01181,0 0.0028,0.003 -0.0028,0.009 0,0.0118 0.0028,0.003 0.0079,0 0.01181,0 0.0029,0 0.03506,3.8e-4 0.03544,0 0.02444,-0.0244 -0.03735,9.5e-4 0.01181,-0.0236 0.0035,-0.002 0.009,0.003 0.01181,0 0.0056,-0.006 -0.0056,-0.018 0,-0.0236 0.0028,-0.003 0.009,0.003 0.01181,0 0.0056,-0.006 -0.0056,-0.0181 0,-0.0236 0.0028,-0.003 0.009,0.003 0.01181,0 0.0028,-0.003 -0.0028,-0.0444 0,-0.0473 0.0028,-0.003 0.009,0.003 0.01181,0 3.7e-4,-3.8e-4 0,-0.0326 0,-0.0354 0,-0.0315 -0.0039,0.004 0.01181,-0.0118 0.0042,-0.004 -0.0041,-0.0509 0,-0.0591 0.0025,-0.005 0.0093,-0.007 0.01181,-0.0118 0.0018,-0.004 0,-0.0301 0,-0.0354 0,-0.0276 0,-0.0551 0,-0.0827 0,-0.003 3.7e-4,-0.0351 0,-0.0354 -0.0028,-0.003 -0.009,0.003 -0.01181,0 -0.0032,-0.003 0.0032,-0.0408 0,-0.0473 -0.0025,-0.005 -0.0093,-0.007 -0.01181,-0.0118 -0.0023,-0.005 0.0024,-0.033 0,-0.0354 -0.0028,-0.003 -0.009,0.003 -0.01181,0 -0.0059,-0.006 0.0059,-0.0295 0,-0.0354 -0.0028,-0.003 -0.009,0.003 -0.01181,0 -0.0028,-0.003 0.0028,-0.009 0,-0.0118 -0.0028,-0.003 -0.009,0.003 -0.01181,0 -0.0028,-0.003 0,-0.008 0,-0.0118 0,-0.004 0,-0.008 0,-0.0118 0,-0.004 0,-0.008 0,-0.0118 0,-0.004 -0.0039,-0.0118 0,-0.0118 0.0039,0 0,0.0157 0,0.0118 0,-0.008 0,-0.0157 0,-0.0236 0,-0.0157 0.0039,-0.0118 -0.01181,-0.0118"
       id="path5421-3"
       inkscape:connector-curvature="0" />
    <path
       style="fill:#000000;fill-opacity:1;stroke:#000000;stroke-width:0.26458332px;stroke-linecap:butt;stroke-linejoin:miter;stroke-opacity:1"
       d="m 16.676452,283.0463 c -0.01277,0.0511 -0.01181,0.031 -0.01181,0.0591 0,0.004 0.0028,0.009 0,0.0118 -0.0028,0.003 -0.0083,-0.002 -0.01181,0 -0.04916,0.0246 0.01263,-8.2e-4 -0.01181,0.0236 -0.0028,0.003 -0.009,-0.003 -0.01181,0 -0.0056,0.006 0.0056,0.0181 0,0.0236 -0.0028,0.003 -0.009,-0.003 -0.01181,0 -0.0056,0.006 0.0056,0.0181 0,0.0236 -0.0028,0.003 -0.009,-0.003 -0.01181,0 -0.0028,0.003 0.0028,0.009 0,0.0118 -0.0028,0.003 -0.009,-0.003 -0.01181,0 -0.0059,0.006 0.0059,0.0295 0,0.0354 -0.0028,0.003 -0.009,-0.003 -0.01181,0 -0.0028,0.003 0.0018,0.008 0,0.0118 -0.0025,0.005 -0.0093,0.007 -0.01181,0.0118 -0.0035,0.007 0.0056,0.0181 0,0.0236 -0.0028,0.003 -0.009,-0.003 -0.01181,0 -0.0028,0.003 0.0028,0.009 0,0.0118 -0.0028,0.003 -0.009,-0.003 -0.01181,0 -0.0028,0.003 0,0.008 0,0.0118 0,0.004 0,0.008 0,0.0118 0,0.0315 0.0039,-0.004 -0.01181,0.0118 -0.0059,0.006 0.0059,0.0295 0,0.0354 -0.0028,0.003 -0.009,-0.003 -0.01181,0 -0.0059,0.006 0.0059,0.0295 0,0.0354 -0.0028,0.003 -0.009,-0.003 -0.01181,0 -0.0056,0.006 0.0056,0.018 0,0.0236 -0.0028,0.003 -0.009,-0.003 -0.01181,0 -0.0028,0.003 0,0.008 0,0.0118 0,0.004 0,0.008 0,0.0118 0,0.0354 0,0.0709 0,0.1063 0,0.004 -4.76e-4,0.0468 0,0.0472 0.0028,0.003 0.009,-0.003 0.01181,0 0.0028,0.003 -0.0028,0.009 0,0.0118 0.0028,0.003 0.009,-0.003 0.01181,0 0.0056,0.006 -0.0056,0.0181 0,0.0236 0.0028,0.003 0.009,-0.003 0.01181,0 0.0056,0.006 -0.0056,0.0181 0,0.0236 0.0028,0.003 0.009,-0.003 0.01181,0 0.0028,0.003 -0.0028,0.009 0,0.0118 0.0028,0.003 0.009,-0.003 0.01181,0 0.0028,0.003 -0.0028,0.009 0,0.0118 0.0028,0.003 0.009,-0.003 0.01181,0 0.0056,0.006 -0.0056,0.0181 0,0.0236 0.0028,0.003 0.009,-0.003 0.01181,0 0.0028,0.003 -0.0028,0.009 0,0.0118 0.0028,0.003 0.0079,0 0.01181,0 0.0029,0 0.03506,3.8e-4 0.03544,0 0.02444,-0.0244 -0.03735,9.5e-4 0.01181,-0.0236 0.0035,-0.002 0.009,0.003 0.01181,0 0.0056,-0.006 -0.0056,-0.018 0,-0.0236 0.0028,-0.003 0.009,0.003 0.01181,0 0.0056,-0.006 -0.0056,-0.0181 0,-0.0236 0.0028,-0.003 0.009,0.003 0.01181,0 0.0028,-0.003 -0.0028,-0.0444 0,-0.0473 0.0028,-0.003 0.009,0.003 0.01181,0 3.71e-4,-3.8e-4 0,-0.0326 0,-0.0354 0,-0.0315 -0.0039,0.004 0.01181,-0.0118 0.0042,-0.004 -0.0041,-0.0509 0,-0.0591 0.0025,-0.005 0.0093,-0.007 0.01181,-0.0118 0.0018,-0.004 0,-0.0301 0,-0.0354 0,-0.0276 0,-0.0551 0,-0.0827 0,-0.003 3.71e-4,-0.0351 0,-0.0354 -0.0028,-0.003 -0.009,0.003 -0.01181,0 -0.0032,-0.003 0.0032,-0.0408 0,-0.0473 -0.0025,-0.005 -0.0093,-0.007 -0.01181,-0.0118 -0.0023,-0.005 0.0024,-0.033 0,-0.0354 -0.0028,-0.003 -0.009,0.003 -0.01181,0 -0.0059,-0.006 0.0059,-0.0295 0,-0.0354 -0.0028,-0.003 -0.009,0.003 -0.01181,0 -0.0028,-0.003 0.0028,-0.009 0,-0.0118 -0.0028,-0.003 -0.009,0.003 -0.01181,0 -0.0028,-0.003 0,-0.008 0,-0.0118 0,-0.004 0,-0.008 0,-0.0118 0,-0.004 0,-0.008 0,-0.0118 0,-0.004 -0.0039,-0.0118 0,-0.0118 0.0039,0 0,0.0157 0,0.0118 0,-0.008 0,-0.0157 0,-0.0236 0,-0.0157 0.0039,-0.0118 -0.01181,-0.0118"
       id="path5421-7"
       inkscape:connector-curvature="0" />
    <path
       style="fill:#000000;fill-opacity:1;stroke:#000000;stroke-width:0.26458332px;stroke-linecap:butt;stroke-linejoin:miter;stroke-opacity:1"
       d="m 9.8018747,288.54635 c -0.01575,0 -0.03197,-0.004 -0.04725,0 -0.0076,0.002 0.0035,0.0166 0,0.0236 -0.0025,0.005 -0.0093,0.007 -0.01181,0.0118 0,0.0315 0.0039,-0.004 -0.01181,0.0118 -0.0056,0.006 0.0056,0.0181 0,0.0236 -0.0028,0.003 -0.009,-0.003 -0.01181,0 -0.0028,0.003 0.0028,0.009 0,0.0118 -0.0028,0.003 -0.009,-0.003 -0.01181,0 -0.0056,0.006 0.0056,0.0181 0,0.0236 -0.0028,0.003 -0.009,-0.003 -0.01181,0 -0.0056,0.006 0.0056,0.0181 0,0.0236 -0.0028,0.003 -0.009,-0.003 -0.01181,0 -0.0059,0.006 0.0059,0.0295 0,0.0354 -0.0056,0.006 -0.01806,-0.006 -0.02362,0 -0.0056,0.006 0.0056,0.0181 0,0.0236 -0.0028,0.003 -0.009,-0.003 -0.01181,0 -0.0056,0.006 0.0056,0.0181 0,0.0236 -0.0028,0.003 -0.009,-0.003 -0.01181,0 -0.0028,0.003 0.0028,0.009 0,0.0118 -0.0028,0.003 -0.009,-0.003 -0.01181,0 -0.0079,0.008 0.0079,0.0158 0,0.0236 -0.0028,0.003 -0.009,-0.003 -0.01181,0 -0.0056,0.006 0.0056,0.0181 0,0.0236 -0.0028,0.003 -0.009,-0.003 -0.01181,0 -0.0059,0.006 0.0059,0.0295 0,0.0354 -0.0028,0.003 -0.009,-0.003 -0.01181,0 -0.0028,0.003 0,0.008 0,0.0118 0,0.0315 0,0.063 0,0.0945 0,0.004 0,0.008 0,0.0118 0,0.004 -0.0028,0.009 0,0.0118 0.0028,0.003 0.009,-0.003 0.01181,0 0.0056,0.006 -0.0056,0.0181 0,0.0236 0.0028,0.003 0.009,-0.003 0.01181,0 0.0028,0.003 0,0.008 0,0.0118 0.0039,0 0.009,-0.003 0.01181,0 0.0028,0.003 -0.0028,0.009 0,0.0118 0.0056,0.006 0.01806,-0.006 0.02362,0 0.0056,0.006 -0.0056,0.0181 0,0.0236 0.0028,0.003 0.04441,-0.003 0.04725,0 0.0028,0.003 -0.0028,0.009 0,0.0118 0.0028,0.003 0.0079,0 0.01181,0 0.0039,0 0.0079,0 0.01181,0 0.05906,0 0.118118,0 0.177176,0 0.0029,0 0.03505,3.8e-4 0.03544,0 0.0028,-0.003 -0.0028,-0.009 0,-0.0118 0.0028,-0.003 0.009,0.003 0.01181,0 0.0028,-0.003 -0.0028,-0.009 0,-0.0118 0.0056,-0.006 0.01806,0.006 0.02362,0 0.0028,-0.003 -0.0028,-0.009 0,-0.0118 0.0028,-0.003 0.009,0.003 0.01181,0 0.0028,-0.003 -0.0028,-0.009 0,-0.0118 0.0056,-0.006 0.01805,0.006 0.02362,0 0.0028,-0.003 0,-0.008 0,-0.0118 0.0039,0 0.009,0.003 0.01181,0 0.0028,-0.003 0,-0.008 0,-0.0118 0,-0.005 0.0018,-0.0318 0,-0.0354 -0.02458,-0.0491 8.15e-4,0.0126 -0.02362,-0.0118 -0.0028,-0.003 0.0028,-0.009 0,-0.0118 -0.0028,-0.003 -0.009,0.003 -0.01181,0 -0.0028,-0.003 0.0028,-0.009 0,-0.0118 -0.0028,-0.003 -0.009,0.003 -0.01181,0 -0.0056,-0.006 0.0056,-0.018 0,-0.0236 -0.0028,-0.003 -0.0083,0.002 -0.01181,0 -0.04916,-0.0246 0.01263,8.2e-4 -0.01181,-0.0236 -0.0028,-0.003 -0.009,0.003 -0.01181,0 -0.0056,-0.006 0.0056,-0.0181 0,-0.0236 -0.0028,-0.003 -0.009,0.003 -0.01181,0 -0.0028,-0.003 0.0028,-0.009 0,-0.0118 -0.0056,-0.006 -0.01806,0.006 -0.02362,0 -0.0028,-0.003 0.0018,-0.008 0,-0.0118 -0.005,-0.01 -0.01864,-0.0137 -0.02362,-0.0236 -0.0018,-0.004 0.0028,-0.009 0,-0.0118 -0.0028,-0.003 -0.009,0.003 -0.01181,0 -0.0028,-0.003 0.0028,-0.009 0,-0.0118 -0.0028,-0.003 -0.009,0.003 -0.01181,0 -0.0056,-0.006 0.0035,-0.0166 0,-0.0236 -0.0025,-0.005 -0.0093,-0.007 -0.01181,-0.0118 -0.0035,-0.007 0.0056,-0.0181 0,-0.0236 -0.0028,-0.003 -0.009,0.003 -0.01181,0 -0.0028,-0.003 0.0028,-0.0444 0,-0.0473 -0.0028,-0.003 -0.009,0.003 -0.01181,0 -0.0056,-0.006 0.0056,-0.0181 0,-0.0236 -0.0028,-0.003 -0.009,0.003 -0.01181,0 -0.0056,-0.006 0.0056,-0.0181 0,-0.0236 -0.0028,-0.003 -0.009,0.003 -0.01181,0 -0.0056,-0.006 0.0056,-0.018 0,-0.0236 -0.0028,-0.003 -0.0079,0 -0.01181,0 -0.02362,0 -0.04725,0 -0.07087,0"
       id="path5458-2"
       inkscape:connector-curvature="0" />
    <path
       style="fill:#000000;fill-opacity:1;stroke:#000000;stroke-width:0.26458332px;stroke-linecap:butt;stroke-linejoin:miter;stroke-opacity:1"
       d="m 13.392649,277.44329 c -0.01575,0 -0.03197,-0.004 -0.04725,0 -0.0076,0.002 0.0035,0.0166 0,0.0236 -0.0025,0.005 -0.0093,0.007 -0.01181,0.0118 0,0.0315 0.0039,-0.004 -0.01181,0.0118 -0.0056,0.006 0.0056,0.0181 0,0.0236 -0.0028,0.003 -0.009,-0.003 -0.01181,0 -0.0028,0.003 0.0028,0.009 0,0.0118 -0.0028,0.003 -0.009,-0.003 -0.01181,0 -0.0056,0.006 0.0056,0.0181 0,0.0236 -0.0028,0.003 -0.009,-0.003 -0.01181,0 -0.0056,0.006 0.0056,0.0181 0,0.0236 -0.0028,0.003 -0.009,-0.003 -0.01181,0 -0.0059,0.006 0.0059,0.0295 0,0.0354 -0.0056,0.006 -0.01806,-0.006 -0.02362,0 -0.0056,0.006 0.0056,0.0181 0,0.0236 -0.0028,0.003 -0.009,-0.003 -0.01181,0 -0.0056,0.006 0.0056,0.0181 0,0.0236 -0.0028,0.003 -0.009,-0.003 -0.01181,0 -0.0028,0.003 0.0028,0.009 0,0.0118 -0.0028,0.003 -0.009,-0.003 -0.01181,0 -0.0079,0.008 0.0079,0.0158 0,0.0236 -0.0028,0.003 -0.009,-0.003 -0.01181,0 -0.0056,0.006 0.0056,0.0181 0,0.0236 -0.0028,0.003 -0.009,-0.003 -0.01181,0 -0.0059,0.006 0.0059,0.0295 0,0.0354 -0.0028,0.003 -0.009,-0.003 -0.01181,0 -0.0028,0.003 0,0.008 0,0.0118 0,0.0315 0,0.063 0,0.0945 0,0.004 0,0.008 0,0.0118 0,0.004 -0.0028,0.009 0,0.0118 0.0028,0.003 0.009,-0.003 0.01181,0 0.0056,0.006 -0.0056,0.0181 0,0.0236 0.0028,0.003 0.009,-0.003 0.01181,0 0.0028,0.003 0,0.008 0,0.0118 0.0039,0 0.009,-0.003 0.01181,0 0.0028,0.003 -0.0028,0.009 0,0.0118 0.0056,0.006 0.01806,-0.006 0.02362,0 0.0056,0.006 -0.0056,0.0181 0,0.0236 0.0028,0.003 0.0444,-0.003 0.04725,0 0.0028,0.003 -0.0028,0.009 0,0.0118 0.0028,0.003 0.0079,0 0.01181,0 0.0039,0 0.0079,0 0.01181,0 0.05906,0 0.118118,0 0.177177,0 0.0029,0 0.03505,3.8e-4 0.03543,0 0.0028,-0.003 -0.0028,-0.009 0,-0.0118 0.0028,-0.003 0.009,0.003 0.01181,0 0.0028,-0.003 -0.0028,-0.009 0,-0.0118 0.0056,-0.006 0.01806,0.006 0.02362,0 0.0028,-0.003 -0.0028,-0.009 0,-0.0118 0.0028,-0.003 0.009,0.003 0.01181,0 0.0028,-0.003 -0.0028,-0.009 0,-0.0118 0.0056,-0.006 0.01806,0.006 0.02362,0 0.0028,-0.003 0,-0.008 0,-0.0118 0.0039,0 0.009,0.003 0.01181,0 0.0028,-0.003 0,-0.008 0,-0.0118 0,-0.005 0.0018,-0.0318 0,-0.0354 -0.02458,-0.0491 8.14e-4,0.0126 -0.02362,-0.0118 -0.0028,-0.003 0.0028,-0.009 0,-0.0118 -0.0028,-0.003 -0.009,0.003 -0.01181,0 -0.0028,-0.003 0.0028,-0.009 0,-0.0118 -0.0028,-0.003 -0.009,0.003 -0.01181,0 -0.0056,-0.006 0.0056,-0.018 0,-0.0236 -0.0028,-0.003 -0.0083,0.002 -0.01181,0 -0.04916,-0.0246 0.01263,8.2e-4 -0.01181,-0.0236 -0.0028,-0.003 -0.009,0.003 -0.01181,0 -0.0056,-0.006 0.0056,-0.0181 0,-0.0236 -0.0028,-0.003 -0.009,0.003 -0.01181,0 -0.0028,-0.003 0.0028,-0.009 0,-0.0118 -0.0056,-0.006 -0.01806,0.006 -0.02362,0 -0.0028,-0.003 0.0018,-0.008 0,-0.0118 -0.005,-0.01 -0.01864,-0.0137 -0.02362,-0.0236 -0.0018,-0.004 0.0028,-0.009 0,-0.0118 -0.0028,-0.003 -0.009,0.003 -0.01181,0 -0.0028,-0.003 0.0028,-0.009 0,-0.0118 -0.0028,-0.003 -0.009,0.003 -0.01181,0 -0.0056,-0.006 0.0035,-0.0166 0,-0.0236 -0.0025,-0.005 -0.0093,-0.007 -0.01181,-0.0118 -0.0035,-0.007 0.0056,-0.0181 0,-0.0236 -0.0028,-0.003 -0.009,0.003 -0.01181,0 -0.0028,-0.003 0.0028,-0.0444 0,-0.0473 -0.0028,-0.003 -0.009,0.003 -0.01181,0 -0.0056,-0.006 0.0056,-0.0181 0,-0.0236 -0.0028,-0.003 -0.009,0.003 -0.01181,0 -0.0056,-0.006 0.0056,-0.0181 0,-0.0236 -0.0028,-0.003 -0.009,0.003 -0.01181,0 -0.0056,-0.006 0.0056,-0.018 0,-0.0236 -0.0028,-0.003 -0.0079,0 -0.01181,0 -0.02362,0 -0.04725,0 -0.07087,0"
       id="path5458-2-9"
       inkscape:connector-curvature="0" />
    <path
       style="fill:#000000;fill-opacity:1;stroke:#000000;stroke-width:0.26458332px;stroke-linecap:butt;stroke-linejoin:miter;stroke-opacity:1"
       d="m 14.748084,280.78343 c -0.0079,0.008 -0.01575,0.0158 -0.02362,0.0236 -0.002,0 -0.0045,-10e-4 -0.0059,0 -0.0014,10e-4 0.0014,0.005 0,0.006 -0.0014,10e-4 -0.0045,-0.001 -0.0059,0 -0.0014,10e-4 0.0014,0.005 0,0.006 -0.0014,10e-4 -0.0045,-10e-4 -0.0059,0 -0.0014,10e-4 0.0014,0.005 0,0.006 -0.0014,10e-4 -0.0041,-8.8e-4 -0.0059,0 -0.0025,10e-4 -0.0039,0.004 -0.0059,0.006 -0.002,0.002 -0.0047,0.003 -0.0059,0.006 -8.73e-4,0.002 0.0014,0.005 0,0.006 -0.0014,10e-4 -0.0045,-10e-4 -0.0059,0 -0.0014,10e-4 0.0014,0.005 0,0.006 -0.01222,0.0122 4.76e-4,-0.0187 -0.01181,0.006 -8.73e-4,0.002 0.0014,0.005 0,0.006 -0.0014,10e-4 -0.0045,-0.001 -0.0059,0 -0.0014,10e-4 0.0014,0.005 0,0.006 -0.0014,10e-4 -0.0045,-10e-4 -0.0059,0 -0.0028,0.003 0.0028,0.009 0,0.0118 -0.0014,0.001 -0.0045,-10e-4 -0.0059,0 -0.01427,0.0143 0.01427,-0.002 0,0.0118 -0.0014,0.001 -0.0045,-10e-4 -0.0059,0 -0.0014,0.001 0.0014,0.005 0,0.006 -0.0014,10e-4 -0.0045,-0.001 -0.0059,0 -0.0014,10e-4 8.73e-4,0.004 0,0.006 -0.0012,0.002 -0.0047,0.003 -0.0059,0.006 -0.0018,0.004 0.0028,0.009 0,0.0118 -0.0014,10e-4 -0.0045,-0.001 -0.0059,0 -0.0029,0.003 0.0029,0.0148 0,0.0177 -0.0014,10e-4 -0.0045,-10e-4 -0.0059,0 -0.0014,10e-4 0.0014,0.005 0,0.006 -0.0014,0.001 -0.0045,-10e-4 -0.0059,0 -0.0012,0.001 0.0012,0.0154 0,0.0177 -0.0012,0.002 -0.0047,0.003 -0.0059,0.006 -0.0016,0.003 0.0016,0.022 0,0.0236 -0.0014,0.001 -0.0045,-10e-4 -0.0059,0 -0.0014,0.001 0,0.004 0,0.006 0,0.01 0,0.0197 0,0.0295 0,0.002 0,0.004 0,0.006 0,0.002 -0.0014,0.005 0,0.006 0.0014,0.001 0.0045,-10e-4 0.0059,0 0.0014,0.001 -0.0014,0.005 0,0.006 0.0014,10e-4 0.0045,-0.001 0.0059,0 0.0014,10e-4 -0.0014,0.005 0,0.006 0.0014,0.001 0.0045,-10e-4 0.0059,0 0.0028,0.003 -0.0028,0.009 0,0.0118 0.0014,0.001 0.0045,-10e-4 0.0059,0 0.0014,0.001 -0.0014,0.005 0,0.006 0.0014,10e-4 0.0045,-0.001 0.0059,0 0.0014,10e-4 -0.0014,0.005 0,0.006 0.0014,0.001 0.0045,-10e-4 0.0059,0 0.0014,0.001 -0.0014,0.005 0,0.006 0.0014,10e-4 0.0045,-0.001 0.0059,0 0.0028,0.003 -0.0028,0.009 0,0.0118 0.0014,10e-4 0.0045,-0.001 0.0059,0 0.0028,0.003 -0.0028,0.009 0,0.0118 0.0014,10e-4 0.0045,-10e-4 0.0059,0 0.0014,10e-4 -8.73e-4,0.004 0,0.006 0.0012,0.002 0.0047,0.003 0.0059,0.006 8.73e-4,0.002 -0.0014,0.005 0,0.006 0.0028,0.003 0.009,-0.003 0.01181,0 0.0014,0.001 -0.0014,0.005 0,0.006 0.0014,10e-4 0.0045,-0.001 0.0059,0 0.0014,10e-4 -0.0014,0.005 0,0.006 0.0014,0.001 0.0045,-10e-4 0.0059,0 0.0014,0.001 -0.0014,0.005 0,0.006 0.0014,10e-4 0.0045,-0.001 0.0059,0 0.0014,10e-4 -0.0014,0.005 0,0.006 0.0014,0.001 0.0045,-10e-4 0.0059,0 0.01222,0.0122 -0.01867,-4.8e-4 0.0059,0.0118 0.0035,0.002 0.009,-0.003 0.01181,0 0.0014,10e-4 -0.0014,0.005 0,0.006 0.0028,0.003 0.009,-0.003 0.01181,0 0.0014,10e-4 -0.0014,0.005 0,0.006 0.0014,0.001 0.0045,-10e-4 0.0059,0 0.0014,0.001 -0.0014,0.005 0,0.006 2.38e-4,2.4e-4 0.02146,0 0.02363,0 0.002,0 0.0039,0 0.0059,0 0.002,0 0.0045,-10e-4 0.0059,0 0.0079,0.008 -0.0098,0.006 0.0059,0.006 0.002,0 0.0039,0 0.0059,0 0.002,0 0.0045,-10e-4 0.0059,0 0.0014,0.001 -0.0014,0.005 0,0.006 0.0014,10e-4 0.0039,0 0.0059,0 0.002,0 0.0039,0 0.0059,0 0.01378,0 0.02756,0 0.04134,0 0.002,0 0.0045,10e-4 0.0059,0 0.0014,-10e-4 -0.0014,-0.005 0,-0.006 0.0014,-10e-4 0.0041,8.7e-4 0.0059,0 0.0025,-10e-4 0.0034,-0.005 0.0059,-0.006 0.0023,-10e-4 0.01651,10e-4 0.01772,0 0.0014,-10e-4 -0.0014,-0.005 0,-0.006 0.0014,-10e-4 0.0045,0.001 0.0059,0 0.0014,-10e-4 -0.0014,-0.005 0,-0.006 0.0028,-0.003 0.009,0.003 0.01181,0 0.0014,-10e-4 -0.0014,-0.005 0,-0.006 0.0014,-0.001 0.0045,10e-4 0.0059,0 0.0014,-0.001 -0.0014,-0.005 0,-0.006 0.0014,-10e-4 0.0045,10e-4 0.0059,0 0.0014,-10e-4 -0.0014,-0.005 0,-0.006 0.0014,-0.001 0.0045,10e-4 0.0059,0 0.0014,-0.001 -0.0014,-0.005 0,-0.006 0.0014,-10e-4 0.0045,10e-4 0.0059,0 0.0014,-10e-4 -0.0014,-0.005 0,-0.006 0.0014,-0.001 0.0045,10e-4 0.0059,0 0.0014,-0.001 -8.73e-4,-0.004 0,-0.006 0.0012,-0.002 0.0047,-0.003 0.0059,-0.006 8.73e-4,-0.002 -0.0014,-0.005 0,-0.006 0.0028,-0.003 0.009,0.003 0.01181,0 0.0028,-0.003 -0.0028,-0.009 0,-0.0118 0.0014,-10e-4 0.0042,8.7e-4 0.0059,0 0.005,-0.002 0.0068,-0.009 0.01181,-0.0118 0.0018,-8.8e-4 0.0045,10e-4 0.0059,0 0.0028,-0.003 -0.0028,-0.009 0,-0.0118 0.0028,-0.003 0.009,0.003 0.01181,0 0.0014,-0.001 -0.0014,-0.005 0,-0.006 0.0014,-10e-4 0.0045,0.001 0.0059,0 0.0014,-10e-4 -0.0014,-0.005 0,-0.006 0.0014,-0.001 0.0042,8.7e-4 0.0059,0 0.02458,-0.0123 -0.0063,3.9e-4 0.0059,-0.0118 0.0014,-0.001 0.0045,10e-4 0.0059,0 0.0014,-0.001 -0.0014,-0.005 0,-0.006 0.0014,-10e-4 0.0045,0.001 0.0059,0 0.0014,-10e-4 -0.0014,-0.005 0,-0.006 0.0014,-0.001 0.0045,10e-4 0.0059,0 0.0014,-0.001 -8.73e-4,-0.004 0,-0.006 0.0025,-0.005 0.0093,-0.007 0.01181,-0.0118 8.73e-4,-0.002 -0.0014,-0.005 0,-0.006 0.01222,-0.0122 -4.76e-4,0.0187 0.01181,-0.006 8.73e-4,-0.002 -8.73e-4,-0.004 0,-0.006 0.0025,-0.005 0.0093,-0.007 0.01181,-0.0118 8.73e-4,-0.002 0,-0.004 0,-0.006 0.002,-0.002 0.0047,-0.003 0.0059,-0.006 8.73e-4,-0.002 -0.0014,-0.005 0,-0.006 0.01222,-0.0122 -4.76e-4,0.0187 0.01181,-0.006 8.73e-4,-0.002 -8.73e-4,-0.004 0,-0.006 0.0012,-0.002 0.0047,-0.003 0.0059,-0.006 8.73e-4,-0.002 0,-0.004 0,-0.006 0.002,-0.002 0.0047,-0.003 0.0059,-0.006 8.73e-4,-0.002 -0.0014,-0.005 0,-0.006 0.0014,-10e-4 0.0045,10e-4 0.0059,0 0.0028,-0.003 -0.0018,-0.008 0,-0.0118 0.0012,-0.002 0.0047,-0.003 0.0059,-0.006 8.73e-4,-0.002 -0.0014,-0.005 0,-0.006 0.0014,-0.001 0.0045,10e-4 0.0059,0 0.003,-0.003 -0.0029,-0.0148 0,-0.0177 0.0014,-0.001 0.0045,10e-4 0.0059,0 0.0018,-0.002 -0.0018,-0.0277 0,-0.0295 0.0014,-10e-4 0.0045,0.001 0.0059,0 0.0014,-10e-4 0,-0.004 0,-0.006 0,-0.002 0,-0.004 0,-0.006 0,-0.0216 0,-0.0433 0,-0.065 0,-0.002 0,-0.004 0,-0.006 0,-0.002 0.0014,-0.005 0,-0.006 -0.0014,-10e-4 -0.0045,0.001 -0.0059,0 -0.0028,-0.003 0.0028,-0.009 0,-0.0118 -0.0014,-10e-4 -0.0045,0.001 -0.0059,0 -0.0014,-10e-4 8.73e-4,-0.004 0,-0.006 -0.01229,-0.0246 3.97e-4,0.006 -0.01181,-0.006 -0.0014,-10e-4 0.0014,-0.005 0,-0.006 -0.0014,-0.001 -0.0045,10e-4 -0.0059,0 -0.0014,-0.001 0.0014,-0.005 0,-0.006 -0.0014,-10e-4 -0.0222,0.001 -0.02362,0 -0.0014,-10e-4 0.0014,-0.005 0,-0.006 -0.0014,-0.001 -0.0039,0 -0.0059,0 -0.002,0 -0.0039,0 -0.0059,0 -0.02953,0 -0.05906,0 -0.08859,0 -0.0022,0 -0.02339,2.3e-4 -0.02362,0 -0.0014,-0.001 0.0014,-0.005 0,-0.006 -0.0014,-10e-4 -0.0039,0 -0.0059,0 -0.01181,0 -0.02362,0 -0.03543,0 -0.01575,0 -0.0315,0 -0.04725,0 -0.0027,0 -0.01592,-9e-4 -0.01772,0 -0.0025,0.001 -0.0034,0.005 -0.0059,0.006 -0.0035,0.002 -0.0083,-0.002 -0.01181,0 -0.02458,0.0123 0.0063,-4e-4 -0.0059,0.0118 -0.0028,0.003 -0.009,-0.003 -0.01181,0 -0.01222,0.0122 0.01867,-4.8e-4 -0.0059,0.0118 -0.0018,8.7e-4 -0.0045,-10e-4 -0.0059,0 -0.0028,0.003 0.0028,0.009 0,0.0118 -0.0014,0.001 -0.0039,0 -0.0059,0 -0.0079,0.002 -0.01834,-2.6e-4 -0.02363,0.006 -0.0081,0.009 -0.0062,0.0243 -0.01181,0.0354 -4.76e-4,9.8e-4 -0.01615,0 -0.01772,0"
       id="path5460-1-8"
       inkscape:connector-curvature="0" />
    <path
       style="fill:#000000;fill-opacity:1;stroke:#000000;stroke-width:0.26458332px;stroke-linecap:butt;stroke-linejoin:miter;stroke-opacity:1"
       d="m 18.294528,285.58124 c -0.05104,0.0322 -0.04725,0.0215 -0.04725,0.0591 0,0.004 0.0028,0.009 0,0.0118 -0.01575,0.0157 -0.01181,-0.0197 -0.01181,0.0118 0,0.003 3.7e-4,0.0351 0,0.0354 -0.0028,0.003 -0.009,-0.003 -0.01181,0 -0.0056,0.006 0.0035,0.0166 0,0.0236 -0.0025,0.005 -0.0093,0.007 -0.01181,0.0118 -0.0035,0.007 0.0056,0.0181 0,0.0236 -0.0028,0.003 -0.009,-0.003 -0.01181,0 -0.0059,0.006 0.0059,0.0295 0,0.0354 -0.0028,0.003 -0.009,-0.003 -0.01181,0 -0.0028,0.003 0,0.008 0,0.0118 0,0.004 0,0.008 0,0.0118 0,0.0512 0,0.10237 0,0.15355 0,0.0276 0,0.0551 0,0.0827 0,0.004 -0.0028,0.009 0,0.0118 0.0028,0.003 0.009,-0.003 0.01181,0 0.0056,0.006 -0.0056,0.0181 0,0.0236 0.0028,0.003 0.009,-0.003 0.01181,0 0.0028,0.003 -0.0028,0.009 0,0.0118 0.0028,0.003 0.009,-0.003 0.01181,0 0.0028,0.003 -0.0018,0.008 0,0.0118 0.0025,0.005 0.0093,0.007 0.01181,0.0118 0.0018,0.004 -0.0028,0.009 0,0.0118 0.0056,0.006 0.01806,-0.006 0.02363,0 0.0028,0.003 -0.0028,0.009 0,0.0118 0.02444,0.0244 -9.53e-4,-0.0373 0.02362,0.0118 0.0018,0.004 -0.0028,0.009 0,0.0118 0.0056,0.006 0.01806,-0.006 0.02363,0 0.0028,0.003 -0.0028,0.009 0,0.0118 0.0059,0.006 0.02953,-0.006 0.03543,0 0.0028,0.003 -0.0028,0.009 0,0.0118 0.0059,0.006 0.02953,-0.006 0.03543,0 0.0028,0.003 -0.0028,0.009 0,0.0118 0.0056,0.006 0.01806,-0.006 0.02363,0 0.0028,0.003 -0.0028,0.009 0,0.0118 0.0028,0.003 0.009,-0.003 0.01181,0 0.0028,0.003 -0.0028,0.009 0,0.0118 0.0028,0.003 0.0444,-0.003 0.04725,0 0.0028,0.003 -0.0028,0.009 0,0.0118 0.0028,0.003 0.0079,0 0.01181,0 0.02362,0 0.04725,0 0.07087,0 0.02362,0 0.04725,0 0.07087,0 0.0039,0 0.009,0.003 0.01181,0 0.0028,-0.003 -0.0028,-0.009 0,-0.0118 0.0028,-0.003 0.0083,0.002 0.01181,0 0.04916,-0.0246 -0.01263,8.2e-4 0.01181,-0.0236 0.0028,-0.003 0.009,0.003 0.01181,0 0.0056,-0.006 -0.0035,-0.0166 0,-0.0236 0.0025,-0.005 0.0093,-0.007 0.01181,-0.0118 0.0018,-0.004 -0.0018,-0.008 0,-0.0118 0.02458,-0.0492 -8.2e-4,0.0126 0.02362,-0.0118 0.0028,-0.003 -0.0028,-0.0444 0,-0.0473 0.0028,-0.003 0.009,0.003 0.01181,0 0.0028,-0.003 0,-0.008 0,-0.0118 0,-0.0276 0,-0.0551 0,-0.0827 0,-0.004 0,-0.008 0,-0.0118 0,-0.004 0.0028,-0.009 0,-0.0118 -0.0028,-0.003 -0.0083,0.002 -0.01181,0 -0.01,-0.005 -0.01366,-0.0186 -0.02362,-0.0236 -0.0315,0 0.0039,0.004 -0.01181,-0.0118 -0.0028,-0.003 -0.009,0.003 -0.01181,0 -0.0028,-0.003 0.0028,-0.009 0,-0.0118 -0.0028,-0.003 -0.0083,0.002 -0.01181,0 -0.01,-0.005 -0.01366,-0.0186 -0.02363,-0.0236 -0.0035,-0.002 -0.009,0.003 -0.01181,0 -0.0028,-0.003 0.0028,-0.009 0,-0.0118 -0.0056,-0.006 -0.01806,0.006 -0.02363,0 -0.0028,-0.003 0.0028,-0.009 0,-0.0118 -0.0028,-0.003 -0.009,0.003 -0.01181,0 -0.0028,-0.003 0.0028,-0.009 0,-0.0118 -0.0028,-0.003 -0.009,0.003 -0.01181,0 -0.0028,-0.003 0.0028,-0.009 0,-0.0118 -0.0056,-0.006 -0.01658,0.004 -0.02362,0 -0.005,-0.002 -0.0068,-0.009 -0.01181,-0.0118 -0.007,-0.004 -0.01658,0.004 -0.02363,0 -0.005,-0.002 -0.0068,-0.009 -0.01181,-0.0118 -0.0035,-0.002 -0.009,0.003 -0.01181,0 -0.0028,-0.003 0.0028,-0.009 0,-0.0118 -0.0056,-0.006 -0.01806,0.006 -0.02363,0 -0.0028,-0.003 0.0028,-0.009 0,-0.0118 -0.0056,-0.006 -0.01805,0.006 -0.02362,0 -0.0028,-0.003 0.0028,-0.009 0,-0.0118 -0.0056,-0.006 -0.01806,0.006 -0.02363,0 -0.0028,-0.003 0.0028,-0.009 0,-0.0118 -0.0028,-0.003 -0.009,0.003 -0.01181,0 -0.0028,-0.003 0.0018,-0.008 0,-0.0118 -0.0025,-0.005 -0.0093,-0.007 -0.01181,-0.0118 -0.0035,-0.007 0.0056,-0.0181 0,-0.0236 -0.0028,-0.003 -0.009,0.003 -0.01181,0 -0.0056,-0.006 0.0056,-0.0181 0,-0.0236 -0.0028,-0.003 -0.009,0.003 -0.01181,0 -0.0028,-0.003 0.0028,-0.009 0,-0.0118 -0.0028,-0.003 -0.009,0.003 -0.01181,0 -0.0028,-0.003 0.0028,-0.009 0,-0.0118 -0.0028,-0.003 -0.009,0.003 -0.01181,0 -0.0056,-0.006 0.0056,-0.018 0,-0.0236 -0.0028,-0.003 -0.009,0.003 -0.01181,0 -0.0028,-0.003 0.0028,-0.009 0,-0.0118 -0.0028,-0.003 -0.0083,0.002 -0.01181,0 -0.005,-0.002 -0.0068,-0.009 -0.01181,-0.0118 -0.007,-0.004 -0.01805,0.006 -0.02362,0 -0.0028,-0.003 0,-0.008 0,-0.0118 0,-0.004 0,-0.008 0,-0.0118"
       id="path5456-9-6"
       inkscape:connector-curvature="0" />
    <path
       style="fill:#000000;fill-opacity:1;stroke:#000000;stroke-width:0.26458332px;stroke-linecap:butt;stroke-linejoin:miter;stroke-opacity:1"
       d="m 12.187977,279.8335 c -0.01277,0.0511 -0.01181,0.031 -0.01181,0.0591 0,0.004 0.0028,0.009 0,0.0118 -0.0028,0.003 -0.0083,-0.002 -0.01181,0 -0.04916,0.0246 0.01263,-8.2e-4 -0.01181,0.0236 -0.0028,0.003 -0.009,-0.003 -0.01181,0 -0.0056,0.006 0.0056,0.0181 0,0.0236 -0.0028,0.003 -0.009,-0.003 -0.01181,0 -0.0056,0.006 0.0056,0.0181 0,0.0236 -0.0028,0.003 -0.009,-0.003 -0.01181,0 -0.0028,0.003 0.0028,0.009 0,0.0118 -0.0028,0.003 -0.009,-0.003 -0.01181,0 -0.0059,0.006 0.0059,0.0295 0,0.0354 -0.0028,0.003 -0.009,-0.003 -0.01181,0 -0.0028,0.003 0.0018,0.008 0,0.0118 -0.0025,0.005 -0.0093,0.007 -0.01181,0.0118 -0.0035,0.007 0.0056,0.0181 0,0.0236 -0.0028,0.003 -0.009,-0.003 -0.01181,0 -0.0028,0.003 0.0028,0.009 0,0.0118 -0.0028,0.003 -0.009,-0.003 -0.01181,0 -0.0028,0.003 0,0.008 0,0.0118 0,0.004 0,0.008 0,0.0118 0,0.0315 0.0039,-0.004 -0.01181,0.0118 -0.0059,0.006 0.0059,0.0295 0,0.0354 -0.0028,0.003 -0.009,-0.003 -0.01181,0 -0.0059,0.006 0.0059,0.0295 0,0.0354 -0.0028,0.003 -0.009,-0.003 -0.01181,0 -0.0056,0.006 0.0056,0.018 0,0.0236 -0.0028,0.003 -0.009,-0.003 -0.01181,0 -0.0028,0.003 0,0.008 0,0.0118 0,0.004 0,0.008 0,0.0118 0,0.0354 0,0.0709 0,0.1063 0,0.004 -4.76e-4,0.0468 0,0.0472 0.0028,0.003 0.009,-0.003 0.01181,0 0.0028,0.003 -0.0028,0.009 0,0.0118 0.0028,0.003 0.009,-0.003 0.01181,0 0.0056,0.006 -0.0056,0.0181 0,0.0236 0.0028,0.003 0.009,-0.003 0.01181,0 0.0056,0.006 -0.0056,0.0181 0,0.0236 0.0028,0.003 0.009,-0.003 0.01181,0 0.0028,0.003 -0.0028,0.009 0,0.0118 0.0028,0.003 0.009,-0.003 0.01181,0 0.0028,0.003 -0.0028,0.009 0,0.0118 0.0028,0.003 0.009,-0.003 0.01181,0 0.0056,0.006 -0.0056,0.0181 0,0.0236 0.0028,0.003 0.009,-0.003 0.01181,0 0.0028,0.003 -0.0028,0.009 0,0.0118 0.0028,0.003 0.0079,0 0.01181,0 0.0029,0 0.03506,3.8e-4 0.03544,0 0.02444,-0.0244 -0.03735,9.5e-4 0.01181,-0.0236 0.0035,-0.002 0.009,0.003 0.01181,0 0.0056,-0.006 -0.0056,-0.018 0,-0.0236 0.0028,-0.003 0.009,0.003 0.01181,0 0.0056,-0.006 -0.0056,-0.0181 0,-0.0236 0.0028,-0.003 0.009,0.003 0.01181,0 0.0028,-0.003 -0.0028,-0.0444 0,-0.0473 0.0028,-0.003 0.009,0.003 0.01181,0 3.7e-4,-3.8e-4 0,-0.0326 0,-0.0354 0,-0.0315 -0.0039,0.004 0.01181,-0.0118 0.0042,-0.004 -0.0041,-0.0509 0,-0.0591 0.0025,-0.005 0.0093,-0.007 0.01181,-0.0118 0.0018,-0.004 0,-0.0301 0,-0.0354 0,-0.0276 0,-0.0551 0,-0.0827 0,-0.003 3.7e-4,-0.0351 0,-0.0354 -0.0028,-0.003 -0.009,0.003 -0.01181,0 -0.0032,-0.003 0.0032,-0.0408 0,-0.0473 -0.0025,-0.005 -0.0093,-0.007 -0.01181,-0.0118 -0.0023,-0.005 0.0024,-0.033 0,-0.0354 -0.0028,-0.003 -0.009,0.003 -0.01181,0 -0.0059,-0.006 0.0059,-0.0295 0,-0.0354 -0.0028,-0.003 -0.009,0.003 -0.01181,0 -0.0028,-0.003 0.0028,-0.009 0,-0.0118 -0.0028,-0.003 -0.009,0.003 -0.01181,0 -0.0028,-0.003 0,-0.008 0,-0.0118 0,-0.004 0,-0.008 0,-0.0118 0,-0.004 0,-0.008 0,-0.0118 0,-0.004 -0.0039,-0.0118 0,-0.0118 0.0039,0 0,0.0157 0,0.0118 0,-0.008 0,-0.0157 0,-0.0236 0,-0.0157 0.0039,-0.0118 -0.01181,-0.0118"
       id="path5421-3-4"
       inkscape:connector-curvature="0" />
    <path
       style="fill:#000000;fill-opacity:1;stroke:#000000;stroke-width:0.26458332px;stroke-linecap:butt;stroke-linejoin:miter;stroke-opacity:1"
       d="m 10.212371,281.91737 c -0.0079,0.008 -0.01575,0.0158 -0.02362,0.0236 -0.002,0 -0.0045,-10e-4 -0.0059,0 -0.0014,0.001 0.0014,0.005 0,0.006 -0.0014,10e-4 -0.0045,-0.001 -0.0059,0 -0.0014,10e-4 0.0014,0.005 0,0.006 -0.0014,0.001 -0.0045,-10e-4 -0.0059,0 -0.0014,0.001 0.0014,0.005 0,0.006 -0.0014,10e-4 -0.0041,-8.8e-4 -0.0059,0 -0.0025,10e-4 -0.0039,0.004 -0.0059,0.006 -0.002,0.002 -0.0047,0.003 -0.0059,0.006 -8.74e-4,0.002 0.0014,0.005 0,0.006 -0.0014,0.001 -0.0045,-10e-4 -0.0059,0 -0.0014,0.001 0.0014,0.005 0,0.006 -0.01222,0.0122 4.76e-4,-0.0187 -0.01181,0.006 -8.74e-4,0.002 0.0014,0.005 0,0.006 -0.0014,10e-4 -0.0045,-0.001 -0.0059,0 -0.0014,10e-4 0.0014,0.005 0,0.006 -0.0014,10e-4 -0.0045,-10e-4 -0.0059,0 -0.0028,0.003 0.0028,0.009 0,0.0118 -0.0014,0.001 -0.0045,-10e-4 -0.0059,0 -0.01427,0.0143 0.01427,-0.002 0,0.0118 -0.0014,0.001 -0.0045,-10e-4 -0.0059,0 -0.0014,0.001 0.0014,0.005 0,0.006 -0.0014,10e-4 -0.0045,-0.001 -0.0059,0 -0.0014,10e-4 8.73e-4,0.004 0,0.006 -0.0012,0.002 -0.0047,0.003 -0.0059,0.006 -0.0018,0.004 0.0028,0.009 0,0.0118 -0.0014,10e-4 -0.0045,-0.001 -0.0059,0 -0.0029,0.003 0.0029,0.0148 0,0.0177 -0.0014,10e-4 -0.0045,-10e-4 -0.0059,0 -0.0014,10e-4 0.0014,0.005 0,0.006 -0.0014,10e-4 -0.0045,-0.001 -0.0059,0 -0.0012,10e-4 0.0012,0.0154 0,0.0177 -0.0012,0.002 -0.0047,0.003 -0.0059,0.006 -0.0016,0.003 0.0016,0.022 0,0.0236 -0.0014,0.001 -0.0045,-10e-4 -0.0059,0 -0.0014,0.001 0,0.004 0,0.006 0,0.01 0,0.0197 0,0.0295 0,0.002 0,0.004 0,0.006 0,0.002 -0.0014,0.005 0,0.006 0.0014,0.001 0.0045,-10e-4 0.0059,0 0.0014,0.001 -0.0014,0.005 0,0.006 0.0014,10e-4 0.0045,-0.001 0.0059,0 0.0014,10e-4 -0.0014,0.005 0,0.006 0.0014,0.001 0.0045,-10e-4 0.0059,0 0.0028,0.003 -0.0028,0.009 0,0.0118 0.0014,0.001 0.0045,-10e-4 0.0059,0 0.0014,0.001 -0.0014,0.005 0,0.006 0.0014,10e-4 0.0045,-0.001 0.0059,0 0.0014,10e-4 -0.0014,0.005 0,0.006 0.0014,0.001 0.0045,-10e-4 0.0059,0 0.0014,0.001 -0.0014,0.005 0,0.006 0.0014,10e-4 0.0045,-0.001 0.0059,0 0.0028,0.003 -0.0028,0.009 0,0.0118 0.0014,10e-4 0.0045,-0.001 0.0059,0 0.0028,0.003 -0.0028,0.009 0,0.0118 0.0014,10e-4 0.0045,-10e-4 0.0059,0 0.0014,10e-4 -8.74e-4,0.004 0,0.006 0.0012,0.002 0.0047,0.003 0.0059,0.006 8.73e-4,0.002 -0.0014,0.005 0,0.006 0.0028,0.003 0.009,-0.003 0.01181,0 0.0014,0.001 -0.0014,0.005 0,0.006 0.0014,10e-4 0.0045,-10e-4 0.0059,0 0.0014,10e-4 -0.0014,0.005 0,0.006 0.0014,0.001 0.0045,-10e-4 0.0059,0 0.0014,0.001 -0.0014,0.005 0,0.006 0.0014,10e-4 0.0045,-10e-4 0.0059,0 0.0014,10e-4 -0.0014,0.005 0,0.006 0.0014,0.001 0.0045,-10e-4 0.0059,0 0.01222,0.0122 -0.01867,-4.8e-4 0.0059,0.0118 0.0035,0.002 0.009,-0.003 0.01181,0 0.0014,10e-4 -0.0014,0.005 0,0.006 0.0028,0.003 0.009,-0.003 0.01181,0 0.0014,10e-4 -0.0014,0.005 0,0.006 0.0014,10e-4 0.0045,-0.001 0.0059,0 0.0014,10e-4 -0.0014,0.005 0,0.006 2.38e-4,2.4e-4 0.02146,0 0.02363,0 0.002,0 0.0039,0 0.0059,0 0.002,0 0.0045,-10e-4 0.0059,0 0.0079,0.008 -0.0098,0.006 0.0059,0.006 0.002,0 0.0039,0 0.0059,0 0.002,0 0.0045,-0.001 0.0059,0 0.0014,10e-4 -0.0014,0.005 0,0.006 0.0014,10e-4 0.0039,0 0.0059,0 0.002,0 0.0039,0 0.0059,0 0.01378,0 0.02756,0 0.04134,0 0.002,0 0.0045,10e-4 0.0059,0 0.0014,-10e-4 -0.0014,-0.005 0,-0.006 0.0014,-0.001 0.0041,8.7e-4 0.0059,0 0.0025,-0.001 0.0034,-0.005 0.0059,-0.006 0.0023,-10e-4 0.01651,10e-4 0.01772,0 0.0014,-10e-4 -0.0014,-0.005 0,-0.006 0.0014,-0.001 0.0045,10e-4 0.0059,0 0.0014,-0.001 -0.0014,-0.005 0,-0.006 0.0028,-0.003 0.009,0.003 0.01181,0 0.0014,-10e-4 -0.0014,-0.005 0,-0.006 0.0014,-0.001 0.0045,10e-4 0.0059,0 0.0014,-0.001 -0.0014,-0.005 0,-0.006 0.0014,-10e-4 0.0045,0.001 0.0059,0 0.0014,-10e-4 -0.0014,-0.005 0,-0.006 0.0014,-0.001 0.0045,10e-4 0.0059,0 0.0014,-0.001 -0.0014,-0.005 0,-0.006 0.0014,-10e-4 0.0045,0.001 0.0059,0 0.0014,-10e-4 -0.0014,-0.005 0,-0.006 0.0014,-0.001 0.0045,10e-4 0.0059,0 0.0014,-0.001 -8.74e-4,-0.004 0,-0.006 0.0012,-0.002 0.0047,-0.003 0.0059,-0.006 8.73e-4,-0.002 -0.0014,-0.005 0,-0.006 0.0028,-0.003 0.009,0.003 0.01181,0 0.0028,-0.003 -0.0028,-0.009 0,-0.0118 0.0014,-10e-4 0.0042,8.7e-4 0.0059,0 0.005,-0.002 0.0068,-0.009 0.01181,-0.0118 0.0018,-8.8e-4 0.0045,10e-4 0.0059,0 0.0028,-0.003 -0.0028,-0.009 0,-0.0118 0.0028,-0.003 0.009,0.003 0.01181,0 0.0014,-0.001 -0.0014,-0.005 0,-0.006 0.0014,-10e-4 0.0045,0.001 0.0059,0 0.0014,-10e-4 -0.0014,-0.005 0,-0.006 0.0014,-0.001 0.0042,8.7e-4 0.0059,0 0.02458,-0.0123 -0.0063,3.9e-4 0.0059,-0.0118 0.0014,-0.001 0.0045,10e-4 0.0059,0 0.0014,-0.001 -0.0014,-0.005 0,-0.006 0.0014,-10e-4 0.0045,0.001 0.0059,0 0.0014,-10e-4 -0.0014,-0.005 0,-0.006 0.0014,-0.001 0.0045,10e-4 0.0059,0 0.0014,-0.001 -8.74e-4,-0.004 0,-0.006 0.0025,-0.005 0.0093,-0.007 0.01181,-0.0118 8.73e-4,-0.002 -0.0014,-0.005 0,-0.006 0.01222,-0.0122 -4.77e-4,0.0187 0.01181,-0.006 8.73e-4,-0.002 -8.74e-4,-0.004 0,-0.006 0.0025,-0.005 0.0093,-0.007 0.01181,-0.0118 8.73e-4,-0.002 0,-0.004 0,-0.006 0.002,-0.002 0.0047,-0.003 0.0059,-0.006 8.73e-4,-0.002 -0.0014,-0.005 0,-0.006 0.01222,-0.0122 -4.77e-4,0.0187 0.01181,-0.006 8.73e-4,-0.002 -8.74e-4,-0.004 0,-0.006 0.0012,-0.002 0.0047,-0.003 0.0059,-0.006 8.73e-4,-0.002 0,-0.004 0,-0.006 0.002,-0.002 0.0047,-0.003 0.0059,-0.006 8.73e-4,-0.002 -0.0014,-0.005 0,-0.006 0.0014,-10e-4 0.0045,10e-4 0.0059,0 0.0028,-0.003 -0.0018,-0.008 0,-0.0118 0.0012,-0.002 0.0047,-0.003 0.0059,-0.006 8.73e-4,-0.002 -0.0014,-0.005 0,-0.006 0.0014,-10e-4 0.0045,10e-4 0.0059,0 0.003,-0.003 -0.0029,-0.0148 0,-0.0177 0.0014,-0.001 0.0045,10e-4 0.0059,0 0.0018,-0.002 -0.0018,-0.0277 0,-0.0295 0.0014,-10e-4 0.0045,0.001 0.0059,0 0.0014,-10e-4 0,-0.004 0,-0.006 0,-0.002 0,-0.004 0,-0.006 0,-0.0216 0,-0.0433 0,-0.065 0,-0.002 0,-0.004 0,-0.006 0,-0.002 0.0014,-0.005 0,-0.006 -0.0014,-10e-4 -0.0045,0.001 -0.0059,0 -0.0028,-0.003 0.0028,-0.009 0,-0.0118 -0.0014,-10e-4 -0.0045,0.001 -0.0059,0 -0.0014,-10e-4 8.73e-4,-0.004 0,-0.006 -0.01229,-0.0246 3.96e-4,0.006 -0.01181,-0.006 -0.0014,-10e-4 0.0014,-0.005 0,-0.006 -0.0014,-0.001 -0.0045,10e-4 -0.0059,0 -0.0014,-0.001 0.0014,-0.005 0,-0.006 -0.0014,-10e-4 -0.0222,0.001 -0.02362,0 -0.0014,-10e-4 0.0014,-0.005 0,-0.006 -0.0014,-0.001 -0.0039,0 -0.0059,0 -0.002,0 -0.0039,0 -0.0059,0 -0.02953,0 -0.05906,0 -0.08859,0 -0.0022,0 -0.02339,2.3e-4 -0.02362,0 -0.0014,-0.001 0.0014,-0.005 0,-0.006 -0.0014,-10e-4 -0.0039,0 -0.0059,0 -0.01181,0 -0.02362,0 -0.03543,0 -0.01575,0 -0.0315,0 -0.04725,0 -0.0027,0 -0.01592,-9e-4 -0.01772,0 -0.0025,0.001 -0.0034,0.005 -0.0059,0.006 -0.0035,0.002 -0.0083,-0.002 -0.01181,0 -0.02458,0.0123 0.0063,-4e-4 -0.0059,0.0118 -0.0028,0.003 -0.009,-0.003 -0.01181,0 -0.01222,0.0122 0.01867,-4.8e-4 -0.0059,0.0118 -0.0018,8.7e-4 -0.0045,-10e-4 -0.0059,0 -0.0028,0.003 0.0028,0.009 0,0.0118 -0.0014,0.001 -0.0039,0 -0.0059,0 -0.0079,0.002 -0.01834,-2.6e-4 -0.02363,0.006 -0.0081,0.009 -0.0062,0.0243 -0.01181,0.0354 -4.76e-4,9.8e-4 -0.01615,0 -0.01772,0"
       id="path5460-1-8-2"
       inkscape:connector-curvature="0" />
    <path
       style="fill:#000000;fill-opacity:1;stroke:#000000;stroke-width:0.26458332px;stroke-linecap:butt;stroke-linejoin:miter;stroke-opacity:1"
       d="m 11.771522,289.90212 c -0.0079,0.008 -0.01575,0.0158 -0.02362,0.0236 -0.002,0 -0.0045,-0.001 -0.0059,0 -0.0014,10e-4 0.0014,0.005 0,0.006 -0.0014,0.001 -0.0045,-10e-4 -0.0059,0 -0.0014,0.001 0.0014,0.005 0,0.006 -0.0014,10e-4 -0.0045,-0.001 -0.0059,0 -0.0014,10e-4 0.0014,0.005 0,0.006 -0.0014,0.001 -0.0041,-8.8e-4 -0.0059,0 -0.0025,0.001 -0.0039,0.004 -0.0059,0.006 -0.002,0.002 -0.0047,0.003 -0.0059,0.006 -8.73e-4,0.002 0.0014,0.005 0,0.006 -0.0014,10e-4 -0.0045,-0.001 -0.0059,0 -0.0014,10e-4 0.0014,0.005 0,0.006 -0.01222,0.0122 4.76e-4,-0.0187 -0.01181,0.006 -8.73e-4,0.002 0.0014,0.005 0,0.006 -0.0014,0.001 -0.0045,-10e-4 -0.0059,0 -0.0014,0.001 0.0014,0.005 0,0.006 -0.0014,10e-4 -0.0045,-0.001 -0.0059,0 -0.0028,0.003 0.0028,0.009 0,0.0118 -0.0014,10e-4 -0.0045,-0.001 -0.0059,0 -0.01427,0.0143 0.01427,-0.002 0,0.0118 -0.0014,10e-4 -0.0045,-10e-4 -0.0059,0 -0.0014,10e-4 0.0014,0.005 0,0.006 -0.0014,0.001 -0.0045,-10e-4 -0.0059,0 -0.0014,0.001 8.73e-4,0.004 0,0.006 -0.0012,0.002 -0.0047,0.003 -0.0059,0.006 -0.0018,0.004 0.0028,0.009 0,0.0118 -0.0014,10e-4 -0.0045,-0.001 -0.0059,0 -0.0029,0.003 0.0029,0.0148 0,0.0177 -0.0014,10e-4 -0.0045,-0.001 -0.0059,0 -0.0014,10e-4 0.0014,0.005 0,0.006 -0.0014,0.001 -0.0045,-10e-4 -0.0059,0 -0.0012,0.001 0.0012,0.0154 0,0.0177 -0.0012,0.002 -0.0047,0.003 -0.0059,0.006 -0.0016,0.003 0.0016,0.022 0,0.0236 -0.0014,0.001 -0.0045,-10e-4 -0.0059,0 -0.0014,0.001 0,0.004 0,0.006 0,0.01 0,0.0197 0,0.0295 0,0.002 0,0.004 0,0.006 0,0.002 -0.0014,0.005 0,0.006 0.0014,10e-4 0.0045,-0.001 0.0059,0 0.0014,10e-4 -0.0014,0.005 0,0.006 0.0014,0.001 0.0045,-10e-4 0.0059,0 0.0014,0.001 -0.0014,0.005 0,0.006 0.0014,10e-4 0.0045,-0.001 0.0059,0 0.0028,0.003 -0.0028,0.009 0,0.0118 0.0014,10e-4 0.0045,-10e-4 0.0059,0 0.0014,10e-4 -0.0014,0.005 0,0.006 0.0014,0.001 0.0045,-10e-4 0.0059,0 0.0014,0.001 -0.0014,0.005 0,0.006 0.0014,10e-4 0.0045,-10e-4 0.0059,0 0.0014,10e-4 -0.0014,0.005 0,0.006 0.0014,0.001 0.0045,-10e-4 0.0059,0 0.0028,0.003 -0.0028,0.009 0,0.0118 0.0014,10e-4 0.0045,-0.001 0.0059,0 0.0028,0.003 -0.0028,0.009 0,0.0118 0.0014,10e-4 0.0045,-0.001 0.0059,0 0.0014,10e-4 -8.73e-4,0.004 0,0.006 0.0012,0.002 0.0047,0.003 0.0059,0.006 8.73e-4,0.002 -0.0014,0.005 0,0.006 0.0028,0.003 0.009,-0.003 0.01181,0 0.0014,0.001 -0.0014,0.005 0,0.006 0.0014,10e-4 0.0045,-0.001 0.0059,0 0.0014,10e-4 -0.0014,0.005 0,0.006 0.0014,0.001 0.0045,-10e-4 0.0059,0 0.0014,0.001 -0.0014,0.005 0,0.006 0.0014,10e-4 0.0045,-0.001 0.0059,0 0.0014,10e-4 -0.0014,0.005 0,0.006 0.0014,0.001 0.0045,-10e-4 0.0059,0 0.01222,0.0122 -0.01867,-4.8e-4 0.0059,0.0118 0.0035,0.002 0.009,-0.003 0.01181,0 0.0014,0.001 -0.0014,0.005 0,0.006 0.0028,0.003 0.009,-0.003 0.01181,0 0.0014,10e-4 -0.0014,0.005 0,0.006 0.0014,0.001 0.0045,-10e-4 0.0059,0 0.0014,0.001 -0.0014,0.005 0,0.006 2.38e-4,2.4e-4 0.02146,0 0.02363,0 0.002,0 0.0039,0 0.0059,0 0.002,0 0.0045,-0.001 0.0059,0 0.0079,0.008 -0.0098,0.006 0.0059,0.006 0.002,0 0.0039,0 0.0059,0 0.002,0 0.0045,-10e-4 0.0059,0 0.0014,0.001 -0.0014,0.005 0,0.006 0.0014,10e-4 0.0039,0 0.0059,0 0.002,0 0.0039,0 0.0059,0 0.01378,0 0.02756,0 0.04134,0 0.002,0 0.0045,10e-4 0.0059,0 0.0014,-0.001 -0.0014,-0.005 0,-0.006 0.0014,-10e-4 0.0041,8.7e-4 0.0059,0 0.0025,-10e-4 0.0034,-0.005 0.0059,-0.006 0.0023,-0.001 0.01651,10e-4 0.01772,0 0.0014,-0.001 -0.0014,-0.005 0,-0.006 0.0014,-10e-4 0.0045,0.001 0.0059,0 0.0014,-10e-4 -0.0014,-0.005 0,-0.006 0.0028,-0.003 0.009,0.003 0.01181,0 0.0014,-0.001 -0.0014,-0.005 0,-0.006 0.0014,-10e-4 0.0045,0.001 0.0059,0 0.0014,-10e-4 -0.0014,-0.005 0,-0.006 0.0014,-0.001 0.0045,10e-4 0.0059,0 0.0014,-0.001 -0.0014,-0.005 0,-0.006 0.0014,-10e-4 0.0045,0.001 0.0059,0 0.0014,-10e-4 -0.0014,-0.005 0,-0.006 0.0014,-0.001 0.0045,10e-4 0.0059,0 0.0014,-0.001 -0.0014,-0.005 0,-0.006 0.0014,-10e-4 0.0045,0.001 0.0059,0 0.0014,-10e-4 -8.73e-4,-0.004 0,-0.006 0.0012,-0.002 0.0047,-0.003 0.0059,-0.006 8.73e-4,-0.002 -0.0014,-0.005 0,-0.006 0.0028,-0.003 0.009,0.003 0.01181,0 0.0028,-0.003 -0.0028,-0.009 0,-0.0118 0.0014,-0.001 0.0042,8.7e-4 0.0059,0 0.005,-0.002 0.0068,-0.009 0.01181,-0.0118 0.0018,-8.8e-4 0.0045,10e-4 0.0059,0 0.0028,-0.003 -0.0028,-0.009 0,-0.0118 0.0028,-0.003 0.009,0.003 0.01181,0 0.0014,-10e-4 -0.0014,-0.005 0,-0.006 0.0014,-10e-4 0.0045,10e-4 0.0059,0 0.0014,-10e-4 -0.0014,-0.005 0,-0.006 0.0014,-10e-4 0.0042,8.7e-4 0.0059,0 0.02458,-0.0123 -0.0063,3.9e-4 0.0059,-0.0118 0.0014,-10e-4 0.0045,0.001 0.0059,0 0.0014,-10e-4 -0.0014,-0.005 0,-0.006 0.0014,-0.001 0.0045,10e-4 0.0059,0 0.0014,-0.001 -0.0014,-0.005 0,-0.006 0.0014,-10e-4 0.0045,0.001 0.0059,0 0.0014,-10e-4 -8.73e-4,-0.004 0,-0.006 0.0025,-0.005 0.0093,-0.007 0.01181,-0.0118 8.73e-4,-0.002 -0.0014,-0.005 0,-0.006 0.01222,-0.0122 -4.76e-4,0.0187 0.01181,-0.006 8.73e-4,-0.002 -8.73e-4,-0.004 0,-0.006 0.0025,-0.005 0.0093,-0.007 0.01181,-0.0118 8.73e-4,-0.002 0,-0.004 0,-0.006 0.002,-0.002 0.0047,-0.003 0.0059,-0.006 8.73e-4,-0.002 -0.0014,-0.005 0,-0.006 0.01222,-0.0122 -4.76e-4,0.0187 0.01181,-0.006 8.73e-4,-0.002 -8.73e-4,-0.004 0,-0.006 0.0012,-0.002 0.0047,-0.003 0.0059,-0.006 8.73e-4,-0.002 0,-0.004 0,-0.006 0.002,-0.002 0.0047,-0.003 0.0059,-0.006 8.73e-4,-0.002 -0.0014,-0.005 0,-0.006 0.0014,-0.001 0.0045,10e-4 0.0059,0 0.0028,-0.003 -0.0018,-0.008 0,-0.0118 0.0012,-0.002 0.0047,-0.003 0.0059,-0.006 8.73e-4,-0.002 -0.0014,-0.005 0,-0.006 0.0014,-0.001 0.0045,10e-4 0.0059,0 0.003,-0.003 -0.0029,-0.0148 0,-0.0177 0.0014,-10e-4 0.0045,0.001 0.0059,0 0.0018,-0.002 -0.0018,-0.0277 0,-0.0295 0.0014,-10e-4 0.0045,0.001 0.0059,0 0.0014,-10e-4 0,-0.004 0,-0.006 0,-0.002 0,-0.004 0,-0.006 0,-0.0216 0,-0.0433 0,-0.065 0,-0.002 0,-0.004 0,-0.006 0,-0.002 0.0014,-0.005 0,-0.006 -0.0014,-10e-4 -0.0045,0.001 -0.0059,0 -0.0028,-0.003 0.0028,-0.009 0,-0.0118 -0.0014,-10e-4 -0.0045,10e-4 -0.0059,0 -0.0014,-10e-4 8.73e-4,-0.004 0,-0.006 -0.01229,-0.0246 3.97e-4,0.006 -0.01181,-0.006 -0.0014,-10e-4 0.0014,-0.005 0,-0.006 -0.0014,-0.001 -0.0045,10e-4 -0.0059,0 -0.0014,-0.001 0.0014,-0.005 0,-0.006 -0.0014,-10e-4 -0.0222,10e-4 -0.02362,0 -0.0014,-10e-4 0.0014,-0.005 0,-0.006 -0.0014,-0.001 -0.0039,0 -0.0059,0 -0.002,0 -0.0039,0 -0.0059,0 -0.02953,0 -0.05906,0 -0.08859,0 -0.0022,0 -0.02339,2.3e-4 -0.02362,0 -0.0014,-0.001 0.0014,-0.005 0,-0.006 -0.0014,-10e-4 -0.0039,0 -0.0059,0 -0.01181,0 -0.02362,0 -0.03543,0 -0.01575,0 -0.0315,0 -0.04725,0 -0.0027,0 -0.01592,-9e-4 -0.01772,0 -0.0025,10e-4 -0.0034,0.005 -0.0059,0.006 -0.0035,0.002 -0.0083,-0.002 -0.01181,0 -0.02458,0.0123 0.0063,-4e-4 -0.0059,0.0118 -0.0028,0.003 -0.009,-0.003 -0.01181,0 -0.01222,0.0122 0.01867,-4.8e-4 -0.0059,0.0118 -0.0018,8.7e-4 -0.0045,-0.001 -0.0059,0 -0.0028,0.003 0.0028,0.009 0,0.0118 -0.0014,10e-4 -0.0039,0 -0.0059,0 -0.0079,0.002 -0.01834,-2.6e-4 -0.02363,0.006 -0.0081,0.009 -0.0062,0.0243 -0.01181,0.0354 -4.76e-4,9.8e-4 -0.01615,0 -0.01772,0"
       id="path5460-1-8-0"
       inkscape:connector-curvature="0" />
    <path
       style="fill:#000000;fill-opacity:1;stroke:#000000;stroke-width:0.26458332px;stroke-linecap:butt;stroke-linejoin:miter;stroke-opacity:1"
       d="m 13.558146,275.39228 c -0.01277,0.0511 -0.01181,0.031 -0.01181,0.0591 0,0.004 0.0028,0.009 0,0.0118 -0.0028,0.003 -0.0083,-0.002 -0.01181,0 -0.04916,0.0246 0.01263,-8.2e-4 -0.01181,0.0236 -0.0028,0.003 -0.009,-0.003 -0.01181,0 -0.0056,0.006 0.0056,0.0181 0,0.0236 -0.0028,0.003 -0.009,-0.003 -0.01181,0 -0.0056,0.006 0.0056,0.0181 0,0.0236 -0.0028,0.003 -0.009,-0.003 -0.01181,0 -0.0028,0.003 0.0028,0.009 0,0.0118 -0.0028,0.003 -0.009,-0.003 -0.01181,0 -0.0059,0.006 0.0059,0.0295 0,0.0354 -0.0028,0.003 -0.009,-0.003 -0.01181,0 -0.0028,0.003 0.0018,0.008 0,0.0118 -0.0025,0.005 -0.0093,0.007 -0.01181,0.0118 -0.0035,0.007 0.0056,0.0181 0,0.0236 -0.0028,0.003 -0.009,-0.003 -0.01181,0 -0.0028,0.003 0.0028,0.009 0,0.0118 -0.0028,0.003 -0.009,-0.003 -0.01181,0 -0.0028,0.003 0,0.008 0,0.0118 0,0.004 0,0.008 0,0.0118 0,0.0315 0.0039,-0.004 -0.01181,0.0118 -0.0059,0.006 0.0059,0.0295 0,0.0354 -0.0028,0.003 -0.009,-0.003 -0.01181,0 -0.0059,0.006 0.0059,0.0295 0,0.0354 -0.0028,0.003 -0.009,-0.003 -0.01181,0 -0.0056,0.006 0.0056,0.018 0,0.0236 -0.0028,0.003 -0.009,-0.003 -0.01181,0 -0.0028,0.003 0,0.008 0,0.0118 0,0.004 0,0.008 0,0.0118 0,0.0354 0,0.0709 0,0.1063 0,0.004 -4.76e-4,0.0468 0,0.0472 0.0028,0.003 0.009,-0.003 0.01181,0 0.0028,0.003 -0.0028,0.009 0,0.0118 0.0028,0.003 0.009,-0.003 0.01181,0 0.0056,0.006 -0.0056,0.0181 0,0.0236 0.0028,0.003 0.009,-0.003 0.01181,0 0.0056,0.006 -0.0056,0.0181 0,0.0236 0.0028,0.003 0.009,-0.003 0.01181,0 0.0028,0.003 -0.0028,0.009 0,0.0118 0.0028,0.003 0.009,-0.003 0.01181,0 0.0028,0.003 -0.0028,0.009 0,0.0118 0.0028,0.003 0.009,-0.003 0.01181,0 0.0056,0.006 -0.0056,0.0181 0,0.0236 0.0028,0.003 0.009,-0.003 0.01181,0 0.0028,0.003 -0.0028,0.009 0,0.0118 0.0028,0.003 0.0079,0 0.01181,0 0.0029,0 0.03505,3.8e-4 0.03543,0 0.02444,-0.0244 -0.03735,9.5e-4 0.01181,-0.0236 0.0035,-0.002 0.009,0.003 0.01181,0 0.0056,-0.006 -0.0056,-0.018 0,-0.0236 0.0028,-0.003 0.009,0.003 0.01181,0 0.0056,-0.006 -0.0056,-0.0181 0,-0.0236 0.0028,-0.003 0.009,0.003 0.01181,0 0.0028,-0.003 -0.0028,-0.0444 0,-0.0473 0.0028,-0.003 0.009,0.003 0.01181,0 3.7e-4,-3.8e-4 0,-0.0326 0,-0.0354 0,-0.0315 -0.0039,0.004 0.01181,-0.0118 0.0041,-0.004 -0.0041,-0.0509 0,-0.0591 0.0025,-0.005 0.0093,-0.007 0.01181,-0.0118 0.0018,-0.004 0,-0.0301 0,-0.0354 0,-0.0276 0,-0.0551 0,-0.0827 0,-0.003 3.7e-4,-0.0351 0,-0.0354 -0.0028,-0.003 -0.009,0.003 -0.01181,0 -0.0032,-0.003 0.0032,-0.0408 0,-0.0473 -0.0025,-0.005 -0.0093,-0.007 -0.01181,-0.0118 -0.0023,-0.005 0.0024,-0.033 0,-0.0354 -0.0028,-0.003 -0.009,0.003 -0.01181,0 -0.0059,-0.006 0.0059,-0.0295 0,-0.0354 -0.0028,-0.003 -0.009,0.003 -0.01181,0 -0.0028,-0.003 0.0028,-0.009 0,-0.0118 -0.0028,-0.003 -0.009,0.003 -0.01181,0 -0.0028,-0.003 0,-0.008 0,-0.0118 0,-0.004 0,-0.008 0,-0.0118 0,-0.004 0,-0.008 0,-0.0118 0,-0.004 -0.0039,-0.0118 0,-0.0118 0.0039,0 0,0.0157 0,0.0118 0,-0.008 0,-0.0157 0,-0.0236 0,-0.0157 0.0039,-0.0118 -0.01181,-0.0118"
       id="path5421-8-3"
       inkscape:connector-curvature="0" />
    <path
       style="fill:#000000;fill-opacity:1;stroke:#000000;stroke-width:0.26458332px;stroke-linecap:butt;stroke-linejoin:miter;stroke-opacity:1"
       d="m 6.1520379,289.21926 c -0.051044,0.0322 -0.047247,0.0215 -0.047247,0.0591 0,0.004 0.00278,0.009 0,0.0118 -0.015748,0.0157 -0.011811,-0.0197 -0.011811,0.0118 0,0.003 3.704e-4,0.0351 0,0.0354 -0.00278,0.003 -0.00903,-0.003 -0.011811,0 -0.00557,0.006 0.00352,0.0166 0,0.0236 -0.00249,0.005 -0.00932,0.007 -0.011811,0.0118 -0.00352,0.007 0.00557,0.0181 0,0.0236 -0.00278,0.003 -0.00903,-0.003 -0.011811,0 -0.00591,0.006 0.00591,0.0295 0,0.0354 -0.00278,0.003 -0.00903,-0.003 -0.011811,0 -0.00278,0.003 0,0.008 0,0.0118 0,0.004 0,0.008 0,0.0118 0,0.0512 0,0.10237 0,0.15355 0,0.0276 0,0.0551 0,0.0827 0,0.004 -0.00278,0.009 0,0.0118 0.00278,0.003 0.00903,-0.003 0.011811,0 0.00557,0.006 -0.00557,0.0181 0,0.0236 0.00278,0.003 0.00903,-0.003 0.011811,0 0.00278,0.003 -0.00278,0.009 0,0.0118 0.00278,0.003 0.00903,-0.003 0.011811,0 0.00278,0.003 -0.00177,0.008 0,0.0118 0.00249,0.005 0.00932,0.007 0.011811,0.0118 0.00177,0.004 -0.00278,0.009 0,0.0118 0.00557,0.006 0.018055,-0.006 0.023625,0 0.00278,0.003 -0.00278,0.009 0,0.0118 0.024439,0.0244 -9.525e-4,-0.0373 0.023625,0.0118 0.00177,0.004 -0.00278,0.009 0,0.0118 0.00557,0.006 0.018055,-0.006 0.023625,0 0.00278,0.003 -0.00278,0.009 0,0.0118 0.00591,0.006 0.029529,-0.006 0.035435,0 0.00278,0.003 -0.00278,0.009 0,0.0118 0.00591,0.006 0.029529,-0.006 0.035435,0 0.00278,0.003 -0.00278,0.009 0,0.0118 0.00557,0.006 0.018055,-0.006 0.023625,0 0.00278,0.003 -0.00278,0.009 0,0.0118 0.00278,0.003 0.00903,-0.003 0.011811,0 0.00278,0.003 -0.00278,0.009 0,0.0118 0.00284,0.003 0.044405,-0.003 0.047247,0 0.00278,0.003 -0.00278,0.009 0,0.0118 0.00278,0.003 0.00787,0 0.011811,0 0.023625,0 0.047247,0 0.07087,0 0.023625,0 0.047247,0 0.07087,0 0.00394,0 0.00903,0.003 0.011811,0 0.00278,-0.003 -0.00278,-0.009 0,-0.0118 0.00278,-0.003 0.00829,0.002 0.011811,0 0.049158,-0.0246 -0.012626,8.2e-4 0.011811,-0.0236 0.00278,-0.003 0.00903,0.003 0.011811,0 0.00557,-0.006 -0.00352,-0.0166 0,-0.0236 0.00249,-0.005 0.00932,-0.007 0.011811,-0.0118 0.00177,-0.004 -0.00177,-0.008 0,-0.0118 0.02458,-0.0492 -8.202e-4,0.0126 0.023625,-0.0118 0.00284,-0.003 -0.00284,-0.0444 0,-0.0473 0.00278,-0.003 0.00903,0.003 0.011811,0 0.00278,-0.003 0,-0.008 0,-0.0118 0,-0.0276 0,-0.0551 0,-0.0827 0,-0.004 0,-0.008 0,-0.0118 0,-0.004 0.00278,-0.009 0,-0.0118 -0.00278,-0.003 -0.00829,0.002 -0.011811,0 -0.00996,-0.005 -0.013663,-0.0186 -0.023625,-0.0236 -0.031498,0 0.00394,0.004 -0.011811,-0.0118 -0.00278,-0.003 -0.00903,0.003 -0.011811,0 -0.00278,-0.003 0.00278,-0.009 0,-0.0118 -0.00278,-0.003 -0.00829,0.002 -0.011811,0 -0.00996,-0.005 -0.013663,-0.0186 -0.023625,-0.0236 -0.00352,-0.002 -0.00903,0.003 -0.011811,0 -0.00278,-0.003 0.00278,-0.009 0,-0.0118 -0.00557,-0.006 -0.018055,0.006 -0.023625,0 -0.00278,-0.003 0.00278,-0.009 0,-0.0118 -0.00278,-0.003 -0.00903,0.003 -0.011811,0 -0.00278,-0.003 0.00278,-0.009 0,-0.0118 -0.00278,-0.003 -0.00903,0.003 -0.011811,0 -0.00278,-0.003 0.00278,-0.009 0,-0.0118 -0.00557,-0.006 -0.016581,0.004 -0.023625,0 -0.00498,-0.002 -0.00683,-0.009 -0.011811,-0.0118 -0.00704,-0.004 -0.016582,0.004 -0.023625,0 -0.00498,-0.002 -0.00683,-0.009 -0.011811,-0.0118 -0.00352,-0.002 -0.00903,0.003 -0.011811,0 -0.00278,-0.003 0.00278,-0.009 0,-0.0118 -0.00557,-0.006 -0.018055,0.006 -0.023625,0 -0.00278,-0.003 0.00278,-0.009 0,-0.0118 -0.00557,-0.006 -0.018055,0.006 -0.023625,0 -0.00278,-0.003 0.00278,-0.009 0,-0.0118 -0.00557,-0.006 -0.018055,0.006 -0.023625,0 -0.00278,-0.003 0.00278,-0.009 0,-0.0118 -0.00278,-0.003 -0.00903,0.003 -0.011811,0 -0.00278,-0.003 0.00177,-0.008 0,-0.0118 -0.00249,-0.005 -0.00932,-0.007 -0.011811,-0.0118 -0.00352,-0.007 0.00557,-0.0181 0,-0.0236 -0.00278,-0.003 -0.00903,0.003 -0.011811,0 -0.00557,-0.006 0.00557,-0.0181 0,-0.0236 -0.00278,-0.003 -0.00903,0.003 -0.011811,0 -0.00278,-0.003 0.00278,-0.009 0,-0.0118 -0.00278,-0.003 -0.00903,0.003 -0.011811,0 -0.00278,-0.003 0.00278,-0.009 0,-0.0118 -0.00278,-0.003 -0.00903,0.003 -0.011811,0 -0.00557,-0.006 0.00557,-0.018 0,-0.0236 -0.00278,-0.003 -0.00903,0.003 -0.011811,0 -0.00278,-0.003 0.00278,-0.009 0,-0.0118 -0.00278,-0.003 -0.00829,0.002 -0.011811,0 -0.00498,-0.002 -0.00683,-0.009 -0.011811,-0.0118 -0.00704,-0.004 -0.018055,0.006 -0.023625,0 -0.00278,-0.003 0,-0.008 0,-0.0118 0,-0.004 0,-0.008 0,-0.0118"
       id="path5456-4"
       inkscape:connector-curvature="0" />
    <path
       style="fill:#000000;fill-opacity:1;stroke:#000000;stroke-width:0.26458332px;stroke-linecap:butt;stroke-linejoin:miter;stroke-opacity:1"
       d="m 15.329777,288.73534 c -0.01575,0 -0.03197,-0.004 -0.04725,0 -0.0076,0.002 0.0035,0.0166 0,0.0236 -0.0025,0.005 -0.0093,0.007 -0.01181,0.0118 0,0.0315 0.0039,-0.004 -0.01181,0.0118 -0.0056,0.006 0.0056,0.0181 0,0.0236 -0.0028,0.003 -0.009,-0.003 -0.01181,0 -0.0028,0.003 0.0028,0.009 0,0.0118 -0.0028,0.003 -0.009,-0.003 -0.01181,0 -0.0056,0.006 0.0056,0.0181 0,0.0236 -0.0028,0.003 -0.009,-0.003 -0.01181,0 -0.0056,0.006 0.0056,0.0181 0,0.0236 -0.0028,0.003 -0.009,-0.003 -0.01181,0 -0.0059,0.006 0.0059,0.0295 0,0.0354 -0.0056,0.006 -0.01806,-0.006 -0.02362,0 -0.0056,0.006 0.0056,0.0181 0,0.0236 -0.0028,0.003 -0.009,-0.003 -0.01181,0 -0.0056,0.006 0.0056,0.0181 0,0.0236 -0.0028,0.003 -0.009,-0.003 -0.01181,0 -0.0028,0.003 0.0028,0.009 0,0.0118 -0.0028,0.003 -0.009,-0.003 -0.01181,0 -0.0079,0.008 0.0079,0.0158 0,0.0236 -0.0028,0.003 -0.009,-0.003 -0.01181,0 -0.0056,0.006 0.0056,0.0181 0,0.0236 -0.0028,0.003 -0.009,-0.003 -0.01181,0 -0.0059,0.006 0.0059,0.0295 0,0.0354 -0.0028,0.003 -0.009,-0.003 -0.01181,0 -0.0028,0.003 0,0.008 0,0.0118 0,0.0315 0,0.063 0,0.0945 0,0.004 0,0.008 0,0.0118 0,0.004 -0.0028,0.009 0,0.0118 0.0028,0.003 0.009,-0.003 0.01181,0 0.0056,0.006 -0.0056,0.0181 0,0.0236 0.0028,0.003 0.009,-0.003 0.01181,0 0.0028,0.003 0,0.008 0,0.0118 0.0039,0 0.009,-0.003 0.01181,0 0.0028,0.003 -0.0028,0.009 0,0.0118 0.0056,0.006 0.01806,-0.006 0.02362,0 0.0056,0.006 -0.0056,0.0181 0,0.0236 0.0028,0.003 0.0444,-0.003 0.04725,0 0.0028,0.003 -0.0028,0.009 0,0.0118 0.0028,0.003 0.0079,0 0.01181,0 0.0039,0 0.0079,0 0.01181,0 0.05906,0 0.118117,0 0.177176,0 0.0029,0 0.03505,3.8e-4 0.03543,0 0.0028,-0.003 -0.0028,-0.009 0,-0.0118 0.0028,-0.003 0.009,0.003 0.01181,0 0.0028,-0.003 -0.0028,-0.009 0,-0.0118 0.0056,-0.006 0.01806,0.006 0.02362,0 0.0028,-0.003 -0.0028,-0.009 0,-0.0118 0.0028,-0.003 0.009,0.003 0.01181,0 0.0028,-0.003 -0.0028,-0.009 0,-0.0118 0.0056,-0.006 0.01806,0.006 0.02362,0 0.0028,-0.003 0,-0.008 0,-0.0118 0.0039,0 0.009,0.003 0.01181,0 0.0028,-0.003 0,-0.008 0,-0.0118 0,-0.005 0.0018,-0.0318 0,-0.0354 -0.02458,-0.0491 8.15e-4,0.0126 -0.02362,-0.0118 -0.0028,-0.003 0.0028,-0.009 0,-0.0118 -0.0028,-0.003 -0.009,0.003 -0.01181,0 -0.0028,-0.003 0.0028,-0.009 0,-0.0118 -0.0028,-0.003 -0.009,0.003 -0.01181,0 -0.0056,-0.006 0.0056,-0.018 0,-0.0236 -0.0028,-0.003 -0.0083,0.002 -0.01181,0 -0.04916,-0.0246 0.01263,8.2e-4 -0.01181,-0.0236 -0.0028,-0.003 -0.009,0.003 -0.01181,0 -0.0056,-0.006 0.0056,-0.0181 0,-0.0236 -0.0028,-0.003 -0.009,0.003 -0.01181,0 -0.0028,-0.003 0.0028,-0.009 0,-0.0118 -0.0056,-0.006 -0.01806,0.006 -0.02362,0 -0.0028,-0.003 0.0018,-0.008 0,-0.0118 -0.005,-0.01 -0.01864,-0.0137 -0.02362,-0.0236 -0.0018,-0.004 0.0028,-0.009 0,-0.0118 -0.0028,-0.003 -0.009,0.003 -0.01181,0 -0.0028,-0.003 0.0028,-0.009 0,-0.0118 -0.0028,-0.003 -0.009,0.003 -0.01181,0 -0.0056,-0.006 0.0035,-0.0166 0,-0.0236 -0.0025,-0.005 -0.0093,-0.007 -0.01181,-0.0118 -0.0035,-0.007 0.0056,-0.0181 0,-0.0236 -0.0028,-0.003 -0.009,0.003 -0.01181,0 -0.0028,-0.003 0.0028,-0.0444 0,-0.0473 -0.0028,-0.003 -0.009,0.003 -0.01181,0 -0.0056,-0.006 0.0056,-0.0181 0,-0.0236 -0.0028,-0.003 -0.009,0.003 -0.01181,0 -0.0056,-0.006 0.0056,-0.0181 0,-0.0236 -0.0028,-0.003 -0.009,0.003 -0.01181,0 -0.0056,-0.006 0.0056,-0.018 0,-0.0236 -0.0028,-0.003 -0.0079,0 -0.01181,0 -0.02362,0 -0.04725,0 -0.07087,0"
       id="path5458-2-6"
       inkscape:connector-curvature="0" />
    <path
       style="fill:#000000;fill-opacity:1;stroke:#000000;stroke-width:0.26458332px;stroke-linecap:butt;stroke-linejoin:miter;stroke-opacity:1"
       d="m 19.605767,289.42464 c -0.01277,0.0511 -0.01181,0.031 -0.01181,0.0591 0,0.004 0.0028,0.009 0,0.0118 -0.0028,0.003 -0.0083,-0.002 -0.01181,0 -0.04916,0.0246 0.01263,-8.2e-4 -0.01181,0.0236 -0.0028,0.003 -0.009,-0.003 -0.01181,0 -0.0056,0.006 0.0056,0.0181 0,0.0236 -0.0028,0.003 -0.009,-0.003 -0.01181,0 -0.0056,0.006 0.0056,0.0181 0,0.0236 -0.0028,0.003 -0.009,-0.003 -0.01181,0 -0.0028,0.003 0.0028,0.009 0,0.0118 -0.0028,0.003 -0.009,-0.003 -0.01181,0 -0.0059,0.006 0.0059,0.0295 0,0.0354 -0.0028,0.003 -0.009,-0.003 -0.01181,0 -0.0028,0.003 0.0018,0.008 0,0.0118 -0.0025,0.005 -0.0093,0.007 -0.01181,0.0118 -0.0035,0.007 0.0056,0.0181 0,0.0236 -0.0028,0.003 -0.009,-0.003 -0.01181,0 -0.0028,0.003 0.0028,0.009 0,0.0118 -0.0028,0.003 -0.009,-0.003 -0.01181,0 -0.0028,0.003 0,0.008 0,0.0118 0,0.004 0,0.008 0,0.0118 0,0.0315 0.0039,-0.004 -0.01181,0.0118 -0.0059,0.006 0.0059,0.0295 0,0.0354 -0.0028,0.003 -0.009,-0.003 -0.01181,0 -0.0059,0.006 0.0059,0.0295 0,0.0354 -0.0028,0.003 -0.009,-0.003 -0.01181,0 -0.0056,0.006 0.0056,0.018 0,0.0236 -0.0028,0.003 -0.009,-0.003 -0.01181,0 -0.0028,0.003 0,0.008 0,0.0118 0,0.004 0,0.008 0,0.0118 0,0.0354 0,0.0709 0,0.1063 0,0.004 -4.76e-4,0.0468 0,0.0472 0.0028,0.003 0.009,-0.003 0.01181,0 0.0028,0.003 -0.0028,0.009 0,0.0118 0.0028,0.003 0.009,-0.003 0.01181,0 0.0056,0.006 -0.0056,0.0181 0,0.0236 0.0028,0.003 0.009,-0.003 0.01181,0 0.0056,0.006 -0.0056,0.0181 0,0.0236 0.0028,0.003 0.009,-0.003 0.01181,0 0.0028,0.003 -0.0028,0.009 0,0.0118 0.0028,0.003 0.009,-0.003 0.01181,0 0.0028,0.003 -0.0028,0.009 0,0.0118 0.0028,0.003 0.009,-0.003 0.01181,0 0.0056,0.006 -0.0056,0.0181 0,0.0236 0.0028,0.003 0.009,-0.003 0.01181,0 0.0028,0.003 -0.0028,0.009 0,0.0118 0.0028,0.003 0.0079,0 0.01181,0 0.0029,0 0.03505,3.8e-4 0.03543,0 0.02444,-0.0244 -0.03735,9.5e-4 0.01181,-0.0236 0.0035,-0.002 0.009,0.003 0.01181,0 0.0056,-0.006 -0.0056,-0.018 0,-0.0236 0.0028,-0.003 0.009,0.003 0.01181,0 0.0056,-0.006 -0.0056,-0.0181 0,-0.0236 0.0028,-0.003 0.009,0.003 0.01181,0 0.0028,-0.003 -0.0028,-0.0444 0,-0.0473 0.0028,-0.003 0.009,0.003 0.01181,0 3.71e-4,-3.8e-4 0,-0.0326 0,-0.0354 0,-0.0315 -0.0039,0.004 0.01181,-0.0118 0.0041,-0.004 -0.0041,-0.0509 0,-0.0591 0.0025,-0.005 0.0093,-0.007 0.01181,-0.0118 0.0018,-0.004 0,-0.0301 0,-0.0354 0,-0.0276 0,-0.0551 0,-0.0827 0,-0.003 3.71e-4,-0.0351 0,-0.0354 -0.0028,-0.003 -0.009,0.003 -0.01181,0 -0.0032,-0.003 0.0032,-0.0408 0,-0.0473 -0.0025,-0.005 -0.0093,-0.007 -0.01181,-0.0118 -0.0023,-0.005 0.0024,-0.033 0,-0.0354 -0.0028,-0.003 -0.009,0.003 -0.01181,0 -0.0059,-0.006 0.0059,-0.0295 0,-0.0354 -0.0028,-0.003 -0.009,0.003 -0.01181,0 -0.0028,-0.003 0.0028,-0.009 0,-0.0118 -0.0028,-0.003 -0.009,0.003 -0.01181,0 -0.0028,-0.003 0,-0.008 0,-0.0118 0,-0.004 0,-0.008 0,-0.0118 0,-0.004 0,-0.008 0,-0.0118 0,-0.004 -0.0039,-0.0118 0,-0.0118 0.0039,0 0,0.0157 0,0.0118 0,-0.008 0,-0.0157 0,-0.0236 0,-0.0157 0.0039,-0.0118 -0.01181,-0.0118"
       id="path5421-76"
       inkscape:connector-curvature="0" />
    <rect
       style="fill:#000000;fill-opacity:1;stroke:#000000;stroke-width:0.23548858;stroke-opacity:1"
       id="rect5790"
       width="5.0528059"
       height="1.7180464"
       x="14.82723"
       y="294.37717"
       ry="0.85902321" />
  </g>
</svg>
