<?xml version="1.0" encoding="UTF-8" standalone="no"?>
<!-- Created with Inkscape (http://www.inkscape.org/) -->

<svg
   xmlns:dc="http://purl.org/dc/elements/1.1/"
   xmlns:cc="http://creativecommons.org/ns#"
   xmlns:rdf="http://www.w3.org/1999/02/22-rdf-syntax-ns#"
   xmlns:svg="http://www.w3.org/2000/svg"
   xmlns="http://www.w3.org/2000/svg"
   xmlns:sodipodi="http://sodipodi.sourceforge.net/DTD/sodipodi-0.dtd"
   xmlns:inkscape="http://www.inkscape.org/namespaces/inkscape"
   width="210mm"
   height="297mm"
   viewBox="0 0 210 297"
   version="1.1"
   id="svg160"
   inkscape:version="0.92.3 (2405546, 2018-03-11)"
   sodipodi:docname="melon_1bite.svg">
  <defs
     id="defs154" />
  <sodipodi:namedview
     id="base"
     pagecolor="#ffffff"
     bordercolor="#666666"
     borderopacity="1.0"
     inkscape:pageopacity="0.0"
     inkscape:pageshadow="2"
     inkscape:zoom="3.959798"
     inkscape:cx="396.5041"
     inkscape:cy="620.77225"
     inkscape:document-units="mm"
     inkscape:current-layer="layer1"
     showgrid="false"
     inkscape:pagecheckerboard="true"
     inkscape:window-width="1920"
     inkscape:window-height="1017"
     inkscape:window-x="-8"
     inkscape:window-y="-8"
     inkscape:window-maximized="1" />
  <metadata
     id="metadata157">
    <rdf:RDF>
      <cc:Work
         rdf:about="">
        <dc:format>image/svg+xml</dc:format>
        <dc:type
           rdf:resource="http://purl.org/dc/dcmitype/StillImage" />
        <dc:title></dc:title>
      </cc:Work>
    </rdf:RDF>
  </metadata>
  <g
     inkscape:label="Layer 1"
     inkscape:groupmode="layer"
     id="layer1">
    <rect
       style="fill:#000000;fill-opacity:1;stroke:#000000;stroke-width:0.23548858;stroke-opacity:1"
       id="rect5790-1"
       width="5.0528059"
       height="1.7180464"
       x="99.105774"
       y="137.68941"
       ry="0.85902321" />
    <path
       style="fill:none;stroke:#000000;stroke-width:0.26458332px;stroke-linecap:butt;stroke-linejoin:miter;stroke-opacity:1"
       d="m 94.51394,134.85649 c 0.33643,0.50806 0.695492,1.14174 1.361574,1.58327 0.81393,0.41137 1.366127,0.57513 2.131258,0.88477 0.769371,0.46538 1.754893,0.51878 2.640888,0.63564 1.08253,0.18842 1.77809,0.24435 2.74496,0.41593 1.10801,0.0215 2.10753,0.0874 3.09299,0.11808 0.61,-0.0122 1.46123,0.0697 2.01277,-0.06 1.00595,-0.16704 1.47848,-0.19616 2.27572,-0.46362 0.75703,-0.28063 1.52044,-0.56261 2.26919,-0.84972 0.76809,-0.35481 1.291,-0.76762 1.89621,-1.21972 0.38136,-0.3284 0.53279,-0.68066 0.69396,-0.99757"
       id="path4014"
       inkscape:connector-curvature="0"
       sodipodi:nodetypes="ccccccccccc" />
    <path
       style="fill:none;stroke:#000000;stroke-width:0.26458332px;stroke-linecap:butt;stroke-linejoin:miter;stroke-opacity:1"
       d="m 95.753539,132.95303 c 0.695812,0.52949 1.271633,1.63819 2.036764,1.94783 0.769371,0.46538 1.754893,0.51878 2.640887,0.63564 1.08253,0.18842 1.77809,0.24435 2.74496,0.41593 1.10801,0.0215 2.10753,0.0874 3.09299,0.11808 0.61,-0.0122 1.46123,0.0697 2.01277,-0.06 1.00595,-0.16704 1.47848,-0.19616 2.27572,-0.46362 0.75703,-0.28063 1.52044,-0.56261 2.26919,-0.84972 0.76809,-0.35481 1.31462,-0.9566 1.91983,-1.4087"
       id="path4014-0"
       inkscape:connector-curvature="0"
       sodipodi:nodetypes="ccccccccc" />
    <path
       style="fill:none;stroke:#000000;stroke-width:0.26458332px;stroke-linecap:butt;stroke-linejoin:miter;stroke-opacity:1"
       d="m 115.63346,134.90355 -9.92198,-19.08761"
       id="path4035"
       inkscape:connector-curvature="0"
       sodipodi:nodetypes="cc" />
    <path
       style="fill:none;stroke-width:0.04724703;stroke:none;opacity:1"
       d="m 104.86422,135.84576 c -0.38979,-0.0214 -1.02763,-0.063 -1.41742,-0.0924 -0.89934,-0.068 -4.178155,-0.53455 -4.67604,-0.66539 -0.436795,-0.11479 -0.956512,-0.34809 -1.236821,-0.55521 -0.167483,-0.12376 -1.158958,-1.18455 -1.434228,-1.5345 l -0.08999,-0.1144 0.287649,-0.44414 c 4.71731,-7.28371 7.95026,-12.74494 9.20714,-15.5531 0.13709,-0.30627 0.26528,-0.54014 0.28488,-0.51971 0.0696,0.0726 7.50595,14.4195 8.39851,16.20329 l 0.3348,0.66911 -0.57701,0.47793 c -0.69991,0.57973 -1.18197,0.83013 -2.58573,1.34312 -1.11747,0.40838 -1.4567,0.50229 -2.4325,0.67338 -0.63241,0.11089 -0.85111,0.12571 -2.03162,0.1376 -0.7276,0.007 -1.64183,-0.004 -2.03162,-0.0255 z"
       id="path4045"
       inkscape:connector-curvature="0" />
    <path
       style="fill:#ccff00;stroke-width:0.04724703"
       d="m 106.19962,138.32414 c -2.41672,-0.0796 -2.93601,-0.12001 -4.46485,-0.34737 -0.80556,-0.11979 -1.68534,-0.24904 -1.955072,-0.2872 -0.675031,-0.0955 -1.054733,-0.1954 -1.470335,-0.38675 -0.194894,-0.0897 -0.702694,-0.30018 -1.128445,-0.46766 -1.071794,-0.42161 -1.367072,-0.58564 -1.705508,-0.94743 -0.247378,-0.26445 -0.756821,-0.95853 -0.756821,-1.03112 0,-0.0144 0.242023,-0.39726 0.537829,-0.85082 l 0.537828,-0.82465 0.254538,0.26991 c 0.139996,0.14845 0.417247,0.46126 0.616114,0.69513 0.417196,0.49064 0.674556,0.69912 1.185747,0.96054 0.481259,0.24612 0.95127,0.36818 1.937699,0.50323 0.446876,0.0612 1.397186,0.19662 2.111796,0.30099 1.19323,0.17427 1.45935,0.1963 3.26004,0.26991 1.07841,0.0441 2.17336,0.0685 2.43322,0.0544 0.59033,-0.0322 2.1332,-0.28815 2.66347,-0.44182 0.43686,-0.12659 2.56137,-0.91322 2.80613,-1.039 0.2716,-0.13957 0.66146,-0.4211 1.16364,-0.84029 l 0.49112,-0.40995 0.11605,0.2029 c 0.0638,0.11159 0.22912,0.42767 0.36731,0.70239 l 0.25126,0.49949 -0.12753,0.23284 c -0.21867,0.39923 -0.33747,0.52547 -0.85288,0.90623 -0.9337,0.68977 -1.19069,0.82163 -2.70283,1.38685 -1.34549,0.50292 -1.57227,0.56641 -2.66383,0.74575 -1.06903,0.17563 -1.41417,0.19268 -2.90569,0.14354 z"
       id="path4047"
       inkscape:connector-curvature="0" />
    <ellipse
       style="fill:#ffffff;fill-opacity:1;stroke:#000000;stroke-width:0.26458332;stroke-opacity:1"
       id="path4870"
       cx="109.12083"
       cy="121.25603"
       rx="2.0552456"
       ry="1.6536459" />
    <ellipse
       style="fill:#ffffff;fill-opacity:1;stroke:#000000;stroke-width:0.26458332;stroke-opacity:1"
       id="path5417"
       cx="109.90041"
       cy="121.16154"
       rx="0.1889881"
       ry="0.14174107" />
    <path
       style="fill:#000000;fill-opacity:1;stroke:#000000;stroke-width:0.26458332px;stroke-linecap:butt;stroke-linejoin:miter;stroke-opacity:1"
       d="m 108.89344,130.52726 c -0.008,0.008 -0.0157,0.0158 -0.0236,0.0236 -0.002,0 -0.005,-0.001 -0.006,0 -0.001,0.001 0.001,0.005 0,0.006 -0.001,0.001 -0.004,-0.001 -0.006,0 -0.001,0.001 0.001,0.005 0,0.006 -0.001,0.001 -0.004,-0.001 -0.006,0 -0.001,0.001 0.001,0.005 0,0.006 -0.001,0.001 -0.004,-8.8e-4 -0.006,0 -0.002,0.001 -0.004,0.004 -0.006,0.006 -0.002,0.002 -0.005,0.003 -0.006,0.006 -8.8e-4,0.002 0.001,0.005 0,0.006 -0.001,0.001 -0.004,-0.001 -0.006,0 -0.001,0.001 0.001,0.005 0,0.006 -0.0122,0.0122 4.7e-4,-0.0187 -0.0118,0.006 -8.8e-4,0.002 0.001,0.005 0,0.006 -0.001,0.001 -0.005,-0.001 -0.006,0 -0.001,0.001 0.001,0.005 0,0.006 -0.001,0.001 -0.005,-0.001 -0.006,0 -0.003,0.003 0.003,0.009 0,0.0118 -0.001,0.001 -0.005,-0.001 -0.006,0 -0.0143,0.0143 0.0143,-0.002 0,0.0118 -0.001,0.001 -0.004,-10e-4 -0.006,0 -0.001,0.001 0.001,0.005 0,0.006 -0.001,0.001 -0.004,-10e-4 -0.006,0 -0.001,0.001 8.7e-4,0.004 0,0.006 -0.001,0.002 -0.005,0.003 -0.006,0.006 -0.002,0.004 0.003,0.009 0,0.0118 -0.001,10e-4 -0.005,-0.001 -0.006,0 -0.003,0.003 0.003,0.0148 0,0.0177 -0.001,0.001 -0.004,-0.001 -0.006,0 -0.001,0.001 0.001,0.005 0,0.006 -0.001,0.001 -0.004,-0.001 -0.006,0 -0.001,0.001 0.001,0.0154 0,0.0177 -0.001,0.002 -0.005,0.003 -0.006,0.006 -0.002,0.003 0.002,0.022 0,0.0236 -0.001,10e-4 -0.005,-0.001 -0.006,0 -0.001,10e-4 0,0.004 0,0.006 0,0.01 0,0.0197 0,0.0295 0,0.002 0,0.004 0,0.006 0,0.002 -0.001,0.005 0,0.006 0.001,0.001 0.004,-0.001 0.006,0 0.001,0.001 -0.001,0.005 0,0.006 0.001,0.001 0.004,-0.001 0.006,0 0.001,0.001 -0.001,0.005 0,0.006 0.001,0.001 0.004,-0.001 0.006,0 0.003,0.003 -0.003,0.009 0,0.0118 0.001,0.001 0.005,-10e-4 0.006,0 0.001,0.001 -0.001,0.005 0,0.006 0.001,0.001 0.005,-0.001 0.006,0 0.001,0.001 -0.001,0.005 0,0.006 0.001,0.001 0.004,-0.001 0.006,0 0.001,0.001 -0.001,0.005 0,0.006 0.001,0.001 0.004,-0.001 0.006,0 0.003,0.003 -0.003,0.009 0,0.0118 0.001,10e-4 0.005,-0.001 0.006,0 0.003,0.003 -0.003,0.009 0,0.0118 0.001,0.001 0.005,-0.001 0.006,0 0.001,0.001 -8.8e-4,0.004 0,0.006 0.001,0.002 0.005,0.003 0.006,0.006 8.7e-4,0.002 -0.001,0.005 0,0.006 0.003,0.003 0.009,-0.003 0.0118,0 0.001,0.001 -0.001,0.005 0,0.006 0.001,0.001 0.004,-0.001 0.006,0 0.001,0.001 -0.001,0.005 0,0.006 0.001,0.001 0.005,-0.001 0.006,0 0.001,0.001 -0.001,0.005 0,0.006 0.001,0.001 0.005,-0.001 0.006,0 0.001,0.001 -0.001,0.005 0,0.006 0.001,0.001 0.004,-0.001 0.006,0 0.0122,0.0122 -0.0187,-4.8e-4 0.006,0.0118 0.004,0.002 0.009,-0.003 0.0118,0 0.001,0.001 -0.001,0.005 0,0.006 0.003,0.003 0.009,-0.003 0.0118,0 0.001,0.001 -0.001,0.005 0,0.006 0.001,0.001 0.005,-0.001 0.006,0 0.001,0.001 -0.001,0.005 0,0.006 2.3e-4,2.4e-4 0.0215,0 0.0236,0 0.002,0 0.004,0 0.006,0 0.002,0 0.005,-0.001 0.006,0 0.008,0.008 -0.01,0.006 0.006,0.006 0.002,0 0.004,0 0.006,0 0.002,0 0.004,-0.001 0.006,0 0.001,0.001 -0.001,0.005 0,0.006 0.001,0.001 0.004,0 0.006,0 0.002,0 0.004,0 0.006,0 0.0138,0 0.0276,0 0.0413,0 0.002,0 0.005,0.001 0.006,0 0.001,-0.001 -0.001,-0.005 0,-0.006 0.001,-0.001 0.004,8.7e-4 0.006,0 0.003,-0.001 0.003,-0.005 0.006,-0.006 0.002,-0.001 0.0165,0.001 0.0177,0 0.001,-0.001 -0.001,-0.005 0,-0.006 0.001,-0.001 0.004,0.001 0.006,0 0.001,-0.001 -0.001,-0.005 0,-0.006 0.003,-0.003 0.009,0.003 0.0118,0 0.001,-0.001 -0.001,-0.005 0,-0.006 0.001,-0.001 0.005,0.001 0.006,0 0.001,-0.001 -0.001,-0.005 0,-0.006 0.001,-0.001 0.004,0.001 0.006,0 0.001,-0.001 -0.001,-0.005 0,-0.006 0.001,-0.001 0.004,0.001 0.006,0 0.001,-0.001 -0.001,-0.005 0,-0.006 0.001,-0.001 0.004,0.001 0.006,0 0.001,-0.001 -0.001,-0.005 0,-0.006 0.001,-0.001 0.005,0.001 0.006,0 0.001,-0.001 -8.8e-4,-0.004 0,-0.006 0.001,-0.002 0.005,-0.003 0.006,-0.006 8.7e-4,-0.002 -0.001,-0.005 0,-0.006 0.003,-0.003 0.009,0.003 0.0118,0 0.003,-0.003 -0.003,-0.009 0,-0.0118 0.001,-0.001 0.004,8.7e-4 0.006,0 0.005,-0.002 0.007,-0.009 0.0118,-0.0118 0.002,-8.8e-4 0.005,10e-4 0.006,0 0.003,-0.003 -0.003,-0.009 0,-0.0118 0.003,-0.003 0.009,0.003 0.0118,0 0.001,-0.001 -0.001,-0.005 0,-0.006 0.001,-0.001 0.004,0.001 0.006,0 0.001,-0.001 -0.001,-0.005 0,-0.006 0.001,-0.001 0.004,8.7e-4 0.006,0 0.0246,-0.0123 -0.006,3.9e-4 0.006,-0.0118 0.001,-0.001 0.005,0.001 0.006,0 0.001,-0.001 -0.001,-0.005 0,-0.006 0.001,-0.001 0.004,0.001 0.006,0 0.001,-0.001 -0.001,-0.005 0,-0.006 0.001,-0.001 0.004,0.001 0.006,0 0.001,-0.001 -8.8e-4,-0.004 0,-0.006 0.002,-0.005 0.009,-0.007 0.0118,-0.0118 8.7e-4,-0.002 -0.001,-0.005 0,-0.006 0.0122,-0.0122 -4.8e-4,0.0187 0.0118,-0.006 8.7e-4,-0.002 -8.8e-4,-0.004 0,-0.006 0.003,-0.005 0.009,-0.007 0.0118,-0.0118 8.7e-4,-0.002 0,-0.004 0,-0.006 0.002,-0.002 0.005,-0.003 0.006,-0.006 8.7e-4,-0.002 -0.001,-0.005 0,-0.006 0.0122,-0.0122 -4.8e-4,0.0187 0.0118,-0.006 8.7e-4,-0.002 -8.8e-4,-0.004 0,-0.006 0.001,-0.002 0.005,-0.003 0.006,-0.006 8.7e-4,-0.002 0,-0.004 0,-0.006 0.002,-0.002 0.005,-0.003 0.006,-0.006 8.7e-4,-0.002 -0.001,-0.005 0,-0.006 0.001,-0.001 0.004,0.001 0.006,0 0.003,-0.003 -0.002,-0.008 0,-0.0118 0.001,-0.002 0.005,-0.003 0.006,-0.006 8.7e-4,-0.002 -0.001,-0.005 0,-0.006 0.001,-0.001 0.004,10e-4 0.006,0 0.003,-0.003 -0.003,-0.0148 0,-0.0177 0.001,-0.001 0.005,0.001 0.006,0 0.002,-0.002 -0.002,-0.0277 0,-0.0295 0.001,-0.001 0.005,0.001 0.006,0 0.001,-0.001 0,-0.004 0,-0.006 0,-0.002 0,-0.004 0,-0.006 0,-0.0216 0,-0.0433 0,-0.065 0,-0.002 0,-0.004 0,-0.006 0,-0.002 0.001,-0.005 0,-0.006 -0.001,-0.001 -0.005,0.001 -0.006,0 -0.003,-0.003 0.003,-0.009 0,-0.0118 -0.001,-10e-4 -0.004,0.001 -0.006,0 -0.001,-10e-4 8.7e-4,-0.004 0,-0.006 -0.0123,-0.0246 3.9e-4,0.006 -0.0118,-0.006 -0.001,-10e-4 0.001,-0.005 0,-0.006 -0.001,-10e-4 -0.005,0.001 -0.006,0 -0.001,-10e-4 0.001,-0.005 0,-0.006 -0.001,-10e-4 -0.0222,0.001 -0.0236,0 -0.001,-10e-4 0.001,-0.005 0,-0.006 -0.001,-10e-4 -0.004,0 -0.006,0 -0.002,0 -0.004,0 -0.006,0 -0.0295,0 -0.0591,0 -0.0886,0 -0.002,0 -0.0234,2.3e-4 -0.0236,0 -0.001,-10e-4 0.001,-0.005 0,-0.006 -0.001,-0.001 -0.004,0 -0.006,0 -0.0118,0 -0.0236,0 -0.0354,0 -0.0157,0 -0.0315,0 -0.0472,0 -0.003,0 -0.0159,-9e-4 -0.0177,0 -0.003,10e-4 -0.003,0.005 -0.006,0.006 -0.004,0.002 -0.008,-0.002 -0.0118,0 -0.0246,0.0123 0.006,-4e-4 -0.006,0.0118 -0.003,0.003 -0.009,-0.003 -0.0118,0 -0.0122,0.0122 0.0187,-4.8e-4 -0.006,0.0118 -0.002,8.7e-4 -0.004,-0.001 -0.006,0 -0.003,0.003 0.003,0.009 0,0.0118 -0.001,0.001 -0.004,0 -0.006,0 -0.008,0.002 -0.0183,-2.6e-4 -0.0236,0.006 -0.008,0.009 -0.006,0.0243 -0.0118,0.0354 -4.8e-4,9.7e-4 -0.0162,0 -0.0177,0"
       id="path5460-1"
       inkscape:connector-curvature="0" />
    <path
       style="fill:#000000;fill-opacity:1;stroke:#000000;stroke-width:0.26458332px;stroke-linecap:butt;stroke-linejoin:miter;stroke-opacity:1"
       d="m 104.92766,128.94672 c -0.051,0.0322 -0.0473,0.0215 -0.0473,0.0591 0,0.004 0.003,0.009 0,0.0118 -0.0157,0.0157 -0.0118,-0.0197 -0.0118,0.0118 0,0.003 3.7e-4,0.0351 0,0.0354 -0.003,0.003 -0.009,-0.003 -0.0118,0 -0.006,0.006 0.004,0.0166 0,0.0236 -0.002,0.005 -0.009,0.007 -0.0118,0.0118 -0.004,0.007 0.006,0.0181 0,0.0236 -0.003,0.003 -0.009,-0.003 -0.0118,0 -0.006,0.006 0.006,0.0295 0,0.0354 -0.003,0.003 -0.009,-0.003 -0.0118,0 -0.003,0.003 0,0.008 0,0.0118 0,0.004 0,0.008 0,0.0118 0,0.0512 0,0.10237 0,0.15355 0,0.0276 0,0.0551 0,0.0827 0,0.004 -0.003,0.009 0,0.0118 0.003,0.003 0.009,-0.003 0.0118,0 0.006,0.006 -0.006,0.0181 0,0.0236 0.003,0.003 0.009,-0.003 0.0118,0 0.003,0.003 -0.003,0.009 0,0.0118 0.003,0.003 0.009,-0.003 0.0118,0 0.003,0.003 -0.002,0.008 0,0.0118 0.002,0.005 0.009,0.007 0.0118,0.0118 0.002,0.004 -0.003,0.009 0,0.0118 0.006,0.006 0.0181,-0.006 0.0236,0 0.003,0.003 -0.003,0.009 0,0.0118 0.0244,0.0244 -9.5e-4,-0.0373 0.0236,0.0118 0.002,0.004 -0.003,0.009 0,0.0118 0.006,0.006 0.0181,-0.006 0.0236,0 0.003,0.003 -0.003,0.009 0,0.0118 0.006,0.006 0.0295,-0.006 0.0354,0 0.003,0.003 -0.003,0.009 0,0.0118 0.006,0.006 0.0295,-0.006 0.0354,0 0.003,0.003 -0.003,0.009 0,0.0118 0.006,0.006 0.0181,-0.006 0.0236,0 0.003,0.003 -0.003,0.009 0,0.0118 0.003,0.003 0.009,-0.003 0.0118,0 0.003,0.003 -0.003,0.009 0,0.0118 0.003,0.003 0.0444,-0.003 0.0473,0 0.003,0.003 -0.003,0.009 0,0.0118 0.003,0.003 0.008,0 0.0118,0 0.0236,0 0.0473,0 0.0709,0 0.0236,0 0.0473,0 0.0709,0 0.004,0 0.009,0.003 0.0118,0 0.003,-0.003 -0.003,-0.009 0,-0.0118 0.003,-0.003 0.008,0.002 0.0118,0 0.0492,-0.0246 -0.0126,8.2e-4 0.0118,-0.0236 0.003,-0.003 0.009,0.003 0.0118,0 0.006,-0.006 -0.004,-0.0166 0,-0.0236 0.002,-0.005 0.009,-0.007 0.0118,-0.0118 0.002,-0.004 -0.002,-0.008 0,-0.0118 0.0246,-0.0492 -8.2e-4,0.0126 0.0236,-0.0118 0.003,-0.003 -0.003,-0.0444 0,-0.0473 0.003,-0.003 0.009,0.003 0.0118,0 0.003,-0.003 0,-0.008 0,-0.0118 0,-0.0276 0,-0.0551 0,-0.0827 0,-0.004 0,-0.008 0,-0.0118 0,-0.004 0.003,-0.009 0,-0.0118 -0.003,-0.003 -0.008,0.002 -0.0118,0 -0.01,-0.005 -0.0137,-0.0186 -0.0236,-0.0236 -0.0315,0 0.004,0.004 -0.0118,-0.0118 -0.003,-0.003 -0.009,0.003 -0.0118,0 -0.003,-0.003 0.003,-0.009 0,-0.0118 -0.003,-0.003 -0.008,0.002 -0.0118,0 -0.01,-0.005 -0.0137,-0.0186 -0.0236,-0.0236 -0.004,-0.002 -0.009,0.003 -0.0118,0 -0.003,-0.003 0.003,-0.009 0,-0.0118 -0.006,-0.006 -0.0181,0.006 -0.0236,0 -0.003,-0.003 0.003,-0.009 0,-0.0118 -0.003,-0.003 -0.009,0.003 -0.0118,0 -0.003,-0.003 0.003,-0.009 0,-0.0118 -0.003,-0.003 -0.009,0.003 -0.0118,0 -0.003,-0.003 0.003,-0.009 0,-0.0118 -0.006,-0.006 -0.0166,0.004 -0.0236,0 -0.005,-0.002 -0.007,-0.009 -0.0118,-0.0118 -0.007,-0.004 -0.0166,0.004 -0.0236,0 -0.005,-0.002 -0.007,-0.009 -0.0118,-0.0118 -0.004,-0.002 -0.009,0.003 -0.0118,0 -0.003,-0.003 0.003,-0.009 0,-0.0118 -0.006,-0.006 -0.0181,0.006 -0.0236,0 -0.003,-0.003 0.003,-0.009 0,-0.0118 -0.006,-0.006 -0.0181,0.006 -0.0236,0 -0.003,-0.003 0.003,-0.009 0,-0.0118 -0.006,-0.006 -0.0181,0.006 -0.0236,0 -0.003,-0.003 0.003,-0.009 0,-0.0118 -0.003,-0.003 -0.009,0.003 -0.0118,0 -0.003,-0.003 0.002,-0.008 0,-0.0118 -0.002,-0.005 -0.009,-0.007 -0.0118,-0.0118 -0.004,-0.007 0.006,-0.0181 0,-0.0236 -0.003,-0.003 -0.009,0.003 -0.0118,0 -0.006,-0.006 0.006,-0.0181 0,-0.0236 -0.003,-0.003 -0.009,0.003 -0.0118,0 -0.003,-0.003 0.003,-0.009 0,-0.0118 -0.003,-0.003 -0.009,0.003 -0.0118,0 -0.003,-0.003 0.003,-0.009 0,-0.0118 -0.003,-0.003 -0.009,0.003 -0.0118,0 -0.006,-0.006 0.006,-0.018 0,-0.0236 -0.003,-0.003 -0.009,0.003 -0.0118,0 -0.003,-0.003 0.003,-0.009 0,-0.0118 -0.003,-0.003 -0.008,0.002 -0.0118,0 -0.005,-0.002 -0.007,-0.009 -0.0118,-0.0118 -0.007,-0.004 -0.0181,0.006 -0.0236,0 -0.003,-0.003 0,-0.008 0,-0.0118 0,-0.004 0,-0.008 0,-0.0118"
       id="path5456-9"
       inkscape:connector-curvature="0" />
    <path
       style="fill:#000000;fill-opacity:1;stroke:#000000;stroke-width:0.26458332px;stroke-linecap:butt;stroke-linejoin:miter;stroke-opacity:1"
       d="m 99.822008,130.95248 c -0.0079,0.008 -0.01575,0.0158 -0.02362,0.0236 -0.002,0 -0.0045,-0.001 -0.0059,0 -0.0014,0.001 0.0014,0.005 0,0.006 -0.0014,0.001 -0.0045,-0.001 -0.0059,0 -0.0014,0.001 0.0014,0.005 0,0.006 -0.0014,0.001 -0.0045,-0.001 -0.0059,0 -0.0014,0.001 0.0014,0.005 0,0.006 -0.0014,0.001 -0.0042,-8.8e-4 -0.0059,0 -0.0025,0.001 -0.0039,0.004 -0.0059,0.006 -0.002,0.002 -0.0047,0.003 -0.0059,0.006 -8.73e-4,0.002 0.0014,0.005 0,0.006 -0.0014,0.001 -0.0045,-0.001 -0.0059,0 -0.0014,0.001 0.0014,0.005 0,0.006 -0.01222,0.0122 4.76e-4,-0.0187 -0.01181,0.006 -8.73e-4,0.002 0.0014,0.005 0,0.006 -0.0014,0.001 -0.0045,-0.001 -0.0059,0 -0.0014,0.001 0.0014,0.005 0,0.006 -0.0014,0.001 -0.0045,-0.001 -0.0059,0 -0.0028,0.003 0.0028,0.009 0,0.0118 -0.0014,0.001 -0.0045,-0.001 -0.0059,0 -0.01427,0.0143 0.01427,-0.002 0,0.0118 -0.0014,0.001 -0.0045,-10e-4 -0.0059,0 -0.0014,0.001 0.0014,0.005 0,0.006 -0.0014,0.001 -0.0045,-10e-4 -0.0059,0 -0.0014,0.001 8.73e-4,0.004 0,0.006 -0.0012,0.002 -0.0047,0.003 -0.0059,0.006 -0.0018,0.004 0.0028,0.009 0,0.0118 -0.0014,0.001 -0.0045,-0.001 -0.0059,0 -0.0029,0.003 0.0029,0.0148 0,0.0177 -0.0014,0.001 -0.0045,-0.001 -0.0059,0 -0.0014,0.001 0.0014,0.005 0,0.006 -0.0014,0.001 -0.0045,-0.001 -0.0059,0 -0.0012,0.001 0.0012,0.0154 0,0.0177 -0.0012,0.002 -0.0047,0.003 -0.0059,0.006 -0.0016,0.003 0.0016,0.022 0,0.0236 -0.0014,0.001 -0.0045,-0.001 -0.0059,0 -0.0014,0.001 0,0.004 0,0.006 0,0.01 0,0.0197 0,0.0295 0,0.002 0,0.004 0,0.006 0,0.002 -0.0014,0.005 0,0.006 0.0014,0.001 0.0045,-0.001 0.0059,0 0.0014,0.001 -0.0014,0.005 0,0.006 0.0014,0.001 0.0045,-0.001 0.0059,0 0.0014,0.001 -0.0014,0.005 0,0.006 0.0014,0.001 0.0045,-0.001 0.0059,0 0.0028,0.003 -0.0028,0.009 0,0.0118 0.0014,0.001 0.0045,-10e-4 0.0059,0 0.0014,0.001 -0.0014,0.005 0,0.006 0.0014,0.001 0.0045,-10e-4 0.0059,0 0.0014,0.001 -0.0014,0.005 0,0.006 0.0014,0.001 0.0045,-10e-4 0.0059,0 0.0014,0.001 -0.0014,0.005 0,0.006 0.0014,0.001 0.0045,-10e-4 0.0059,0 0.0028,0.003 -0.0028,0.009 0,0.0118 0.0014,0.001 0.0045,-0.001 0.0059,0 0.0028,0.003 -0.0028,0.009 0,0.0118 0.0014,0.001 0.0045,-0.001 0.0059,0 0.0014,0.001 -8.73e-4,0.004 0,0.006 0.0012,0.002 0.0047,0.003 0.0059,0.006 8.73e-4,0.002 -0.0014,0.005 0,0.006 0.0028,0.003 0.009,-0.003 0.01181,0 0.0014,0.001 -0.0014,0.005 0,0.006 0.0014,0.001 0.0045,-0.001 0.0059,0 0.0014,0.001 -0.0014,0.005 0,0.006 0.0014,0.001 0.0045,-0.001 0.0059,0 0.0014,0.001 -0.0014,0.005 0,0.006 0.0014,0.001 0.0045,-0.001 0.0059,0 0.0014,0.001 -0.0014,0.005 0,0.006 0.0014,0.001 0.0045,-0.001 0.0059,0 0.01222,0.0122 -0.01867,-4.8e-4 0.0059,0.0118 0.0035,0.002 0.009,-0.003 0.01181,0 0.0014,0.001 -0.0014,0.005 0,0.006 0.0028,0.003 0.009,-0.003 0.01181,0 0.0014,0.001 -0.0014,0.005 0,0.006 0.0014,0.001 0.0045,-0.001 0.0059,0 0.0014,0.001 -0.0014,0.005 0,0.006 2.37e-4,2.4e-4 0.02146,0 0.02363,0 0.002,0 0.0039,0 0.0059,0 0.002,0 0.0045,-0.001 0.0059,0 0.0079,0.008 -0.0098,0.006 0.0059,0.006 0.002,0 0.0039,0 0.0059,0 0.002,0 0.0045,-0.001 0.0059,0 0.0014,0.001 -0.0014,0.005 0,0.006 0.0014,0.001 0.0039,0 0.0059,0 0.002,0 0.0039,0 0.0059,0 0.01378,0 0.02756,0 0.04134,0 0.002,0 0.0045,0.001 0.0059,0 0.0014,-0.001 -0.0014,-0.005 0,-0.006 0.0014,-0.001 0.0041,8.7e-4 0.0059,0 0.0025,-0.001 0.0034,-0.005 0.0059,-0.006 0.0023,-0.001 0.01651,0.001 0.01772,0 0.0014,-0.001 -0.0014,-0.005 0,-0.006 0.0014,-0.001 0.0045,0.001 0.0059,0 0.0014,-0.001 -0.0014,-0.005 0,-0.006 0.0028,-0.003 0.009,0.003 0.01181,0 0.0014,-0.001 -0.0014,-0.005 0,-0.006 0.0014,-0.001 0.0045,0.001 0.0059,0 0.0014,-0.001 -0.0014,-0.005 0,-0.006 0.0014,-0.001 0.0045,0.001 0.0059,0 0.0014,-0.001 -0.0014,-0.005 0,-0.006 0.0014,-0.001 0.0045,0.001 0.0059,0 0.0014,-0.001 -0.0014,-0.005 0,-0.006 0.0014,-0.001 0.0045,0.001 0.0059,0 0.0014,-0.001 -0.0014,-0.005 0,-0.006 0.0014,-0.001 0.0045,0.001 0.0059,0 0.0014,-0.001 -8.73e-4,-0.004 0,-0.006 0.0012,-0.002 0.0047,-0.003 0.0059,-0.006 8.7e-4,-0.002 -0.001,-0.005 0,-0.006 0.003,-0.003 0.009,0.003 0.0118,0 0.003,-0.003 -0.003,-0.009 0,-0.0118 0.001,-0.001 0.004,8.7e-4 0.006,0 0.005,-0.002 0.007,-0.009 0.0118,-0.0118 0.002,-8.8e-4 0.004,0.001 0.006,0 0.003,-0.003 -0.003,-0.009 0,-0.0118 0.003,-0.003 0.009,0.003 0.0118,0 0.001,-10e-4 -0.001,-0.005 0,-0.006 0.001,-10e-4 0.005,0.001 0.006,0 0.001,-10e-4 -0.001,-0.005 0,-0.006 0.001,-10e-4 0.004,8.7e-4 0.006,0 0.0246,-0.0123 -0.006,3.9e-4 0.006,-0.0118 0.001,-0.001 0.004,0.001 0.006,0 0.001,-0.001 -0.001,-0.005 0,-0.006 0.001,-0.001 0.005,0.001 0.006,0 0.001,-0.001 -0.001,-0.005 0,-0.006 0.001,-0.001 0.005,0.001 0.006,0 0.001,-0.001 -8.8e-4,-0.004 0,-0.006 0.003,-0.005 0.009,-0.007 0.0118,-0.0118 8.7e-4,-0.002 -0.001,-0.005 0,-0.006 0.0122,-0.0122 -4.8e-4,0.0187 0.0118,-0.006 8.7e-4,-0.002 -8.8e-4,-0.004 0,-0.006 0.002,-0.005 0.009,-0.007 0.0118,-0.0118 8.7e-4,-0.002 0,-0.004 0,-0.006 0.002,-0.002 0.005,-0.003 0.006,-0.006 8.7e-4,-0.002 -0.001,-0.005 0,-0.006 0.0122,-0.0122 -4.8e-4,0.0187 0.0118,-0.006 8.7e-4,-0.002 -8.8e-4,-0.004 0,-0.006 0.001,-0.002 0.005,-0.003 0.006,-0.006 8.7e-4,-0.002 0,-0.004 0,-0.006 0.002,-0.002 0.005,-0.003 0.006,-0.006 8.7e-4,-0.002 -0.001,-0.005 0,-0.006 0.001,-0.001 0.004,0.001 0.006,0 0.003,-0.003 -0.002,-0.008 0,-0.0118 0.001,-0.002 0.005,-0.003 0.006,-0.006 8.7e-4,-0.002 -0.001,-0.005 0,-0.006 0.001,-0.001 0.005,0.001 0.006,0 0.003,-0.003 -0.003,-0.0148 0,-0.0177 0.001,-10e-4 0.004,0.001 0.006,0 0.002,-0.002 -0.002,-0.0277 0,-0.0295 0.001,-0.001 0.004,0.001 0.006,0 0.001,-0.001 0,-0.004 0,-0.006 0,-0.002 0,-0.004 0,-0.006 0,-0.0216 0,-0.0433 0,-0.065 0,-0.002 0,-0.004 0,-0.006 0,-0.002 0.001,-0.005 0,-0.006 -0.001,-0.001 -0.004,0.001 -0.006,0 -0.003,-0.003 0.003,-0.009 0,-0.0118 -0.001,-0.001 -0.005,10e-4 -0.006,0 -0.001,-0.001 8.7e-4,-0.004 0,-0.006 -0.0123,-0.0246 3.9e-4,0.006 -0.0118,-0.006 -0.001,-0.001 0.001,-0.005 0,-0.006 -0.001,-0.001 -0.004,10e-4 -0.006,0 -0.001,-0.001 0.001,-0.005 0,-0.006 -0.001,-0.001 -0.0222,10e-4 -0.0236,0 -0.001,-0.001 0.001,-0.005 0,-0.006 -0.001,-0.001 -0.004,0 -0.006,0 -0.002,0 -0.004,0 -0.006,0 -0.0295,0 -0.0591,0 -0.0886,0 -0.002,0 -0.0234,2.3e-4 -0.0236,0 -0.001,-0.001 0.001,-0.005 0,-0.006 -0.001,-0.001 -0.004,0 -0.0059,0 -0.01181,0 -0.02363,0 -0.03543,0 -0.01575,0 -0.0315,0 -0.04725,0 -0.0027,0 -0.01592,-9e-4 -0.01772,0 -0.0025,10e-4 -0.0034,0.005 -0.0059,0.006 -0.0035,0.002 -0.0083,-0.002 -0.01181,0 -0.02458,0.0123 0.0063,-4e-4 -0.0059,0.0118 -0.0028,0.003 -0.009,-0.003 -0.01181,0 -0.01222,0.0122 0.01867,-4.8e-4 -0.0059,0.0118 -0.0018,8.7e-4 -0.0045,-0.001 -0.0059,0 -0.0028,0.003 0.0028,0.009 0,0.0118 -0.0014,0.001 -0.0039,0 -0.0059,0 -0.0079,0.002 -0.01834,-2.6e-4 -0.02362,0.006 -0.0081,0.009 -0.0062,0.0243 -0.01181,0.0354 -4.77e-4,9.7e-4 -0.01615,0 -0.01772,0"
       id="path5460-5"
       inkscape:connector-curvature="0" />
    <path
       style="fill:#000000;fill-opacity:1;stroke:#000000;stroke-width:0.26458332px;stroke-linecap:butt;stroke-linejoin:miter;stroke-opacity:1"
       d="m 103.02611,128.20716 c -0.0128,0.0511 -0.0118,0.031 -0.0118,0.0591 0,0.004 0.003,0.009 0,0.0118 -0.003,0.003 -0.008,-0.002 -0.0118,0 -0.0492,0.0246 0.0126,-8.2e-4 -0.0118,0.0236 -0.003,0.003 -0.009,-0.003 -0.0118,0 -0.006,0.006 0.006,0.0181 0,0.0236 -0.003,0.003 -0.009,-0.003 -0.0118,0 -0.006,0.006 0.006,0.0181 0,0.0236 -0.003,0.003 -0.009,-0.003 -0.0118,0 -0.003,0.003 0.003,0.009 0,0.0118 -0.003,0.003 -0.009,-0.003 -0.0118,0 -0.006,0.006 0.006,0.0295 0,0.0354 -0.003,0.003 -0.009,-0.003 -0.0118,0 -0.003,0.003 0.002,0.008 0,0.0118 -0.002,0.005 -0.009,0.007 -0.0118,0.0118 -0.004,0.007 0.006,0.0181 0,0.0236 -0.003,0.003 -0.009,-0.003 -0.0118,0 -0.003,0.003 0.003,0.009 0,0.0118 -0.003,0.003 -0.009,-0.003 -0.0118,0 -0.003,0.003 0,0.008 0,0.0118 0,0.004 0,0.008 0,0.0118 0,0.0315 0.004,-0.004 -0.0118,0.0118 -0.006,0.006 0.006,0.0295 0,0.0354 -0.003,0.003 -0.009,-0.003 -0.0118,0 -0.006,0.006 0.006,0.0295 0,0.0354 -0.003,0.003 -0.009,-0.003 -0.0118,0 -0.006,0.006 0.006,0.018 0,0.0236 -0.003,0.003 -0.009,-0.003 -0.0118,0 -0.003,0.003 0,0.008 0,0.0118 0,0.004 0,0.008 0,0.0118 0,0.0354 0,0.0709 0,0.1063 0,0.004 -4.8e-4,0.0468 0,0.0472 0.003,0.003 0.009,-0.003 0.0118,0 0.003,0.003 -0.003,0.009 0,0.0118 0.003,0.003 0.009,-0.003 0.0118,0 0.006,0.006 -0.006,0.0181 0,0.0236 0.003,0.003 0.009,-0.003 0.0118,0 0.006,0.006 -0.006,0.0181 0,0.0236 0.003,0.003 0.009,-0.003 0.0118,0 0.003,0.003 -0.003,0.009 0,0.0118 0.003,0.003 0.009,-0.003 0.0118,0 0.003,0.003 -0.003,0.009 0,0.0118 0.003,0.003 0.009,-0.003 0.0118,0 0.006,0.006 -0.006,0.0181 0,0.0236 0.003,0.003 0.009,-0.003 0.0118,0 0.003,0.003 -0.003,0.009 0,0.0118 0.003,0.003 0.008,0 0.0118,0 0.003,0 0.0351,3.7e-4 0.0354,0 0.0244,-0.0244 -0.0374,9.5e-4 0.0118,-0.0236 0.004,-0.002 0.009,0.003 0.0118,0 0.006,-0.006 -0.006,-0.018 0,-0.0236 0.003,-0.003 0.009,0.003 0.0118,0 0.006,-0.006 -0.006,-0.0181 0,-0.0236 0.003,-0.003 0.009,0.003 0.0118,0 0.003,-0.003 -0.003,-0.0444 0,-0.0473 0.003,-0.003 0.009,0.003 0.0118,0 3.7e-4,-3.7e-4 0,-0.0326 0,-0.0354 0,-0.0315 -0.004,0.004 0.0118,-0.0118 0.004,-0.004 -0.004,-0.0509 0,-0.0591 0.002,-0.005 0.009,-0.007 0.0118,-0.0118 0.002,-0.004 0,-0.0301 0,-0.0354 0,-0.0276 0,-0.0551 0,-0.0827 0,-0.003 3.7e-4,-0.0351 0,-0.0354 -0.003,-0.003 -0.009,0.003 -0.0118,0 -0.003,-0.003 0.003,-0.0408 0,-0.0473 -0.002,-0.005 -0.009,-0.007 -0.0118,-0.0118 -0.002,-0.005 0.002,-0.033 0,-0.0354 -0.003,-0.003 -0.009,0.003 -0.0118,0 -0.006,-0.006 0.006,-0.0295 0,-0.0354 -0.003,-0.003 -0.009,0.003 -0.0118,0 -0.003,-0.003 0.003,-0.009 0,-0.0118 -0.003,-0.003 -0.009,0.003 -0.0118,0 -0.003,-0.003 0,-0.008 0,-0.0118 0,-0.004 0,-0.008 0,-0.0118 0,-0.004 0,-0.008 0,-0.0118 0,-0.004 -0.004,-0.0118 0,-0.0118 0.004,0 0,0.0157 0,0.0118 0,-0.008 0,-0.0157 0,-0.0236 0,-0.0157 0.004,-0.0118 -0.0118,-0.0118"
       id="path5421-3"
       inkscape:connector-curvature="0" />
    <path
       style="fill:#000000;fill-opacity:1;stroke:#000000;stroke-width:0.26458332px;stroke-linecap:butt;stroke-linejoin:miter;stroke-opacity:1"
       d="m 108.83749,126.41177 c -0.0128,0.0511 -0.0118,0.031 -0.0118,0.0591 0,0.004 0.003,0.009 0,0.0118 -0.003,0.003 -0.008,-0.002 -0.0118,0 -0.0492,0.0246 0.0126,-8.2e-4 -0.0118,0.0236 -0.003,0.003 -0.009,-0.003 -0.0118,0 -0.006,0.006 0.006,0.0181 0,0.0236 -0.003,0.003 -0.009,-0.003 -0.0118,0 -0.006,0.006 0.006,0.0181 0,0.0236 -0.003,0.003 -0.009,-0.003 -0.0118,0 -0.003,0.003 0.003,0.009 0,0.0118 -0.003,0.003 -0.009,-0.003 -0.0118,0 -0.006,0.006 0.006,0.0295 0,0.0354 -0.003,0.003 -0.009,-0.003 -0.0118,0 -0.003,0.003 0.002,0.008 0,0.0118 -0.002,0.005 -0.009,0.007 -0.0118,0.0118 -0.004,0.007 0.006,0.0181 0,0.0236 -0.003,0.003 -0.009,-0.003 -0.0118,0 -0.003,0.003 0.003,0.009 0,0.0118 -0.003,0.003 -0.009,-0.003 -0.0118,0 -0.003,0.003 0,0.008 0,0.0118 0,0.004 0,0.008 0,0.0118 0,0.0315 0.004,-0.004 -0.0118,0.0118 -0.006,0.006 0.006,0.0295 0,0.0354 -0.003,0.003 -0.009,-0.003 -0.0118,0 -0.006,0.006 0.006,0.0295 0,0.0354 -0.003,0.003 -0.009,-0.003 -0.0118,0 -0.006,0.006 0.006,0.018 0,0.0236 -0.003,0.003 -0.009,-0.003 -0.0118,0 -0.003,0.003 0,0.008 0,0.0118 0,0.004 0,0.008 0,0.0118 0,0.0354 0,0.0709 0,0.1063 0,0.004 -4.8e-4,0.0468 0,0.0472 0.003,0.003 0.009,-0.003 0.0118,0 0.003,0.003 -0.003,0.009 0,0.0118 0.003,0.003 0.009,-0.003 0.0118,0 0.006,0.006 -0.006,0.0181 0,0.0236 0.003,0.003 0.009,-0.003 0.0118,0 0.006,0.006 -0.006,0.0181 0,0.0236 0.003,0.003 0.009,-0.003 0.0118,0 0.003,0.003 -0.003,0.009 0,0.0118 0.003,0.003 0.009,-0.003 0.0118,0 0.003,0.003 -0.003,0.009 0,0.0118 0.003,0.003 0.009,-0.003 0.0118,0 0.006,0.006 -0.006,0.0181 0,0.0236 0.003,0.003 0.009,-0.003 0.0118,0 0.003,0.003 -0.003,0.009 0,0.0118 0.003,0.003 0.008,0 0.0118,0 0.003,0 0.0351,3.7e-4 0.0354,0 0.0244,-0.0244 -0.0374,9.5e-4 0.0118,-0.0236 0.004,-0.002 0.009,0.003 0.0118,0 0.006,-0.006 -0.006,-0.018 0,-0.0236 0.003,-0.003 0.009,0.003 0.0118,0 0.006,-0.006 -0.006,-0.0181 0,-0.0236 0.003,-0.003 0.009,0.003 0.0118,0 0.003,-0.003 -0.003,-0.0444 0,-0.0473 0.003,-0.003 0.009,0.003 0.0118,0 3.7e-4,-3.7e-4 0,-0.0326 0,-0.0354 0,-0.0315 -0.004,0.004 0.0118,-0.0118 0.004,-0.004 -0.004,-0.0509 0,-0.0591 0.002,-0.005 0.009,-0.007 0.0118,-0.0118 0.002,-0.004 0,-0.0301 0,-0.0354 0,-0.0276 0,-0.0551 0,-0.0827 0,-0.003 3.7e-4,-0.0351 0,-0.0354 -0.003,-0.003 -0.009,0.003 -0.0118,0 -0.003,-0.003 0.003,-0.0408 0,-0.0473 -0.002,-0.005 -0.009,-0.007 -0.0118,-0.0118 -0.002,-0.005 0.002,-0.033 0,-0.0354 -0.003,-0.003 -0.009,0.003 -0.0118,0 -0.006,-0.006 0.006,-0.0295 0,-0.0354 -0.003,-0.003 -0.009,0.003 -0.0118,0 -0.003,-0.003 0.003,-0.009 0,-0.0118 -0.003,-0.003 -0.009,0.003 -0.0118,0 -0.003,-0.003 0,-0.008 0,-0.0118 0,-0.004 0,-0.008 0,-0.0118 0,-0.004 0,-0.008 0,-0.0118 0,-0.004 -0.004,-0.0118 0,-0.0118 0.004,0 0,0.0157 0,0.0118 0,-0.008 0,-0.0157 0,-0.0236 0,-0.0157 0.004,-0.0118 -0.0118,-0.0118"
       id="path5421-7"
       inkscape:connector-curvature="0" />
    <path
       style="fill:#000000;fill-opacity:1;stroke:#000000;stroke-width:0.26458332px;stroke-linecap:butt;stroke-linejoin:miter;stroke-opacity:1"
       d="m 101.96291,131.91182 c -0.0157,0 -0.032,-0.004 -0.0472,0 -0.008,0.002 0.004,0.0166 0,0.0236 -0.002,0.005 -0.009,0.007 -0.0118,0.0118 0,0.0315 0.004,-0.004 -0.0118,0.0118 -0.006,0.006 0.006,0.0181 0,0.0236 -0.003,0.003 -0.009,-0.003 -0.0118,0 -0.003,0.003 0.003,0.009 0,0.0118 -0.003,0.003 -0.009,-0.003 -0.0118,0 -0.006,0.006 0.006,0.0181 0,0.0236 -0.003,0.003 -0.009,-0.003 -0.0118,0 -0.006,0.006 0.006,0.0181 0,0.0236 -0.003,0.003 -0.009,-0.003 -0.0118,0 -0.006,0.006 0.006,0.0295 0,0.0354 -0.006,0.006 -0.0181,-0.006 -0.0236,0 -0.006,0.006 0.006,0.0181 0,0.0236 -0.003,0.003 -0.009,-0.003 -0.0118,0 -0.006,0.006 0.006,0.0181 0,0.0236 -0.003,0.003 -0.009,-0.003 -0.0118,0 -0.003,0.003 0.003,0.009 0,0.0118 -0.003,0.003 -0.009,-0.003 -0.0118,0 -0.008,0.008 0.008,0.0158 0,0.0236 -0.003,0.003 -0.009,-0.003 -0.0118,0 -0.006,0.006 0.006,0.0181 0,0.0236 -0.003,0.003 -0.009,-0.003 -0.0118,0 -0.006,0.006 0.006,0.0295 0,0.0354 -0.003,0.003 -0.009,-0.003 -0.0118,0 -0.003,0.003 0,0.008 0,0.0118 0,0.0315 0,0.063 0,0.0945 0,0.004 0,0.008 0,0.0118 0,0.004 -0.003,0.009 0,0.0118 0.003,0.003 0.009,-0.003 0.0118,0 0.006,0.006 -0.006,0.0181 0,0.0236 0.003,0.003 0.009,-0.003 0.0118,0 0.003,0.003 0,0.008 0,0.0118 0.004,0 0.009,-0.003 0.0118,0 0.003,0.003 -0.003,0.009 0,0.0118 0.006,0.006 0.0181,-0.006 0.0236,0 0.006,0.006 -0.006,0.0181 0,0.0236 0.003,0.003 0.0444,-0.003 0.0473,0 0.003,0.003 -0.003,0.009 0,0.0118 0.003,0.003 0.008,0 0.0118,0 0.004,0 0.008,0 0.0118,0 0.0591,0 0.11812,0 0.17718,0 0.003,0 0.0351,3.7e-4 0.0354,0 0.003,-0.003 -0.003,-0.009 0,-0.0118 0.003,-0.003 0.009,0.003 0.0118,0 0.003,-0.003 -0.003,-0.009 0,-0.0118 0.006,-0.006 0.0181,0.006 0.0236,0 0.003,-0.003 -0.003,-0.009 0,-0.0118 0.003,-0.003 0.009,0.003 0.0118,0 0.003,-0.003 -0.003,-0.009 0,-0.0118 0.006,-0.006 0.0181,0.006 0.0236,0 0.003,-0.003 0,-0.008 0,-0.0118 0.004,0 0.009,0.003 0.0118,0 0.003,-0.003 0,-0.008 0,-0.0118 0,-0.005 0.002,-0.0318 0,-0.0354 -0.0246,-0.0491 8.2e-4,0.0126 -0.0236,-0.0118 -0.003,-0.003 0.003,-0.009 0,-0.0118 -0.003,-0.003 -0.009,0.003 -0.0118,0 -0.003,-0.003 0.003,-0.009 0,-0.0118 -0.003,-0.003 -0.009,0.003 -0.0118,0 -0.006,-0.006 0.006,-0.018 0,-0.0236 -0.003,-0.003 -0.008,0.002 -0.0118,0 -0.0492,-0.0246 0.0126,8.2e-4 -0.0118,-0.0236 -0.003,-0.003 -0.009,0.003 -0.0118,0 -0.006,-0.006 0.006,-0.0181 0,-0.0236 -0.003,-0.003 -0.009,0.003 -0.0118,0 -0.003,-0.003 0.003,-0.009 0,-0.0118 -0.006,-0.006 -0.0181,0.006 -0.0236,0 -0.003,-0.003 0.002,-0.008 0,-0.0118 -0.005,-0.01 -0.0186,-0.0137 -0.0236,-0.0236 -0.002,-0.004 0.003,-0.009 0,-0.0118 -0.003,-0.003 -0.009,0.003 -0.0118,0 -0.003,-0.003 0.003,-0.009 0,-0.0118 -0.003,-0.003 -0.009,0.003 -0.0118,0 -0.006,-0.006 0.004,-0.0166 0,-0.0236 -0.002,-0.005 -0.009,-0.007 -0.0118,-0.0118 -0.004,-0.007 0.006,-0.0181 0,-0.0236 -0.003,-0.003 -0.009,0.003 -0.0118,0 -0.003,-0.003 0.003,-0.0444 0,-0.0473 -0.003,-0.003 -0.009,0.003 -0.0118,0 -0.006,-0.006 0.006,-0.0181 0,-0.0236 -0.003,-0.003 -0.009,0.003 -0.0118,0 -0.006,-0.006 0.006,-0.0181 0,-0.0236 -0.003,-0.003 -0.009,0.003 -0.0118,0 -0.006,-0.006 0.006,-0.018 0,-0.0236 -0.003,-0.003 -0.008,0 -0.0118,0 -0.0236,0 -0.0472,0 -0.0709,0"
       id="path5458-2"
       inkscape:connector-curvature="0" />
    <path
       style="fill:#000000;fill-opacity:1;stroke:#000000;stroke-width:0.26458332px;stroke-linecap:butt;stroke-linejoin:miter;stroke-opacity:1"
       d="m 105.55369,120.80876 c -0.0157,0 -0.032,-0.004 -0.0473,0 -0.008,0.002 0.004,0.0166 0,0.0236 -0.002,0.005 -0.009,0.007 -0.0118,0.0118 0,0.0315 0.004,-0.004 -0.0118,0.0118 -0.006,0.006 0.006,0.0181 0,0.0236 -0.003,0.003 -0.009,-0.003 -0.0118,0 -0.003,0.003 0.003,0.009 0,0.0118 -0.003,0.003 -0.009,-0.003 -0.0118,0 -0.006,0.006 0.006,0.0181 0,0.0236 -0.003,0.003 -0.009,-0.003 -0.0118,0 -0.006,0.006 0.006,0.0181 0,0.0236 -0.003,0.003 -0.009,-0.003 -0.0118,0 -0.006,0.006 0.006,0.0295 0,0.0354 -0.006,0.006 -0.0181,-0.006 -0.0236,0 -0.006,0.006 0.006,0.0181 0,0.0236 -0.003,0.003 -0.009,-0.003 -0.0118,0 -0.006,0.006 0.006,0.0181 0,0.0236 -0.003,0.003 -0.009,-0.003 -0.0118,0 -0.003,0.003 0.003,0.009 0,0.0118 -0.003,0.003 -0.009,-0.003 -0.0118,0 -0.008,0.008 0.008,0.0158 0,0.0236 -0.003,0.003 -0.009,-0.003 -0.0118,0 -0.006,0.006 0.006,0.0181 0,0.0236 -0.003,0.003 -0.009,-0.003 -0.0118,0 -0.006,0.006 0.006,0.0295 0,0.0354 -0.003,0.003 -0.009,-0.003 -0.0118,0 -0.003,0.003 0,0.008 0,0.0118 0,0.0315 0,0.063 0,0.0945 0,0.004 0,0.008 0,0.0118 0,0.004 -0.003,0.009 0,0.0118 0.003,0.003 0.009,-0.003 0.0118,0 0.006,0.006 -0.006,0.0181 0,0.0236 0.003,0.003 0.009,-0.003 0.0118,0 0.003,0.003 0,0.008 0,0.0118 0.004,0 0.009,-0.003 0.0118,0 0.003,0.003 -0.003,0.009 0,0.0118 0.006,0.006 0.0181,-0.006 0.0236,0 0.006,0.006 -0.006,0.0181 0,0.0236 0.003,0.003 0.0444,-0.003 0.0473,0 0.003,0.003 -0.003,0.009 0,0.0118 0.003,0.003 0.008,0 0.0118,0 0.004,0 0.008,0 0.0118,0 0.0591,0 0.11812,0 0.17717,0 0.003,0 0.035,3.7e-4 0.0354,0 0.003,-0.003 -0.003,-0.009 0,-0.0118 0.003,-0.003 0.009,0.003 0.0118,0 0.003,-0.003 -0.003,-0.009 0,-0.0118 0.006,-0.006 0.0181,0.006 0.0236,0 0.003,-0.003 -0.003,-0.009 0,-0.0118 0.003,-0.003 0.009,0.003 0.0118,0 0.003,-0.003 -0.003,-0.009 0,-0.0118 0.006,-0.006 0.0181,0.006 0.0236,0 0.003,-0.003 0,-0.008 0,-0.0118 0.004,0 0.009,0.003 0.0118,0 0.003,-0.003 0,-0.008 0,-0.0118 0,-0.005 0.002,-0.0318 0,-0.0354 -0.0246,-0.0491 8.2e-4,0.0126 -0.0236,-0.0118 -0.003,-0.003 0.003,-0.009 0,-0.0118 -0.003,-0.003 -0.009,0.003 -0.0118,0 -0.003,-0.003 0.003,-0.009 0,-0.0118 -0.003,-0.003 -0.009,0.003 -0.0118,0 -0.006,-0.006 0.006,-0.018 0,-0.0236 -0.003,-0.003 -0.008,0.002 -0.0118,0 -0.0492,-0.0246 0.0126,8.2e-4 -0.0118,-0.0236 -0.003,-0.003 -0.009,0.003 -0.0118,0 -0.006,-0.006 0.006,-0.0181 0,-0.0236 -0.003,-0.003 -0.009,0.003 -0.0118,0 -0.003,-0.003 0.003,-0.009 0,-0.0118 -0.006,-0.006 -0.0181,0.006 -0.0236,0 -0.003,-0.003 0.002,-0.008 0,-0.0118 -0.005,-0.01 -0.0186,-0.0137 -0.0236,-0.0236 -0.002,-0.004 0.003,-0.009 0,-0.0118 -0.003,-0.003 -0.009,0.003 -0.0118,0 -0.003,-0.003 0.003,-0.009 0,-0.0118 -0.003,-0.003 -0.009,0.003 -0.0118,0 -0.006,-0.006 0.004,-0.0166 0,-0.0236 -0.002,-0.005 -0.009,-0.007 -0.0118,-0.0118 -0.004,-0.007 0.006,-0.0181 0,-0.0236 -0.003,-0.003 -0.009,0.003 -0.0118,0 -0.003,-0.003 0.003,-0.0444 0,-0.0473 -0.003,-0.003 -0.009,0.003 -0.0118,0 -0.006,-0.006 0.006,-0.0181 0,-0.0236 -0.003,-0.003 -0.009,0.003 -0.0118,0 -0.006,-0.006 0.006,-0.0181 0,-0.0236 -0.003,-0.003 -0.009,0.003 -0.0118,0 -0.006,-0.006 0.006,-0.018 0,-0.0236 -0.003,-0.003 -0.008,0 -0.0118,0 -0.0236,0 -0.0473,0 -0.0709,0"
       id="path5458-2-9"
       inkscape:connector-curvature="0" />
    <path
       style="fill:#000000;fill-opacity:1;stroke:#000000;stroke-width:0.26458332px;stroke-linecap:butt;stroke-linejoin:miter;stroke-opacity:1"
       d="m 106.90912,124.1489 c -0.008,0.008 -0.0157,0.0158 -0.0236,0.0236 -0.002,0 -0.004,-0.001 -0.006,0 -0.001,0.001 0.001,0.005 0,0.006 -0.001,0.001 -0.004,-0.001 -0.006,0 -0.001,0.001 0.001,0.005 0,0.006 -0.001,0.001 -0.004,-0.001 -0.006,0 -0.001,0.001 0.001,0.005 0,0.006 -0.001,0.001 -0.004,-8.8e-4 -0.006,0 -0.003,0.001 -0.004,0.004 -0.006,0.006 -0.002,0.002 -0.005,0.003 -0.006,0.006 -8.7e-4,0.002 0.001,0.005 0,0.006 -0.001,0.001 -0.004,-0.001 -0.006,0 -0.001,0.001 0.001,0.005 0,0.006 -0.0122,0.0122 4.8e-4,-0.0187 -0.0118,0.006 -8.7e-4,0.002 0.001,0.005 0,0.006 -0.001,0.001 -0.005,-0.001 -0.006,0 -0.001,0.001 0.001,0.005 0,0.006 -0.001,0.001 -0.005,-0.001 -0.006,0 -0.003,0.003 0.003,0.009 0,0.0118 -0.001,0.001 -0.004,-10e-4 -0.006,0 -0.0143,0.0143 0.0143,-0.002 0,0.0118 -0.001,10e-4 -0.004,-0.001 -0.006,0 -0.001,10e-4 0.001,0.005 0,0.006 -0.001,10e-4 -0.005,-0.001 -0.006,0 -0.001,10e-4 8.8e-4,0.004 0,0.006 -0.001,0.002 -0.005,0.003 -0.006,0.006 -0.002,0.004 0.003,0.009 0,0.0118 -0.001,0.001 -0.004,-0.001 -0.006,0 -0.003,0.003 0.003,0.0148 0,0.0177 -0.001,10e-4 -0.004,-0.001 -0.006,0 -0.001,10e-4 0.001,0.005 0,0.006 -0.001,10e-4 -0.004,-0.001 -0.006,0 -0.001,10e-4 0.001,0.0154 0,0.0177 -0.001,0.002 -0.005,0.003 -0.006,0.006 -0.002,0.003 0.002,0.022 0,0.0236 -0.001,0.001 -0.005,-10e-4 -0.006,0 -0.001,0.001 0,0.004 0,0.006 0,0.01 0,0.0197 0,0.0295 0,0.002 0,0.004 0,0.006 0,0.002 -0.001,0.005 0,0.006 0.001,0.001 0.005,-10e-4 0.006,0 0.001,0.001 -0.001,0.005 0,0.006 0.001,0.001 0.004,-10e-4 0.006,0 0.001,0.001 -0.001,0.005 0,0.006 0.001,0.001 0.004,-10e-4 0.006,0 0.003,0.003 -0.003,0.009 0,0.0118 0.001,10e-4 0.004,-0.001 0.006,0 0.001,10e-4 -0.001,0.005 0,0.006 0.001,10e-4 0.005,-0.001 0.006,0 0.001,10e-4 -0.001,0.005 0,0.006 0.001,10e-4 0.005,-0.001 0.006,0 0.001,10e-4 -0.001,0.005 0,0.006 0.001,10e-4 0.004,-0.001 0.006,0 0.003,0.003 -0.003,0.009 0,0.0118 0.001,0.001 0.004,-0.001 0.006,0 0.003,0.003 -0.003,0.009 0,0.0118 0.001,10e-4 0.005,-0.001 0.006,0 0.001,10e-4 -8.7e-4,0.004 0,0.006 0.001,0.002 0.005,0.003 0.006,0.006 8.8e-4,0.002 -0.001,0.005 0,0.006 0.003,0.003 0.009,-0.003 0.0118,0 0.001,0.001 -0.001,0.005 0,0.006 0.001,0.001 0.004,-10e-4 0.006,0 0.001,0.001 -0.001,0.005 0,0.006 0.001,0.001 0.004,-10e-4 0.006,0 0.001,0.001 -0.001,0.005 0,0.006 0.001,0.001 0.005,-10e-4 0.006,0 0.001,0.001 -0.001,0.005 0,0.006 0.001,0.001 0.005,-10e-4 0.006,0 0.0122,0.0122 -0.0187,-4.8e-4 0.006,0.0118 0.004,0.002 0.009,-0.003 0.0118,0 0.001,0.001 -0.001,0.005 0,0.006 0.003,0.003 0.009,-0.003 0.0118,0 0.001,0.001 -0.001,0.005 0,0.006 0.001,0.001 0.005,-0.001 0.006,0 0.001,0.001 -0.001,0.005 0,0.006 2.4e-4,2.4e-4 0.0215,0 0.0236,0 0.002,0 0.004,0 0.006,0 0.002,0 0.004,-0.001 0.006,0 0.008,0.008 -0.01,0.006 0.006,0.006 0.002,0 0.004,0 0.006,0 0.002,0 0.004,-0.001 0.006,0 0.001,10e-4 -0.001,0.005 0,0.006 0.001,10e-4 0.004,0 0.006,0 0.002,0 0.004,0 0.006,0 0.0138,0 0.0276,0 0.0413,0 0.002,0 0.004,10e-4 0.006,0 0.001,-0.001 -0.001,-0.005 0,-0.006 0.001,-0.001 0.004,8.7e-4 0.006,0 0.002,-0.001 0.003,-0.005 0.006,-0.006 0.002,-0.001 0.0165,10e-4 0.0177,0 0.001,-0.001 -0.001,-0.005 0,-0.006 0.001,-0.001 0.004,0.001 0.006,0 0.001,-0.001 -0.001,-0.005 0,-0.006 0.003,-0.003 0.009,0.003 0.0118,0 0.001,-0.001 -0.001,-0.005 0,-0.006 0.001,-0.001 0.005,0.001 0.006,0 0.001,-0.001 -0.001,-0.005 0,-0.006 0.001,-0.001 0.005,0.001 0.006,0 0.001,-0.001 -0.001,-0.005 0,-0.006 0.001,-0.001 0.004,0.001 0.006,0 0.001,-0.001 -0.001,-0.005 0,-0.006 0.001,-0.001 0.004,0.001 0.006,0 0.001,-0.001 -0.001,-0.005 0,-0.006 0.001,-0.001 0.004,0.001 0.006,0 0.001,-0.001 -8.7e-4,-0.004 0,-0.006 0.001,-0.002 0.005,-0.003 0.006,-0.006 8.7e-4,-0.002 -0.001,-0.005 0,-0.006 0.003,-0.003 0.009,0.003 0.0118,0 0.003,-0.003 -0.003,-0.009 0,-0.0118 0.001,-0.001 0.004,8.7e-4 0.006,0 0.005,-0.002 0.007,-0.009 0.0118,-0.0118 0.002,-8.7e-4 0.005,0.001 0.006,0 0.003,-0.003 -0.003,-0.009 0,-0.0118 0.003,-0.003 0.009,0.003 0.0118,0 0.001,-0.001 -0.001,-0.005 0,-0.006 0.001,-0.001 0.005,10e-4 0.006,0 0.001,-0.001 -0.001,-0.005 0,-0.006 0.001,-0.001 0.004,8.7e-4 0.006,0 0.0246,-0.0123 -0.006,4e-4 0.006,-0.0118 0.001,-10e-4 0.005,0.001 0.006,0 0.001,-10e-4 -0.001,-0.005 0,-0.006 0.001,-10e-4 0.005,0.001 0.006,0 0.001,-10e-4 -0.001,-0.005 0,-0.006 0.001,-10e-4 0.004,0.001 0.006,0 0.001,-10e-4 -8.7e-4,-0.004 0,-0.006 0.002,-0.005 0.009,-0.007 0.0118,-0.0118 8.7e-4,-0.002 -0.001,-0.005 0,-0.006 0.0122,-0.0122 -4.7e-4,0.0187 0.0118,-0.006 8.7e-4,-0.002 -8.7e-4,-0.004 0,-0.006 0.002,-0.005 0.009,-0.007 0.0118,-0.0118 8.7e-4,-0.002 0,-0.004 0,-0.006 0.002,-0.002 0.005,-0.003 0.006,-0.006 8.7e-4,-0.002 -0.001,-0.005 0,-0.006 0.0122,-0.0122 -4.7e-4,0.0187 0.0118,-0.006 8.7e-4,-0.002 -8.7e-4,-0.004 0,-0.006 0.001,-0.002 0.005,-0.003 0.006,-0.006 8.7e-4,-0.002 0,-0.004 0,-0.006 0.002,-0.002 0.005,-0.003 0.006,-0.006 8.8e-4,-0.002 -0.001,-0.005 0,-0.006 0.001,-0.001 0.005,10e-4 0.006,0 0.003,-0.003 -0.002,-0.008 0,-0.0118 0.001,-0.002 0.005,-0.003 0.006,-0.006 8.7e-4,-0.002 -0.001,-0.005 0,-0.006 0.001,-10e-4 0.004,0.001 0.006,0 0.003,-0.003 -0.003,-0.0148 0,-0.0177 0.001,-0.001 0.004,10e-4 0.006,0 0.002,-0.002 -0.002,-0.0277 0,-0.0295 0.001,-10e-4 0.005,0.001 0.006,0 0.001,-10e-4 0,-0.004 0,-0.006 0,-0.002 0,-0.004 0,-0.006 0,-0.0216 0,-0.0433 0,-0.065 0,-0.002 0,-0.004 0,-0.006 0,-0.002 0.001,-0.005 0,-0.006 -0.001,-10e-4 -0.004,0.001 -0.006,0 -0.003,-0.003 0.003,-0.009 0,-0.0118 -0.001,-0.001 -0.004,0.001 -0.006,0 -0.001,-0.001 8.7e-4,-0.004 0,-0.006 -0.0123,-0.0246 4e-4,0.006 -0.0118,-0.006 -0.001,-0.001 0.001,-0.005 0,-0.006 -0.001,-0.001 -0.005,0.001 -0.006,0 -0.001,-0.001 0.001,-0.005 0,-0.006 -0.001,-0.001 -0.0222,0.001 -0.0236,0 -0.001,-0.001 0.001,-0.005 0,-0.006 -0.001,-0.001 -0.004,0 -0.006,0 -0.002,0 -0.004,0 -0.006,0 -0.0295,0 -0.0591,0 -0.0886,0 -0.002,0 -0.0234,2.3e-4 -0.0236,0 -0.001,-0.001 0.001,-0.005 0,-0.006 -0.001,-0.001 -0.004,0 -0.006,0 -0.0118,0 -0.0236,0 -0.0354,0 -0.0157,0 -0.0315,0 -0.0473,0 -0.003,0 -0.0159,-9e-4 -0.0177,0 -0.002,0.001 -0.003,0.005 -0.006,0.006 -0.004,0.002 -0.008,-0.002 -0.0118,0 -0.0246,0.0123 0.006,-4e-4 -0.006,0.0118 -0.003,0.003 -0.009,-0.003 -0.0118,0 -0.0122,0.0122 0.0187,-4.8e-4 -0.006,0.0118 -0.002,8.7e-4 -0.004,-0.001 -0.006,0 -0.003,0.003 0.003,0.009 0,0.0118 -0.001,0.001 -0.004,0 -0.006,0 -0.008,0.002 -0.0183,-2.6e-4 -0.0236,0.006 -0.008,0.009 -0.006,0.0243 -0.0118,0.0354 -4.7e-4,9.8e-4 -0.0161,0 -0.0177,0"
       id="path5460-1-8"
       inkscape:connector-curvature="0" />
    <path
       style="fill:#000000;fill-opacity:1;stroke:#000000;stroke-width:0.26458332px;stroke-linecap:butt;stroke-linejoin:miter;stroke-opacity:1"
       d="m 110.45557,128.94671 c -0.051,0.0322 -0.0472,0.0215 -0.0472,0.0591 0,0.004 0.003,0.009 0,0.0118 -0.0157,0.0157 -0.0118,-0.0197 -0.0118,0.0118 0,0.003 3.7e-4,0.0351 0,0.0354 -0.003,0.003 -0.009,-0.003 -0.0118,0 -0.006,0.006 0.004,0.0166 0,0.0236 -0.002,0.005 -0.009,0.007 -0.0118,0.0118 -0.004,0.007 0.006,0.0181 0,0.0236 -0.003,0.003 -0.009,-0.003 -0.0118,0 -0.006,0.006 0.006,0.0295 0,0.0354 -0.003,0.003 -0.009,-0.003 -0.0118,0 -0.003,0.003 0,0.008 0,0.0118 0,0.004 0,0.008 0,0.0118 0,0.0512 0,0.10237 0,0.15355 0,0.0276 0,0.0551 0,0.0827 0,0.004 -0.003,0.009 0,0.0118 0.003,0.003 0.009,-0.003 0.0118,0 0.006,0.006 -0.006,0.0181 0,0.0236 0.003,0.003 0.009,-0.003 0.0118,0 0.003,0.003 -0.003,0.009 0,0.0118 0.003,0.003 0.009,-0.003 0.0118,0 0.003,0.003 -0.002,0.008 0,0.0118 0.003,0.005 0.009,0.007 0.0118,0.0118 0.002,0.004 -0.003,0.009 0,0.0118 0.006,0.006 0.0181,-0.006 0.0236,0 0.003,0.003 -0.003,0.009 0,0.0118 0.0244,0.0244 -9.6e-4,-0.0373 0.0236,0.0118 0.002,0.004 -0.003,0.009 0,0.0118 0.006,0.006 0.0181,-0.006 0.0236,0 0.003,0.003 -0.003,0.009 0,0.0118 0.006,0.006 0.0295,-0.006 0.0354,0 0.003,0.003 -0.003,0.009 0,0.0118 0.006,0.006 0.0295,-0.006 0.0354,0 0.003,0.003 -0.003,0.009 0,0.0118 0.006,0.006 0.0181,-0.006 0.0236,0 0.003,0.003 -0.003,0.009 0,0.0118 0.003,0.003 0.009,-0.003 0.0118,0 0.003,0.003 -0.003,0.009 0,0.0118 0.003,0.003 0.0444,-0.003 0.0473,0 0.003,0.003 -0.003,0.009 0,0.0118 0.003,0.003 0.008,0 0.0118,0 0.0236,0 0.0473,0 0.0709,0 0.0236,0 0.0473,0 0.0709,0 0.004,0 0.009,0.003 0.0118,0 0.003,-0.003 -0.003,-0.009 0,-0.0118 0.003,-0.003 0.008,0.002 0.0118,0 0.0492,-0.0246 -0.0126,8.2e-4 0.0118,-0.0236 0.003,-0.003 0.009,0.003 0.0118,0 0.006,-0.006 -0.004,-0.0166 0,-0.0236 0.002,-0.005 0.009,-0.007 0.0118,-0.0118 0.002,-0.004 -0.002,-0.008 0,-0.0118 0.0246,-0.0492 -8.2e-4,0.0126 0.0236,-0.0118 0.003,-0.003 -0.003,-0.0444 0,-0.0473 0.003,-0.003 0.009,0.003 0.0118,0 0.003,-0.003 0,-0.008 0,-0.0118 0,-0.0276 0,-0.0551 0,-0.0827 0,-0.004 0,-0.008 0,-0.0118 0,-0.004 0.003,-0.009 0,-0.0118 -0.003,-0.003 -0.008,0.002 -0.0118,0 -0.01,-0.005 -0.0137,-0.0186 -0.0236,-0.0236 -0.0315,0 0.004,0.004 -0.0118,-0.0118 -0.003,-0.003 -0.009,0.003 -0.0118,0 -0.003,-0.003 0.003,-0.009 0,-0.0118 -0.003,-0.003 -0.008,0.002 -0.0118,0 -0.01,-0.005 -0.0137,-0.0186 -0.0236,-0.0236 -0.004,-0.002 -0.009,0.003 -0.0118,0 -0.003,-0.003 0.003,-0.009 0,-0.0118 -0.006,-0.006 -0.0181,0.006 -0.0236,0 -0.003,-0.003 0.003,-0.009 0,-0.0118 -0.003,-0.003 -0.009,0.003 -0.0118,0 -0.003,-0.003 0.003,-0.009 0,-0.0118 -0.003,-0.003 -0.009,0.003 -0.0118,0 -0.003,-0.003 0.003,-0.009 0,-0.0118 -0.006,-0.006 -0.0166,0.004 -0.0236,0 -0.005,-0.002 -0.007,-0.009 -0.0118,-0.0118 -0.007,-0.004 -0.0166,0.004 -0.0236,0 -0.005,-0.002 -0.007,-0.009 -0.0118,-0.0118 -0.003,-0.002 -0.009,0.003 -0.0118,0 -0.003,-0.003 0.003,-0.009 0,-0.0118 -0.006,-0.006 -0.0181,0.006 -0.0236,0 -0.003,-0.003 0.003,-0.009 0,-0.0118 -0.006,-0.006 -0.0181,0.006 -0.0236,0 -0.003,-0.003 0.003,-0.009 0,-0.0118 -0.006,-0.006 -0.0181,0.006 -0.0236,0 -0.003,-0.003 0.003,-0.009 0,-0.0118 -0.003,-0.003 -0.009,0.003 -0.0118,0 -0.003,-0.003 0.002,-0.008 0,-0.0118 -0.002,-0.005 -0.009,-0.007 -0.0118,-0.0118 -0.004,-0.007 0.006,-0.0181 0,-0.0236 -0.003,-0.003 -0.009,0.003 -0.0118,0 -0.006,-0.006 0.006,-0.0181 0,-0.0236 -0.003,-0.003 -0.009,0.003 -0.0118,0 -0.003,-0.003 0.003,-0.009 0,-0.0118 -0.003,-0.003 -0.009,0.003 -0.0118,0 -0.003,-0.003 0.003,-0.009 0,-0.0118 -0.003,-0.003 -0.009,0.003 -0.0118,0 -0.006,-0.006 0.006,-0.018 0,-0.0236 -0.003,-0.003 -0.009,0.003 -0.0118,0 -0.003,-0.003 0.003,-0.009 0,-0.0118 -0.003,-0.003 -0.008,0.002 -0.0118,0 -0.005,-0.002 -0.007,-0.009 -0.0118,-0.0118 -0.007,-0.004 -0.018,0.006 -0.0236,0 -0.003,-0.003 0,-0.008 0,-0.0118 0,-0.004 0,-0.008 0,-0.0118"
       id="path5456-9-6"
       inkscape:connector-curvature="0" />
    <path
       style="fill:#000000;fill-opacity:1;stroke:#000000;stroke-width:0.26458332px;stroke-linecap:butt;stroke-linejoin:miter;stroke-opacity:1"
       d="m 104.34902,123.19897 c -0.0128,0.0511 -0.0118,0.031 -0.0118,0.0591 0,0.004 0.003,0.009 0,0.0118 -0.003,0.003 -0.008,-0.002 -0.0118,0 -0.0492,0.0246 0.0126,-8.2e-4 -0.0118,0.0236 -0.003,0.003 -0.009,-0.003 -0.0118,0 -0.006,0.006 0.006,0.0181 0,0.0236 -0.003,0.003 -0.009,-0.003 -0.0118,0 -0.006,0.006 0.006,0.0181 0,0.0236 -0.003,0.003 -0.009,-0.003 -0.0118,0 -0.003,0.003 0.003,0.009 0,0.0118 -0.003,0.003 -0.009,-0.003 -0.0118,0 -0.006,0.006 0.006,0.0295 0,0.0354 -0.003,0.003 -0.009,-0.003 -0.0118,0 -0.003,0.003 0.002,0.008 0,0.0118 -0.003,0.005 -0.009,0.007 -0.0118,0.0118 -0.003,0.007 0.006,0.0181 0,0.0236 -0.003,0.003 -0.009,-0.003 -0.0118,0 -0.003,0.003 0.003,0.009 0,0.0118 -0.003,0.003 -0.009,-0.003 -0.0118,0 -0.003,0.003 0,0.008 0,0.0118 0,0.004 0,0.008 0,0.0118 0,0.0315 0.004,-0.004 -0.0118,0.0118 -0.006,0.006 0.006,0.0295 0,0.0354 -0.003,0.003 -0.009,-0.003 -0.0118,0 -0.006,0.006 0.006,0.0295 0,0.0354 -0.003,0.003 -0.009,-0.003 -0.0118,0 -0.006,0.006 0.006,0.018 0,0.0236 -0.003,0.003 -0.009,-0.003 -0.0118,0 -0.003,0.003 0,0.008 0,0.0118 0,0.004 0,0.008 0,0.0118 0,0.0354 0,0.0709 0,0.1063 0,0.004 -4.8e-4,0.0468 0,0.0472 0.003,0.003 0.009,-0.003 0.0118,0 0.003,0.003 -0.003,0.009 0,0.0118 0.003,0.003 0.009,-0.003 0.0118,0 0.006,0.006 -0.006,0.0181 0,0.0236 0.003,0.003 0.009,-0.003 0.0118,0 0.006,0.006 -0.006,0.0181 0,0.0236 0.003,0.003 0.009,-0.003 0.0118,0 0.003,0.003 -0.003,0.009 0,0.0118 0.003,0.003 0.009,-0.003 0.0118,0 0.003,0.003 -0.003,0.009 0,0.0118 0.003,0.003 0.009,-0.003 0.0118,0 0.006,0.006 -0.006,0.0181 0,0.0236 0.003,0.003 0.009,-0.003 0.0118,0 0.003,0.003 -0.003,0.009 0,0.0118 0.003,0.003 0.008,0 0.0118,0 0.003,0 0.0351,3.7e-4 0.0354,0 0.0244,-0.0244 -0.0374,9.5e-4 0.0118,-0.0236 0.004,-0.002 0.009,0.003 0.0118,0 0.006,-0.006 -0.006,-0.018 0,-0.0236 0.003,-0.003 0.009,0.003 0.0118,0 0.006,-0.006 -0.006,-0.0181 0,-0.0236 0.003,-0.003 0.009,0.003 0.0118,0 0.003,-0.003 -0.003,-0.0444 0,-0.0473 0.003,-0.003 0.009,0.003 0.0118,0 3.7e-4,-3.7e-4 0,-0.0326 0,-0.0354 0,-0.0315 -0.004,0.004 0.0118,-0.0118 0.004,-0.004 -0.004,-0.0509 0,-0.0591 0.003,-0.005 0.009,-0.007 0.0118,-0.0118 0.002,-0.004 0,-0.0301 0,-0.0354 0,-0.0276 0,-0.0551 0,-0.0827 0,-0.003 3.7e-4,-0.0351 0,-0.0354 -0.003,-0.003 -0.009,0.003 -0.0118,0 -0.003,-0.003 0.003,-0.0408 0,-0.0473 -0.002,-0.005 -0.009,-0.007 -0.0118,-0.0118 -0.002,-0.005 0.002,-0.033 0,-0.0354 -0.003,-0.003 -0.009,0.003 -0.0118,0 -0.006,-0.006 0.006,-0.0295 0,-0.0354 -0.003,-0.003 -0.009,0.003 -0.0118,0 -0.003,-0.003 0.003,-0.009 0,-0.0118 -0.003,-0.003 -0.009,0.003 -0.0118,0 -0.003,-0.003 0,-0.008 0,-0.0118 0,-0.004 0,-0.008 0,-0.0118 0,-0.004 0,-0.008 0,-0.0118 0,-0.004 -0.004,-0.0118 0,-0.0118 0.004,0 0,0.0157 0,0.0118 0,-0.008 0,-0.0157 0,-0.0236 0,-0.0157 0.004,-0.0118 -0.0118,-0.0118"
       id="path5421-3-4"
       inkscape:connector-curvature="0" />
    <path
       style="fill:#000000;fill-opacity:1;stroke:#000000;stroke-width:0.26458332px;stroke-linecap:butt;stroke-linejoin:miter;stroke-opacity:1"
       d="m 102.37341,125.28284 c -0.008,0.008 -0.0158,0.0158 -0.0236,0.0236 -0.002,0 -0.004,-10e-4 -0.006,0 -0.001,0.001 0.001,0.005 0,0.006 -0.001,0.001 -0.005,-10e-4 -0.006,0 -0.001,0.001 0.001,0.005 0,0.006 -0.001,0.001 -0.005,-10e-4 -0.006,0 -0.001,0.001 0.001,0.005 0,0.006 -0.001,0.001 -0.004,-8.8e-4 -0.006,0 -0.002,0.001 -0.004,0.004 -0.006,0.006 -0.002,0.002 -0.005,0.003 -0.006,0.006 -8.7e-4,0.002 0.001,0.005 0,0.006 -0.001,0.001 -0.005,-10e-4 -0.006,0 -0.001,0.001 0.001,0.005 0,0.006 -0.0122,0.0122 4.8e-4,-0.0187 -0.0118,0.006 -8.7e-4,0.002 0.001,0.005 0,0.006 -0.001,0.001 -0.004,-10e-4 -0.006,0 -0.001,0.001 0.001,0.005 0,0.006 -0.001,0.001 -0.004,-10e-4 -0.006,0 -0.003,0.003 0.003,0.009 0,0.0118 -0.001,10e-4 -0.005,-0.001 -0.006,0 -0.0143,0.0143 0.0143,-0.002 0,0.0118 -0.001,0.001 -0.005,-0.001 -0.006,0 -0.001,0.001 0.001,0.005 0,0.006 -0.001,0.001 -0.004,-0.001 -0.006,0 -0.001,0.001 8.7e-4,0.004 0,0.006 -0.001,0.002 -0.005,0.003 -0.006,0.006 -0.002,0.004 0.003,0.009 0,0.0118 -0.001,0.001 -0.004,-10e-4 -0.006,0 -0.003,0.003 0.003,0.0148 0,0.0177 -0.001,0.001 -0.005,-0.001 -0.006,0 -0.001,0.001 0.001,0.005 0,0.006 -0.001,0.001 -0.005,-0.001 -0.006,0 -0.001,0.001 0.001,0.0154 0,0.0177 -0.001,0.002 -0.005,0.003 -0.006,0.006 -0.002,0.003 0.002,0.022 0,0.0236 -0.001,10e-4 -0.004,-0.001 -0.006,0 -0.001,10e-4 0,0.004 0,0.006 0,0.01 0,0.0197 0,0.0295 0,0.002 0,0.004 0,0.006 0,0.002 -0.001,0.005 0,0.006 0.001,10e-4 0.004,-0.001 0.006,0 0.001,10e-4 -0.001,0.005 0,0.006 0.001,10e-4 0.005,-0.001 0.006,0 0.001,10e-4 -0.001,0.005 0,0.006 0.001,10e-4 0.005,-0.001 0.006,0 0.003,0.003 -0.003,0.009 0,0.0118 0.001,0.001 0.004,-0.001 0.006,0 0.001,0.001 -0.001,0.005 0,0.006 0.001,0.001 0.004,-0.001 0.006,0 0.001,0.001 -0.001,0.005 0,0.006 0.001,0.001 0.005,-0.001 0.006,0 0.001,0.001 -0.001,0.005 0,0.006 0.001,0.001 0.005,-0.001 0.006,0 0.003,0.003 -0.003,0.009 0,0.0118 0.001,0.001 0.005,-10e-4 0.006,0 0.003,0.003 -0.003,0.009 0,0.0118 0.001,0.001 0.004,-0.001 0.006,0 0.001,0.001 -8.7e-4,0.004 0,0.006 0.001,0.002 0.005,0.003 0.006,0.006 8.7e-4,0.002 -0.001,0.005 0,0.006 0.003,0.003 0.009,-0.003 0.0118,0 0.001,10e-4 -0.001,0.005 0,0.006 0.001,10e-4 0.005,-0.001 0.006,0 0.001,10e-4 -0.001,0.005 0,0.006 0.001,10e-4 0.004,-0.001 0.006,0 0.001,10e-4 -0.001,0.005 0,0.006 0.001,10e-4 0.004,-0.001 0.006,0 0.001,10e-4 -0.001,0.005 0,0.006 0.001,10e-4 0.004,-0.001 0.006,0 0.0122,0.0122 -0.0187,-4.8e-4 0.006,0.0118 0.004,0.002 0.009,-0.003 0.0118,0 0.001,0.001 -0.001,0.005 0,0.006 0.003,0.003 0.009,-0.003 0.0118,0 0.001,0.001 -0.001,0.005 0,0.006 0.001,0.001 0.004,-0.001 0.006,0 0.001,0.001 -0.001,0.005 0,0.006 2.4e-4,2.4e-4 0.0215,0 0.0236,0 0.002,0 0.004,0 0.006,0 0.002,0 0.005,-0.001 0.006,0 0.008,0.008 -0.01,0.006 0.006,0.006 0.002,0 0.004,0 0.006,0 0.002,0 0.005,-0.001 0.006,0 0.001,0.001 -0.001,0.005 0,0.006 0.001,0.001 0.004,0 0.006,0 0.002,0 0.004,0 0.006,0 0.0138,0 0.0276,0 0.0413,0 0.002,0 0.005,0.001 0.006,0 0.001,-0.001 -0.001,-0.005 0,-0.006 0.001,-0.001 0.004,8.7e-4 0.006,0 0.002,-0.001 0.003,-0.005 0.006,-0.006 0.002,-0.001 0.0165,0.001 0.0177,0 0.001,-0.001 -0.001,-0.005 0,-0.006 0.001,-0.001 0.005,0.001 0.006,0 0.001,-0.001 -0.001,-0.005 0,-0.006 0.003,-0.003 0.009,0.003 0.0118,0 0.001,-10e-4 -0.001,-0.005 0,-0.006 0.001,-10e-4 0.004,0.001 0.006,0 0.001,-10e-4 -0.001,-0.005 0,-0.006 0.001,-10e-4 0.004,0.001 0.006,0 0.001,-10e-4 -0.001,-0.005 0,-0.006 0.001,-10e-4 0.005,0.001 0.006,0 0.001,-10e-4 -0.001,-0.005 0,-0.006 0.001,-10e-4 0.005,0.001 0.006,0 0.001,-10e-4 -0.001,-0.005 0,-0.006 0.001,-10e-4 0.004,0.001 0.006,0 0.001,-10e-4 -8.7e-4,-0.004 0,-0.006 0.001,-0.002 0.005,-0.003 0.006,-0.006 8.7e-4,-0.002 -0.001,-0.005 0,-0.006 0.003,-0.003 0.009,0.003 0.0118,0 0.003,-0.003 -0.003,-0.009 0,-0.0118 0.001,-0.001 0.004,8.7e-4 0.006,0 0.005,-0.002 0.007,-0.009 0.0118,-0.0118 0.002,-8.7e-4 0.004,0.001 0.006,0 0.003,-0.003 -0.003,-0.009 0,-0.0118 0.003,-0.003 0.009,0.003 0.0118,0 0.001,-0.001 -0.001,-0.005 0,-0.006 0.001,-0.001 0.005,0.001 0.006,0 0.001,-0.001 -0.001,-0.005 0,-0.006 0.001,-0.001 0.004,8.7e-4 0.006,0 0.0246,-0.0123 -0.006,4e-4 0.006,-0.0118 0.001,-0.001 0.004,10e-4 0.006,0 0.001,-0.001 -0.001,-0.005 0,-0.006 0.001,-0.001 0.004,10e-4 0.006,0 0.001,-0.001 -0.001,-0.005 0,-0.006 0.001,-0.001 0.005,10e-4 0.006,0 0.001,-0.001 -8.7e-4,-0.004 0,-0.006 0.003,-0.005 0.009,-0.007 0.0118,-0.0118 8.7e-4,-0.002 -0.001,-0.005 0,-0.006 0.0122,-0.0122 -4.8e-4,0.0187 0.0118,-0.006 8.7e-4,-0.002 -8.7e-4,-0.004 0,-0.006 0.002,-0.005 0.009,-0.007 0.0118,-0.0118 8.7e-4,-0.002 0,-0.004 0,-0.006 0.002,-0.002 0.005,-0.003 0.006,-0.006 8.7e-4,-0.002 -0.001,-0.005 0,-0.006 0.0122,-0.0122 -4.8e-4,0.0187 0.0118,-0.006 8.7e-4,-0.002 -8.7e-4,-0.004 0,-0.006 0.001,-0.002 0.005,-0.003 0.006,-0.006 8.7e-4,-0.002 0,-0.004 0,-0.006 0.002,-0.002 0.005,-0.003 0.006,-0.006 8.7e-4,-0.002 -0.001,-0.005 0,-0.006 0.001,-0.001 0.004,0.001 0.006,0 0.003,-0.003 -0.002,-0.008 0,-0.0118 0.001,-0.002 0.005,-0.003 0.006,-0.006 8.7e-4,-0.002 -0.001,-0.005 0,-0.006 0.001,-0.001 0.005,10e-4 0.006,0 0.003,-0.003 -0.003,-0.0148 0,-0.0177 0.001,-0.001 0.004,0.001 0.006,0 0.002,-0.002 -0.002,-0.0277 0,-0.0295 0.001,-0.001 0.004,10e-4 0.006,0 0.001,-0.001 0,-0.004 0,-0.006 0,-0.002 0,-0.004 0,-0.006 0,-0.0216 0,-0.0433 0,-0.065 0,-0.002 0,-0.004 0,-0.006 0,-0.002 0.001,-0.005 0,-0.006 -0.001,-0.001 -0.004,10e-4 -0.006,0 -0.003,-0.003 0.003,-0.009 0,-0.0118 -0.001,-10e-4 -0.005,0.001 -0.006,0 -0.001,-10e-4 8.7e-4,-0.004 0,-0.006 -0.0123,-0.0246 4e-4,0.006 -0.0118,-0.006 -0.001,-10e-4 0.001,-0.005 0,-0.006 -0.001,-10e-4 -0.004,0.001 -0.006,0 -0.001,-10e-4 0.001,-0.005 0,-0.006 -0.001,-10e-4 -0.0222,0.001 -0.0236,0 -0.001,-10e-4 0.001,-0.005 0,-0.006 -0.001,-10e-4 -0.004,0 -0.006,0 -0.002,0 -0.004,0 -0.006,0 -0.0295,0 -0.0591,0 -0.0886,0 -0.002,0 -0.0234,2.3e-4 -0.0236,0 -0.001,-10e-4 0.001,-0.005 0,-0.006 -0.001,-10e-4 -0.004,0 -0.006,0 -0.0118,0 -0.0236,0 -0.0354,0 -0.0157,0 -0.0315,0 -0.0473,0 -0.003,0 -0.0159,-9e-4 -0.0177,0 -0.002,0.001 -0.003,0.005 -0.006,0.006 -0.004,0.002 -0.008,-0.002 -0.0118,0 -0.0246,0.0123 0.006,-4e-4 -0.006,0.0118 -0.003,0.003 -0.009,-0.003 -0.0118,0 -0.0122,0.0122 0.0187,-4.8e-4 -0.006,0.0118 -0.002,8.7e-4 -0.005,-10e-4 -0.006,0 -0.003,0.003 0.003,0.009 0,0.0118 -0.001,10e-4 -0.004,0 -0.006,0 -0.008,0.002 -0.0183,-2.6e-4 -0.0236,0.006 -0.008,0.009 -0.006,0.0243 -0.0118,0.0354 -4.8e-4,9.8e-4 -0.0161,0 -0.0177,0"
       id="path5460-1-8-2"
       inkscape:connector-curvature="0" />
    <path
       style="fill:#000000;fill-opacity:1;stroke:#000000;stroke-width:0.26458332px;stroke-linecap:butt;stroke-linejoin:miter;stroke-opacity:1"
       d="m 103.93256,133.26759 c -0.008,0.008 -0.0157,0.0158 -0.0236,0.0236 -0.002,0 -0.005,-0.001 -0.006,0 -0.001,0.001 0.001,0.005 0,0.006 -0.001,0.001 -0.005,-0.001 -0.006,0 -0.001,0.001 0.001,0.005 0,0.006 -0.001,0.001 -0.004,-0.001 -0.006,0 -0.001,0.001 0.001,0.005 0,0.006 -0.001,0.001 -0.004,-8.8e-4 -0.006,0 -0.002,0.001 -0.004,0.004 -0.006,0.006 -0.002,0.002 -0.005,0.003 -0.006,0.006 -8.7e-4,0.002 0.001,0.005 0,0.006 -0.001,0.001 -0.005,-0.001 -0.006,0 -0.001,0.001 0.001,0.005 0,0.006 -0.0122,0.0122 4.8e-4,-0.0187 -0.0118,0.006 -8.7e-4,0.002 0.001,0.005 0,0.006 -0.001,0.001 -0.004,-0.001 -0.006,0 -0.001,0.001 0.001,0.005 0,0.006 -0.001,0.001 -0.005,-0.001 -0.006,0 -0.003,0.003 0.003,0.009 0,0.0118 -0.001,0.001 -0.005,-0.001 -0.006,0 -0.0143,0.0143 0.0143,-0.002 0,0.0118 -0.001,0.001 -0.005,-10e-4 -0.006,0 -0.001,0.001 0.001,0.005 0,0.006 -0.001,0.001 -0.004,-10e-4 -0.006,0 -0.001,0.001 8.7e-4,0.004 0,0.006 -0.001,0.002 -0.005,0.003 -0.006,0.006 -0.002,0.004 0.003,0.009 0,0.0118 -0.001,10e-4 -0.005,-0.001 -0.006,0 -0.003,0.003 0.003,0.0148 0,0.0177 -0.001,0.001 -0.005,-0.001 -0.006,0 -0.001,0.001 0.001,0.005 0,0.006 -0.001,0.001 -0.004,-0.001 -0.006,0 -0.001,0.001 0.001,0.0154 0,0.0177 -0.001,0.002 -0.005,0.003 -0.006,0.006 -0.002,0.003 0.002,0.022 0,0.0236 -0.001,10e-4 -0.004,-0.001 -0.006,0 -0.001,10e-4 0,0.004 0,0.006 0,0.01 0,0.0197 0,0.0295 0,0.002 0,0.004 0,0.006 0,0.002 -0.001,0.005 0,0.006 0.001,0.001 0.004,-0.001 0.006,0 0.001,0.001 -0.001,0.005 0,0.006 0.001,0.001 0.004,-0.001 0.006,0 0.001,0.001 -0.001,0.005 0,0.006 0.001,0.001 0.005,-0.001 0.006,0 0.003,0.003 -0.003,0.009 0,0.0118 0.001,0.001 0.005,-10e-4 0.006,0 0.001,0.001 -0.001,0.005 0,0.006 0.001,0.001 0.004,-0.001 0.006,0 0.001,0.001 -0.001,0.005 0,0.006 0.001,0.001 0.004,-0.001 0.006,0 0.001,0.001 -0.001,0.005 0,0.006 0.001,0.001 0.005,-0.001 0.006,0 0.003,0.003 -0.003,0.009 0,0.0118 0.001,10e-4 0.005,-0.001 0.006,0 0.003,0.003 -0.003,0.009 0,0.0118 0.001,0.001 0.004,-0.001 0.006,0 0.001,0.001 -8.7e-4,0.004 0,0.006 0.001,0.002 0.005,0.003 0.006,0.006 8.7e-4,0.002 -0.001,0.005 0,0.006 0.003,0.003 0.009,-0.003 0.0118,0 0.001,0.001 -0.001,0.005 0,0.006 0.001,0.001 0.005,-0.001 0.006,0 0.001,0.001 -0.001,0.005 0,0.006 0.001,0.001 0.005,-0.001 0.006,0 0.001,0.001 -0.001,0.005 0,0.006 0.001,0.001 0.004,-0.001 0.006,0 0.001,0.001 -0.001,0.005 0,0.006 0.001,0.001 0.004,-0.001 0.006,0 0.0122,0.0122 -0.0187,-4.8e-4 0.006,0.0118 0.004,0.002 0.009,-0.003 0.0118,0 0.001,0.001 -0.001,0.005 0,0.006 0.003,0.003 0.009,-0.003 0.0118,0 0.001,0.001 -0.001,0.005 0,0.006 0.001,0.001 0.004,-0.001 0.006,0 0.001,0.001 -0.001,0.005 0,0.006 2.4e-4,2.4e-4 0.0215,0 0.0236,0 0.002,0 0.004,0 0.006,0 0.002,0 0.005,-0.001 0.006,0 0.008,0.008 -0.01,0.006 0.006,0.006 0.002,0 0.004,0 0.006,0 0.002,0 0.004,-0.001 0.006,0 0.001,0.001 -0.001,0.005 0,0.006 0.001,0.001 0.004,0 0.006,0 0.002,0 0.004,0 0.006,0 0.0138,0 0.0276,0 0.0413,0 0.002,0 0.005,0.001 0.006,0 0.001,-0.001 -0.001,-0.005 0,-0.006 0.001,-0.001 0.004,8.7e-4 0.006,0 0.002,-0.001 0.003,-0.005 0.006,-0.006 0.002,-0.001 0.0165,0.001 0.0177,0 0.001,-0.001 -0.001,-0.005 0,-0.006 0.001,-0.001 0.005,0.001 0.006,0 0.001,-0.001 -0.001,-0.005 0,-0.006 0.003,-0.003 0.009,0.003 0.0118,0 0.001,-0.001 -0.001,-0.005 0,-0.006 0.001,-0.001 0.004,0.001 0.006,0 0.001,-0.001 -0.001,-0.005 0,-0.006 0.001,-0.001 0.004,0.001 0.006,0 0.001,-0.001 -0.001,-0.005 0,-0.006 0.001,-0.001 0.004,0.001 0.006,0 0.001,-0.001 -0.001,-0.005 0,-0.006 0.001,-0.001 0.005,0.001 0.006,0 0.001,-0.001 -0.001,-0.005 0,-0.006 0.001,-0.001 0.005,0.001 0.006,0 0.001,-0.001 -8.7e-4,-0.004 0,-0.006 0.001,-0.002 0.005,-0.003 0.006,-0.006 8.7e-4,-0.002 -0.001,-0.005 0,-0.006 0.003,-0.003 0.009,0.003 0.0118,0 0.003,-0.003 -0.003,-0.009 0,-0.0118 0.001,-0.001 0.004,8.7e-4 0.006,0 0.005,-0.002 0.007,-0.009 0.0118,-0.0118 0.002,-8.8e-4 0.005,10e-4 0.006,0 0.003,-0.003 -0.003,-0.009 0,-0.0118 0.003,-0.003 0.009,0.003 0.0118,0 0.001,-0.001 -0.001,-0.005 0,-0.006 0.001,-0.001 0.004,0.001 0.006,0 0.001,-0.001 -0.001,-0.005 0,-0.006 0.001,-0.001 0.004,8.7e-4 0.006,0 0.0246,-0.0123 -0.006,3.9e-4 0.006,-0.0118 0.001,-0.001 0.004,0.001 0.006,0 0.001,-0.001 -0.001,-0.005 0,-0.006 0.001,-0.001 0.004,0.001 0.006,0 0.001,-0.001 -0.001,-0.005 0,-0.006 0.001,-0.001 0.004,0.001 0.006,0 0.001,-0.001 -8.7e-4,-0.004 0,-0.006 0.002,-0.005 0.009,-0.007 0.0118,-0.0118 8.7e-4,-0.002 -0.001,-0.005 0,-0.006 0.0122,-0.0122 -4.8e-4,0.0187 0.0118,-0.006 8.7e-4,-0.002 -8.7e-4,-0.004 0,-0.006 0.002,-0.005 0.009,-0.007 0.0118,-0.0118 8.7e-4,-0.002 0,-0.004 0,-0.006 0.002,-0.002 0.005,-0.003 0.006,-0.006 8.7e-4,-0.002 -0.001,-0.005 0,-0.006 0.0122,-0.0122 -4.8e-4,0.0187 0.0118,-0.006 8.7e-4,-0.002 -8.7e-4,-0.004 0,-0.006 0.001,-0.002 0.005,-0.003 0.006,-0.006 8.7e-4,-0.002 0,-0.004 0,-0.006 0.002,-0.002 0.005,-0.003 0.006,-0.006 8.7e-4,-0.002 -0.001,-0.005 0,-0.006 0.001,-0.001 0.004,0.001 0.006,0 0.003,-0.003 -0.002,-0.008 0,-0.0118 0.001,-0.002 0.005,-0.003 0.006,-0.006 8.7e-4,-0.002 -0.001,-0.005 0,-0.006 0.001,-0.001 0.005,10e-4 0.006,0 0.003,-0.003 -0.003,-0.0148 0,-0.0177 0.001,-0.001 0.005,0.001 0.006,0 0.002,-0.002 -0.002,-0.0277 0,-0.0295 0.001,-0.001 0.004,0.001 0.006,0 0.001,-0.001 0,-0.004 0,-0.006 0,-0.002 0,-0.004 0,-0.006 0,-0.0216 0,-0.0433 0,-0.065 0,-0.002 0,-0.004 0,-0.006 0,-0.002 0.001,-0.005 0,-0.006 -0.001,-0.001 -0.005,0.001 -0.006,0 -0.003,-0.003 0.003,-0.009 0,-0.0118 -0.001,-10e-4 -0.005,0.001 -0.006,0 -0.001,-10e-4 8.7e-4,-0.004 0,-0.006 -0.0123,-0.0246 4e-4,0.006 -0.0118,-0.006 -0.001,-10e-4 0.001,-0.005 0,-0.006 -0.001,-10e-4 -0.004,0.001 -0.006,0 -0.001,-10e-4 0.001,-0.005 0,-0.006 -0.001,-10e-4 -0.0222,0.001 -0.0236,0 -0.001,-10e-4 0.001,-0.005 0,-0.006 -0.001,-10e-4 -0.004,0 -0.006,0 -0.002,0 -0.004,0 -0.006,0 -0.0295,0 -0.0591,0 -0.0886,0 -0.002,0 -0.0234,2.3e-4 -0.0236,0 -0.001,-10e-4 0.001,-0.005 0,-0.006 -0.001,-0.001 -0.004,0 -0.006,0 -0.0118,0 -0.0236,0 -0.0354,0 -0.0158,0 -0.0315,0 -0.0473,0 -0.003,0 -0.0159,-9e-4 -0.0177,0 -0.002,10e-4 -0.003,0.005 -0.006,0.006 -0.004,0.002 -0.008,-0.002 -0.0118,0 -0.0246,0.0123 0.006,-4e-4 -0.006,0.0118 -0.003,0.003 -0.009,-0.003 -0.0118,0 -0.0122,0.0122 0.0187,-4.8e-4 -0.006,0.0118 -0.002,8.7e-4 -0.005,-0.001 -0.006,0 -0.003,0.003 0.003,0.009 0,0.0118 -0.001,0.001 -0.004,0 -0.006,0 -0.008,0.002 -0.0183,-2.7e-4 -0.0236,0.006 -0.008,0.009 -0.006,0.0243 -0.0118,0.0354 -4.8e-4,9.7e-4 -0.0161,0 -0.0177,0"
       id="path5460-1-8-0"
       inkscape:connector-curvature="0" />
    <path
       style="fill:#000000;fill-opacity:1;stroke:#000000;stroke-width:0.26458332px;stroke-linecap:butt;stroke-linejoin:miter;stroke-opacity:1"
       d="m 105.71918,118.75775 c -0.0128,0.0511 -0.0118,0.031 -0.0118,0.0591 0,0.004 0.003,0.009 0,0.0118 -0.003,0.003 -0.008,-0.002 -0.0118,0 -0.0492,0.0246 0.0126,-8.2e-4 -0.0118,0.0236 -0.003,0.003 -0.009,-0.003 -0.0118,0 -0.006,0.006 0.006,0.0181 0,0.0236 -0.003,0.003 -0.009,-0.003 -0.0118,0 -0.006,0.006 0.006,0.0181 0,0.0236 -0.003,0.003 -0.009,-0.003 -0.0118,0 -0.003,0.003 0.003,0.009 0,0.0118 -0.003,0.003 -0.009,-0.003 -0.0118,0 -0.006,0.006 0.006,0.0295 0,0.0354 -0.003,0.003 -0.009,-0.003 -0.0118,0 -0.003,0.003 0.002,0.008 0,0.0118 -0.002,0.005 -0.009,0.007 -0.0118,0.0118 -0.003,0.007 0.006,0.0181 0,0.0236 -0.003,0.003 -0.009,-0.003 -0.0118,0 -0.003,0.003 0.003,0.009 0,0.0118 -0.003,0.003 -0.009,-0.003 -0.0118,0 -0.003,0.003 0,0.008 0,0.0118 0,0.004 0,0.008 0,0.0118 0,0.0315 0.004,-0.004 -0.0118,0.0118 -0.006,0.006 0.006,0.0295 0,0.0354 -0.003,0.003 -0.009,-0.003 -0.0118,0 -0.006,0.006 0.006,0.0295 0,0.0354 -0.003,0.003 -0.009,-0.003 -0.0118,0 -0.006,0.006 0.006,0.018 0,0.0236 -0.003,0.003 -0.009,-0.003 -0.0118,0 -0.003,0.003 0,0.008 0,0.0118 0,0.004 0,0.008 0,0.0118 0,0.0354 0,0.0709 0,0.1063 0,0.004 -4.7e-4,0.0468 0,0.0472 0.003,0.003 0.009,-0.003 0.0118,0 0.003,0.003 -0.003,0.009 0,0.0118 0.003,0.003 0.009,-0.003 0.0118,0 0.006,0.006 -0.006,0.0181 0,0.0236 0.003,0.003 0.009,-0.003 0.0118,0 0.006,0.006 -0.006,0.0181 0,0.0236 0.003,0.003 0.009,-0.003 0.0118,0 0.003,0.003 -0.003,0.009 0,0.0118 0.003,0.003 0.009,-0.003 0.0118,0 0.003,0.003 -0.003,0.009 0,0.0118 0.003,0.003 0.009,-0.003 0.0118,0 0.006,0.006 -0.006,0.0181 0,0.0236 0.003,0.003 0.009,-0.003 0.0118,0 0.003,0.003 -0.003,0.009 0,0.0118 0.003,0.003 0.008,0 0.0118,0 0.003,0 0.035,3.7e-4 0.0354,0 0.0244,-0.0244 -0.0374,9.5e-4 0.0118,-0.0236 0.004,-0.002 0.009,0.003 0.0118,0 0.006,-0.006 -0.006,-0.018 0,-0.0236 0.003,-0.003 0.009,0.003 0.0118,0 0.006,-0.006 -0.006,-0.0181 0,-0.0236 0.003,-0.003 0.009,0.003 0.0118,0 0.003,-0.003 -0.003,-0.0444 0,-0.0473 0.003,-0.003 0.009,0.003 0.0118,0 3.7e-4,-3.7e-4 0,-0.0326 0,-0.0354 0,-0.0315 -0.004,0.004 0.0118,-0.0118 0.004,-0.004 -0.004,-0.0509 0,-0.0591 0.002,-0.005 0.009,-0.007 0.0118,-0.0118 0.002,-0.004 0,-0.0301 0,-0.0354 0,-0.0276 0,-0.0551 0,-0.0827 0,-0.003 3.7e-4,-0.0351 0,-0.0354 -0.003,-0.003 -0.009,0.003 -0.0118,0 -0.003,-0.003 0.003,-0.0408 0,-0.0473 -0.002,-0.005 -0.009,-0.007 -0.0118,-0.0118 -0.002,-0.005 0.002,-0.033 0,-0.0354 -0.003,-0.003 -0.009,0.003 -0.0118,0 -0.006,-0.006 0.006,-0.0295 0,-0.0354 -0.003,-0.003 -0.009,0.003 -0.0118,0 -0.003,-0.003 0.003,-0.009 0,-0.0118 -0.003,-0.003 -0.009,0.003 -0.0118,0 -0.003,-0.003 0,-0.008 0,-0.0118 0,-0.004 0,-0.008 0,-0.0118 0,-0.004 0,-0.008 0,-0.0118 0,-0.004 -0.004,-0.0118 0,-0.0118 0.004,0 0,0.0157 0,0.0118 0,-0.008 0,-0.0157 0,-0.0236 0,-0.0157 0.004,-0.0118 -0.0118,-0.0118"
       id="path5421-8-3"
       inkscape:connector-curvature="0" />
    <path
       style="fill:#000000;fill-opacity:1;stroke:#000000;stroke-width:0.26458332px;stroke-linecap:butt;stroke-linejoin:miter;stroke-opacity:1"
       d="m 98.313076,132.58473 c -0.05104,0.0322 -0.04725,0.0215 -0.04725,0.0591 0,0.004 0.0028,0.009 0,0.0118 -0.01575,0.0157 -0.01181,-0.0197 -0.01181,0.0118 0,0.003 3.7e-4,0.0351 0,0.0354 -0.0028,0.003 -0.009,-0.003 -0.01181,0 -0.0056,0.006 0.0035,0.0166 0,0.0236 -0.0025,0.005 -0.0093,0.007 -0.01181,0.0118 -0.0035,0.007 0.0056,0.0181 0,0.0236 -0.0028,0.003 -0.009,-0.003 -0.01181,0 -0.0059,0.006 0.0059,0.0295 0,0.0354 -0.0028,0.003 -0.009,-0.003 -0.01181,0 -0.0028,0.003 0,0.008 0,0.0118 0,0.004 0,0.008 0,0.0118 0,0.0512 0,0.10237 0,0.15355 0,0.0276 0,0.0551 0,0.0827 0,0.004 -0.0028,0.009 0,0.0118 0.0028,0.003 0.009,-0.003 0.01181,0 0.0056,0.006 -0.0056,0.0181 0,0.0236 0.0028,0.003 0.009,-0.003 0.01181,0 0.0028,0.003 -0.0028,0.009 0,0.0118 0.0028,0.003 0.009,-0.003 0.01181,0 0.0028,0.003 -0.0018,0.008 0,0.0118 0.0025,0.005 0.0093,0.007 0.01181,0.0118 0.0018,0.004 -0.0028,0.009 0,0.0118 0.0056,0.006 0.01805,-0.006 0.02362,0 0.0028,0.003 -0.0028,0.009 0,0.0118 0.02444,0.0244 -9.53e-4,-0.0373 0.02363,0.0118 0.0018,0.004 -0.0028,0.009 0,0.0118 0.0056,0.006 0.01805,-0.006 0.02363,0 0.0028,0.003 -0.0028,0.009 0,0.0118 0.0059,0.006 0.02953,-0.006 0.03543,0 0.0028,0.003 -0.0028,0.009 0,0.0118 0.0059,0.006 0.02953,-0.006 0.03543,0 0.0028,0.003 -0.0028,0.009 0,0.0118 0.0056,0.006 0.01805,-0.006 0.02362,0 0.0028,0.003 -0.0028,0.009 0,0.0118 0.0028,0.003 0.009,-0.003 0.01181,0 0.0028,0.003 -0.0028,0.009 0,0.0118 0.0028,0.003 0.0444,-0.003 0.04725,0 0.0028,0.003 -0.0028,0.009 0,0.0118 0.0028,0.003 0.0079,0 0.01181,0 0.02363,0 0.04725,0 0.07087,0 0.02363,0 0.04725,0 0.07087,0 0.0039,0 0.009,0.003 0.01181,0 0.0028,-0.003 -0.0028,-0.009 0,-0.0118 0.0028,-0.003 0.0083,0.002 0.01181,0 0.04916,-0.0246 -0.01263,8.2e-4 0.01181,-0.0236 0.0028,-0.003 0.009,0.003 0.01181,0 0.0056,-0.006 -0.0035,-0.0166 0,-0.0236 0.0025,-0.005 0.0093,-0.007 0.01181,-0.0118 0.0018,-0.004 -0.0018,-0.008 0,-0.0118 0.02458,-0.0492 -8.2e-4,0.0126 0.02363,-0.0118 0.0028,-0.003 -0.0028,-0.0444 0,-0.0473 0.0028,-0.003 0.009,0.003 0.01181,0 0.0028,-0.003 0,-0.008 0,-0.0118 0,-0.0276 0,-0.0551 0,-0.0827 0,-0.004 0,-0.008 0,-0.0118 0,-0.004 0.0028,-0.009 0,-0.0118 -0.0028,-0.003 -0.0083,0.002 -0.01181,0 -0.01,-0.005 -0.01366,-0.0186 -0.02363,-0.0236 -0.0315,0 0.0039,0.004 -0.01181,-0.0118 -0.0028,-0.003 -0.009,0.003 -0.01181,0 -0.0028,-0.003 0.0028,-0.009 0,-0.0118 -0.0028,-0.003 -0.0083,0.002 -0.01181,0 -0.01,-0.005 -0.01366,-0.0186 -0.02363,-0.0236 -0.0035,-0.002 -0.009,0.003 -0.01181,0 -0.0028,-0.003 0.0028,-0.009 0,-0.0118 -0.0056,-0.006 -0.01805,0.006 -0.02362,0 -0.0028,-0.003 0.0028,-0.009 0,-0.0118 -0.0028,-0.003 -0.009,0.003 -0.01181,0 -0.0028,-0.003 0.0028,-0.009 0,-0.0118 -0.0028,-0.003 -0.009,0.003 -0.01181,0 -0.0028,-0.003 0.0028,-0.009 0,-0.0118 -0.0056,-0.006 -0.01658,0.004 -0.02362,0 -0.005,-0.002 -0.0068,-0.009 -0.01181,-0.0118 -0.007,-0.004 -0.01658,0.004 -0.02363,0 -0.005,-0.002 -0.0068,-0.009 -0.01181,-0.0118 -0.0035,-0.002 -0.009,0.003 -0.01181,0 -0.0028,-0.003 0.0028,-0.009 0,-0.0118 -0.0056,-0.006 -0.01806,0.006 -0.02363,0 -0.0028,-0.003 0.0028,-0.009 0,-0.0118 -0.0056,-0.006 -0.01805,0.006 -0.02363,0 -0.0028,-0.003 0.0028,-0.009 0,-0.0118 -0.0056,-0.006 -0.01805,0.006 -0.02362,0 -0.0028,-0.003 0.0028,-0.009 0,-0.0118 -0.0028,-0.003 -0.009,0.003 -0.01181,0 -0.0028,-0.003 0.0018,-0.008 0,-0.0118 -0.0025,-0.005 -0.0093,-0.007 -0.01181,-0.0118 -0.0035,-0.007 0.0056,-0.0181 0,-0.0236 -0.0028,-0.003 -0.009,0.003 -0.01181,0 -0.0056,-0.006 0.0056,-0.0181 0,-0.0236 -0.0028,-0.003 -0.009,0.003 -0.01181,0 -0.0028,-0.003 0.0028,-0.009 0,-0.0118 -0.0028,-0.003 -0.009,0.003 -0.01181,0 -0.0028,-0.003 0.0028,-0.009 0,-0.0118 -0.0028,-0.003 -0.009,0.003 -0.01181,0 -0.0056,-0.006 0.0056,-0.018 0,-0.0236 -0.0028,-0.003 -0.009,0.003 -0.01181,0 -0.0028,-0.003 0.0028,-0.009 0,-0.0118 -0.0028,-0.003 -0.0083,0.002 -0.01181,0 -0.005,-0.002 -0.0068,-0.009 -0.01181,-0.0118 -0.007,-0.004 -0.01806,0.006 -0.02363,0 -0.0028,-0.003 0,-0.008 0,-0.0118 0,-0.004 0,-0.008 0,-0.0118"
       id="path5456-4"
       inkscape:connector-curvature="0" />
    <path
       style="fill:#000000;fill-opacity:1;stroke:#000000;stroke-width:0.26458332px;stroke-linecap:butt;stroke-linejoin:miter;stroke-opacity:1"
       d="m 107.49081,132.10081 c -0.0157,0 -0.032,-0.004 -0.0472,0 -0.008,0.002 0.004,0.0166 0,0.0236 -0.002,0.005 -0.009,0.007 -0.0118,0.0118 0,0.0315 0.004,-0.004 -0.0118,0.0118 -0.006,0.006 0.006,0.0181 0,0.0236 -0.003,0.003 -0.009,-0.003 -0.0118,0 -0.003,0.003 0.003,0.009 0,0.0118 -0.003,0.003 -0.009,-0.003 -0.0118,0 -0.006,0.006 0.006,0.0181 0,0.0236 -0.003,0.003 -0.009,-0.003 -0.0118,0 -0.006,0.006 0.006,0.0181 0,0.0236 -0.003,0.003 -0.009,-0.003 -0.0118,0 -0.006,0.006 0.006,0.0295 0,0.0354 -0.006,0.006 -0.0181,-0.006 -0.0236,0 -0.006,0.006 0.006,0.0181 0,0.0236 -0.003,0.003 -0.009,-0.003 -0.0118,0 -0.006,0.006 0.006,0.0181 0,0.0236 -0.003,0.003 -0.009,-0.003 -0.0118,0 -0.003,0.003 0.003,0.009 0,0.0118 -0.003,0.003 -0.009,-0.003 -0.0118,0 -0.008,0.008 0.008,0.0158 0,0.0236 -0.003,0.003 -0.009,-0.003 -0.0118,0 -0.006,0.006 0.006,0.0181 0,0.0236 -0.003,0.003 -0.009,-0.003 -0.0118,0 -0.006,0.006 0.006,0.0295 0,0.0354 -0.003,0.003 -0.009,-0.003 -0.0118,0 -0.003,0.003 0,0.008 0,0.0118 0,0.0315 0,0.063 0,0.0945 0,0.004 0,0.008 0,0.0118 0,0.004 -0.003,0.009 0,0.0118 0.003,0.003 0.009,-0.003 0.0118,0 0.006,0.006 -0.006,0.0181 0,0.0236 0.003,0.003 0.009,-0.003 0.0118,0 0.003,0.003 0,0.008 0,0.0118 0.004,0 0.009,-0.003 0.0118,0 0.003,0.003 -0.003,0.009 0,0.0118 0.006,0.006 0.0181,-0.006 0.0236,0 0.006,0.006 -0.006,0.0181 0,0.0236 0.003,0.003 0.0444,-0.003 0.0472,0 0.003,0.003 -0.003,0.009 0,0.0118 0.003,0.003 0.008,0 0.0118,0 0.004,0 0.008,0 0.0118,0 0.0591,0 0.11811,0 0.17717,0 0.003,0 0.035,3.7e-4 0.0354,0 0.003,-0.003 -0.003,-0.009 0,-0.0118 0.003,-0.003 0.009,0.003 0.0118,0 0.003,-0.003 -0.003,-0.009 0,-0.0118 0.006,-0.006 0.0181,0.006 0.0236,0 0.003,-0.003 -0.003,-0.009 0,-0.0118 0.003,-0.003 0.009,0.003 0.0118,0 0.003,-0.003 -0.003,-0.009 0,-0.0118 0.006,-0.006 0.0181,0.006 0.0236,0 0.003,-0.003 0,-0.008 0,-0.0118 0.004,0 0.009,0.003 0.0118,0 0.003,-0.003 0,-0.008 0,-0.0118 0,-0.005 0.002,-0.0318 0,-0.0354 -0.0246,-0.0491 8.2e-4,0.0126 -0.0236,-0.0118 -0.003,-0.003 0.003,-0.009 0,-0.0118 -0.003,-0.003 -0.009,0.003 -0.0118,0 -0.003,-0.003 0.003,-0.009 0,-0.0118 -0.003,-0.003 -0.009,0.003 -0.0118,0 -0.006,-0.006 0.006,-0.018 0,-0.0236 -0.003,-0.003 -0.008,0.002 -0.0118,0 -0.0492,-0.0246 0.0126,8.2e-4 -0.0118,-0.0236 -0.003,-0.003 -0.009,0.003 -0.0118,0 -0.006,-0.006 0.006,-0.0181 0,-0.0236 -0.003,-0.003 -0.009,0.003 -0.0118,0 -0.003,-0.003 0.003,-0.009 0,-0.0118 -0.006,-0.006 -0.0181,0.006 -0.0236,0 -0.003,-0.003 0.002,-0.008 0,-0.0118 -0.005,-0.01 -0.0186,-0.0137 -0.0236,-0.0236 -0.002,-0.004 0.003,-0.009 0,-0.0118 -0.003,-0.003 -0.009,0.003 -0.0118,0 -0.003,-0.003 0.003,-0.009 0,-0.0118 -0.003,-0.003 -0.009,0.003 -0.0118,0 -0.006,-0.006 0.004,-0.0166 0,-0.0236 -0.002,-0.005 -0.009,-0.007 -0.0118,-0.0118 -0.004,-0.007 0.006,-0.0181 0,-0.0236 -0.003,-0.003 -0.009,0.003 -0.0118,0 -0.003,-0.003 0.003,-0.0444 0,-0.0473 -0.003,-0.003 -0.009,0.003 -0.0118,0 -0.006,-0.006 0.006,-0.0181 0,-0.0236 -0.003,-0.003 -0.009,0.003 -0.0118,0 -0.006,-0.006 0.006,-0.0181 0,-0.0236 -0.003,-0.003 -0.009,0.003 -0.0118,0 -0.006,-0.006 0.006,-0.018 0,-0.0236 -0.003,-0.003 -0.008,0 -0.0118,0 -0.0236,0 -0.0472,0 -0.0709,0"
       id="path5458-2-6"
       inkscape:connector-curvature="0" />
    <path
       style="fill:#000000;fill-opacity:1;stroke:#000000;stroke-width:0.26458332px;stroke-linecap:butt;stroke-linejoin:miter;stroke-opacity:1"
       d="m 111.76681,132.79011 c -0.0128,0.0511 -0.0118,0.031 -0.0118,0.0591 0,0.004 0.003,0.009 0,0.0118 -0.003,0.003 -0.008,-0.002 -0.0118,0 -0.0492,0.0246 0.0126,-8.2e-4 -0.0118,0.0236 -0.003,0.003 -0.009,-0.003 -0.0118,0 -0.006,0.006 0.006,0.0181 0,0.0236 -0.003,0.003 -0.009,-0.003 -0.0118,0 -0.006,0.006 0.006,0.0181 0,0.0236 -0.003,0.003 -0.009,-0.003 -0.0118,0 -0.003,0.003 0.003,0.009 0,0.0118 -0.003,0.003 -0.009,-0.003 -0.0118,0 -0.006,0.006 0.006,0.0295 0,0.0354 -0.003,0.003 -0.009,-0.003 -0.0118,0 -0.003,0.003 0.002,0.008 0,0.0118 -0.002,0.005 -0.009,0.007 -0.0118,0.0118 -0.004,0.007 0.006,0.0181 0,0.0236 -0.003,0.003 -0.009,-0.003 -0.0118,0 -0.003,0.003 0.003,0.009 0,0.0118 -0.003,0.003 -0.009,-0.003 -0.0118,0 -0.003,0.003 0,0.008 0,0.0118 0,0.004 0,0.008 0,0.0118 0,0.0315 0.004,-0.004 -0.0118,0.0118 -0.006,0.006 0.006,0.0295 0,0.0354 -0.003,0.003 -0.009,-0.003 -0.0118,0 -0.006,0.006 0.006,0.0295 0,0.0354 -0.003,0.003 -0.009,-0.003 -0.0118,0 -0.006,0.006 0.006,0.018 0,0.0236 -0.003,0.003 -0.009,-0.003 -0.0118,0 -0.003,0.003 0,0.008 0,0.0118 0,0.004 0,0.008 0,0.0118 0,0.0354 0,0.0709 0,0.1063 0,0.004 -4.8e-4,0.0468 0,0.0472 0.003,0.003 0.009,-0.003 0.0118,0 0.003,0.003 -0.003,0.009 0,0.0118 0.003,0.003 0.009,-0.003 0.0118,0 0.006,0.006 -0.006,0.0181 0,0.0236 0.003,0.003 0.009,-0.003 0.0118,0 0.006,0.006 -0.006,0.0181 0,0.0236 0.003,0.003 0.009,-0.003 0.0118,0 0.003,0.003 -0.003,0.009 0,0.0118 0.003,0.003 0.009,-0.003 0.0118,0 0.003,0.003 -0.003,0.009 0,0.0118 0.003,0.003 0.009,-0.003 0.0118,0 0.006,0.006 -0.006,0.0181 0,0.0236 0.003,0.003 0.009,-0.003 0.0118,0 0.003,0.003 -0.003,0.009 0,0.0118 0.003,0.003 0.008,0 0.0118,0 0.003,0 0.035,3.7e-4 0.0354,0 0.0244,-0.0244 -0.0374,9.5e-4 0.0118,-0.0236 0.004,-0.002 0.009,0.003 0.0118,0 0.006,-0.006 -0.006,-0.018 0,-0.0236 0.003,-0.003 0.009,0.003 0.0118,0 0.006,-0.006 -0.006,-0.0181 0,-0.0236 0.003,-0.003 0.009,0.003 0.0118,0 0.003,-0.003 -0.003,-0.0444 0,-0.0473 0.003,-0.003 0.009,0.003 0.0118,0 3.7e-4,-3.8e-4 0,-0.0326 0,-0.0354 0,-0.0315 -0.004,0.004 0.0118,-0.0118 0.004,-0.004 -0.004,-0.0509 0,-0.0591 0.002,-0.005 0.009,-0.007 0.0118,-0.0118 0.002,-0.004 0,-0.0301 0,-0.0354 0,-0.0276 0,-0.0551 0,-0.0827 0,-0.003 3.8e-4,-0.0351 0,-0.0354 -0.003,-0.003 -0.009,0.003 -0.0118,0 -0.003,-0.003 0.003,-0.0408 0,-0.0473 -0.002,-0.005 -0.009,-0.007 -0.0118,-0.0118 -0.002,-0.005 0.002,-0.033 0,-0.0354 -0.003,-0.003 -0.009,0.003 -0.0118,0 -0.006,-0.006 0.006,-0.0295 0,-0.0354 -0.003,-0.003 -0.009,0.003 -0.0118,0 -0.003,-0.003 0.003,-0.009 0,-0.0118 -0.003,-0.003 -0.009,0.003 -0.0118,0 -0.003,-0.003 0,-0.008 0,-0.0118 0,-0.004 0,-0.008 0,-0.0118 0,-0.004 0,-0.008 0,-0.0118 0,-0.004 -0.004,-0.0118 0,-0.0118 0.004,0 0,0.0157 0,0.0118 0,-0.008 0,-0.0157 0,-0.0236 0,-0.0157 0.004,-0.0118 -0.0118,-0.0118"
       id="path5421-76"
       inkscape:connector-curvature="0" />
    <rect
       style="fill:#000000;fill-opacity:1;stroke:#000000;stroke-width:0.23548858;stroke-opacity:1"
       id="rect5790"
       width="5.0528059"
       height="1.7180464"
       x="106.98827"
       y="137.74263"
       ry="0.85902321" />
    <path
       style="fill:none;stroke:#000000;stroke-width:0.26458332px;stroke-linecap:butt;stroke-linejoin:miter;stroke-opacity:1"
       d="m 94.513939,134.85649 c 0.555495,-0.59223 0.7943,-1.43436 1.446044,-1.93568 0.663236,-0.32637 2.271961,-0.31337 2.698111,-0.94211 0.398005,-0.3867 -0.04926,-1.50977 -0.892257,-1.69522 -0.318079,-0.32094 0.63349,-0.32456 0.850404,-0.62156 0.845508,-0.13352 1.925539,-0.35699 2.166859,-1.12213 0.3177,-0.67085 -0.73533,-1.59804 -1.369822,-1.78208 0.717952,-0.23018 1.735192,-0.31018 2.134202,-1.03513 0.55378,-0.45197 0.84294,-1.78721 -0.28599,-1.81063 -0.32638,-0.25945 -0.98149,-0.12865 -0.36748,-0.6346 0.48424,-0.67754 0.89644,-1.51972 1.37209,-2.20033 0.49876,-0.63018 0.92056,-1.11032 1.31373,-1.88667 0.44959,-0.78742 0.83423,-1.62362 1.38898,-2.32588 0.18347,-0.3809 0.43343,-0.75117 0.7412,-1.0444"
       id="path1037"
       inkscape:connector-curvature="0"
       sodipodi:nodetypes="cccccccccccccc" />
    <path
       style="opacity:1;fill:#ff5555;fill-opacity:1;stroke:none;stroke-width:1.58920062;stroke-miterlimit:4;stroke-dasharray:none;stroke-opacity:1"
       d="m 393.59991,513.34892 c -4.68673,-0.21284 -19.00258,-2.22767 -21.27651,-2.99447 -2.50833,-0.84586 -3.76867,-1.73967 -6.3166,-4.47965 -1.35241,-1.45434 -2.45893,-2.77909 -2.45893,-2.94387 0,-0.17622 1.19611,-0.56632 2.90419,-0.94718 1.59731,-0.35616 3.22677,-0.73019 3.62102,-0.83117 0.6918,-0.17719 0.71099,-0.15697 0.5494,0.57875 -0.23655,1.07701 0.0388,1.72751 0.92544,2.18599 1.08497,0.56107 1.89357,0.29193 2.11209,-0.70298 0.1857,-0.84546 0.17562,-0.85937 -1.50152,-2.0734 l -0.6634,-0.48022 0.69835,-0.43064 c 1.18577,-0.73121 1.65022,-1.4449 1.76366,-2.71011 0.14438,-1.61024 -0.89018,-3.67328 -2.37571,-4.73745 -0.58182,-0.4168 -1.06338,-0.81463 -1.07014,-0.88408 -0.0193,-0.19832 3.49439,-1.44717 5.03218,-1.78856 3.4754,-0.77155 5.40518,-2.19661 6.042,-4.46176 0.44986,-1.60012 -0.87474,-4.19187 -2.87177,-5.61897 -0.48591,-0.34724 -0.88661,-0.69509 -0.89043,-0.77301 -0.004,-0.0779 0.58967,-0.29213 1.31887,-0.47605 2.07123,-0.5224 3.54896,-1.38567 4.86266,-2.84072 1.56948,-1.73834 2.13279,-3.00011 2.13973,-4.79281 0.008,-1.96675 -0.65148,-2.72862 -3.01916,-3.48993 -0.97543,-0.31364 -1.77352,-0.61257 -1.77352,-0.66428 0,-0.0517 0.3803,-0.63408 0.84511,-1.29416 0.46481,-0.66007 1.60732,-2.47668 2.53891,-4.0369 0.93159,-1.56022 2.20171,-3.49213 2.82247,-4.29315 2.47287,-3.19088 3.42075,-4.6405 5.41082,-8.27491 1.83796,-3.35663 3.55586,-6.16825 5.69355,-9.31847 l 0.66822,-0.9847 0.74756,1.36351 c 0.41117,0.74993 2.0987,3.97965 3.75009,7.17714 l 3.00251,5.81362 -0.89431,0.87442 c -1.15595,1.13025 -1.59648,2.00777 -1.77821,3.54217 -0.23914,2.01916 0.30223,3.43312 1.94595,5.08252 1.17694,1.181 1.71998,1.51997 3.13548,1.95717 0.94161,0.29084 2.18994,0.52879 2.77407,0.52879 h 1.06204 l 9.91651,19.07051 c 5.45408,10.48879 9.87921,19.16948 9.83363,19.29043 -0.13258,0.35177 -3.54853,3.12932 -4.97178,4.04262 -1.17046,0.75108 -6.80499,3.02351 -10.76847,4.34297 -0.83338,0.27744 -3.16304,0.78216 -5.17703,1.12162 -3.16445,0.53336 -4.38212,0.6116 -8.96511,0.57604 -2.91681,-0.0226 -7.12157,-0.12374 -9.34391,-0.22467 z m 0.62503,-8.24156 c 0.30791,-0.39144 0.50349,-0.9548 0.46027,-1.32582 -0.0654,-0.5615 -0.21124,-0.65507 -1.12475,-0.72165 -0.85584,-0.0624 -1.12391,0.0296 -1.4521,0.49814 -0.50948,0.72739 -0.51133,1.32747 -0.006,1.83316 0.6055,0.60551 1.51875,0.48337 2.12222,-0.28383 z m 28.54664,-0.45998 c 0.17484,-0.21067 0.3179,-0.8338 0.3179,-1.38472 0,-1.70035 -0.93124,-2.21593 -1.5499,-0.85811 -0.75906,1.66596 0.22459,3.45668 1.232,2.24283 z m -15.21912,-3.65756 c 0.0401,-0.40252 -0.21235,-0.95171 -0.69664,-1.51523 l -0.7596,-0.88389 -0.50611,0.60015 c -1.23314,1.46223 -0.82883,2.63027 0.86741,2.50595 0.89193,-0.0654 1.04053,-0.16132 1.09494,-0.70698 z m -21.38582,-0.009 c 0.26866,-0.14378 0.48847,-0.45833 0.48847,-0.69899 0,-0.50819 -1.17471,-2.32258 -1.50373,-2.32258 -0.46974,0 -1.29495,1.72339 -1.1334,2.36703 0.20964,0.83527 1.23011,1.14613 2.14866,0.65454 z m -7.53549,-4.47367 c 1.05286,-1.19899 0.72169,-2.33597 -0.68038,-2.33597 -1.28971,0 -2.15212,1.29866 -1.49008,2.24385 0.46078,0.65785 1.6301,0.70748 2.17046,0.0921 z m 34.21177,-1.64149 c 1.09742,-1.20624 0.84127,-2.20971 -0.56407,-2.20971 -1.52598,0 -2.36484,1.32421 -1.4672,2.31609 0.56588,0.6253 1.4056,0.58132 2.03127,-0.10638 z m -14.26363,-5.13351 c 0.36778,-0.80718 0.1568,-1.17506 -1.26425,-2.20446 -1.22275,-0.88576 -1.46626,-0.77977 -1.70972,0.74415 -0.213,1.33324 0.44592,2.11126 1.78808,2.11126 0.71066,0 0.94887,-0.13076 1.18589,-0.65095 z m 20.91874,-0.0145 c 0.19231,-0.50583 0.15913,-0.80869 -0.13834,-1.26269 -0.21524,-0.3285 -0.50236,-0.59727 -0.63805,-0.59727 -0.1357,0 -0.47401,-0.22728 -0.7518,-0.50507 -0.67076,-0.67077 -0.97256,-0.63683 -1.26894,0.14271 -0.6576,1.72961 0.0283,2.88774 1.71019,2.88774 0.66856,0 0.88411,-0.13196 1.08694,-0.66543 z m -29.5406,-2.79466 c 0.38207,-1.00491 -0.0194,-2.45387 -0.70746,-2.55332 -0.44183,-0.0639 -0.60176,0.11097 -0.84539,0.92414 -0.41601,1.3885 -0.15221,2.31134 0.66071,2.31134 0.45517,0 0.70558,-0.19147 0.89214,-0.68216 z m 22.05792,-7.08128 c 0.39189,-1.85101 -1.01131,-3.22275 -1.59217,-1.55648 -0.39008,1.11897 -0.35269,1.88957 0.11433,2.35659 0.53239,0.53239 1.28161,0.12676 1.47784,-0.80011 z m -23.82558,-4.84404 c 1.10301,-1.10301 0.88092,-2.29227 -0.42809,-2.29227 -0.90467,0 -1.35362,0.26702 -1.75544,1.04405 -0.35654,0.68948 -0.34255,0.76541 0.2504,1.35836 0.80277,0.80277 1.03336,0.78963 1.93313,-0.11014 z m 16.96446,-4.05604 c 1.239,-0.97459 1.09293,-2.52937 -0.23763,-2.52937 -1.37372,0 -2.27223,1.11128 -1.77713,2.19796 0.21865,0.47991 0.50469,0.66786 1.22239,0.8032 0.0854,0.0161 0.44201,-0.19619 0.79237,-0.47179 z m -10.18808,-3.09758 c 0.57142,-1.74354 -0.73385,-3.39514 -1.4467,-1.83059 -0.60118,1.31944 -0.3033,2.65133 0.59297,2.65133 0.43617,0 0.65309,-0.20853 0.85373,-0.82074 z m 5.26271,-9.53332 c 0.0402,-0.40282 -0.21234,-0.95128 -0.69759,-1.51523 l -0.76054,-0.88388 -0.62698,0.75761 c -1.15171,1.39166 -0.68619,2.4727 1.01086,2.34747 0.87015,-0.0642 1.02008,-0.16274 1.07425,-0.70597 z m -0.16974,-6.85493 c 0.32326,-0.60403 0.16593,-2.40458 -0.24613,-2.81664 -0.39522,-0.39522 -1.24684,0.47964 -1.43303,1.47216 -0.29234,1.5583 1.00766,2.59919 1.67916,1.34448 z"
       id="path1587"
       inkscape:connector-curvature="0"
       transform="scale(0.26458333)" />
  </g>
</svg>
