<?xml version="1.0" encoding="UTF-8" standalone="no"?>
<!-- Created with Inkscape (http://www.inkscape.org/) -->

<svg
   xmlns:dc="http://purl.org/dc/elements/1.1/"
   xmlns:cc="http://creativecommons.org/ns#"
   xmlns:rdf="http://www.w3.org/1999/02/22-rdf-syntax-ns#"
   xmlns:svg="http://www.w3.org/2000/svg"
   xmlns="http://www.w3.org/2000/svg"
   xmlns:sodipodi="http://sodipodi.sourceforge.net/DTD/sodipodi-0.dtd"
   xmlns:inkscape="http://www.inkscape.org/namespaces/inkscape"
   width="80.68531"
   height="86.50592"
   viewBox="0 0 21.347988 22.888024"
   version="1.1"
   id="svg3992"
   inkscape:version="0.92.3 (2405546, 2018-03-11)"
   sodipodi:docname="melon_body_2bite.svg">
  <defs
     id="defs3986">
    <inkscape:path-effect
       effect="bspline"
       id="path-effect4012"
       is_visible="true"
       weight="33.333333"
       steps="2"
       helper_size="0"
       apply_no_weight="true"
       apply_with_weight="true"
       only_selected="false" />
  </defs>
  <sodipodi:namedview
     id="base"
     pagecolor="#ffffff"
     bordercolor="#666666"
     borderopacity="1.0"
     inkscape:pageopacity="0.0"
     inkscape:pageshadow="2"
     inkscape:zoom="5.6"
     inkscape:cx="10.323719"
     inkscape:cy="36.639496"
     inkscape:document-units="mm"
     inkscape:current-layer="layer1"
     showgrid="false"
     units="px"
     inkscape:window-width="1920"
     inkscape:window-height="1017"
     inkscape:window-x="-8"
     inkscape:window-y="-8"
     inkscape:window-maximized="1"
     fit-margin-top="0"
     fit-margin-left="0"
     fit-margin-right="0"
     fit-margin-bottom="0" />
  <metadata
     id="metadata3989">
    <rdf:RDF>
      <cc:Work
         rdf:about="">
        <dc:format>image/svg+xml</dc:format>
        <dc:type
           rdf:resource="http://purl.org/dc/dcmitype/StillImage" />
        <dc:title></dc:title>
      </cc:Work>
    </rdf:RDF>
  </metadata>
  <g
     inkscape:label="Layer 1"
     inkscape:groupmode="layer"
     id="layer1"
     transform="translate(-2.2423489,-272.38945)">
    <path
       style="fill:none;stroke:#000000;stroke-width:0.26458332px;stroke-linecap:butt;stroke-linejoin:miter;stroke-opacity:1"
       d="m 2.3529017,291.49102 c 0.3364303,0.50806 0.6954922,1.14174 1.3615744,1.58327 0.8139299,0.41137 1.3661271,0.57513 2.1312581,0.88477 0.7693714,0.46538 1.7548929,0.51878 2.6408869,0.63564 1.0825312,0.18842 1.7780909,0.24435 2.7449589,0.41593 1.108008,0.0215 2.107529,0.0874 3.092989,0.11808 0.609999,-0.0122 1.461234,0.0697 2.012776,-0.06 1.005944,-0.16704 1.478473,-0.19616 2.27572,-0.46362 0.757028,-0.28063 1.52044,-0.56261 2.269183,-0.84972 0.768094,-0.35481 1.291005,-0.76762 1.896213,-1.21972 0.381358,-0.3284 0.532786,-0.68066 0.693958,-0.99757"
       id="path4014"
       inkscape:connector-curvature="0"
       sodipodi:nodetypes="ccccccccccc" />
    <path
       style="fill:none;stroke:#000000;stroke-width:0.26458332px;stroke-linecap:butt;stroke-linejoin:miter;stroke-opacity:1"
       d="m 3.5925008,289.58756 c 0.6958123,0.52949 1.2716329,1.63819 2.036764,1.94783 0.7693713,0.46538 1.7548929,0.51878 2.6408871,0.63564 1.0825308,0.18842 1.7780901,0.24435 2.7449581,0.41593 1.108009,0.0215 2.10753,0.0874 3.09299,0.11808 0.609999,-0.0122 1.461234,0.0697 2.012776,-0.06 1.005944,-0.16704 1.478473,-0.19616 2.27572,-0.46362 0.757027,-0.28063 1.520439,-0.56261 2.269182,-0.84972 0.768094,-0.35481 1.314628,-0.9566 1.919836,-1.4087"
       id="path4014-0"
       inkscape:connector-curvature="0"
       sodipodi:nodetypes="ccccccccc" />
    <path
       style="fill:#ccff00;stroke-width:0.17857143"
       d="m 53.059194,92.284805 c -9.134049,-0.300915 -11.096727,-0.453615 -16.875,-1.312906 -3.044643,-0.452771 -6.369809,-0.941247 -7.389258,-1.085502 -2.551299,-0.361015 -3.986392,-0.73849 -5.557171,-1.461709 -0.736607,-0.33915 -2.655853,-1.134537 -4.26499,-1.767527 -4.050876,-1.593503 -5.166887,-2.213463 -6.446015,-3.580856 -0.93497,-0.999485 -2.8604237,-3.622789 -2.8604237,-3.897138 0,-0.05439 0.9147317,-1.501455 2.0327367,-3.215695 l 2.032737,-3.116801 0.962033,1.020131 c 0.529119,0.561072 1.576997,1.743345 2.328619,2.627274 1.576804,1.854365 2.549505,2.642323 4.481564,3.630388 1.818933,0.930212 3.595353,1.391554 7.323589,1.901961 1.688975,0.231225 5.280686,0.743152 7.981579,1.137615 4.509844,0.658658 5.515662,0.741931 12.321428,1.020112 4.075893,0.1666 8.214286,0.259054 9.196429,0.205453 2.23116,-0.121767 8.062464,-1.08906 10.06665,-1.669851 1.651116,-0.478474 9.680755,-3.451548 10.605828,-3.92694 1.026518,-0.527523 2.500029,-1.591572 4.398011,-3.175885 l 1.856202,-1.549439 0.438616,0.766864 c 0.241237,0.421776 0.865959,1.616393 1.388266,2.654704 l 0.949654,1.887839 -0.482,0.880018 c -0.826463,1.508922 -1.275506,1.986054 -3.223475,3.425117 -3.528965,2.607021 -4.500258,3.105402 -10.215433,5.241652 -5.085314,1.900817 -5.942426,2.140769 -10.068034,2.818578 -4.040433,0.663814 -5.344889,0.728257 -10.982142,0.542543 z"
       id="path4047"
       inkscape:connector-curvature="0"
       transform="matrix(0.26458333,0,0,0.26458333,0,270.54167)" />
    <path
       style="fill:none;stroke:#000000;stroke-width:0.26458332px;stroke-linecap:butt;stroke-linejoin:miter;stroke-opacity:1"
       d="m 2.3529017,291.49102 c 0.2914966,-0.74481 0.9012868,-1.23184 1.2940779,-1.90783 0.421124,-0.47418 0.9256497,-1.58928 1.7253392,-1.4544 l 1.8813498,-0.26727 c 0.8070838,-0.0276 0.4443311,-0.61489 -0.1489502,-1.32009 0.1548787,-0.36279 -0.3787383,-0.29426 -0.2853628,-1.31859 0.8081991,-0.10033 0.8208515,-0.20585 1.5883529,-0.49961 0.8101881,-0.18508 1.3558231,-0.72886 0.2998341,-1.08744 -0.468816,-0.31235 -0.5862216,-1.62406 -0.5862216,-1.62406 0.457644,-0.73082 0.7909232,-0.0996 1.5033608,-0.35969 0.6458602,-0.0412 1.2583842,-0.22171 0.7181322,-0.84445 -0.5542754,-0.21875 -1.1908851,-0.88561 -0.9843757,-1.69734 0.4692303,-0.61829 0.8784097,-1.35786 1.2695577,-2.03747 0.426181,-0.73699 0.900408,-1.42164 1.332353,-2.16072 0.519718,-0.8308 0.948742,-1.7132 1.590272,-2.45743"
       id="path1615"
       inkscape:connector-curvature="0"
       sodipodi:nodetypes="ccccccccccccccc" />
    <path
       style="fill:none;stroke:#000000;stroke-width:0.26458332px;stroke-linecap:butt;stroke-linejoin:miter;stroke-opacity:1"
       d="m 23.472419,291.53808 c -0.310875,-0.28736 -0.769491,-0.72156 -0.720126,-1.34536 -0.39912,-0.70762 -1.135017,-0.55841 -1.829198,-0.66904 -0.374048,-0.14647 -1.450547,0.0241 -1.393025,-0.28433 0.66355,-0.35386 1.04704,-1.03923 1.461091,-1.63458 0.712757,-0.77502 -1.090567,-0.0216 -1.439026,-0.44315 -0.500446,-0.0958 -1.944408,-0.44678 -0.925854,-0.97162 0.52664,-0.52581 1.245923,-0.78987 1.785347,-1.27183 -0.758391,0.021 -1.408086,-0.50063 -2.185773,-0.5478 -0.298334,-0.164 -1.433415,-0.20298 -0.690378,-0.64292 0.701486,-0.50166 1.205,-1.13226 1.721537,-1.81313 0.8014,-0.41529 -0.112563,-0.8889 -0.136117,-1.51039 -0.420833,-0.60053 -1.036906,-1.22651 -1.243093,-1.95568 -0.336834,-0.74614 -0.91061,-1.62969 -1.461427,-2.25914 -0.577694,-0.9693 -1.231841,-1.69122 -1.859234,-2.62153 -0.344763,-0.36095 -0.573154,-0.84987 -1.006733,-1.11422"
       id="path2399"
       inkscape:connector-curvature="0"
       sodipodi:nodetypes="cccccccccccccccc" />
    <path
       style="opacity:1;fill:#ff5555;fill-opacity:1;stroke:none;stroke-width:0.5618673;stroke-miterlimit:4;stroke-dasharray:none;stroke-opacity:1"
       d="m 45.384738,76.242039 c -0.712053,-0.01535 -2.741071,-0.08983 -4.508928,-0.165499 -1.767857,-0.07567 -4.310863,-0.17579 -5.651122,-0.22248 -1.34026,-0.04669 -2.469344,-0.104982 -2.509074,-0.129536 -0.03973,-0.02456 -1.89628,-0.307883 -4.125664,-0.629618 -2.229385,-0.321735 -4.394944,-0.642944 -4.812354,-0.713799 -0.417411,-0.07085 -1.743304,-0.253103 -2.946429,-0.404998 -3.903187,-0.492778 -5.6369,-0.949758 -7.64521,-2.01516 C 11.456295,71.043367 10.952069,70.593682 8.6894618,67.950828 7.9327109,67.066899 7.021014,66.040305 6.663469,65.669506 L 6.0133871,64.995327 7.1053128,63.487558 c 1.3576506,-1.874691 2.2074799,-2.760444 3.0422442,-3.170847 0.538404,-0.264701 0.708205,-0.303289 1.428571,-0.324649 0.449647,-0.01333 2.083164,-0.207487 3.630039,-0.431452 1.546875,-0.223966 3.265952,-0.46677 3.82017,-0.539567 1.430163,-0.187851 1.951638,-0.495757 2.158313,-1.274383 0.208298,-0.784743 -0.337326,-2.024485 -1.586648,-3.605113 -0.491904,-0.622351 -0.567306,-0.768601 -0.593302,-1.150751 -0.01638,-0.240784 -0.104311,-0.55516 -0.195406,-0.698613 -0.817547,-1.287452 -0.915189,-1.540823 -0.987239,-2.561774 l -0.05152,-0.730124 0.61514,-0.104287 c 1.058536,-0.179459 1.881589,-0.438829 3.415964,-1.076476 0.816689,-0.339396 1.826408,-0.72465 2.243819,-0.856121 1.988119,-0.626192 3.11692,-1.587557 3.123039,-2.659793 0.0027,-0.469106 -0.208091,-0.874968 -0.680524,-1.310441 -0.366825,-0.338128 -1.365037,-0.890318 -1.609754,-0.890483 -0.198828,-1.78e-4 -0.664567,-0.560849 -0.970578,-1.168505 -0.378206,-0.751018 -0.780259,-2.157712 -0.98662,-3.45197 l -0.155679,-0.976393 0.260594,-0.328517 c 0.143326,-0.180685 0.435311,-0.413513 0.648855,-0.517396 0.381791,-0.185731 0.402926,-0.186444 1.268286,-0.04273 1.088701,0.180808 2.118046,0.185362 2.763095,0.01222 0.270089,-0.07249 0.623346,-0.132286 0.785014,-0.132869 0.495746,-0.0018 1.64368,-0.269089 2.161415,-0.503297 0.87544,-0.39602 1.25,-0.88716 1.25,-1.639054 0,-0.824302 -0.613437,-1.833895 -1.298386,-2.13688 -1.722498,-0.761943 -3.106568,-2.547474 -3.29335,-4.248615 -0.0898,-0.817841 0.03419,-1.258447 0.556043,-1.975925 0.774308,-1.064576 1.972142,-2.993062 3.542068,-5.702646 0.825123,-1.424107 2.184069,-3.674107 3.01988,-5 1.608613,-2.55183 3.106888,-5.0131917 4.837134,-7.9464285 1.148497,-1.9470132 2.464866,-3.9688473 3.150845,-4.8394363 L 42.85314,0.95052007 43.481766,1.5935279 c 0.345744,0.3536543 0.932385,1.0488597 1.303646,1.5449011 0.371262,0.4960413 0.839548,1.0919898 1.040637,1.32433 0.201089,0.2323401 0.532465,0.6702382 0.736392,0.9731066 0.203927,0.3028685 1.342946,1.8564736 2.531155,3.4524557 1.188209,1.5959817 2.55358,3.5044647 3.034157,4.2410717 0.480578,0.736607 0.917813,1.405419 0.971634,1.486249 0.05382,0.08083 0.452795,0.583062 0.886608,1.116071 1.790727,2.200194 4.110203,6.012619 4.762162,7.827365 0.521711,1.452199 1.291025,2.714008 3.031442,4.9721 1.426497,1.8508 1.4411,1.873119 1.553426,2.374341 0.109813,0.490007 0.436073,1.168528 1.069327,2.223874 0.235732,0.392857 0.479634,0.886464 0.542004,1.096904 0.102689,0.346477 0.09645,0.405513 -0.06608,0.625 -0.09871,0.13331 -0.356614,0.360981 -0.573113,0.505936 -0.216499,0.144955 -0.453103,0.345848 -0.525786,0.446428 -0.07268,0.100582 -0.598372,0.765464 -1.168197,1.477517 -1.920693,2.400098 -3.26478,3.743523 -5.064076,5.061581 -0.963783,0.706009 -1.180219,0.979188 -1.180219,1.489634 0,0.671197 0.564049,1.032074 2.324498,1.487203 0.612151,0.158261 1.221498,0.342931 1.354104,0.410379 0.132606,0.06745 0.365327,0.122632 0.517157,0.122632 0.588156,0 1.724233,0.30887 3.456935,0.939852 0.992463,0.361417 2.107189,0.729721 2.477169,0.818456 0.369978,0.08873 0.672918,0.182437 0.673199,0.208227 2.68e-4,0.02579 -0.732749,0.50516 -1.628955,1.065266 -1.814992,1.134324 -2.856554,1.856846 -3.51211,2.436317 -0.241331,0.21332 -0.654918,0.524214 -0.919085,0.690875 -0.831383,0.524515 -1.212931,1.254697 -0.997198,1.908375 0.124853,0.378311 0.727959,0.951145 1.313196,1.247283 0.645997,0.326883 1.838429,0.727357 2.842876,0.954769 0.491071,0.111182 0.95512,0.255701 1.031219,0.321156 0.433126,0.372542 1.534946,0.519694 2.944202,0.39321 0.563518,-0.05058 1.384767,-0.118445 1.824999,-0.150817 l 0.800419,-0.05886 -0.271459,0.349551 c -0.149302,0.192254 -0.669342,0.932141 -1.155644,1.644195 -1.1291,1.653253 -2.128083,2.894335 -2.782702,3.457079 -0.590635,0.507741 -1.380287,1.061211 -1.624764,1.138805 -0.21872,0.06942 -0.289233,0.54292 -0.136343,0.915553 0.251918,0.613997 0.889243,0.781308 3.479333,0.913403 0.885092,0.04514 1.717725,0.123312 1.850293,0.173714 0.132569,0.0504 0.975367,0.154674 1.872883,0.231715 0.897517,0.07704 1.9131,0.199652 2.25685,0.272472 0.574697,0.121743 1.6357,0.538637 1.553155,0.610272 -0.01941,0.01685 -0.778602,0.649035 -1.687084,1.404858 -3.339729,2.778532 -3.492238,2.863307 -8.615162,4.788874 -6.250748,2.349487 -6.472075,2.412191 -11.295552,3.20018 l -3.080357,0.503222 -2.276786,0.01967 c -1.252232,0.01082 -2.859375,0.0071 -3.571429,-0.0082 z"
       id="path2954"
       inkscape:connector-curvature="0"
       transform="matrix(0.26458333,0,0,0.26458333,2.2423489,272.38945)" />
  </g>
</svg>
