<?xml version="1.0" encoding="UTF-8" standalone="no"?>
<!-- Created with Inkscape (http://www.inkscape.org/) -->

<svg
   xmlns:dc="http://purl.org/dc/elements/1.1/"
   xmlns:cc="http://creativecommons.org/ns#"
   xmlns:rdf="http://www.w3.org/1999/02/22-rdf-syntax-ns#"
   xmlns:svg="http://www.w3.org/2000/svg"
   xmlns="http://www.w3.org/2000/svg"
   xmlns:sodipodi="http://sodipodi.sourceforge.net/DTD/sodipodi-0.dtd"
   xmlns:inkscape="http://www.inkscape.org/namespaces/inkscape"
   width="19.449764mm"
   height="16.313618mm"
   viewBox="0 0 19.449764 16.313618"
   version="1.1"
   id="svg8"
   inkscape:version="0.92.3 (2405546, 2018-03-11)"
   sodipodi:docname="mouth_closed.svg">
  <defs
     id="defs2" />
  <sodipodi:namedview
     id="base"
     pagecolor="#ffffff"
     bordercolor="#666666"
     borderopacity="1.0"
     inkscape:pageopacity="0.0"
     inkscape:pageshadow="2"
     inkscape:zoom="11.2"
     inkscape:cx="24.339325"
     inkscape:cy="32.584919"
     inkscape:document-units="mm"
     inkscape:current-layer="layer1"
     showgrid="false"
     fit-margin-top="0"
     fit-margin-left="0"
     fit-margin-right="0"
     fit-margin-bottom="0"
     inkscape:window-width="1920"
     inkscape:window-height="1017"
     inkscape:window-x="-8"
     inkscape:window-y="-8"
     inkscape:window-maximized="1"
     inkscape:pagecheckerboard="true" />
  <metadata
     id="metadata5">
    <rdf:RDF>
      <cc:Work
         rdf:about="">
        <dc:format>image/svg+xml</dc:format>
        <dc:type
           rdf:resource="http://purl.org/dc/dcmitype/StillImage" />
        <dc:title></dc:title>
      </cc:Work>
    </rdf:RDF>
  </metadata>
  <g
     inkscape:label="Layer 1"
     inkscape:groupmode="layer"
     id="layer1"
     transform="translate(-48.105281,-139.23702)">
    <path
       style="fill:none;stroke:#000000;stroke-width:0.26458332px;stroke-linecap:butt;stroke-linejoin:miter;stroke-opacity:1"
       d="m 49.161476,142.07435 c 0,0.35636 0,0.71272 0,1.06908 0,0.0446 -0.0315,0.10214 0,0.13364 0.0315,0.0315 0.102137,-0.0315 0.133635,0 0.063,0.063 -0.063,0.20427 0,0.26727 0.0315,0.0315 0.08909,0 0.133636,0 0.04454,0 0.08909,0 0.133633,0 0.267269,0 0.53454,0 0.801809,0 0.04455,0 0.08909,0 0.133636,0 0.04454,0 0.09379,-0.0199 0.133633,0 0.05635,0.0282 0.07729,0.10546 0.133636,0.13363 0.03455,0.0173 0.707088,0 0.801809,0 0.04454,0 0.102135,-0.0315 0.133633,0 0.0315,0.0315 -0.0315,0.10214 0,0.13364 0.0315,0.0315 0.08909,0 0.133636,0 0.04908,0 0.529161,0.005 0.534538,0 0.0315,-0.0315 -0.0315,-0.10214 0,-0.13364 0.0315,-0.0315 0.102137,0.0315 0.133635,0 0.06682,-0.0668 -0.06682,-0.33408 0,-0.4009 0.0315,-0.0315 0.102138,0.0315 0.133636,0 0.0315,-0.0315 -0.01992,-0.0938 0,-0.13364 0.02817,-0.0563 0.10546,-0.0773 0.133633,-0.13363 0.03625,-0.0725 -0.03657,-0.49798 0,-0.53454 0.0315,-0.0315 0.102137,0.0315 0.133636,0 0.131829,-0.13183 -0.273828,-0.26727 0.133636,-0.26727"
       id="path10"
       inkscape:connector-curvature="0"
       inkscape:export-filename="D:\Crap\Unity Projects\Jump n RPG\Assets\Sprites\mouth_closed.png"
       inkscape:export-xdpi="81"
       inkscape:export-ydpi="81" />
    <path
       style="fill:none;stroke:#000000;stroke-width:0.26458332px;stroke-linecap:butt;stroke-linejoin:miter;stroke-opacity:1"
       d="m 53.036886,142.20799 c -0.08909,0.53454 -0.222266,1.06358 -0.267272,1.60362 -0.0037,0.0444 0.08909,0 0.133636,0 0.08909,0 0.178178,0 0.267269,0 0.267269,0 0.53454,0 0.801809,0 0.493784,0 0.358905,0 0.668173,0 0.04455,0 0.08909,0 0.133636,0 0.04454,0 0.102137,-0.0315 0.133633,0 0.0315,0.0315 -0.0315,0.10213 0,0.13363 0.0043,0.004 0.368496,0 0.400905,0 0.04454,0 0.102137,0.0315 0.133636,0 0.0315,-0.0315 -0.01992,-0.0938 0,-0.13363 0.278077,-0.55616 -0.0092,0.14286 0.267269,-0.13364 0.0315,-0.0315 -0.0315,-0.10214 0,-0.13363 0.0315,-0.0315 0.102137,0.0315 0.133635,0 0.0315,-0.0315 -0.0315,-0.10214 0,-0.13364 0.0315,-0.0315 0.102137,0.0315 0.133633,0 0.063,-0.063 -0.06299,-0.20427 0,-0.26727 0.0315,-0.0315 0.102138,0.0315 0.133636,0 0.06299,-0.063 -0.063,-0.20427 0,-0.26727 0.0315,-0.0315 0.102137,0.0315 0.133636,0 0.063,-0.063 -0.063,-0.20427 0,-0.26727 0.178178,-0.17818 0.133633,0.22273 0.133633,-0.13363"
       id="path12"
       inkscape:connector-curvature="0"
       inkscape:export-filename="D:\Crap\Unity Projects\Jump n RPG\Assets\Sprites\mouth_closed.png"
       inkscape:export-xdpi="81"
       inkscape:export-ydpi="81" />
    <path
       style="fill:none;stroke:#000000;stroke-width:0.26458332px;stroke-linecap:butt;stroke-linejoin:miter;stroke-opacity:1"
       d="m 56.377753,142.47526 c -0.222724,0.57908 -0.485711,1.14425 -0.668173,1.73725 -0.0131,0.0426 0.08909,0 0.133635,0 0.04455,0 0.08909,0 0.133633,0 0.222727,0 0.44545,0 0.668174,0 0.04908,0 0.529161,-0.005 0.53454,0 0.0315,0.0315 -0.0315,0.10214 0,0.13364 0.0315,0.0315 0.08909,0 0.133636,0 0.04454,0 0.08909,0 0.133633,0 0.222726,0 0.44545,0 0.668173,0 0.04455,0 0.102138,0.0315 0.133636,0 0.0315,-0.0315 -0.0315,-0.10214 0,-0.13364 0.0315,-0.0315 0.102137,0.0315 0.133636,0 0.0315,-0.0315 -0.0315,-0.10213 0,-0.13363 0.0315,-0.0315 0.09379,0.0199 0.133633,0 0.556157,-0.27808 -0.142859,0.009 0.133636,-0.26727 0.0315,-0.0315 0.102137,0.0315 0.133633,0 0.0315,-0.0315 -0.0315,-0.10214 0,-0.13364 0.0315,-0.0315 0.102137,0.0315 0.133636,0 0.0315,-0.0315 -0.0315,-0.10214 0,-0.13363 0.0315,-0.0315 0.102137,0.0315 0.133635,0 0.0315,-0.0315 -0.0315,-0.10214 0,-0.13364 0.0315,-0.0315 0.102138,0.0315 0.133634,0 0.0315,-0.0315 -0.01992,-0.0938 0,-0.13363 0.02817,-0.0564 0.105462,-0.0773 0.133635,-0.13364 0.08909,-0.17818 -0.133635,-0.13363 0.133636,-0.13363"
       id="path14"
       inkscape:connector-curvature="0"
       inkscape:export-filename="D:\Crap\Unity Projects\Jump n RPG\Assets\Sprites\mouth_closed.png"
       inkscape:export-xdpi="81"
       inkscape:export-ydpi="81" />
    <path
       style="fill:none;stroke:#000000;stroke-width:0.26458332px;stroke-linecap:butt;stroke-linejoin:miter;stroke-opacity:1"
       d="m 59.451354,143.0098 c -0.222726,0.62363 -0.486251,1.23416 -0.668176,1.87089 -0.01225,0.0428 0.102137,-0.0315 0.133636,0 0.0315,0.0315 -0.0315,0.10213 0,0.13363 0.063,0.063 0.204274,-0.063 0.267269,0 0.0315,0.0315 -0.0315,0.10214 0,0.13363 0.0315,0.0315 0.102137,-0.0315 0.133635,0 0.063,0.063 -0.063,0.20428 0,0.26727 0.0315,0.0315 0.102137,-0.0315 0.133636,0 0.0315,0.0315 -0.0315,0.10214 0,0.13364 0.063,0.063 0.204272,-0.063 0.267269,0 0.0315,0.0315 -0.0315,0.10214 0,0.13363 0.0315,0.0315 0.102137,-0.0315 0.133636,0 0.06299,0.063 -0.063,0.20428 0,0.26727 0.06299,0.063 0.267268,-0.0891 0.267268,0 0,0.0446 -0.178181,0 -0.133635,0 0.222726,0 0.44545,0 0.668173,0 0.04454,0 0.102137,0.0315 0.133636,0 0.0315,-0.0315 -0.0315,-0.10213 0,-0.13363 0.02732,-0.0273 0.347919,0.0265 0.400905,0 0.05635,-0.0282 0.07729,-0.10546 0.133633,-0.13364 0.07968,-0.0398 0.204274,0.063 0.267271,0 0.0315,-0.0315 -0.0315,-0.10213 0,-0.13363 0.06681,-0.0668 0.334087,0.0668 0.400905,0 0.0315,-0.0315 -0.0315,-0.10214 0,-0.13364 0.06299,-0.063 0.204271,0.063 0.267269,0 0.0315,-0.0315 -0.0315,-0.10213 0,-0.13363 0.0315,-0.0315 0.102137,0.0315 0.133633,0 0.0315,-0.0315 -0.0315,-0.10214 0,-0.13364 0.0315,-0.0315 0.102137,0.0315 0.133635,0 0.0315,-0.0315 -0.0315,-0.10213 0,-0.13363 0.0315,-0.0315 0.102138,0.0315 0.133636,0 0.063,-0.063 -0.063,-0.20428 0,-0.26727 0.0315,-0.0315 0.102137,0.0315 0.133633,0 0.131829,-0.13183 -0.273828,-0.26727 0.133636,-0.26727"
       id="path18"
       inkscape:connector-curvature="0"
       inkscape:export-filename="D:\Crap\Unity Projects\Jump n RPG\Assets\Sprites\mouth_closed.png"
       inkscape:export-xdpi="81"
       inkscape:export-ydpi="81" />
    <path
       style="fill:none;stroke:#000000;stroke-width:0.26458332px;stroke-linecap:butt;stroke-linejoin:miter;stroke-opacity:1"
       d="m 52.156678,150.68448 c -0.03524,-0.35462 -0.07048,-0.70923 -0.105718,-1.06384 -0.0044,-0.0444 0.02124,-0.10476 -0.01322,-0.13299 -0.03446,-0.0282 -0.09852,0.0414 -0.13298,0.0132 -0.06892,-0.0565 0.04249,-0.2095 -0.02643,-0.26596 -0.03446,-0.0282 -0.08865,0.009 -0.132981,0.0132 -0.04432,0.004 -0.08865,0.009 -0.132978,0.0132 -0.265959,0.0264 -0.53192,0.0529 -0.797879,0.0793 -0.04433,0.004 -0.08865,0.009 -0.132981,0.0132 -0.04432,0.004 -0.09136,0.0291 -0.132978,0.0132 -0.05886,-0.0225 -0.08734,-0.0973 -0.146195,-0.11976 -0.03609,-0.0138 -0.703623,0.0699 -0.797879,0.0793 -0.04432,0.004 -0.09852,0.0414 -0.132978,0.0132 -0.03446,-0.0282 0.02125,-0.10476 -0.01322,-0.13299 -0.03446,-0.0282 -0.08865,0.009 -0.132981,0.0132 -0.04884,0.005 -0.527062,0.0473 -0.531918,0.0529 -0.02823,0.0345 0.04145,0.0985 0.01322,0.13298 -0.02823,0.0345 -0.104752,-0.0212 -0.13298,0.0132 -0.05989,0.0731 0.09953,0.32583 0.03964,0.39893 -0.02823,0.0345 -0.104752,-0.0212 -0.132981,0.0132 -0.02823,0.0345 0.0291,0.0914 0.01322,0.13298 -0.02246,0.0588 -0.0973,0.0873 -0.119764,0.14619 -0.0289,0.0757 0.08564,0.49192 0.05286,0.53192 -0.02823,0.0345 -0.104751,-0.0212 -0.132981,0.0132 -0.118147,0.14422 0.298915,0.23888 -0.106551,0.27917"
       id="path10-1"
       inkscape:connector-curvature="0"
       inkscape:transform-center-x="-19.824053"
       inkscape:transform-center-y="1.1963769"
       inkscape:export-filename="D:\Crap\Unity Projects\Jump n RPG\Assets\Sprites\mouth_closed.png"
       inkscape:export-xdpi="81"
       inkscape:export-ydpi="81" />
    <path
       style="fill:none;stroke:#000000;stroke-width:0.27233437px;stroke-linecap:butt;stroke-linejoin:miter;stroke-opacity:1"
       d="m 55.68133,150.4573 c -0.03792,-0.54073 -0.122899,-1.08035 -0.113768,-1.62219 7.5e-4,-0.0446 0.09392,0.009 0.140886,0.0132 0.09392,0.009 0.187845,0.0176 0.28177,0.0264 0.28177,0.0264 0.563542,0.0529 0.845312,0.0793 0.520575,0.0488 0.378378,0.0355 0.704426,0.0661 0.04697,0.004 0.09392,0.009 0.140886,0.0132 0.04695,0.004 0.104377,0.0414 0.140884,0.0132 0.03651,-0.0282 -0.02251,-0.10475 0.014,-0.13298 0.005,-0.004 0.388489,0.0364 0.422657,0.0397 0.04695,0.004 0.110979,-0.0213 0.140886,0.0132 0.02991,0.0345 -0.03083,0.0914 -0.01399,0.13298 0.234898,0.58093 0.0053,-0.14307 0.267769,0.15941 0.02991,0.0345 -0.04391,0.0985 -0.01401,0.13298 0.02991,0.0345 0.11098,-0.0213 0.140886,0.0132 0.02991,0.0345 -0.04391,0.0985 -0.01401,0.13299 0.02991,0.0345 0.110978,-0.0213 0.140883,0.0132 0.05982,0.0689 -0.08781,0.19704 -0.028,0.26596 0.02991,0.0345 0.110979,-0.0213 0.140887,0.0132 0.0598,0.0689 -0.08782,0.19704 -0.028,0.26596 0.02991,0.0345 0.110979,-0.0212 0.140887,0.0132 0.05982,0.0689 -0.08782,0.19704 -0.028,0.26596 0.169178,0.19493 0.164218,-0.20842 0.126884,0.14619"
       id="path12-6"
       inkscape:connector-curvature="0"
       inkscape:transform-center-x="17.22425"
       inkscape:transform-center-y="1.2779319"
       inkscape:export-filename="D:\Crap\Unity Projects\Jump n RPG\Assets\Sprites\mouth_closed.png"
       inkscape:export-xdpi="81"
       inkscape:export-ydpi="81" />
    <path
       style="fill:none;stroke:#000000;stroke-width:0.28082669px;stroke-linecap:butt;stroke-linejoin:miter;stroke-opacity:1"
       d="m 52.156678,150.68448 c -0.186202,-0.59496 -0.419349,-1.1801 -0.558605,-1.78487 -0.01,-0.0434 0.100426,0.009 0.150644,0.0131 0.05022,0.004 0.100425,0.009 0.150641,0.0131 0.251075,0.0219 0.502147,0.0438 0.753218,0.0657 0.05533,0.005 0.595951,0.057 0.602575,0.0526 0.03904,-0.0281 -0.02407,-0.10417 0.01496,-0.13225 0.03904,-0.028 0.100425,0.009 0.150644,0.0131 0.05021,0.004 0.100426,0.009 0.150642,0.0131 0.251075,0.0219 0.502146,0.0438 0.753216,0.0657 0.05022,0.004 0.118668,-0.0211 0.150645,0.0131 0.03198,0.0343 -0.04696,0.098 -0.01498,0.13224 0.03198,0.0343 0.118665,-0.0211 0.150645,0.0131 0.03198,0.0343 -0.04694,0.0979 -0.01497,0.13223 0.03198,0.0343 0.107959,-0.0104 0.150642,0.0131 0.595792,0.32987 -0.160034,-0.023 0.120704,0.27762 0.03198,0.0343 0.118666,-0.0212 0.150642,0.0131 0.03198,0.0343 -0.04696,0.0979 -0.01498,0.13225 0.03198,0.0343 0.118665,-0.0211 0.150644,0.0131 0.03198,0.0343 -0.04696,0.0979 -0.01496,0.13224 0.03198,0.0343 0.118665,-0.0212 0.150644,0.0131 0.03198,0.0343 -0.04696,0.098 -0.01498,0.13225 0.03198,0.0343 0.118667,-0.0212 0.150642,0.0131 0.03198,0.0343 -0.03297,0.0909 -0.01497,0.13224 0.02543,0.0586 0.110225,0.0869 0.135674,0.14539 0.08046,0.18509 -0.165613,0.1191 0.135675,0.14538"
       id="path14-4"
       inkscape:connector-curvature="0"
       inkscape:transform-center-x="14.986738"
       inkscape:transform-center-y="1.2172833"
       inkscape:export-filename="D:\Crap\Unity Projects\Jump n RPG\Assets\Sprites\mouth_closed.png"
       inkscape:export-xdpi="81"
       inkscape:export-ydpi="81" />
    <path
       style="fill:none;stroke:#000000;stroke-width:0.27801526px;stroke-linecap:butt;stroke-linejoin:miter;stroke-opacity:1"
       d="m 59.231455,150.52166 c -0.17662,-0.6426 -0.399496,-1.2762 -0.529857,-1.9278 -0.0088,-0.0438 0.108777,0.0415 0.146826,0.0132 0.03805,-0.0282 -0.02346,-0.10474 0.0146,-0.13298 0.0761,-0.0565 0.217557,0.0829 0.293648,0.0264 0.03805,-0.0282 -0.02345,-0.10475 0.01458,-0.13297 0.03805,-0.0282 0.108777,0.0414 0.146825,0.0132 0.0761,-0.0565 -0.04691,-0.2095 0.02918,-0.26596 0.03805,-0.0282 0.108777,0.0415 0.146826,0.0132 0.03805,-0.0282 -0.02346,-0.10476 0.0146,-0.13299 0.0761,-0.0565 0.217555,0.0829 0.293648,0.0264 0.03805,-0.0282 -0.02345,-0.10475 0.01459,-0.13297 0.03805,-0.0282 0.108777,0.0414 0.146825,0.0132 0.07608,-0.0565 -0.04691,-0.20951 0.02918,-0.26596 0.07608,-0.0565 0.283919,0.1151 0.293647,0.0264 0.0049,-0.0444 -0.195768,-0.0176 -0.146825,-0.0132 0.244709,0.022 0.489416,0.044 0.734121,0.0661 0.04893,0.004 0.115657,-0.0212 0.146826,0.0132 0.03117,0.0345 -0.04575,0.0985 -0.01459,0.13297 0.02704,0.0299 0.385151,0.008 0.440474,0.0397 0.05883,0.0336 0.0734,0.11258 0.13223,0.1462 0.0832,0.0475 0.231315,-0.0425 0.293651,0.0264 0.03117,0.0345 -0.04577,0.0985 -0.01459,0.13298 0.06611,0.0731 0.374354,-0.0334 0.440474,0.0396 0.03117,0.0345 -0.04577,0.0985 -0.0146,0.13299 0.06233,0.0689 0.231311,-0.0425 0.293648,0.0264 0.03117,0.0345 -0.04575,0.0985 -0.01459,0.13297 0.03117,0.0345 0.115657,-0.0212 0.146823,0.0132 0.03117,0.0345 -0.04577,0.0985 -0.0146,0.13298 0.03117,0.0345 0.115658,-0.0212 0.146825,0.0132 0.03117,0.0345 -0.04575,0.0985 -0.01458,0.13297 0.03117,0.0345 0.115657,-0.0212 0.146825,0.0132 0.06234,0.0689 -0.09152,0.19705 -0.02918,0.26596 0.03117,0.0345 0.115657,-0.0212 0.146823,0.0132 0.130446,0.14422 -0.330036,0.23888 0.117644,0.27918"
       id="path18-3"
       inkscape:connector-curvature="0"
       inkscape:transform-center-x="10.892777"
       inkscape:transform-center-y="0.45323442"
       inkscape:export-filename="D:\Crap\Unity Projects\Jump n RPG\Assets\Sprites\mouth_closed.png"
       inkscape:export-xdpi="81"
       inkscape:export-ydpi="81" />
    <path
       style="fill:none;stroke:#000000;stroke-width:0.26458332px;stroke-linecap:butt;stroke-linejoin:miter;stroke-opacity:1"
       d="m 48.287045,153.05129 c 0.207759,0.0526 0.413478,0.11399 0.623279,0.1577 0.04361,0.009 0.08909,0 0.133633,0 0.04454,0 0.102137,0.0315 0.133636,0 0.0315,-0.0315 -0.0315,-0.10213 0,-0.13363 0.0315,-0.0315 0.08909,0 0.133633,0 0.267272,0 0.53454,0 0.801809,0 0.222726,0 0.44545,0 0.668174,0 0.04455,0 0.102137,-0.0315 0.133635,0 0.0315,0.0315 -0.0315,0.10213 0,0.13363 0.0043,0.004 0.368494,0 0.400905,0 0.04455,0 0.178178,0 0.133636,0 -0.08909,0 -0.35636,0 -0.267272,0 0.35636,0 0.712719,0 1.069078,0 0.35636,0 0.712719,0 1.069078,0 0.04455,0 0.102137,0.0315 0.133636,0 0.0315,-0.0315 -0.0315,-0.10213 0,-0.13363 0.0315,-0.0315 0.08909,0 0.133636,0 0.267269,0 0.534538,0 0.801806,0 0.04455,0 0.102138,0.0315 0.133636,0 0.0315,-0.0315 -0.0315,-0.10214 0,-0.13364 0.04138,-0.0414 0.626795,0.0414 0.668174,0 0.0315,-0.0315 -0.0315,-0.10214 0,-0.13363 0.03657,-0.0366 0.462044,0.0362 0.53454,0 0.05634,-0.0282 0.07729,-0.10546 0.133633,-0.13364 0.07968,-0.0398 0.204274,0.063 0.267269,0 0.0315,-0.0315 -0.0315,-0.10213 0,-0.13363 0.0043,-0.004 0.368496,0 0.400904,0 0.489996,0 0.979991,0 1.469983,0 0.04454,0 0.08909,0 0.133636,0 0.04454,0 0.102137,0.0315 0.133636,0 0.0315,-0.0315 -0.0315,-0.10214 0,-0.13364 0.0315,-0.0315 0.08909,0 0.133633,0 0.267269,0 0.53454,0 0.801809,0 0.400905,0 0.801809,0 1.202714,0 0.04454,0 0.08909,0 0.133633,0 0.04454,0 0.102137,0.0315 0.133636,0 0.0315,-0.0315 -0.0315,-0.10213 0,-0.13363 0.0061,-0.006 0.605165,0 0.668173,0 0.04454,0 0.102137,0.0315 0.133636,0 0.0315,-0.0315 -0.0315,-0.10214 0,-0.13363 0.0315,-0.0315 0.102134,0.0315 0.133633,0 0.0315,-0.0315 -0.0315,-0.10214 0,-0.13364 0.063,-0.063 0.204274,0.063 0.267269,0 0.0315,-0.0315 -0.0315,-0.10214 0,-0.13364 0.063,-0.063 0.204274,0.063 0.267271,0 0.0315,-0.0315 -0.0315,-0.10213 0,-0.13363 0.0315,-0.0315 0.09379,0.0199 0.133633,0 0.05635,-0.0282 0.07729,-0.10546 0.133636,-0.13364 0.07968,-0.0398 0.204274,0.063 0.267269,0 0.0315,-0.0315 -0.0315,-0.10213 0,-0.13363 0.0315,-0.0315 0.102137,0.0315 0.133636,0 0.0315,-0.0315 -0.0315,-0.10214 0,-0.13363 0.0315,-0.0315 0.102137,0.0315 0.133633,0 0.0315,-0.0315 -0.0315,-0.10214 0,-0.13364 0.063,-0.063 0.187587,0.0398 0.267271,0 0.556154,-0.27808 -0.142861,0.009 0.133633,-0.26727 0.178181,-0.17818 0.133636,0.22273 0.133636,-0.13363 0,-0.35636 -0.04454,0.0445 0.133636,-0.13364 0.0315,-0.0315 -0.0315,-0.10213 0,-0.13363 0.0315,-0.0315 0.102134,0.0315 0.133633,0 0.063,-0.063 -0.063,-0.20428 0,-0.26727 0.0315,-0.0315 0.102137,0.0315 0.133636,0 0.06299,-0.063 -0.03984,-0.18759 0,-0.26727 0.02817,-0.0563 0.105463,-0.0773 0.133633,-0.13364 0.04615,-0.0923 -0.04691,-0.62126 0,-0.66817 0.0315,-0.0315 0.102137,0.0315 0.133636,0 0.0315,-0.0315 0,-0.0891 0,-0.13364 0,-0.0445 0,-0.0891 0,-0.13363 0,-0.44545 0,-0.8909 0,-1.33635 0,-0.22272 0,-0.44545 0,-0.66817 0,-0.0445 0.0315,-0.10214 0,-0.13364 -0.0315,-0.0315 -0.102138,0.0315 -0.133636,0 -0.06681,-0.0668 0.06682,-0.33408 0,-0.4009 -0.0315,-0.0315 -0.102135,0.0315 -0.133633,0 -0.0315,-0.0315 0.01992,-0.0938 0,-0.13364 -0.278077,-0.55615 0.0092,0.14286 -0.267269,-0.13363 -0.063,-0.063 0.063,-0.20427 0,-0.26727 -0.0315,-0.0315 -0.102137,0.0315 -0.133636,0 -0.0315,-0.0315 0.0315,-0.10214 0,-0.13364 -0.0315,-0.0315 -0.102137,0.0315 -0.133636,0 -0.0315,-0.0315 0.0315,-0.10213 0,-0.13363 -0.0315,-0.0315 -0.102137,0.0315 -0.133633,0 -0.063,-0.063 0.063,-0.20427 0,-0.26727 -0.0315,-0.0315 -0.102137,0.0315 -0.133635,0 -0.063,-0.063 0.063,-0.20427 0,-0.26727 -0.0315,-0.0315 -0.102138,0.0315 -0.133636,0 -0.063,-0.063 0.063,-0.20427 0,-0.26727 -0.0315,-0.0315 -0.102135,0.0315 -0.133633,0 -0.06682,-0.0668 0.06682,-0.33408 0,-0.4009 -0.0315,-0.0315 -0.102137,0.0315 -0.133636,0 -0.0315,-0.0315 0.0315,-0.10214 0,-0.13364 -0.0315,-0.0315 -0.102137,0.0315 -0.133633,0 -0.0315,-0.0315 0.0315,-0.10213 0,-0.13363 -0.0315,-0.0315 -0.102137,0.0315 -0.133636,0 -0.0315,-0.0315 0.0315,-0.10214 0,-0.13364 -0.0315,-0.0315 -0.102137,0.0315 -0.133636,0 -0.06299,-0.063 0.063,-0.20427 0,-0.26727 -0.06299,-0.063 -0.204271,0.063 -0.267269,0 -0.0315,-0.0315 0.0315,-0.10213 0,-0.13363 -0.0315,-0.0315 -0.102137,0.0315 -0.133635,0 -0.0315,-0.0315 0.0315,-0.10214 0,-0.13363 -0.063,-0.063 -0.204272,0.063 -0.267269,0 -0.0315,-0.0315 0.0315,-0.10214 0,-0.13364 -0.0315,-0.0315 -0.102137,0.0315 -0.133633,0 -0.0315,-0.0315 0.0315,-0.10214 0,-0.13364 -0.04138,-0.0414 -0.626795,0.0414 -0.668176,0 -0.0315,-0.0315 0.0315,-0.10213 0,-0.13363 -0.03215,-0.0322 -0.502381,0.0322 -0.534538,0 -0.0315,-0.0315 0.0315,-0.10214 0,-0.13364 -0.0315,-0.0315 -0.08909,0 -0.133636,0 -0.311814,0 -0.623628,0 -0.935442,0 -0.03241,0 -0.396608,0.004 -0.400905,0 -0.0315,-0.0315 0.0315,-0.10213 0,-0.13363 -0.0054,-0.005 -0.485462,0 -0.534537,0 -0.311817,0 -0.623631,0 -0.935445,0 -0.04455,0 -0.102137,0.0315 -0.133636,0 -0.0315,-0.0315 0.0315,-0.10214 0,-0.13363 -0.06682,-0.0668 -0.334087,0.0668 -0.400902,0 -0.0315,-0.0315 0.0315,-0.10214 0,-0.13364 -0.02732,-0.0273 -0.347919,0.0265 -0.400905,0 -0.05635,-0.0282 -0.07729,-0.10546 -0.133635,-0.13363 -0.07969,-0.0399 -0.204275,0.063 -0.267269,0 -0.0315,-0.0315 0.0315,-0.10214 0,-0.13364 -0.0315,-0.0315 -0.08909,0 -0.133636,0 -0.04454,0 -0.08909,0 -0.133633,0 -0.267272,0 -0.53454,0 -0.801809,0 -0.04455,0 -0.102137,0.0315 -0.133636,0 -0.0315,-0.0315 0.0315,-0.10214 0,-0.13363 -0.063,-0.063 -0.204274,0.063 -0.267269,0 -0.0315,-0.0315 0.0315,-0.10214 0,-0.13364 -0.0315,-0.0315 -0.08909,0 -0.133636,0 -0.04454,0 -0.08909,0 -0.133633,0 -0.311814,0 -0.623631,0 -0.935445,0 -0.04455,0 -0.102137,0.0315 -0.133633,0 -0.0315,-0.0315 0.0315,-0.10213 0,-0.13363 -0.0315,-0.0315 -0.08909,0 -0.133636,0 -0.04454,0 -0.08909,0 -0.133635,0 -0.489993,0 -0.979988,0 -1.46998,0 -0.311817,0 -0.623631,0 -0.935445,0 -0.04454,0 -0.102137,0.0315 -0.133636,0 -0.0315,-0.0315 0.0315,-0.10214 0,-0.13364 -0.0315,-0.0315 -0.08909,0 -0.133633,0 -0.04454,0 -0.08909,0 -0.133636,0 -0.267269,0 -0.534537,0 -0.801809,0 -0.04454,0 -0.133633,0.0446 -0.133633,0 0,-0.0445 0.178178,0 0.133633,0 -0.178178,0 -0.356359,0 -0.534538,0 -0.08909,0 -0.340582,-0.0506 -0.267269,0 0.204037,0.14088 0.434703,0.23863 0.652055,0.35795"
       id="path50"
       inkscape:connector-curvature="0"
       inkscape:export-filename="D:\Crap\Unity Projects\Jump n RPG\Assets\Sprites\mouth_closed.png"
       inkscape:export-xdpi="81"
       inkscape:export-ydpi="81" />
    <path
       style="fill:none;stroke:#000000;stroke-width:0.26458332px;stroke-linecap:butt;stroke-linejoin:miter;stroke-opacity:1"
       d="m 65.815178,152.60814 c 0.01574,-0.0157 0.05107,0.0157 0.06682,0 0.01574,-0.0157 0,-0.0446 0,-0.0668 0.02228,0 0.05107,0.0157 0.06682,0 -0.03752,-0.11712 0.09548,-0.0477 0.133636,-0.0668 0.01574,-0.0157 0,-0.0445 0,-0.0668 0.02228,0 0.05107,0.0157 0.06682,0 0.01574,-0.0157 -0.01574,-0.0511 0,-0.0668 0.09033,0.0371 0.04654,-0.0465 0.06682,-0.0668 0.01574,-0.0157 0.05107,0.0157 0.06682,0 0.01574,-0.0157 -0.01574,-0.0511 0,-0.0668 0.01574,-0.0157 0.05107,0.0157 0.06682,0 0.01574,-0.0157 -0.01574,-0.0511 0,-0.0668 0.01574,-0.0157 0.05107,0.0158 0.06682,0 0.01574,-0.0157 -0.01574,-0.0511 0,-0.0668 0.01574,-0.0157 0.05107,0.0157 0.06682,0 0.0315,-0.0315 -0.01992,-0.0938 0,-0.13364 0.139039,-0.27808 -0.0046,0.0714 0.133633,-0.0668 0.03341,-0.0334 -0.03341,-0.16704 0,-0.20045 0.01574,-0.0157 0.05107,0.0157 0.06682,0 0.01574,-0.0157 -0.01574,-0.0511 0,-0.0668 0.01574,-0.0157 0.05107,0.0157 0.06682,0 0.0315,-0.0315 -0.01992,-0.0938 0,-0.13363 0.01408,-0.0282 0.05273,-0.0387 0.06682,-0.0668 0.0099,-0.0199 -0.01574,-0.0511 0,-0.0668 0.01574,-0.0157 0.05107,0.0157 0.06682,0 0.01574,-0.0157 -0.0099,-0.0469 0,-0.0668 0.01408,-0.0282 0.05273,-0.0386 0.06682,-0.0668 0.01992,-0.0398 -0.0315,-0.10214 0,-0.13364 0.01574,-0.0157 0.05107,0.0157 0.06682,0 0.0315,-0.0315 -0.0315,-0.10213 0,-0.13363 0.01574,-0.0157 0.05107,0.0157 0.06682,0 0.03341,-0.0334 -0.03341,-0.16704 0,-0.20045 0.01574,-0.0157 0.05107,0.0157 0.06682,0 0,-0.17818 -0.02228,0.0223 0.06682,-0.0668 0.03341,-0.0334 -0.03341,-0.16704 0,-0.20045 0.01574,-0.0157 0.05107,0.0157 0.06681,0 0.01574,-0.0157 0,-0.0446 0,-0.0668 0,-0.0315 -0.003,-0.33106 0,-0.33409 0.01574,-0.0157 0.05107,0.0157 0.06682,0 0.02069,-0.0207 -0.02069,-0.31339 0,-0.33408 0.01574,-0.0157 0.05107,0.0157 0.06682,0 0.0021,-0.002 0,-0.18425 0,-0.20045 v -0.66818 c 0,-0.0349 0.0088,-0.2497 0,-0.26727 -0.01408,-0.0282 -0.05273,-0.0386 -0.06682,-0.0668 -0.02307,-0.0462 0.02347,-0.31064 0,-0.33409 -0.01574,-0.0157 -0.05107,0.0157 -0.06682,0 -0.01574,-0.0157 0,-0.0445 0,-0.0668 v -0.0668 -2.67269 -0.33409 c 0,-0.0223 0.01574,-0.0511 0,-0.0668 -0.01574,-0.0157 -0.05107,0.0157 -0.06681,0 -0.01574,-0.0157 0.01574,-0.0511 0,-0.0668 -0.01574,-0.0157 -0.05107,0.0157 -0.06682,0 -0.03341,-0.0334 0.03341,-0.16705 0,-0.20046 -0.01574,-0.0157 -0.05107,0.0157 -0.06682,0 -0.0315,-0.0315 0.0315,-0.10213 0,-0.13363 -0.01574,-0.0157 -0.05107,0.0157 -0.06682,0 -0.0315,-0.0315 0.0315,-0.10214 0,-0.13363 -0.01574,-0.0157 -0.05107,0.0157 -0.06682,0 -0.01574,-0.0157 0.01,-0.0469 0,-0.0668 -0.01408,-0.0282 -0.05273,-0.0387 -0.06682,-0.0668 -0.0099,-0.0199 0.01574,-0.0511 0,-0.0668 -0.01574,-0.0157 -0.05107,0.0157 -0.06682,0 -0.0315,-0.0315 0.0315,-0.10213 0,-0.13363 -0.01574,-0.0157 -0.05107,0.0157 -0.06682,0 -0.0315,-0.0315 0.01992,-0.0938 0,-0.13364 -0.01408,-0.0282 -0.05273,-0.0386 -0.06682,-0.0668 -0.01,-0.0199 0.0099,-0.0469 0,-0.0668 -0.139038,-0.27808 0.0046,0.0714 -0.133635,-0.0668 -0.04452,-0.0445 0.04452,-0.0891 0,-0.13363 -0.01574,-0.0157 -0.05107,0.0157 -0.06682,0 -0.0315,-0.0315 0.0315,-0.10214 0,-0.13364 -0.01574,-0.0157 -0.05107,0.0157 -0.06682,0 -0.0315,-0.0315 0.01992,-0.0938 0,-0.13363 -0.02817,-0.0564 -0.105462,-0.0773 -0.133635,-0.13364 -0.01992,-0.0398 0.0315,-0.10214 0,-0.13363 -0.01574,-0.0157 -0.05107,0.0157 -0.06682,0 -0.01574,-0.0157 0.01574,-0.0511 0,-0.0668 -0.01574,-0.0157 -0.05107,0.0157 -0.06682,0 -0.01574,-0.0157 0.01574,-0.0511 0,-0.0668 -0.01574,-0.0157 -0.05107,0.0157 -0.06682,0 -0.01574,-0.0157 0.0099,-0.0469 0,-0.0668 -0.01408,-0.0282 -0.05273,-0.0386 -0.06682,-0.0668 -0.0099,-0.0199 0.01574,-0.0511 0,-0.0668 -0.01574,-0.0157 -0.05107,0.0157 -0.06682,0 -0.01574,-0.0157 0.01574,-0.0511 0,-0.0668 -0.01574,-0.0157 -0.05107,0.0157 -0.06682,0 -0.04452,-0.0445 0.04452,-0.0891 0,-0.13363 -0.01574,-0.0157 -0.05107,0.0157 -0.06682,0 -0.01574,-0.0157 0.01574,-0.0511 0,-0.0668 -0.01574,-0.0157 -0.05107,0.0157 -0.06681,0 -0.04454,-0.0445 0.04454,-0.0891 0,-0.13363 -0.01574,-0.0157 -0.05107,0.0157 -0.06682,0 -0.0315,-0.0315 0.0315,-0.10214 0,-0.13364 -0.01574,-0.0157 -0.05107,0.0157 -0.06682,0 -0.01574,-0.0157 0.01574,-0.0511 0,-0.0668 -0.01574,-0.0157 -0.05107,0.0157 -0.06682,0 -0.01574,-0.0157 0.01574,-0.0511 0,-0.0668 -0.01574,-0.0157 -0.05107,0.0157 -0.06682,0 -0.0315,-0.0315 0.0315,-0.10214 0,-0.13364 -0.01574,-0.0157 -0.04689,0.01 -0.06682,0 -0.02817,-0.0141 -0.03864,-0.0527 -0.06682,-0.0668 -0.01992,-0.01 -0.05107,0.0157 -0.06682,0 -0.01574,-0.0157 0.01574,-0.0511 0,-0.0668 -0.01574,-0.0157 -0.05107,0.0157 -0.06682,0 -0.01574,-0.0157 0.01574,-0.0511 0,-0.0668 -0.01574,-0.0157 -0.05107,0.0157 -0.06682,0 -0.01574,-0.0157 0.01574,-0.0511 0,-0.0668 -0.0315,-0.0315 -0.102137,0.0315 -0.133633,0 -0.01574,-0.0157 0.01574,-0.0511 0,-0.0668 -0.0315,-0.0315 -0.102137,0.0315 -0.133636,0 -0.01574,-0.0157 0.01574,-0.0511 0,-0.0668 -0.0315,-0.0315 -0.102137,0.0315 -0.133636,0 -0.01574,-0.0157 0.01574,-0.0511 0,-0.0668 -0.01574,-0.0157 -0.0469,0.01 -0.06682,0 -0.02817,-0.0141 -0.03865,-0.0527 -0.06682,-0.0668 -0.01992,-0.01 -0.05107,0.0157 -0.06682,0 -0.01574,-0.0157 0.01574,-0.0511 0,-0.0668 -0.01574,-0.0157 -0.0469,0.01 -0.06682,0 -0.02817,-0.0141 -0.03865,-0.0527 -0.06682,-0.0668 -0.01992,-0.01 -0.04689,0.01 -0.06681,0 -0.27808,-0.13904 0.07143,0.005 -0.06682,-0.13364 -0.03341,-0.0334 -0.167044,0.0334 -0.200453,0 -0.01574,-0.0157 0.01574,-0.0511 0,-0.0668 -0.01574,-0.0157 -0.04689,0.01 -0.06682,0 -0.02817,-0.0141 -0.03864,-0.0527 -0.06681,-0.0668 -0.03984,-0.0199 -0.102137,0.0315 -0.133636,0 -0.01574,-0.0157 0.01574,-0.0511 0,-0.0668 -0.01574,-0.0157 -0.05107,0.0157 -0.06682,0 -0.01574,-0.0157 0.01574,-0.0511 0,-0.0668 -0.03341,-0.0334 -0.167042,0.0334 -0.200451,0 -0.01574,-0.0157 0.01574,-0.0511 0,-0.0668 -0.0315,-0.0315 -0.102137,0.0315 -0.133636,0 -0.01574,-0.0157 0.01574,-0.0511 0,-0.0668 -0.03341,-0.0334 -0.167042,0.0334 -0.200451,0 -0.01574,-0.0157 0,-0.0445 0,-0.0668 -0.02228,0 -0.05107,0.0157 -0.06682,0 -0.01574,-0.0157 0.01574,-0.0511 0,-0.0668 -0.03341,-0.0334 -0.167044,0.0334 -0.200453,0 -0.01574,-0.0157 0.01574,-0.0511 0,-0.0668 -0.0315,-0.0315 -0.102135,0.0315 -0.133633,0 -0.01574,-0.0157 0.01574,-0.0511 0,-0.0668 -0.0315,-0.0315 -0.102137,0.0315 -0.133636,0 -0.01574,-0.0157 0.01574,-0.0511 0,-0.0668 -0.0315,-0.0315 -0.09379,0.0199 -0.133633,0 -0.02817,-0.0141 -0.03864,-0.0527 -0.06682,-0.0668 -0.01992,-0.01 -0.05107,0.0157 -0.06682,0 -0.01574,-0.0157 0.01574,-0.0511 0,-0.0668 -0.01365,-0.0137 -0.173961,0.0132 -0.200451,0 -0.02817,-0.0141 -0.03865,-0.0527 -0.06682,-0.0668 -0.03625,-0.0181 -0.248989,0.0183 -0.267271,0 -0.01574,-0.0157 0.01574,-0.0511 0,-0.0668 -0.01574,-0.0157 -0.04454,0 -0.06682,0 h -0.06682 -0.668174 -0.06682 c -0.02228,0 -0.05107,0.0157 -0.06682,0 -0.01574,-0.0157 0.01574,-0.0511 0,-0.0668 -0.0315,-0.0315 -0.102137,0.0315 -0.133635,0 -0.01574,-0.0157 0.01574,-0.0511 0,-0.0668 -0.01574,-0.0157 -0.04454,0 -0.06682,0 h -0.467722 c -0.02453,0 -0.264581,0.003 -0.267269,0 -0.01574,-0.0157 0.01574,-0.0511 0,-0.0668 -0.01574,-0.0157 -0.04454,0 -0.06682,0 h -0.06682 -0.868627 -0.400902 -0.06682 c -0.02228,0 -0.0469,0.01 -0.06682,0 -0.02817,-0.0141 -0.03865,-0.0527 -0.06682,-0.0668 -0.01728,-0.009 -0.353544,0 -0.400905,0 -0.02228,0 -0.04689,0.01 -0.06682,0 -0.02817,-0.0141 -0.03864,-0.0527 -0.06681,-0.0668 -0.01728,-0.009 -0.353544,0 -0.400905,0 h -0.06682 c -0.02228,0 -0.05107,0.0157 -0.06682,0 -0.01574,-0.0157 0.01574,-0.0511 0,-0.0668 -0.01574,-0.0157 -0.04455,0 -0.06682,0 h -0.06682 -0.734989 -1.069078 c -0.01622,0 -0.198305,0.002 -0.200453,0 -0.01574,-0.0157 0.01574,-0.0511 0,-0.0668 -0.0027,-0.003 -0.242732,0 -0.267269,0 h -1.135896 c -0.01622,0 -0.198303,0.002 -0.200451,0 -0.01574,-0.0157 0.01574,-0.0511 0,-0.0668 -0.01574,-0.0157 -0.04454,0 -0.06682,0 h -0.53454 -0.668174 -0.06682 c -0.02228,0 -0.05107,0.0157 -0.06682,0 -0.01574,-0.0157 0.01574,-0.0511 0,-0.0668 -0.0315,-0.0315 -0.102134,0.0315 -0.133633,0 -0.01574,-0.0157 0.01574,-0.0511 0,-0.0668 -0.0021,-0.002 -0.184248,0 -0.200453,0 h -0.601356 c -0.03494,0 -0.2497,0.009 -0.267269,0 -0.02817,-0.0141 -0.03865,-0.0527 -0.06682,-0.0668 -0.042,-0.021 -0.225274,0.021 -0.267268,0 -0.02817,-0.0141 -0.03865,-0.0527 -0.06682,-0.0668 -0.02416,-0.0121 -0.287613,0 -0.334087,0 H 49.444844 48.77667 48.643035 c -0.02228,0 -0.06682,0.0223 -0.06682,0 0,-0.0223 0.08909,0 0.06682,0 -0.04455,0 -0.09379,-0.0199 -0.133634,0 -0.01992,0.01 0,0.0445 0,0.0668 v 0.0668 0.0668 c 0,0.0223 0.0099,0.0469 0,0.0668 -0.01407,0.0282 -0.05273,0.0386 -0.06682,0.0668 -0.01326,0.0265 0.01365,0.18679 0,0.20045 -0.01574,0.0157 -0.05107,-0.0157 -0.06682,0 -0.01574,0.0157 0,0.0446 0,0.0668 v 0.4009 c 0,0.0223 0.01574,0.0511 0,0.0668 -0.01574,0.0157 -0.05107,-0.0157 -0.06682,0 -0.01574,0.0157 0,0.0446 0,0.0668 v 0.0668 0.33408 c 0,0.0223 -0.01574,0.0511 0,0.0668 0.01574,0.0157 0.05107,-0.0157 0.06682,0 0.01574,0.0157 -0.01574,0.0511 0,0.0668 0.01574,0.0157 0.05107,-0.0157 0.06682,0 0.03341,0.0334 -0.03341,0.16704 0,0.20045 0.01574,0.0157 0.05107,-0.0157 0.06682,0 0.003,0.003 0,0.30258 0,0.33409 0,0.0223 -0.01778,0.0534 0,0.0668 0.207132,0.15615 0.434703,0.28317 0.652055,0.42476"
       id="path54"
       inkscape:connector-curvature="0"
       sodipodi:nodetypes="ccccccccccscscscccccscccscccccccccccssccccssccccsccsssscccccccccscccccccccccccccscscccscscccscccccscscccccscscccccccscccscccccscccscccccccccccccccccccccccssccscccssscsscccsccsccsscssccsccsscssccsccccssccccsccssscscsccccssscscsscscccscc"
       inkscape:export-filename="D:\Crap\Unity Projects\Jump n RPG\Assets\Sprites\mouth_closed.png"
       inkscape:export-xdpi="81"
       inkscape:export-ydpi="81" />
    <path
       style="fill:#ffaaaa;fill-opacity:1;stroke:#000000;stroke-width:1.58920062;stroke-miterlimit:4;stroke-dasharray:none;stroke-opacity:1"
       d="m 187.92932,579.70126 c -1.52786,-0.1218 -3.35641,-0.28987 -4.06345,-0.3735 l -1.28554,-0.15204 0.21483,-1.36998 c 0.12967,-0.82688 0.11615,-1.79777 -0.0341,-2.44911 -0.13693,-0.59352 -0.25173,-1.4856 -0.25513,-1.9824 l -0.004,-2.9127 7.56413,-0.51182 c 0.93943,0.19244 6.6163,-0.19547 7.06125,-0.43356 0.42575,-0.22786 2.22015,-0.4087 4.20194,-0.30378 6.53219,0.34583 3.84761,0.67171 4.11077,0.40855 0.14733,-0.14733 1.09076,-0.26788 2.09651,-0.26788 1.00574,0 1.89885,-0.11364 1.9847,-0.25254 0.0858,-0.13889 0.65405,-0.25254 1.26269,-0.25254 0.60863,0 1.17685,-0.11364 1.26269,-0.25253 0.0858,-0.1389 0.59723,-0.25254 1.13642,-0.25254 0.53919,0 1.05058,-0.11364 1.13642,-0.25254 0.0858,-0.1389 -0.0716,-0.12627 0.26744,-0.12627 0.33904,0 0,0 0,0 0,0 2.71596,-0.12627 5.14723,-0.12627 2.32721,0 3.83609,-0.6069 3.92924,-0.75761 0.20312,-0.32866 2.32226,-0.32866 2.52538,0 0.0859,0.13889 0.43348,0.25253 0.77252,0.25253 0.33905,0 0.61644,-0.11364 0.61644,-0.25253 0,-0.15118 0.99332,-0.25254 2.47488,-0.25254 1.57859,0 2.33132,0.14355 2.52328,-0.0484 0.17043,-0.17043 0.82625,-0.27306 1.51222,-0.23665 0.95533,0.0507 1.3109,-0.0458 1.68274,-0.45667 0.2593,-0.28653 0.68113,-0.52096 0.9374,-0.52096 0.25626,0 0.46593,-0.11364 0.46593,-0.25254 0,-0.13889 0.17522,-0.25254 0.38937,-0.25254 0.21415,0 0.63332,-0.22728 0.9315,-0.50507 0.29818,-0.27779 0.79266,-0.50508 1.09884,-0.50508 0.30619,0 0.62164,-0.16919 0.70099,-0.37598 0.10968,-0.28583 0.29159,-0.31998 0.75867,-0.14239 0.69308,0.26351 0.91886,0.13451 0.91886,-0.52499 0,-0.24975 0.23474,-0.57973 0.52166,-0.73329 0.0133,-3.40768 0,0 0.36222,-7.94607 -0.1389,-0.0858 -0.25254,-0.38871 -0.25254,-0.67304 0,-0.51854 -1.13763,-2.16991 -2.14596,-3.11503 -0.58351,-0.54693 -2.39973,-4.07099 -2.39973,-4.65626 0,-0.19725 -0.39443,-0.71992 -0.87651,-1.16149 -0.48208,-0.44157 -0.99066,-1.10309 -1.13017,-1.47003 -0.14482,-0.38091 -0.44913,-0.66717 -0.70924,-0.66717 -0.25056,0 -0.61939,-0.22728 -0.81961,-0.50508 -0.20022,-0.27779 -0.54115,-0.50507 -0.75762,-0.50507 -0.21646,0 -0.55739,-0.22729 -0.75761,-0.50508 -0.27666,-0.38384 -0.65374,-0.50507 -1.57098,-0.50507 -0.66382,0 -1.20694,-0.11365 -1.20694,-0.25254 0,-0.1389 -0.45457,-0.25254 -1.01015,-0.25254 -0.55559,0 -1.01015,-0.11364 -1.01015,-0.25254 0,-0.15297 -1.08937,-0.25254 -2.76302,-0.25254 -1.5696,0 -2.83043,-0.10908 -2.91909,-0.25254 -0.0893,-0.14454 -1.39158,-0.25253 -3.04536,-0.25253 -1.75783,0 -2.88929,-0.0989 -2.88929,-0.25254 0,-0.1389 -0.34093,-0.25254 -0.75761,-0.25254 -0.41669,0 -0.75762,-0.11364 -0.75762,-0.25254 0,-0.13889 -0.39104,-0.25254 -0.86898,-0.25254 -0.47793,0 -0.93921,-0.11364 -1.02505,-0.25253 -0.0859,-0.1389 -0.37666,-0.25254 -0.64625,-0.25254 -0.2696,0 -0.49018,-0.11364 -0.49018,-0.25254 0,-0.14965 -0.92597,-0.25254 -2.27284,-0.25254 -1.34687,0 -2.27284,-0.10288 -2.27284,-0.25254 0,-0.13889 -0.22729,-0.25254 -0.50508,-0.25254 -0.27779,0 -0.50507,-0.11364 -0.50507,-0.25253 0,-0.15153 -1.01016,-0.25254 -2.52539,-0.25254 -1.51522,0 -2.52538,-0.10102 -2.52538,-0.25254 0,-0.16034 -1.93612,-0.25254 -5.3033,-0.25254 -3.36717,0 -5.3033,-0.0922 -5.3033,-0.25254 0,-0.15587 -1.30318,-0.25253 -3.40445,-0.25253 h -3.40446 l -0.13983,-0.69448 c -0.0769,-0.38197 -0.25662,-1.06305 -0.39935,-1.51353 -0.27044,-0.85353 -0.14916,-2.44513 0.32922,-4.32044 l 0.28031,-1.09888 3.93749,0.15262 c 2.16562,0.0839 5.01709,0.26805 6.33661,0.40914 1.31951,0.14108 6.31976,0.42509 11.11167,0.63114 4.79191,0.20605 10.58766,0.54193 12.87945,0.7464 2.29178,0.20447 5.68181,0.43242 7.53339,0.50654 1.85159,0.0741 3.57716,0.2475 3.83461,0.38529 0.25745,0.13778 1.129,0.25329 1.93678,0.25668 2.39358,0.0101 3.30324,0.31741 9.17111,3.09868 0.78614,0.37262 4.74109,2.6965 5.46062,3.2086 0.29273,0.20835 0.90897,0.94702 1.36941,1.6415 0.46044,0.69448 1.15447,1.67283 1.54228,2.17411 0.73929,0.95559 1.41057,2.14482 3.33439,5.90711 l 1.1622,2.27284 0.12206,6.31346 c 0.0671,3.4724 0.19507,6.99116 0.28431,7.81947 0.19955,1.85224 -0.27122,4.87286 -1.02477,6.5752 -0.30742,0.69448 -0.60418,1.37633 -0.65947,1.51523 -0.5137,1.29034 -2.22783,3.81107 -2.96676,4.36278 -0.50679,0.37839 -1.14174,0.88677 -1.41099,1.12972 -0.26925,0.24296 3.08639,-2.24357 1.41099,-1.12972 -1.67541,1.11386 -6.10785,0.68074 -6.27314,0.81475 -1.7768,1.44059 -7.8174,0.62256 -12.82959,1.01622 -1.66778,0.13099 -4.33922,0.4721 -5.93652,0.75802 -3.099,0.55474 -4.6431,0.76591 -10.22779,1.39878 -4.14413,0.46963 -21.83183,0.70952 -26.26397,0.35621 z"
       id="path56"
       inkscape:connector-curvature="0"
       transform="scale(0.26458333)"
       sodipodi:nodetypes="cccccccccssscscscscsccssssccsssssccsccsssscscscssssscssssscssssssssssscccccccsscccccscscccccccccccccc"
       inkscape:export-filename="D:\Crap\Unity Projects\Jump n RPG\Assets\Sprites\mouth_closed.png"
       inkscape:export-xdpi="81"
       inkscape:export-ydpi="81" />
    <path
       style="fill:#f9f9f9;fill-opacity:1;stroke:#000000;stroke-width:0.79460031;stroke-miterlimit:4;stroke-dasharray:none;stroke-opacity:1"
       d="m 14.801393,16.743266 c -0.444282,-0.02809 -0.674566,-0.110247 -0.796341,-0.284106 -0.155869,-0.222533 -0.334004,-0.244588 -1.975488,-0.244588 -1.643811,0 -1.824485,-0.02245 -2.0327155,-0.252538 C 9.7841263,15.726978 9.607944,15.709495 7.451897,15.709495 c -2.2493868,0 -2.3164076,-0.0075 -2.3164076,-0.258277 0,-0.142053 -0.1420527,-0.40033 -0.3156727,-0.57395 -0.309483,-0.309483 -0.3156726,-0.353936 -0.3156726,-2.267104 0,-1.592692 -0.032646,-1.951431 -0.1775824,-1.951431 -0.1154164,0 -0.1544637,-0.08841 -0.1115421,-0.252538 0.04174,-0.159614 0.00254,-0.255804 -0.1065231,-0.261413 -0.09491,-0.0049 -0.058921,-0.05771 0.079975,-0.117395 0.138896,-0.059685 1.0389252,-0.1125126 2.000065,-0.1173938 1.6245976,-0.00825 1.7625215,0.00964 1.9606834,0.2543618 0.2101188,0.259486 0.2864303,0.263014 5.3551081,0.24759 2.828073,-0.0086 5.141952,0.03249 5.141952,0.09132 0,0.05883 -0.240856,0.160495 -0.535235,0.225919 -0.441483,0.09812 -0.554775,0.185304 -0.646802,0.497761 -0.06136,0.208344 -0.19594,0.539947 -0.299062,0.736897 -0.141109,0.269499 -0.165763,0.561024 -0.09965,1.178367 0.09472,0.884501 0.113391,0.842439 -0.733984,1.65374 -0.297424,0.284763 -0.350517,0.427543 -0.315672,0.848916 0.03353,0.40548 -0.02111,0.56957 -0.273783,0.822246 -0.266755,0.266755 -0.412529,0.309549 -0.940698,0.276156 z"
       id="path58"
       inkscape:connector-curvature="0"
       transform="matrix(0.26458333,0,0,0.26458333,48.105281,139.23702)"
       inkscape:export-filename="D:\Crap\Unity Projects\Jump n RPG\Assets\Sprites\mouth_closed.png"
       inkscape:export-xdpi="81"
       inkscape:export-ydpi="81" />
    <path
       style="fill:#f9f9f9;fill-opacity:1;stroke:#000000;stroke-width:0.79460031;stroke-miterlimit:4;stroke-dasharray:none;stroke-opacity:1"
       d="m 26.125458,16.972186 c -0.152111,-0.243568 -0.294463,-0.252538 -4.007849,-0.252538 -3.282721,0 -3.850136,-0.02704 -3.850136,-0.183459 0,-0.100903 0.200507,-1.277321 0.445571,-2.614262 0.245064,-1.336942 0.417311,-2.504449 0.38277,-2.59446 -0.03454,-0.09001 -0.15317,-0.163658 -0.26362,-0.163658 -0.11045,0 -0.170742,-0.04866 -0.133983,-0.108142 0.03676,-0.05948 1.142587,-0.119253 2.457395,-0.132834 l 2.390559,-0.02469 0.322237,0.322237 c 0.177231,0.17723 0.419783,0.322237 0.539006,0.322237 0.119222,0 0.321809,0.09506 0.450194,0.211248 0.200851,0.181768 0.512997,0.206984 2.236761,0.180686 2.001042,-0.03053 2.003707,-0.03019 2.327725,0.293828 0.178415,0.178415 0.435296,0.324391 0.570847,0.324391 0.192557,0 0.230844,0.06213 0.17507,0.284105 -0.03926,0.156258 -0.175996,0.419616 -0.303851,0.58524 -0.127856,0.165623 -0.232465,0.383945 -0.232465,0.485159 0,0.101215 -0.113642,0.328499 -0.252538,0.505077 -0.138896,0.176577 -0.252539,0.413405 -0.252539,0.526283 0,0.289288 -0.567616,0.867115 -1.049634,1.068515 -0.270387,0.112975 -0.490677,0.345056 -0.657136,0.692312 -0.222841,0.464874 -0.299172,0.522526 -0.693536,0.523816 -0.307446,0.001 -0.491427,-0.07588 -0.600848,-0.251091 z"
       id="path60"
       inkscape:connector-curvature="0"
       transform="matrix(0.26458333,0,0,0.26458333,48.105281,139.23702)"
       inkscape:export-filename="D:\Crap\Unity Projects\Jump n RPG\Assets\Sprites\mouth_closed.png"
       inkscape:export-xdpi="81"
       inkscape:export-ydpi="81" />
    <path
       style="fill:#f9f9f9;fill-opacity:1;stroke:#000000;stroke-width:0.79460031;stroke-miterlimit:4;stroke-dasharray:none;stroke-opacity:1"
       d="M 34.731946,18.520198 C 34.610085,18.32701 34.286922,18.292665 32.058711,18.236093 l -2.534618,-0.06435 0.613173,-1.605567 c 0.337244,-0.883063 0.759201,-1.896305 0.937681,-2.251651 0.17848,-0.355345 0.324509,-0.698235 0.324509,-0.761977 0,-0.152812 0.471653,-0.620971 0.625605,-0.620971 0.06629,0 0.26934,0.14881 0.451219,0.330689 0.273408,0.273408 0.40835,0.318085 0.779047,0.25793 0.357594,-0.05803 0.491752,-0.01917 0.662715,0.19196 0.207216,0.255901 0.30804,0.263878 3.026801,0.239473 2.507481,-0.02251 2.829281,-0.0022 2.967722,0.18711 0.111196,0.152069 0.413592,0.230838 1.065177,0.277459 0.831167,0.05947 0.893297,0.08273 0.718033,0.268826 -0.105526,0.112048 -0.731814,0.743524 -1.391751,1.40328 -0.659937,0.659756 -1.200396,1.298993 -1.201021,1.420527 -6.56e-4,0.12778 -0.09652,0.220971 -0.2273,0.220971 -0.124392,0 -0.435142,0.227284 -0.690556,0.505076 l -0.46439,0.505076 H 36.29566 c -1.216952,0 -1.445343,-0.0321 -1.563714,-0.219756 z"
       id="path62"
       inkscape:connector-curvature="0"
       transform="matrix(0.26458333,0,0,0.26458333,48.105281,139.23702)"
       inkscape:export-filename="D:\Crap\Unity Projects\Jump n RPG\Assets\Sprites\mouth_closed.png"
       inkscape:export-xdpi="81"
       inkscape:export-ydpi="81" />
    <path
       style="fill:#f9f9f9;fill-opacity:1;stroke:#000000;stroke-width:0.79460031;stroke-miterlimit:4;stroke-dasharray:none;stroke-opacity:1"
       d="m 45.257486,24.713828 c -0.121534,-0.03176 -0.220971,-0.136891 -0.220971,-0.233623 0,-0.3119 -0.914209,-1.194565 -1.237255,-1.194565 -0.33089,0 -0.772256,-0.444804 -0.778849,-0.784914 -0.0071,-0.368354 -0.89982,-1.235392 -1.271927,-1.235392 -0.215316,0 -0.384919,-0.100564 -0.485007,-0.287582 -0.131897,-0.24645 -0.08268,-0.48574 0.344148,-1.673065 0.463739,-1.290019 1.366918,-3.713271 1.681176,-4.510642 0.132057,-0.335069 0.16951,-0.34724 1.068553,-0.34724 0.76334,0 0.977333,0.04563 1.184237,0.252538 0.197246,0.197245 0.420897,0.252538 1.02148,0.252538 0.644981,0 0.806081,0.0458 0.999323,0.284105 0.209293,0.258101 0.322523,0.280819 1.237048,0.248192 l 1.006668,-0.03591 0.572557,0.572557 c 0.314906,0.314906 0.676788,0.572557 0.804182,0.572557 0.127394,0 0.472921,0.227284 0.767839,0.505076 0.294917,0.277792 0.64974,0.505077 0.788496,0.505077 0.17427,0 0.252282,0.08427 0.252282,0.272522 0,0.16955 0.333978,0.604521 0.883884,1.151167 0.912098,0.906691 1.006962,1.117752 0.690464,1.5362 -0.101963,0.134808 -0.185388,0.336146 -0.185388,0.447419 0,0.340925 -1.480972,1.769723 -1.834347,1.769723 -0.173337,0 -0.379639,0.111371 -0.4678,0.252538 -0.121761,0.194971 -0.294463,0.252539 -0.757614,0.252539 -0.463152,0 -0.635853,0.05757 -0.757615,0.252538 -0.09127,0.146154 -0.294463,0.252538 -0.482336,0.252538 -0.178544,0 -0.446605,0.113642 -0.595692,0.252538 -0.203458,0.18955 -0.445604,0.252538 -0.970828,0.252538 -0.531401,0 -0.760519,0.06076 -0.952298,0.252538 -0.209477,0.209477 -0.408634,0.250041 -1.167989,0.237891 -0.503497,-0.0081 -1.014887,-0.04063 -1.136421,-0.07239 z"
       id="path64"
       inkscape:connector-curvature="0"
       transform="matrix(0.26458333,0,0,0.26458333,48.105281,139.23702)"
       inkscape:export-filename="D:\Crap\Unity Projects\Jump n RPG\Assets\Sprites\mouth_closed.png"
       inkscape:export-xdpi="81"
       inkscape:export-ydpi="81" />
    <path
       style="fill:#f9f9f9;fill-opacity:1;stroke:#000000;stroke-width:0.79460031;stroke-miterlimit:4;stroke-dasharray:none;stroke-opacity:1"
       d="M 44.594573,39.983552 C 44.316559,39.827938 43.897884,39.77021 43.021074,39.766594 l -1.194691,-0.0049 -0.232554,-0.756571 c -0.127905,-0.416114 -0.364227,-1.261112 -0.525161,-1.877773 -0.26989,-1.034156 -0.27672,-1.137348 -0.08798,-1.329177 0.115542,-0.117435 0.342308,-0.188514 0.52089,-0.163271 0.453617,0.06412 1.514635,-0.762626 1.514635,-1.180206 0,-0.179035 0.07345,-0.309889 0.173942,-0.309889 0.09567,0 0.244679,-0.08523 0.331134,-0.189403 0.08645,-0.104172 0.324029,-0.189404 0.527942,-0.189404 0.429926,0 1.307649,-0.646752 1.410266,-1.039158 0.06358,-0.243117 0.139218,-0.254545 1.311258,-0.198108 1.138522,0.05482 1.27224,0.08834 1.579938,0.396041 0.282529,0.282529 0.446928,0.336149 1.030629,0.336149 0.57242,0 0.749962,0.05548 1.010152,0.315673 0.17362,0.17362 0.453774,0.315672 0.622563,0.315672 0.188013,0 0.38701,0.122279 0.513727,0.315673 0.174136,0.265766 0.304844,0.315673 0.826762,0.315673 0.503605,0 0.63458,0.04617 0.698028,0.246079 0.0704,0.221819 0.331649,0.372591 0.752669,0.434383 0.336052,0.04932 1.711081,1.666178 1.713561,2.014926 0.001,0.149564 0.05379,0.353899 0.117176,0.454077 0.08712,0.137695 0.0019,0.239037 -0.349173,0.415285 -1.142362,0.573479 -1.497527,0.778978 -1.831497,1.059711 -0.303194,0.254863 -0.493413,0.300032 -1.263524,0.300032 -0.498628,0 -1.105095,0.05898 -1.347704,0.131068 -0.24261,0.07209 -1.435478,0.145524 -2.650817,0.163193 -1.785419,0.02596 -2.292231,0.07353 -2.639483,0.24774 -0.514941,0.258341 -0.485623,0.25854 -0.959186,-0.0065 z"
       id="path66"
       inkscape:connector-curvature="0"
       transform="matrix(0.26458333,0,0,0.26458333,48.105281,139.23702)"
       inkscape:export-filename="D:\Crap\Unity Projects\Jump n RPG\Assets\Sprites\mouth_closed.png"
       inkscape:export-xdpi="81"
       inkscape:export-ydpi="81" />
    <path
       style="fill:#f9f9f9;fill-opacity:1;stroke:#000000;stroke-width:0.79460031;stroke-miterlimit:4;stroke-dasharray:none;stroke-opacity:1"
       d="m 29.013064,40.110993 c -0.08109,-0.885462 -0.180562,-1.965062 -0.221055,-2.399112 -0.05252,-0.562986 -0.031,-0.789182 0.07508,-0.789182 0.271732,0 6.879273,0.631966 7.43234,0.710852 0.450771,0.0643 0.593962,0.03032 0.837863,-0.198815 0.234638,-0.220431 0.383164,-0.259671 0.733855,-0.193881 0.378055,0.07092 0.460874,0.153229 0.590909,0.58725 0.105605,0.352476 0.270109,0.568232 0.545254,0.71513 0.601929,0.321366 1.104714,0.915006 1.104714,1.304341 0,0.188768 0.06412,0.382842 0.142484,0.431275 0.394091,0.243561 -0.6046,0.358556 -3.990758,0.459519 -2.599311,0.0775 -3.793218,0.160085 -4.106677,0.28406 -0.243068,0.09613 -0.744155,0.205177 -1.113526,0.242316 -0.369372,0.03714 -0.846875,0.154973 -1.06112,0.261852 -0.784115,0.391168 -0.806958,0.357808 -0.96936,-1.415605 z"
       id="path68"
       inkscape:connector-curvature="0"
       transform="matrix(0.26458333,0,0,0.26458333,48.105281,139.23702)"
       inkscape:export-filename="D:\Crap\Unity Projects\Jump n RPG\Assets\Sprites\mouth_closed.png"
       inkscape:export-xdpi="81"
       inkscape:export-ydpi="81" />
    <path
       style="fill:#f9f9f9;fill-opacity:1;stroke:#000000;stroke-width:0.79460031;stroke-miterlimit:4;stroke-dasharray:none;stroke-opacity:1"
       d="M 22.560621,42.328023 C 22.109209,42.25845 20.39659,42.192828 18.754802,42.182196 l -2.98507,-0.01933 -0.07875,-0.668796 c -0.04331,-0.367838 -0.115055,-1.180259 -0.159427,-1.80538 -0.07027,-0.989924 -0.118915,-1.166662 -0.377013,-1.369682 -0.162984,-0.128203 -0.296335,-0.341403 -0.296335,-0.473776 0,-0.132374 -0.07103,-0.315867 -0.157837,-0.407763 -0.130537,-0.138186 0.02779,-0.153518 0.915451,-0.08865 3.262985,0.238467 4.170001,0.248808 4.32821,0.04935 0.134288,-0.169302 0.359421,-0.177927 1.732705,-0.06639 l 1.578364,0.128196 0.586303,0.615244 c 0.322467,0.338384 0.645359,0.615244 0.717538,0.615244 0.07218,0 0.167371,0.113855 0.211538,0.253012 0.04417,0.139156 0.346306,0.528312 0.671421,0.86479 1.082462,1.120292 1.916944,2.068507 1.916944,2.178207 0,0.156032 -0.389407,0.214767 -1.95717,0.295202 -0.763928,0.03919 -1.531013,0.09412 -1.704633,0.122052 -0.17362,0.02793 -0.685009,-0.0061 -1.136421,-0.07571 z"
       id="path70"
       inkscape:connector-curvature="0"
       transform="matrix(0.26458333,0,0,0.26458333,48.105281,139.23702)"
       inkscape:export-filename="D:\Crap\Unity Projects\Jump n RPG\Assets\Sprites\mouth_closed.png"
       inkscape:export-xdpi="81"
       inkscape:export-ydpi="81" />
    <path
       inkscape:export-filename="D:\Crap\Unity Projects\Jump n RPG\Assets\Sprites\mouth_closed.png"
       inkscape:export-xdpi="81"
       inkscape:export-ydpi="81"
       style="fill:#f9f9f9;fill-opacity:1;stroke:#000000;stroke-width:0.79460031;stroke-miterlimit:4;stroke-dasharray:none;stroke-opacity:1"
       d="m 2.0615192,42.283022 c -0.08456,-1.000342 -0.01311,-1.232578 0.5889207,-1.914179 0.1937488,-0.219357 0.2324652,-0.401065 0.1816026,-0.852316 -0.035554,-0.315438 -0.013585,-0.573523 0.048821,-0.573523 0.062406,0 0.1726987,-0.130002 0.2450947,-0.288894 0.1105612,-0.242656 0.240342,-0.293444 0.8108475,-0.317317 0.5203738,-0.02178 0.7064819,0.02029 0.7957976,0.179893 0.1437966,0.25695 0.4707669,0.264489 2.2163144,0.0511 1.2649905,-0.15464 1.4008527,-0.150312 1.7496667,0.05574 0.3526932,0.208342 0.5027892,0.211743 2.2271816,0.05047 1.016951,-0.09511 1.925449,-0.172931 2.018885,-0.172931 0.107914,0 0.411595,0.74277 0.83252,2.03625 l 0.662639,2.03625 -0.706252,0.08035 c -0.388439,0.04419 -2.325653,0.136256 -4.3049206,0.204591 -1.9792676,0.06833 -4.2805214,0.179916 -5.1138972,0.247959 -2.4036316,0.196249 -2.1594842,0.285473 -2.2532213,-0.823436 z"
       id="path72"
       inkscape:connector-curvature="0"
       transform="matrix(0.26458333,0,0,0.26458333,48.105281,139.23702)" />
  </g>
</svg>
