<?xml version="1.0" encoding="UTF-8" standalone="no"?>
<!-- Created with Inkscape (http://www.inkscape.org/) -->

<svg
   xmlns:dc="http://purl.org/dc/elements/1.1/"
   xmlns:cc="http://creativecommons.org/ns#"
   xmlns:rdf="http://www.w3.org/1999/02/22-rdf-syntax-ns#"
   xmlns:svg="http://www.w3.org/2000/svg"
   xmlns="http://www.w3.org/2000/svg"
   xmlns:sodipodi="http://sodipodi.sourceforge.net/DTD/sodipodi-0.dtd"
   xmlns:inkscape="http://www.inkscape.org/namespaces/inkscape"
   width="19.449764mm"
   height="16.313618mm"
   viewBox="0 0 19.449764 16.313618"
   version="1.1"
   id="svg8"
   inkscape:version="0.92.3 (2405546, 2018-03-11)"
   sodipodi:docname="mouth_open.svg"
   inkscape:export-filename="D:\Crap\Unity Projects\Jump n RPG\Assets\SVGs\mouth_open.png"
   inkscape:export-xdpi="81"
   inkscape:export-ydpi="81">
  <defs
     id="defs2" />
  <sodipodi:namedview
     id="base"
     pagecolor="#ffffff"
     bordercolor="#666666"
     borderopacity="1.0"
     inkscape:pageopacity="0.0"
     inkscape:pageshadow="2"
     inkscape:zoom="8"
     inkscape:cx="29.965585"
     inkscape:cy="39.784866"
     inkscape:document-units="mm"
     inkscape:current-layer="layer1"
     showgrid="false"
     fit-margin-top="0"
     fit-margin-left="0"
     fit-margin-right="0"
     fit-margin-bottom="0"
     inkscape:window-width="1920"
     inkscape:window-height="1017"
     inkscape:window-x="-8"
     inkscape:window-y="-8"
     inkscape:window-maximized="1"
     inkscape:pagecheckerboard="true" />
  <metadata
     id="metadata5">
    <rdf:RDF>
      <cc:Work
         rdf:about="">
        <dc:format>image/svg+xml</dc:format>
        <dc:type
           rdf:resource="http://purl.org/dc/dcmitype/StillImage" />
        <dc:title></dc:title>
      </cc:Work>
    </rdf:RDF>
  </metadata>
  <g
     inkscape:label="Layer 1"
     inkscape:groupmode="layer"
     id="layer1"
     transform="translate(-48.105281,-139.23702)">
    <path
       style="fill:none;stroke:#000000;stroke-width:0.26458332px;stroke-linecap:butt;stroke-linejoin:miter;stroke-opacity:1"
       d="m 49.161476,142.07435 c 0,0.35636 0,0.71272 0,1.06908 0,0.0446 -0.0315,0.10214 0,0.13364 0.0315,0.0315 0.102137,-0.0315 0.133635,0 0.063,0.063 -0.063,0.20427 0,0.26727 0.0315,0.0315 0.08909,0 0.133636,0 0.04454,0 0.08909,0 0.133633,0 0.267269,0 0.53454,0 0.801809,0 0.04455,0 0.08909,0 0.133636,0 0.04454,0 0.09379,-0.0199 0.133633,0 0.05635,0.0282 0.07729,0.10546 0.133636,0.13363 0.03455,0.0173 0.707088,0 0.801809,0 0.04454,0 0.102135,-0.0315 0.133633,0 0.0315,0.0315 -0.0315,0.10214 0,0.13364 0.0315,0.0315 0.08909,0 0.133636,0 0.04908,0 0.529161,0.005 0.534538,0 0.0315,-0.0315 -0.0315,-0.10214 0,-0.13364 0.0315,-0.0315 0.102137,0.0315 0.133635,0 0.06682,-0.0668 -0.06682,-0.33408 0,-0.4009 0.0315,-0.0315 0.102138,0.0315 0.133636,0 0.0315,-0.0315 -0.01992,-0.0938 0,-0.13364 0.02817,-0.0563 0.10546,-0.0773 0.133633,-0.13363 0.03625,-0.0725 -0.03657,-0.49798 0,-0.53454 0.0315,-0.0315 0.102137,0.0315 0.133636,0 0.131829,-0.13183 -0.273828,-0.26727 0.133636,-0.26727"
       id="path10"
       inkscape:connector-curvature="0"
       inkscape:export-xdpi="81"
       inkscape:export-ydpi="81" />
    <path
       style="fill:none;stroke:#000000;stroke-width:0.26458332px;stroke-linecap:butt;stroke-linejoin:miter;stroke-opacity:1"
       d="m 53.036886,142.20799 c -0.08909,0.53454 -0.222266,1.06358 -0.267272,1.60362 -0.0037,0.0444 0.08909,0 0.133636,0 0.08909,0 0.178178,0 0.267269,0 0.267269,0 0.53454,0 0.801809,0 0.493784,0 0.358905,0 0.668173,0 0.04455,0 0.08909,0 0.133636,0 0.04454,0 0.102137,-0.0315 0.133633,0 0.0315,0.0315 -0.0315,0.10213 0,0.13363 0.0043,0.004 0.368496,0 0.400905,0 0.04454,0 0.102137,0.0315 0.133636,0 0.0315,-0.0315 -0.01992,-0.0938 0,-0.13363 0.278077,-0.55616 -0.0092,0.14286 0.267269,-0.13364 0.0315,-0.0315 -0.0315,-0.10214 0,-0.13363 0.0315,-0.0315 0.102137,0.0315 0.133635,0 0.0315,-0.0315 -0.0315,-0.10214 0,-0.13364 0.0315,-0.0315 0.102137,0.0315 0.133633,0 0.063,-0.063 -0.06299,-0.20427 0,-0.26727 0.0315,-0.0315 0.102138,0.0315 0.133636,0 0.06299,-0.063 -0.063,-0.20427 0,-0.26727 0.0315,-0.0315 0.102137,0.0315 0.133636,0 0.063,-0.063 -0.063,-0.20427 0,-0.26727 0.178178,-0.17818 0.133633,0.22273 0.133633,-0.13363"
       id="path12"
       inkscape:connector-curvature="0"
       inkscape:export-xdpi="81"
       inkscape:export-ydpi="81" />
    <path
       style="fill:none;stroke:#000000;stroke-width:0.26458332px;stroke-linecap:butt;stroke-linejoin:miter;stroke-opacity:1"
       d="m 56.377753,142.47526 c -0.222724,0.57908 -0.485711,1.14425 -0.668173,1.73725 -0.0131,0.0426 0.08909,0 0.133635,0 0.04455,0 0.08909,0 0.133633,0 0.222727,0 0.44545,0 0.668174,0 0.04908,0 0.529161,-0.005 0.53454,0 0.0315,0.0315 -0.0315,0.10214 0,0.13364 0.0315,0.0315 0.08909,0 0.133636,0 0.04454,0 0.08909,0 0.133633,0 0.222726,0 0.44545,0 0.668173,0 0.04455,0 0.102138,0.0315 0.133636,0 0.0315,-0.0315 -0.0315,-0.10214 0,-0.13364 0.0315,-0.0315 0.102137,0.0315 0.133636,0 0.0315,-0.0315 -0.0315,-0.10213 0,-0.13363 0.0315,-0.0315 0.09379,0.0199 0.133633,0 0.556157,-0.27808 -0.142859,0.009 0.133636,-0.26727 0.0315,-0.0315 0.102137,0.0315 0.133633,0 0.0315,-0.0315 -0.0315,-0.10214 0,-0.13364 0.0315,-0.0315 0.102137,0.0315 0.133636,0 0.0315,-0.0315 -0.0315,-0.10214 0,-0.13363 0.0315,-0.0315 0.102137,0.0315 0.133635,0 0.0315,-0.0315 -0.0315,-0.10214 0,-0.13364 0.0315,-0.0315 0.102138,0.0315 0.133634,0 0.0315,-0.0315 -0.01992,-0.0938 0,-0.13363 0.02817,-0.0564 0.105462,-0.0773 0.133635,-0.13364 0.08909,-0.17818 -0.133635,-0.13363 0.133636,-0.13363"
       id="path14"
       inkscape:connector-curvature="0"
       inkscape:export-xdpi="81"
       inkscape:export-ydpi="81" />
    <path
       style="fill:none;stroke:#000000;stroke-width:0.26458332px;stroke-linecap:butt;stroke-linejoin:miter;stroke-opacity:1"
       d="m 59.451354,143.0098 c -0.222726,0.62363 -0.486251,1.23416 -0.668176,1.87089 -0.01225,0.0428 0.102137,-0.0315 0.133636,0 0.0315,0.0315 -0.0315,0.10213 0,0.13363 0.063,0.063 0.204274,-0.063 0.267269,0 0.0315,0.0315 -0.0315,0.10214 0,0.13363 0.0315,0.0315 0.102137,-0.0315 0.133635,0 0.063,0.063 -0.063,0.20428 0,0.26727 0.0315,0.0315 0.102137,-0.0315 0.133636,0 0.0315,0.0315 -0.0315,0.10214 0,0.13364 0.063,0.063 0.204272,-0.063 0.267269,0 0.0315,0.0315 -0.0315,0.10214 0,0.13363 0.0315,0.0315 0.102137,-0.0315 0.133636,0 0.06299,0.063 -0.063,0.20428 0,0.26727 0.06299,0.063 0.267268,-0.0891 0.267268,0 0,0.0446 -0.178181,0 -0.133635,0 0.222726,0 0.44545,0 0.668173,0 0.04454,0 0.102137,0.0315 0.133636,0 0.0315,-0.0315 -0.0315,-0.10213 0,-0.13363 0.02732,-0.0273 0.347919,0.0265 0.400905,0 0.05635,-0.0282 0.07729,-0.10546 0.133633,-0.13364 0.07968,-0.0398 0.204274,0.063 0.267271,0 0.0315,-0.0315 -0.0315,-0.10213 0,-0.13363 0.06681,-0.0668 0.334087,0.0668 0.400905,0 0.0315,-0.0315 -0.0315,-0.10214 0,-0.13364 0.06299,-0.063 0.204271,0.063 0.267269,0 0.0315,-0.0315 -0.0315,-0.10213 0,-0.13363 0.0315,-0.0315 0.102137,0.0315 0.133633,0 0.0315,-0.0315 -0.0315,-0.10214 0,-0.13364 0.0315,-0.0315 0.102137,0.0315 0.133635,0 0.0315,-0.0315 -0.0315,-0.10213 0,-0.13363 0.0315,-0.0315 0.102138,0.0315 0.133636,0 0.063,-0.063 -0.063,-0.20428 0,-0.26727 0.0315,-0.0315 0.102137,0.0315 0.133633,0 0.131829,-0.13183 -0.273828,-0.26727 0.133636,-0.26727"
       id="path18"
       inkscape:connector-curvature="0"
       inkscape:export-xdpi="81"
       inkscape:export-ydpi="81" />
    <path
       style="fill:none;stroke:#000000;stroke-width:0.26458332px;stroke-linecap:butt;stroke-linejoin:miter;stroke-opacity:1"
       d="m 52.156678,152.80116 c -0.03524,-0.35462 -0.07048,-0.70923 -0.105718,-1.06384 -0.0044,-0.0444 0.02124,-0.10476 -0.01322,-0.13299 -0.03446,-0.0282 -0.09852,0.0414 -0.13298,0.0132 -0.06892,-0.0565 0.04249,-0.2095 -0.02643,-0.26596 -0.03446,-0.0282 -0.08865,0.009 -0.132981,0.0132 -0.04432,0.004 -0.08865,0.009 -0.132978,0.0132 -0.265959,0.0264 -0.53192,0.0529 -0.797879,0.0793 -0.04433,0.004 -0.08865,0.009 -0.132981,0.0132 -0.04432,0.004 -0.09136,0.0291 -0.132978,0.0132 -0.05886,-0.0225 -0.08734,-0.0973 -0.146195,-0.11976 -0.03609,-0.0138 -0.703623,0.0699 -0.797879,0.0793 -0.04432,0.004 -0.09852,0.0414 -0.132978,0.0132 -0.03446,-0.0282 0.02125,-0.10476 -0.01322,-0.13299 -0.03446,-0.0282 -0.08865,0.009 -0.132981,0.0132 -0.04884,0.005 -0.527062,0.0473 -0.531918,0.0529 -0.02823,0.0345 0.04145,0.0985 0.01322,0.13298 -0.02823,0.0345 -0.104752,-0.0212 -0.13298,0.0132 -0.05989,0.0731 0.09953,0.32583 0.03964,0.39893 -0.02823,0.0345 -0.104752,-0.0212 -0.132981,0.0132 -0.02823,0.0345 0.0291,0.0914 0.01322,0.13298 -0.02246,0.0588 -0.0973,0.0873 -0.119764,0.14619 -0.0289,0.0757 0.08564,0.49192 0.05286,0.53192 -0.02823,0.0345 -0.104751,-0.0212 -0.132981,0.0132 -0.118147,0.14422 0.298915,0.23888 -0.106551,0.27917"
       id="path10-1"
       inkscape:connector-curvature="0"
       inkscape:transform-center-x="-19.824053"
       inkscape:transform-center-y="1.1963769"
       inkscape:export-xdpi="81"
       inkscape:export-ydpi="81" />
    <path
       style="fill:none;stroke:#000000;stroke-width:0.27233437px;stroke-linecap:butt;stroke-linejoin:miter;stroke-opacity:1"
       d="m 55.68133,152.57398 c -0.03792,-0.54073 -0.122899,-1.08035 -0.113768,-1.62219 7.5e-4,-0.0446 0.09392,0.009 0.140886,0.0132 0.09392,0.009 0.187845,0.0176 0.28177,0.0264 0.28177,0.0264 0.563542,0.0529 0.845312,0.0793 0.520575,0.0488 0.378378,0.0355 0.704426,0.0661 0.04697,0.004 0.09392,0.009 0.140886,0.0132 0.04695,0.004 0.104377,0.0414 0.140884,0.0132 0.03651,-0.0282 -0.02251,-0.10475 0.014,-0.13298 0.005,-0.004 0.388489,0.0364 0.422657,0.0397 0.04695,0.004 0.110979,-0.0213 0.140886,0.0132 0.02991,0.0345 -0.03083,0.0914 -0.01399,0.13298 0.234898,0.58093 0.0053,-0.14307 0.267769,0.15941 0.02991,0.0345 -0.04391,0.0985 -0.01401,0.13298 0.02991,0.0345 0.11098,-0.0213 0.140886,0.0132 0.02991,0.0345 -0.04391,0.0985 -0.01401,0.13299 0.02991,0.0345 0.110978,-0.0213 0.140883,0.0132 0.05982,0.0689 -0.08781,0.19704 -0.028,0.26596 0.02991,0.0345 0.110979,-0.0213 0.140887,0.0132 0.0598,0.0689 -0.08782,0.19704 -0.028,0.26596 0.02991,0.0345 0.110979,-0.0212 0.140887,0.0132 0.05982,0.0689 -0.08782,0.19704 -0.028,0.26596 0.169178,0.19493 0.164218,-0.20842 0.126884,0.14619"
       id="path12-6"
       inkscape:connector-curvature="0"
       inkscape:transform-center-x="17.22425"
       inkscape:transform-center-y="1.2779319"
       inkscape:export-xdpi="81"
       inkscape:export-ydpi="81" />
    <path
       style="fill:none;stroke:#000000;stroke-width:0.28082669px;stroke-linecap:butt;stroke-linejoin:miter;stroke-opacity:1"
       d="m 52.156678,152.80116 c -0.186202,-0.59496 -0.419349,-1.1801 -0.558605,-1.78487 -0.01,-0.0434 0.100426,0.009 0.150644,0.0131 0.05022,0.004 0.100425,0.009 0.150641,0.0131 0.251075,0.0219 0.502147,0.0438 0.753218,0.0657 0.05533,0.005 0.595951,0.057 0.602575,0.0526 0.03904,-0.0281 -0.02407,-0.10417 0.01496,-0.13225 0.03904,-0.028 0.100425,0.009 0.150644,0.0131 0.05021,0.004 0.100426,0.009 0.150642,0.0131 0.251075,0.0219 0.502146,0.0438 0.753216,0.0657 0.05022,0.004 0.118668,-0.0211 0.150645,0.0131 0.03198,0.0343 -0.04696,0.098 -0.01498,0.13224 0.03198,0.0343 0.118665,-0.0211 0.150645,0.0131 0.03198,0.0343 -0.04694,0.0979 -0.01497,0.13223 0.03198,0.0343 0.107959,-0.0104 0.150642,0.0131 0.595792,0.32987 -0.160034,-0.023 0.120704,0.27762 0.03198,0.0343 0.118666,-0.0212 0.150642,0.0131 0.03198,0.0343 -0.04696,0.0979 -0.01498,0.13225 0.03198,0.0343 0.118665,-0.0211 0.150644,0.0131 0.03198,0.0343 -0.04696,0.0979 -0.01496,0.13224 0.03198,0.0343 0.118665,-0.0212 0.150644,0.0131 0.03198,0.0343 -0.04696,0.098 -0.01498,0.13225 0.03198,0.0343 0.118667,-0.0212 0.150642,0.0131 0.03198,0.0343 -0.03297,0.0909 -0.01497,0.13224 0.02543,0.0586 0.110225,0.0869 0.135674,0.14539 0.08046,0.18509 -0.165613,0.1191 0.135675,0.14538"
       id="path14-4"
       inkscape:connector-curvature="0"
       inkscape:transform-center-x="14.986738"
       inkscape:transform-center-y="1.2172833"
       inkscape:export-xdpi="81"
       inkscape:export-ydpi="81" />
    <path
       style="fill:none;stroke:#000000;stroke-width:0.27801526px;stroke-linecap:butt;stroke-linejoin:miter;stroke-opacity:1"
       d="m 59.231455,152.63834 c -0.17662,-0.6426 -0.399496,-1.2762 -0.529857,-1.9278 -0.0088,-0.0438 0.108777,0.0415 0.146826,0.0132 0.03805,-0.0282 -0.02346,-0.10474 0.0146,-0.13298 0.0761,-0.0565 0.217557,0.0829 0.293648,0.0264 0.03805,-0.0282 -0.02345,-0.10475 0.01458,-0.13297 0.03805,-0.0282 0.108777,0.0414 0.146825,0.0132 0.0761,-0.0565 -0.04691,-0.2095 0.02918,-0.26596 0.03805,-0.0282 0.108777,0.0415 0.146826,0.0132 0.03805,-0.0282 -0.02346,-0.10476 0.0146,-0.13299 0.0761,-0.0565 0.217555,0.0829 0.293648,0.0264 0.03805,-0.0282 -0.02345,-0.10475 0.01459,-0.13297 0.03805,-0.0282 0.108777,0.0414 0.146825,0.0132 0.07608,-0.0565 -0.04691,-0.20951 0.02918,-0.26596 0.07608,-0.0565 0.283919,0.1151 0.293647,0.0264 0.0049,-0.0444 -0.195768,-0.0176 -0.146825,-0.0132 0.244709,0.022 0.489416,0.044 0.734121,0.0661 0.04893,0.004 0.115657,-0.0212 0.146826,0.0132 0.03117,0.0345 -0.04575,0.0985 -0.01459,0.13297 0.02704,0.0299 0.385151,0.008 0.440474,0.0397 0.05883,0.0336 0.0734,0.11258 0.13223,0.1462 0.0832,0.0475 0.231315,-0.0425 0.293651,0.0264 0.03117,0.0345 -0.04577,0.0985 -0.01459,0.13298 0.06611,0.0731 0.374354,-0.0334 0.440474,0.0396 0.03117,0.0345 -0.04577,0.0985 -0.0146,0.13299 0.06233,0.0689 0.231311,-0.0425 0.293648,0.0264 0.03117,0.0345 -0.04575,0.0985 -0.01459,0.13297 0.03117,0.0345 0.115657,-0.0212 0.146823,0.0132 0.03117,0.0345 -0.04577,0.0985 -0.0146,0.13298 0.03117,0.0345 0.115658,-0.0212 0.146825,0.0132 0.03117,0.0345 -0.04575,0.0985 -0.01458,0.13297 0.03117,0.0345 0.115657,-0.0212 0.146825,0.0132 0.06234,0.0689 -0.09152,0.19705 -0.02918,0.26596 0.03117,0.0345 0.115657,-0.0212 0.146823,0.0132 0.130446,0.14422 -0.330036,0.23888 0.117644,0.27918"
       id="path18-3"
       inkscape:connector-curvature="0"
       inkscape:transform-center-x="10.892777"
       inkscape:transform-center-y="0.45323442"
       inkscape:export-xdpi="81"
       inkscape:export-ydpi="81" />
    <path
       style="fill:none;stroke:#000000;stroke-width:0.26458332px;stroke-linecap:butt;stroke-linejoin:miter;stroke-opacity:1"
       d="m 48.287045,153.05129 c 0.207759,0.0526 0.413478,0.11399 0.623279,0.1577 0.04361,0.009 0.08909,0 0.133633,0 0.04454,0 0.102137,0.0315 0.133636,0 0.0315,-0.0315 -0.0315,-0.10213 0,-0.13363 0.0315,-0.0315 0.08909,0 0.133633,0 0.267272,0 0.53454,0 0.801809,0 0.222726,0 0.44545,0 0.668174,0 0.04455,0 0.102137,-0.0315 0.133635,0 0.0315,0.0315 -0.0315,0.10213 0,0.13363 0.0043,0.004 0.368494,0 0.400905,0 0.04455,0 0.178178,0 0.133636,0 -0.08909,0 -0.35636,0 -0.267272,0 0.35636,0 0.712719,0 1.069078,0 0.35636,0 0.712719,0 1.069078,0 0.04455,0 0.102137,0.0315 0.133636,0 0.0315,-0.0315 -0.0315,-0.10213 0,-0.13363 0.0315,-0.0315 0.08909,0 0.133636,0 0.267269,0 0.534538,0 0.801806,0 0.04455,0 0.102138,0.0315 0.133636,0 0.0315,-0.0315 -0.0315,-0.10214 0,-0.13364 0.04138,-0.0414 0.626795,0.0414 0.668174,0 0.0315,-0.0315 -0.0315,-0.10214 0,-0.13363 0.03657,-0.0366 0.462044,0.0362 0.53454,0 0.05634,-0.0282 0.07729,-0.10546 0.133633,-0.13364 0.07968,-0.0398 0.204274,0.063 0.267269,0 0.0315,-0.0315 -0.0315,-0.10213 0,-0.13363 0.0043,-0.004 0.368496,0 0.400904,0 0.489996,0 0.979991,0 1.469983,0 0.04454,0 0.08909,0 0.133636,0 0.04454,0 0.102137,0.0315 0.133636,0 0.0315,-0.0315 -0.0315,-0.10214 0,-0.13364 0.0315,-0.0315 0.08909,0 0.133633,0 0.267269,0 0.53454,0 0.801809,0 0.400905,0 0.801809,0 1.202714,0 0.04454,0 0.08909,0 0.133633,0 0.04454,0 0.102137,0.0315 0.133636,0 0.0315,-0.0315 -0.0315,-0.10213 0,-0.13363 0.0061,-0.006 0.605165,0 0.668173,0 0.04454,0 0.102137,0.0315 0.133636,0 0.0315,-0.0315 -0.0315,-0.10214 0,-0.13363 0.0315,-0.0315 0.102134,0.0315 0.133633,0 0.0315,-0.0315 -0.0315,-0.10214 0,-0.13364 0.063,-0.063 0.204274,0.063 0.267269,0 0.0315,-0.0315 -0.0315,-0.10214 0,-0.13364 0.063,-0.063 0.204274,0.063 0.267271,0 0.0315,-0.0315 -0.0315,-0.10213 0,-0.13363 0.0315,-0.0315 0.09379,0.0199 0.133633,0 0.05635,-0.0282 0.07729,-0.10546 0.133636,-0.13364 0.07968,-0.0398 0.204274,0.063 0.267269,0 0.0315,-0.0315 -0.0315,-0.10213 0,-0.13363 0.0315,-0.0315 0.102137,0.0315 0.133636,0 0.0315,-0.0315 -0.0315,-0.10214 0,-0.13363 0.0315,-0.0315 0.102137,0.0315 0.133633,0 0.0315,-0.0315 -0.0315,-0.10214 0,-0.13364 0.063,-0.063 0.187587,0.0398 0.267271,0 0.556154,-0.27808 -0.142861,0.009 0.133633,-0.26727 0.178181,-0.17818 0.133636,0.22273 0.133636,-0.13363 0,-0.35636 -0.04454,0.0445 0.133636,-0.13364 0.0315,-0.0315 -0.0315,-0.10213 0,-0.13363 0.0315,-0.0315 0.102134,0.0315 0.133633,0 0.063,-0.063 -0.063,-0.20428 0,-0.26727 0.0315,-0.0315 0.102137,0.0315 0.133636,0 0.06299,-0.063 -0.03984,-0.18759 0,-0.26727 0.02817,-0.0563 0.105463,-0.0773 0.133633,-0.13364 0.04615,-0.0923 -0.04691,-0.62126 0,-0.66817 0.0315,-0.0315 0.102137,0.0315 0.133636,0 0.0315,-0.0315 0,-0.0891 0,-0.13364 0,-0.0445 0,-0.0891 0,-0.13363 0,-0.44545 0,-0.8909 0,-1.33635 0,-0.22272 0,-0.44545 0,-0.66817 0,-0.0445 0.0315,-0.10214 0,-0.13364 -0.0315,-0.0315 -0.102138,0.0315 -0.133636,0 -0.06681,-0.0668 0.06682,-0.33408 0,-0.4009 -0.0315,-0.0315 -0.102135,0.0315 -0.133633,0 -0.0315,-0.0315 0.01992,-0.0938 0,-0.13364 -0.278077,-0.55615 0.0092,0.14286 -0.267269,-0.13363 -0.063,-0.063 0.063,-0.20427 0,-0.26727 -0.0315,-0.0315 -0.102137,0.0315 -0.133636,0 -0.0315,-0.0315 0.0315,-0.10214 0,-0.13364 -0.0315,-0.0315 -0.102137,0.0315 -0.133636,0 -0.0315,-0.0315 0.0315,-0.10213 0,-0.13363 -0.0315,-0.0315 -0.102137,0.0315 -0.133633,0 -0.063,-0.063 0.063,-0.20427 0,-0.26727 -0.0315,-0.0315 -0.102137,0.0315 -0.133635,0 -0.063,-0.063 0.063,-0.20427 0,-0.26727 -0.0315,-0.0315 -0.102138,0.0315 -0.133636,0 -0.063,-0.063 0.063,-0.20427 0,-0.26727 -0.0315,-0.0315 -0.102135,0.0315 -0.133633,0 -0.06682,-0.0668 0.06682,-0.33408 0,-0.4009 -0.0315,-0.0315 -0.102137,0.0315 -0.133636,0 -0.0315,-0.0315 0.0315,-0.10214 0,-0.13364 -0.0315,-0.0315 -0.102137,0.0315 -0.133633,0 -0.0315,-0.0315 0.0315,-0.10213 0,-0.13363 -0.0315,-0.0315 -0.102137,0.0315 -0.133636,0 -0.0315,-0.0315 0.0315,-0.10214 0,-0.13364 -0.0315,-0.0315 -0.102137,0.0315 -0.133636,0 -0.06299,-0.063 0.063,-0.20427 0,-0.26727 -0.06299,-0.063 -0.204271,0.063 -0.267269,0 -0.0315,-0.0315 0.0315,-0.10213 0,-0.13363 -0.0315,-0.0315 -0.102137,0.0315 -0.133635,0 -0.0315,-0.0315 0.0315,-0.10214 0,-0.13363 -0.063,-0.063 -0.204272,0.063 -0.267269,0 -0.0315,-0.0315 0.0315,-0.10214 0,-0.13364 -0.0315,-0.0315 -0.102137,0.0315 -0.133633,0 -0.0315,-0.0315 0.0315,-0.10214 0,-0.13364 -0.04138,-0.0414 -0.626795,0.0414 -0.668176,0 -0.0315,-0.0315 0.0315,-0.10213 0,-0.13363 -0.03215,-0.0322 -0.502381,0.0322 -0.534538,0 -0.0315,-0.0315 0.0315,-0.10214 0,-0.13364 -0.0315,-0.0315 -0.08909,0 -0.133636,0 -0.311814,0 -0.623628,0 -0.935442,0 -0.03241,0 -0.396608,0.004 -0.400905,0 -0.0315,-0.0315 0.0315,-0.10213 0,-0.13363 -0.0054,-0.005 -0.485462,0 -0.534537,0 -0.311817,0 -0.623631,0 -0.935445,0 -0.04455,0 -0.102137,0.0315 -0.133636,0 -0.0315,-0.0315 0.0315,-0.10214 0,-0.13363 -0.06682,-0.0668 -0.334087,0.0668 -0.400902,0 -0.0315,-0.0315 0.0315,-0.10214 0,-0.13364 -0.02732,-0.0273 -0.347919,0.0265 -0.400905,0 -0.05635,-0.0282 -0.07729,-0.10546 -0.133635,-0.13363 -0.07969,-0.0399 -0.204275,0.063 -0.267269,0 -0.0315,-0.0315 0.0315,-0.10214 0,-0.13364 -0.0315,-0.0315 -0.08909,0 -0.133636,0 -0.04454,0 -0.08909,0 -0.133633,0 -0.267272,0 -0.53454,0 -0.801809,0 -0.04455,0 -0.102137,0.0315 -0.133636,0 -0.0315,-0.0315 0.0315,-0.10214 0,-0.13363 -0.063,-0.063 -0.204274,0.063 -0.267269,0 -0.0315,-0.0315 0.0315,-0.10214 0,-0.13364 -0.0315,-0.0315 -0.08909,0 -0.133636,0 -0.04454,0 -0.08909,0 -0.133633,0 -0.311814,0 -0.623631,0 -0.935445,0 -0.04455,0 -0.102137,0.0315 -0.133633,0 -0.0315,-0.0315 0.0315,-0.10213 0,-0.13363 -0.0315,-0.0315 -0.08909,0 -0.133636,0 -0.04454,0 -0.08909,0 -0.133635,0 -0.489993,0 -0.979988,0 -1.46998,0 -0.311817,0 -0.623631,0 -0.935445,0 -0.04454,0 -0.102137,0.0315 -0.133636,0 -0.0315,-0.0315 0.0315,-0.10214 0,-0.13364 -0.0315,-0.0315 -0.08909,0 -0.133633,0 -0.04454,0 -0.08909,0 -0.133636,0 -0.267269,0 -0.534537,0 -0.801809,0 -0.04454,0 -0.133633,0.0446 -0.133633,0 0,-0.0445 0.178178,0 0.133633,0 -0.178178,0 -0.356359,0 -0.534538,0 -0.08909,0 -0.340582,-0.0506 -0.267269,0 0.204037,0.14088 0.434703,0.23863 0.652055,0.35795"
       id="path50"
       inkscape:connector-curvature="0"
       inkscape:export-xdpi="81"
       inkscape:export-ydpi="81" />
    <path
       style="fill:none;stroke:#000000;stroke-width:0.26458332px;stroke-linecap:butt;stroke-linejoin:miter;stroke-opacity:1"
       d="m 48.287045,153.05129 c -0.05037,0.23201 -0.0449,0.45939 -0.0449,0.69224 0,0.0223 0,0.0446 0,0.0668 0,0.0223 -0.0099,0.0469 0,0.0668 0.01408,0.0282 0.05273,0.0386 0.06682,0.0668 0.01992,0.0399 -0.0315,0.10214 0,0.13364 0.01574,0.0157 0.05107,-0.0157 0.06682,0 0.003,0.003 0,0.30258 0,0.33408 0,0.0223 0.01574,0.0511 0,0.0668 -0.01574,0.0157 -0.05107,-0.0157 -0.06682,0 -0.01574,0.0157 0,0.0445 0,0.0668 0,0.0223 0,0.0445 0,0.0668 0,0.0445 0,0.0891 0,0.13363 0,0.0223 0.02228,0.0668 0,0.0668 -0.02228,0 0,-0.0891 0,-0.0668 0,0.0445 0,0.0891 0,0.13364 0,0.0315 -0.003,0.33105 0,0.33408 0.0027,0.003 0.242731,0 0.267271,0 0.178179,0 -0.02228,-0.0223 0.06682,0.0668 0.01574,0.0157 0.04454,0 0.06682,0 0.133636,0 0.267269,0 0.400905,0 0.0315,0 0.33106,-0.003 0.334087,0 0.01574,0.0157 -0.01574,0.0511 0,0.0668 0.0021,0.002 0.184248,0 0.200453,0 0.178179,0 0.35636,0 0.534538,0 0.03494,0 0.249701,-0.009 0.267269,0 0.02817,0.0141 0.03865,0.0527 0.06682,0.0668 0.01757,0.009 0.23233,0 0.267269,0 0.222726,0 0.44545,0 0.668176,0 0.623628,0 1.247256,0 1.870884,0 0.311814,0 0.623631,0 0.935445,0 0.133633,0 0.267269,0 0.400905,0 0.03009,0 0.180115,0.0102 0.200451,0 0.02817,-0.0141 0.03865,-0.0527 0.06682,-0.0668 0.0213,-0.0106 0.27437,0 0.334086,0 0.178179,0 0.35636,0 0.534538,0 0.05379,0 0.225333,0.014 0.267272,0 0.04725,-0.0157 0.08639,-0.0511 0.133633,-0.0668 0.0377,-0.0126 0.156546,0 0.200453,0 0.111361,0 0.222724,0 0.334087,0 0.02228,0 0.04454,0 0.06682,0 0.02228,0 0.05107,0.0157 0.06681,0 0.01574,-0.0157 -0.01574,-0.0511 0,-0.0668 0.0021,-0.002 0.184248,0 0.200454,0 0.0315,0 0.331057,0.003 0.334087,0 0.01574,-0.0157 -0.01574,-0.0511 0,-0.0668 0.01574,-0.0157 0.04455,0 0.06682,0 0.02228,0 0.04455,0 0.06682,0 0.133633,0 0.267269,0 0.400902,0 0.03009,0 0.180118,0.0102 0.200454,0 0.02817,-0.0141 0.03865,-0.0527 0.06682,-0.0668 0.01728,-0.009 0.353544,0 0.400904,0 0.02228,0 0.04454,0 0.06682,0 0.02228,0 0.05107,0.0157 0.06682,0 0.01574,-0.0157 -0.01574,-0.0511 0,-0.0668 0.01365,-0.0136 0.173961,0.0133 0.200454,0 0.02817,-0.0141 0.03864,-0.0527 0.06681,-0.0668 0.042,-0.021 0.225275,0.021 0.267272,0 0.02817,-0.0141 0.03865,-0.0527 0.06682,-0.0668 0.04057,-0.0203 0.36033,0.0203 0.400902,0 0.02817,-0.0141 0.03865,-0.0527 0.06682,-0.0668 0.02416,-0.0121 0.287612,0 0.334086,0 0.02228,0 0.05107,0.0157 0.06682,0 0.01574,-0.0157 -0.01574,-0.0511 0,-0.0668 0.01574,-0.0157 0.04454,0 0.06682,0 0.111363,0 0.222724,0 0.334087,0 0.02228,0 0.05107,0.0157 0.06682,0 0.01574,-0.0157 -0.01574,-0.0511 0,-0.0668 0.01574,-0.0157 0.04454,0 0.06682,0 0.02228,0 0.04454,0 0.06682,0 0.222726,0 0.44545,0 0.668176,0 0.01619,0 0.198302,0.002 0.200451,0 0.01574,-0.0157 -0.01574,-0.0511 0,-0.0668 0.01574,-0.0157 0.04454,0 0.06682,0 0.04647,0 0.309922,0.0121 0.334086,0 0.02817,-0.0141 0.03865,-0.0527 0.06682,-0.0668 0.042,-0.021 0.225272,0.021 0.267269,0 0.02817,-0.0141 0.03864,-0.0527 0.06682,-0.0668 0.042,-0.021 0.225272,0.021 0.267269,0 0.02817,-0.0141 0.03865,-0.0527 0.06682,-0.0668 0.01992,-0.01 0.04689,0.01 0.06682,0 0.02817,-0.0141 0.03864,-0.0527 0.06681,-0.0668 0.03625,-0.0181 0.248989,0.0183 0.267271,0 0.08909,-0.0891 -0.111363,-0.0668 0.06682,-0.0668 0.02228,0 0.04454,0 0.06681,0 0.02228,0 0.05107,0.0157 0.06682,0 0.01574,-0.0157 -0.01574,-0.0511 0,-0.0668 0.01574,-0.0157 0.05107,0.0157 0.06682,0 0.01574,-0.0157 -0.01574,-0.0511 0,-0.0668 0.0315,-0.0315 0.09379,0.0199 0.133636,0 0.02817,-0.0141 0.03864,-0.0527 0.06681,-0.0668 0.01992,-0.01 0.05107,0.0157 0.06682,0 0.01574,-0.0157 -0.01574,-0.0511 0,-0.0668 0.0315,-0.0315 0.102137,0.0315 0.133636,0 0.01574,-0.0157 -0.0099,-0.0469 0,-0.0668 0.139038,-0.27808 -0.0046,0.0714 0.133633,-0.0668 0.01574,-0.0157 -0.01574,-0.0511 0,-0.0668 0.0315,-0.0315 0.102137,0.0315 0.133636,0 0.01574,-0.0157 -0.01574,-0.0511 0,-0.0668 0.0315,-0.0315 0.102137,0.0315 0.133635,0 0.01574,-0.0157 -0.01574,-0.0511 0,-0.0668 0.01574,-0.0157 0.05107,0.0157 0.06682,0 0.01574,-0.0157 -0.01574,-0.0511 0,-0.0668 0.0315,-0.0315 0.102135,0.0315 0.133633,0 0.01574,-0.0157 -0.01574,-0.0511 0,-0.0668 0.01574,-0.0157 0.05107,0.0157 0.06682,0 0.01574,-0.0157 -0.01574,-0.0511 0,-0.0668 0.03341,-0.0334 0.167045,0.0334 0.200451,0 0.0315,-0.0315 -0.0315,-0.10213 0,-0.13363 0.01574,-0.0158 0.05107,0.0157 0.06682,0 0.01574,-0.0158 -0.01574,-0.0511 0,-0.0668 0.0315,-0.0315 0.102137,0.0315 0.133636,0 0.01574,-0.0157 -0.01574,-0.0511 0,-0.0668 0.01574,-0.0157 0.0469,0.01 0.06682,0 0.02817,-0.0141 0.03865,-0.0527 0.06682,-0.0668 0.01992,-0.01 0.05107,0.0157 0.06682,0 0,-0.17819 -0.02228,0.0223 0.06682,-0.0668 0.01574,-0.0157 -0.01574,-0.0511 0,-0.0668 0.0315,-0.0315 0.102137,0.0315 0.133635,0 0.01574,-0.0157 -0.01574,-0.0511 0,-0.0668 0.01574,-0.0157 0.05107,0.0157 0.06682,0 0.01574,-0.0157 -0.01574,-0.0511 0,-0.0668 0.0315,-0.0315 0.09379,0.0199 0.133633,0 0.27808,-0.13903 -0.07143,0.005 0.06682,-0.13363 0.01574,-0.0157 0.05107,0.0157 0.06682,0 0.01574,-0.0157 -0.01574,-0.0511 0,-0.0668 0.0315,-0.0315 0.102137,0.0315 0.133633,0 0.01574,-0.0157 -0.01574,-0.0511 0,-0.0668 0.01574,-0.0157 0.05107,0.0157 0.06682,0 0.01574,-0.0157 0,-0.0446 0,-0.0668 0.02228,0 0.05107,0.0157 0.06682,0 0.01574,-0.0157 -0.01574,-0.0511 0,-0.0668 0.0315,-0.0315 0.102137,0.0315 0.133636,0 0.01574,-0.0157 0,-0.0445 0,-0.0668 0.02228,0 0.05107,0.0157 0.06682,0 0.01574,-0.0157 -0.01574,-0.0511 0,-0.0668 0.01574,-0.0157 0.05107,0.0157 0.06682,0 0.01574,-0.0157 -0.01574,-0.0511 0,-0.0668 0.01574,-0.0157 0.05107,0.0157 0.06682,0 0.01574,-0.0157 -0.01574,-0.0511 0,-0.0668 0.01574,-0.0157 0.05107,0.0157 0.06682,0 0.01574,-0.0157 -0.01574,-0.0511 0,-0.0668 0.01574,-0.0157 0.05107,0.0158 0.06682,0 0.01574,-0.0157 -0.01574,-0.0511 0,-0.0668 0.01574,-0.0157 0.05107,0.0157 0.06682,0 0.0315,-0.0315 -0.01992,-0.0938 0,-0.13364 0.139039,-0.27808 -0.0046,0.0714 0.133633,-0.0668 0.03341,-0.0334 -0.03341,-0.16704 0,-0.20045 0.01574,-0.0157 0.05107,0.0157 0.06682,0 0.01574,-0.0157 -0.01574,-0.0511 0,-0.0668 0.01574,-0.0157 0.05107,0.0157 0.06682,0 0.0315,-0.0315 -0.01992,-0.0938 0,-0.13363 0.01408,-0.0282 0.05273,-0.0387 0.06682,-0.0668 0.0099,-0.0199 -0.01574,-0.0511 0,-0.0668 0.01574,-0.0157 0.05107,0.0157 0.06682,0 0.01574,-0.0157 -0.0099,-0.0469 0,-0.0668 0.01408,-0.0282 0.05273,-0.0386 0.06682,-0.0668 0.01992,-0.0398 -0.0315,-0.10214 0,-0.13364 0.01574,-0.0157 0.05107,0.0157 0.06682,0 0.0315,-0.0315 -0.0315,-0.10213 0,-0.13363 0.01574,-0.0157 0.05107,0.0157 0.06682,0 0.03341,-0.0334 -0.03341,-0.16704 0,-0.20045 0.01574,-0.0157 0.05107,0.0157 0.06682,0 0,-0.17818 -0.02228,0.0223 0.06682,-0.0668 0.03341,-0.0334 -0.03341,-0.16704 0,-0.20045 0.01574,-0.0157 0.05107,0.0157 0.06681,0 0.01574,-0.0157 0,-0.0446 0,-0.0668 0,-0.0315 -0.003,-0.33106 0,-0.33409 0.01574,-0.0157 0.05107,0.0157 0.06682,0 0.02069,-0.0207 -0.02069,-0.31339 0,-0.33408 0.01574,-0.0157 0.05107,0.0157 0.06682,0 0.0021,-0.002 0,-0.18425 0,-0.20045 0,-0.22273 0,-0.44545 0,-0.66818 0,-0.0349 0.0088,-0.2497 0,-0.26727 -0.01408,-0.0282 -0.05273,-0.0386 -0.06682,-0.0668 -0.02307,-0.0462 0.02347,-0.31064 0,-0.33409 -0.01574,-0.0157 -0.05107,0.0157 -0.06682,0 -0.01574,-0.0157 0,-0.0445 0,-0.0668 0,-0.0223 0,-0.0445 0,-0.0668 0,-0.8909 0,-1.78179 0,-2.67269 0,-0.11136 0,-0.22273 0,-0.33409 0,-0.0223 0.01574,-0.0511 0,-0.0668 -0.01574,-0.0157 -0.05107,0.0157 -0.06681,0 -0.01574,-0.0157 0.01574,-0.0511 0,-0.0668 -0.01574,-0.0157 -0.05107,0.0157 -0.06682,0 -0.03341,-0.0334 0.03341,-0.16705 0,-0.20046 -0.01574,-0.0157 -0.05107,0.0157 -0.06682,0 -0.0315,-0.0315 0.0315,-0.10213 0,-0.13363 -0.01574,-0.0157 -0.05107,0.0157 -0.06682,0 -0.0315,-0.0315 0.0315,-0.10214 0,-0.13363 -0.01574,-0.0157 -0.05107,0.0157 -0.06682,0 -0.01574,-0.0157 0.01,-0.0469 0,-0.0668 -0.01408,-0.0282 -0.05273,-0.0387 -0.06682,-0.0668 -0.0099,-0.0199 0.01574,-0.0511 0,-0.0668 -0.01574,-0.0157 -0.05107,0.0157 -0.06682,0 -0.0315,-0.0315 0.0315,-0.10213 0,-0.13363 -0.01574,-0.0157 -0.05107,0.0157 -0.06682,0 -0.0315,-0.0315 0.01992,-0.0938 0,-0.13364 -0.01408,-0.0282 -0.05273,-0.0386 -0.06682,-0.0668 -0.01,-0.0199 0.0099,-0.0469 0,-0.0668 -0.139038,-0.27808 0.0046,0.0714 -0.133635,-0.0668 -0.04452,-0.0445 0.04452,-0.0891 0,-0.13363 -0.01574,-0.0157 -0.05107,0.0157 -0.06682,0 -0.0315,-0.0315 0.0315,-0.10214 0,-0.13364 -0.01574,-0.0157 -0.05107,0.0157 -0.06682,0 -0.0315,-0.0315 0.01992,-0.0938 0,-0.13363 -0.02817,-0.0564 -0.105462,-0.0773 -0.133635,-0.13364 -0.01992,-0.0398 0.0315,-0.10214 0,-0.13363 -0.01574,-0.0157 -0.05107,0.0157 -0.06682,0 -0.01574,-0.0157 0.01574,-0.0511 0,-0.0668 -0.01574,-0.0157 -0.05107,0.0157 -0.06682,0 -0.01574,-0.0157 0.01574,-0.0511 0,-0.0668 -0.01574,-0.0157 -0.05107,0.0157 -0.06682,0 -0.01574,-0.0157 0.0099,-0.0469 0,-0.0668 -0.01408,-0.0282 -0.05273,-0.0386 -0.06682,-0.0668 -0.0099,-0.0199 0.01574,-0.0511 0,-0.0668 -0.01574,-0.0157 -0.05107,0.0157 -0.06682,0 -0.01574,-0.0157 0.01574,-0.0511 0,-0.0668 -0.01574,-0.0157 -0.05107,0.0157 -0.06682,0 -0.04452,-0.0445 0.04452,-0.0891 0,-0.13363 -0.01574,-0.0157 -0.05107,0.0157 -0.06682,0 -0.01574,-0.0157 0.01574,-0.0511 0,-0.0668 -0.01574,-0.0157 -0.05107,0.0157 -0.06681,0 -0.04454,-0.0445 0.04454,-0.0891 0,-0.13363 -0.01574,-0.0157 -0.05107,0.0157 -0.06682,0 -0.0315,-0.0315 0.0315,-0.10214 0,-0.13364 -0.01574,-0.0157 -0.05107,0.0157 -0.06682,0 -0.01574,-0.0157 0.01574,-0.0511 0,-0.0668 -0.01574,-0.0157 -0.05107,0.0157 -0.06682,0 -0.01574,-0.0157 0.01574,-0.0511 0,-0.0668 -0.01574,-0.0157 -0.05107,0.0157 -0.06682,0 -0.0315,-0.0315 0.0315,-0.10214 0,-0.13364 -0.01574,-0.0157 -0.04689,0.01 -0.06682,0 -0.02817,-0.0141 -0.03864,-0.0527 -0.06682,-0.0668 -0.01992,-0.01 -0.05107,0.0157 -0.06682,0 -0.01574,-0.0157 0.01574,-0.0511 0,-0.0668 -0.01574,-0.0157 -0.05107,0.0157 -0.06682,0 -0.01574,-0.0157 0.01574,-0.0511 0,-0.0668 -0.01574,-0.0157 -0.05107,0.0157 -0.06682,0 -0.01574,-0.0157 0.01574,-0.0511 0,-0.0668 -0.0315,-0.0315 -0.102137,0.0315 -0.133633,0 -0.01574,-0.0157 0.01574,-0.0511 0,-0.0668 -0.0315,-0.0315 -0.102137,0.0315 -0.133636,0 -0.01574,-0.0157 0.01574,-0.0511 0,-0.0668 -0.0315,-0.0315 -0.102137,0.0315 -0.133636,0 -0.01574,-0.0157 0.01574,-0.0511 0,-0.0668 -0.01574,-0.0157 -0.0469,0.01 -0.06682,0 -0.02817,-0.0141 -0.03865,-0.0527 -0.06682,-0.0668 -0.01992,-0.01 -0.05107,0.0157 -0.06682,0 -0.01574,-0.0157 0.01574,-0.0511 0,-0.0668 -0.01574,-0.0157 -0.0469,0.01 -0.06682,0 -0.02817,-0.0141 -0.03865,-0.0527 -0.06682,-0.0668 -0.01992,-0.01 -0.04689,0.01 -0.06681,0 -0.27808,-0.13904 0.07143,0.005 -0.06682,-0.13364 -0.03341,-0.0334 -0.167044,0.0334 -0.200453,0 -0.01574,-0.0157 0.01574,-0.0511 0,-0.0668 -0.01574,-0.0157 -0.04689,0.01 -0.06682,0 -0.02817,-0.0141 -0.03864,-0.0527 -0.06681,-0.0668 -0.03984,-0.0199 -0.102137,0.0315 -0.133636,0 -0.01574,-0.0157 0.01574,-0.0511 0,-0.0668 -0.01574,-0.0157 -0.05107,0.0157 -0.06682,0 -0.01574,-0.0157 0.01574,-0.0511 0,-0.0668 -0.03341,-0.0334 -0.167042,0.0334 -0.200451,0 -0.01574,-0.0157 0.01574,-0.0511 0,-0.0668 -0.0315,-0.0315 -0.102137,0.0315 -0.133636,0 -0.01574,-0.0157 0.01574,-0.0511 0,-0.0668 -0.03341,-0.0334 -0.167042,0.0334 -0.200451,0 -0.01574,-0.0157 0,-0.0445 0,-0.0668 -0.02228,0 -0.05107,0.0157 -0.06682,0 -0.01574,-0.0157 0.01574,-0.0511 0,-0.0668 -0.03341,-0.0334 -0.167044,0.0334 -0.200453,0 -0.01574,-0.0157 0.01574,-0.0511 0,-0.0668 -0.0315,-0.0315 -0.102135,0.0315 -0.133633,0 -0.01574,-0.0157 0.01574,-0.0511 0,-0.0668 -0.0315,-0.0315 -0.102137,0.0315 -0.133636,0 -0.01574,-0.0157 0.01574,-0.0511 0,-0.0668 -0.0315,-0.0315 -0.09379,0.0199 -0.133633,0 -0.02817,-0.0141 -0.03864,-0.0527 -0.06682,-0.0668 -0.01992,-0.01 -0.05107,0.0157 -0.06682,0 -0.01574,-0.0157 0.01574,-0.0511 0,-0.0668 -0.01365,-0.0137 -0.173961,0.0132 -0.200451,0 -0.02817,-0.0141 -0.03865,-0.0527 -0.06682,-0.0668 -0.03625,-0.0181 -0.248989,0.0183 -0.267271,0 -0.01574,-0.0157 0.01574,-0.0511 0,-0.0668 -0.01574,-0.0157 -0.04454,0 -0.06682,0 -0.02228,0 -0.04455,0 -0.06682,0 -0.222727,0 -0.44545,0 -0.668174,0 -0.02228,0 -0.04454,0 -0.06682,0 -0.02228,0 -0.05107,0.0157 -0.06682,0 -0.01574,-0.0157 0.01574,-0.0511 0,-0.0668 -0.0315,-0.0315 -0.102137,0.0315 -0.133635,0 -0.01574,-0.0157 0.01574,-0.0511 0,-0.0668 -0.01574,-0.0157 -0.04454,0 -0.06682,0 -0.155908,0 -0.311816,0 -0.467722,0 -0.02453,0 -0.264581,0.003 -0.267269,0 -0.01574,-0.0157 0.01574,-0.0511 0,-0.0668 -0.01574,-0.0157 -0.04454,0 -0.06682,0 -0.02228,0 -0.04455,0 -0.06682,0 -0.289541,0 -0.579083,0 -0.868627,0 -0.133633,0 -0.267269,0 -0.400902,0 -0.02228,0 -0.04454,0 -0.06682,0 -0.02228,0 -0.0469,0.01 -0.06682,0 -0.02817,-0.0141 -0.03865,-0.0527 -0.06682,-0.0668 -0.01728,-0.009 -0.353544,0 -0.400905,0 -0.02228,0 -0.04689,0.01 -0.06682,0 -0.02817,-0.0141 -0.03864,-0.0527 -0.06681,-0.0668 -0.01728,-0.009 -0.353544,0 -0.400905,0 -0.02228,0 -0.04454,0 -0.06682,0 -0.02228,0 -0.05107,0.0157 -0.06682,0 -0.01574,-0.0157 0.01574,-0.0511 0,-0.0668 -0.01574,-0.0157 -0.04455,0 -0.06682,0 -0.02228,0 -0.04454,0 -0.06682,0 -0.244996,0 -0.489993,0 -0.734989,0 -0.356359,0 -0.712718,0 -1.069078,0 -0.01622,0 -0.198305,0.002 -0.200453,0 -0.01574,-0.0157 0.01574,-0.0511 0,-0.0668 -0.0027,-0.003 -0.242732,0 -0.267269,0 -0.378632,0 -0.757264,0 -1.135896,0 -0.01622,0 -0.198303,0.002 -0.200451,0 -0.01574,-0.0157 0.01574,-0.0511 0,-0.0668 -0.01574,-0.0157 -0.04454,0 -0.06682,0 -0.178181,0 -0.356359,0 -0.53454,0 -0.222724,0 -0.44545,0 -0.668174,0 -0.02228,0 -0.04455,0 -0.06682,0 -0.02228,0 -0.05107,0.0157 -0.06682,0 -0.01574,-0.0157 0.01574,-0.0511 0,-0.0668 -0.0315,-0.0315 -0.102134,0.0315 -0.133633,0 -0.01574,-0.0157 0.01574,-0.0511 0,-0.0668 -0.0021,-0.002 -0.184248,0 -0.200453,0 -0.200451,0 -0.400902,0 -0.601356,0 -0.03494,0 -0.2497,0.009 -0.267269,0 -0.02817,-0.0141 -0.03865,-0.0527 -0.06682,-0.0668 -0.042,-0.021 -0.225274,0.021 -0.267268,0 -0.02817,-0.0141 -0.03865,-0.0527 -0.06682,-0.0668 -0.02416,-0.0121 -0.287613,0 -0.334087,0 -0.267269,0 -0.53454,0 -0.801809,0 -0.222724,0 -0.44545,0 -0.668174,0 -0.04454,0 -0.08909,0 -0.133635,0 -0.02228,0 -0.06682,0.0223 -0.06682,0 0,-0.0223 0.08909,0 0.06682,0 -0.04455,0 -0.09379,-0.0199 -0.133634,0 -0.01992,0.01 0,0.0445 0,0.0668 0,0.0223 0,0.0445 0,0.0668 0,0.0223 0,0.0445 0,0.0668 0,0.0223 0.0099,0.0469 0,0.0668 -0.01407,0.0282 -0.05273,0.0386 -0.06682,0.0668 -0.01326,0.0265 0.01365,0.18679 0,0.20045 -0.01574,0.0157 -0.05107,-0.0157 -0.06682,0 -0.01574,0.0157 0,0.0446 0,0.0668 0,0.13364 0,0.26727 0,0.4009 0,0.0223 0.01574,0.0511 0,0.0668 -0.01574,0.0157 -0.05107,-0.0157 -0.06682,0 -0.01574,0.0157 0,0.0446 0,0.0668 0,0.0223 0,0.0446 0,0.0668 0,0.11136 0,0.22272 0,0.33408 0,0.0223 -0.01574,0.0511 0,0.0668 0.01574,0.0157 0.05107,-0.0157 0.06682,0 0.01574,0.0157 -0.01574,0.0511 0,0.0668 0.01574,0.0157 0.05107,-0.0157 0.06682,0 0.03341,0.0334 -0.03341,0.16704 0,0.20045 0.01574,0.0157 0.05107,-0.0157 0.06682,0 0.003,0.003 0,0.30258 0,0.33409 0,0.0223 -0.01778,0.0534 0,0.0668 0.207132,0.15615 0.434703,0.28317 0.652055,0.42476"
       id="path54"
       inkscape:connector-curvature="0"
       inkscape:export-xdpi="81"
       inkscape:export-ydpi="81" />
    <path
       style="fill:#ffaaaa;fill-opacity:1;stroke:#000000;stroke-width:1.58920062;stroke-miterlimit:4;stroke-dasharray:none;stroke-opacity:1"
       d="m 188.4344,586.51979 c -1.52786,-0.1218 -3.35641,-0.28987 -4.06345,-0.3735 l -1.28554,-0.15204 0.21483,-1.36998 c 0.12967,-0.82688 0.11615,-1.79777 -0.0341,-2.44911 -0.13693,-0.59352 -0.25173,-1.4856 -0.25513,-1.9824 l -0.006,-0.90327 1.25296,0.25667 c 0.93943,0.19244 1.40147,0.17719 1.84642,-0.0609 0.42575,-0.22786 1.37407,-0.27628 3.35586,-0.17136 6.53219,0.34583 12.56017,0.41917 12.82333,0.15601 0.14733,-0.14733 1.09076,-0.26788 2.09651,-0.26788 1.00574,0 1.89885,-0.11364 1.9847,-0.25254 0.0858,-0.13889 0.65405,-0.25254 1.26269,-0.25254 0.60863,0 1.17685,-0.11364 1.26269,-0.25253 0.0858,-0.1389 0.59723,-0.25254 1.13642,-0.25254 0.53919,0 1.05058,-0.11364 1.13642,-0.25254 0.0858,-0.1389 0.43348,-0.25254 0.77252,-0.25254 0.33904,0 0.61644,-0.11364 0.61644,-0.25254 0,-0.15745 1.46817,-0.25254 3.89944,-0.25254 2.32721,0 3.96236,-0.10182 4.05551,-0.25253 0.20312,-0.32866 2.32226,-0.32866 2.52538,0 0.0859,0.13889 0.43348,0.25253 0.77252,0.25253 0.33905,0 0.61644,-0.11364 0.61644,-0.25253 0,-0.15118 0.99332,-0.25254 2.47488,-0.25254 1.57859,0 2.58386,-0.10899 2.77582,-0.30095 0.17043,-0.17043 0.82625,-0.27306 1.51222,-0.23665 0.95533,0.0507 1.3109,-0.0458 1.68274,-0.45667 0.2593,-0.28653 0.68113,-0.52096 0.9374,-0.52096 0.25626,0 0.46593,-0.11364 0.46593,-0.25254 0,-0.13889 0.17522,-0.25254 0.38937,-0.25254 0.21415,0 0.63332,-0.22728 0.9315,-0.50507 0.29818,-0.27779 0.79266,-0.50508 1.09884,-0.50508 0.30619,0 0.62164,-0.16919 0.70099,-0.37598 0.10968,-0.28583 0.29159,-0.31998 0.75867,-0.14239 0.69308,0.26351 0.91886,0.13451 0.91886,-0.52499 0,-0.24975 0.23474,-0.57973 0.52166,-0.73329 0.28692,-0.15355 0.73745,-0.78258 1.00118,-1.39784 0.26373,-0.61526 0.59719,-1.11866 0.74102,-1.11866 0.14384,0 0.26152,-0.22728 0.26152,-0.50507 0,-0.2778 0.11364,-0.50508 0.25253,-0.50508 0.1389,0 0.25254,-0.2774 0.25254,-0.61644 0,-0.33904 0.11365,-0.68668 0.25254,-0.77252 0.1389,-0.0858 0.25254,-0.71087 0.25254,-1.38896 0,-0.67808 0.11364,-1.30312 0.25254,-1.38896 0.34042,-0.21039 0.34042,-9.63859 0,-9.84899 -0.1389,-0.0858 -0.25254,-0.38871 -0.25254,-0.67304 0,-0.51854 -1.13763,-2.16991 -2.14596,-3.11503 -0.58351,-0.54693 -2.39973,-4.07099 -2.39973,-4.65626 0,-0.19725 -0.39443,-0.71992 -0.87651,-1.16149 -0.48208,-0.44157 -0.99066,-1.10309 -1.13017,-1.47003 -0.14482,-0.38091 -0.44913,-0.66717 -0.70924,-0.66717 -0.25056,0 -0.61939,-0.22728 -0.81961,-0.50508 -0.20022,-0.27779 -0.54115,-0.50507 -0.75762,-0.50507 -0.21646,0 -0.55739,-0.22729 -0.75761,-0.50508 -0.27666,-0.38384 -0.65374,-0.50507 -1.57098,-0.50507 -0.66382,0 -1.20694,-0.11365 -1.20694,-0.25254 0,-0.1389 -0.45457,-0.25254 -1.01015,-0.25254 -0.55559,0 -1.01015,-0.11364 -1.01015,-0.25254 0,-0.15297 -1.08937,-0.25254 -2.76302,-0.25254 -1.5696,0 -2.83043,-0.10908 -2.91909,-0.25254 -0.0893,-0.14454 -1.39158,-0.25253 -3.04536,-0.25253 -1.75783,0 -2.88929,-0.0989 -2.88929,-0.25254 0,-0.1389 -0.34093,-0.25254 -0.75761,-0.25254 -0.41669,0 -0.75762,-0.11364 -0.75762,-0.25254 0,-0.13889 -0.39104,-0.25254 -0.86898,-0.25254 -0.47793,0 -0.93921,-0.11364 -1.02505,-0.25253 -0.0859,-0.1389 -0.37666,-0.25254 -0.64625,-0.25254 -0.2696,0 -0.49018,-0.11364 -0.49018,-0.25254 0,-0.14965 -0.92597,-0.25254 -2.27284,-0.25254 -1.34687,0 -2.27284,-0.10288 -2.27284,-0.25254 0,-0.13889 -0.22729,-0.25254 -0.50508,-0.25254 -0.27779,0 -0.50507,-0.11364 -0.50507,-0.25253 0,-0.15153 -1.01016,-0.25254 -2.52539,-0.25254 -1.51522,0 -2.52538,-0.10102 -2.52538,-0.25254 0,-0.16034 -1.93612,-0.25254 -5.3033,-0.25254 -3.36717,0 -5.3033,-0.0922 -5.3033,-0.25254 0,-0.15587 -1.30318,-0.25253 -3.40445,-0.25253 h -3.40446 l -0.13983,-0.69448 c -0.0769,-0.38197 -0.25662,-1.06305 -0.39935,-1.51353 -0.27044,-0.85353 -0.14916,-2.44513 0.32922,-4.32044 l 0.28031,-1.09888 3.93749,0.15262 c 2.16562,0.0839 5.01709,0.26805 6.33661,0.40914 1.31951,0.14108 6.31976,0.42509 11.11167,0.63114 4.79191,0.20605 10.58766,0.54193 12.87945,0.7464 2.29178,0.20447 5.68181,0.43242 7.53339,0.50654 1.85159,0.0741 3.57716,0.2475 3.83461,0.38529 0.25745,0.13778 1.129,0.25329 1.93678,0.25668 2.39358,0.0101 3.30324,0.31741 9.17111,3.09868 0.78614,0.37262 4.74109,2.6965 5.46062,3.2086 0.29273,0.20835 0.90897,0.94702 1.36941,1.6415 0.46044,0.69448 1.15447,1.67283 1.54228,2.17411 0.73929,0.95559 1.41057,2.14482 3.33439,5.90711 l 1.1622,2.27284 0.12206,6.31346 c 0.0671,3.4724 0.19507,6.99116 0.28431,7.81947 0.19955,1.85224 -0.27122,4.87286 -1.02477,6.5752 -0.30742,0.69448 -0.60418,1.37633 -0.65947,1.51523 -0.5137,1.29034 -2.22783,3.81107 -2.96676,4.36278 -0.50679,0.37839 -1.14174,0.88677 -1.41099,1.12972 -0.26925,0.24296 -1.86034,1.35308 -3.53574,2.46693 -1.67541,1.11386 -3.18143,2.13485 -3.34672,2.26886 -1.7768,1.44059 -5.29201,2.39033 -10.3042,2.78399 -1.66778,0.13099 -4.33922,0.4721 -5.93652,0.75802 -3.099,0.55474 -4.6431,0.76591 -10.22779,1.39878 -4.14413,0.46963 -21.83183,0.70952 -26.26397,0.35621 z"
       id="path56"
       inkscape:connector-curvature="0"
       transform="scale(0.26458333)"
       inkscape:export-xdpi="81"
       inkscape:export-ydpi="81" />
    <path
       style="fill:#f9f9f9;fill-opacity:1;stroke:#000000;stroke-width:0.79460031;stroke-miterlimit:4;stroke-dasharray:none;stroke-opacity:1"
       d="m 14.023388,16.486816 c -0.145799,-0.233461 -0.294463,-0.252538 -1.967974,-0.252538 -1.6499,0 -1.830506,-0.02237 -2.038805,-0.252538 -0.2127222,-0.235056 -0.3889046,-0.252539 -2.5449515,-0.252539 -2.2493868,0 -2.3164076,-0.0075 -2.3164076,-0.258277 0,-0.142053 -0.1420527,-0.400331 -0.3156727,-0.573951 -0.309483,-0.309482 -0.3156727,-0.353935 -0.3156727,-2.267103 0,-1.592692 -0.032646,-1.951431 -0.1775823,-1.951431 -0.1154164,0 -0.1544637,-0.08841 -0.1115421,-0.252538 0.042137,-0.161133 0.00358,-0.253238 -0.1065231,-0.254472 -0.1346483,-0.0015 -0.1309482,-0.02883 0.01684,-0.124336 0.104172,-0.067321 1.0138465,-0.1232717 2.0214988,-0.1243352 1.6964812,-0.00179 1.8437691,0.01676 1.9898078,0.2506042 0.1535458,0.245866 0.294463,0.252539 5.3336744,0.252539 3.366462,0 5.175962,0.04414 5.175962,0.126269 0,0.06945 -0.15782,0.126269 -0.350711,0.126269 -0.516515,0 -0.911979,0.327069 -0.911979,0.754252 0,0.198618 -0.07103,0.384884 -0.157837,0.413924 -0.108947,0.03645 -0.157896,0.370278 -0.158027,1.07778 l -2.52e-4,1.024979 -0.536455,0.604592 c -0.434398,0.489647 -0.536389,0.697466 -0.536389,1.093088 0,0.729785 -0.393837,1.087336 -1.20075,1.090118 -0.497261,0.0017 -0.666268,-0.05183 -0.790252,-0.250356 z"
       id="path92"
       inkscape:connector-curvature="0"
       transform="matrix(0.26458333,0,0,0.26458333,48.105281,139.23702)"
       inkscape:export-xdpi="81"
       inkscape:export-ydpi="81" />
    <path
       style="fill:#f9f9f9;fill-opacity:1;stroke:#000000;stroke-width:0.79460031;stroke-miterlimit:4;stroke-dasharray:none;stroke-opacity:1"
       d="m 26.145219,16.991892 c -0.152111,-0.243568 -0.294463,-0.252538 -4.007849,-0.252538 -3.735021,0 -3.850137,-0.0074 -3.850137,-0.246594 0,-0.135627 0.198874,-1.331544 0.441942,-2.657595 0.243068,-1.32605 0.441941,-2.465147 0.441941,-2.531325 0,-0.06618 -0.127847,-0.121195 -0.284105,-0.122259 -0.229739,-0.0016 -0.247861,-0.02536 -0.0947,-0.124335 0.104441,-0.06749 1.228198,-0.123269 2.505142,-0.124336 2.15939,-0.0018 2.329892,0.01505 2.525381,0.249535 0.115304,0.138308 0.351696,0.266156 0.525316,0.284106 0.17362,0.01795 0.389921,0.132074 0.480669,0.253608 0.145728,0.195165 0.413265,0.22097 2.290901,0.22097 1.802167,0 2.137323,0.02975 2.200884,0.195392 0.04124,0.107465 0.246191,0.255077 0.455451,0.328025 0.453409,0.158059 0.512073,0.57047 0.127934,0.89938 -0.138896,0.118926 -0.252538,0.34621 -0.252538,0.505076 0,0.158865 -0.113642,0.38615 -0.252538,0.505076 -0.138896,0.118927 -0.25352,0.344634 -0.25472,0.501571 -0.0025,0.327393 -0.480773,0.829914 -1.052741,1.106122 -0.220604,0.106531 -0.521824,0.424274 -0.688291,0.726047 -0.252095,0.456997 -0.355671,0.536612 -0.69812,0.536612 -0.265357,0 -0.455743,-0.08588 -0.55982,-0.252538 z"
       id="path94"
       inkscape:connector-curvature="0"
       transform="matrix(0.26458333,0,0,0.26458333,48.105281,139.23702)"
       inkscape:export-xdpi="81"
       inkscape:export-ydpi="81" />
    <path
       style="fill:#f9f9f9;fill-opacity:1;stroke:#000000;stroke-width:0.79460031;stroke-miterlimit:4;stroke-dasharray:none;stroke-opacity:1"
       d="m 34.751053,18.538688 c -0.123565,-0.196052 -0.426076,-0.225818 -2.682572,-0.263956 -1.398815,-0.02364 -2.543301,-0.06963 -2.543301,-0.102195 0,-0.165187 1.447455,-3.697461 1.654119,-4.036603 0.131955,-0.216541 0.239917,-0.458031 0.239917,-0.536644 0,-0.182505 0.46167,-0.648008 0.642673,-0.648008 0.07568,0 0.240462,0.127034 0.366187,0.282298 0.176832,0.218378 0.35123,0.279083 0.770213,0.268097 0.393205,-0.01031 0.595617,0.05217 0.738667,0.227998 0.185433,0.227927 0.365963,0.240033 3.063312,0.205413 2.585752,-0.03319 2.871632,-0.01623 2.921079,0.173263 0.03988,0.152822 0.256626,0.232345 0.795536,0.291876 0.407398,0.045 0.824906,0.09311 0.927795,0.106901 0.110433,0.0148 -0.368059,0.586975 -1.167989,1.396658 -0.745283,0.754369 -1.35506,1.451258 -1.35506,1.548641 0,0.09738 -0.142766,0.231341 -0.317258,0.297682 -0.174492,0.06634 -0.50082,0.320631 -0.725173,0.565086 l -0.407914,0.444464 h -1.39048 c -1.187032,0 -1.410858,-0.03233 -1.529751,-0.220971 z"
       id="path96"
       inkscape:connector-curvature="0"
       transform="matrix(0.26458333,0,0,0.26458333,48.105281,139.23702)"
       inkscape:export-xdpi="81"
       inkscape:export-ydpi="81" />
    <path
       style="fill:#f9f9f9;fill-opacity:1;stroke:#000000;stroke-width:0.79460031;stroke-miterlimit:4;stroke-dasharray:none;stroke-opacity:1"
       d="m 45.277246,24.733534 c -0.121534,-0.03176 -0.220971,-0.138696 -0.220971,-0.237635 0,-0.292274 -0.920258,-1.180323 -1.26269,-1.218497 -0.345428,-0.03851 -0.757615,-0.463362 -0.757615,-0.780899 0,-0.308761 -0.907825,-1.199846 -1.26269,-1.239406 -0.17362,-0.01936 -0.3909,-0.136026 -0.482845,-0.259268 -0.19434,-0.260493 -0.03986,-0.777066 1.292399,-4.32161 l 0.806814,-2.146574 0.954365,-0.03678 c 0.82183,-0.03168 0.990161,-9.9e-4 1.212121,0.22097 0.20459,0.20459 0.420782,0.257756 1.048131,0.257756 0.653625,0 0.817663,0.04369 0.948088,0.252538 0.137603,0.220337 0.294463,0.252538 1.230171,0.252538 h 1.072458 l 0.473268,0.501453 c 0.260297,0.275799 0.611848,0.517289 0.781223,0.536644 0.169375,0.01935 0.510302,0.242371 0.757615,0.495592 0.247312,0.253221 0.577506,0.49854 0.733764,0.545153 0.156258,0.04661 0.284106,0.169828 0.284106,0.273811 0,0.103984 0.426158,0.620784 0.947018,1.148445 0.52086,0.527661 0.947018,1.039435 0.947018,1.137275 0,0.09784 -0.08523,0.263122 -0.189404,0.367294 -0.104172,0.104172 -0.189404,0.307353 -0.189404,0.451513 0,0.241476 -1.406403,1.781096 -1.661678,1.819075 -0.05835,0.0087 -0.189107,0.02289 -0.290573,0.03157 -0.101467,0.0087 -0.296902,0.136448 -0.4343,0.283928 -0.184458,0.197992 -0.335079,0.246745 -0.57572,0.186348 -0.34449,-0.08646 -0.821017,0.09872 -0.989911,0.38469 -0.05554,0.09403 -0.232543,0.17097 -0.393346,0.17097 -0.160804,0 -0.436843,0.113642 -0.61342,0.252538 -0.234273,0.184279 -0.512247,0.252538 -1.028417,0.252538 -0.551111,0 -0.755132,0.05578 -0.923597,0.252538 -0.180863,0.211233 -0.361371,0.250143 -1.103618,0.237891 -0.488064,-0.0081 -0.986826,-0.04063 -1.10836,-0.07239 z"
       id="path98"
       inkscape:connector-curvature="0"
       transform="matrix(0.26458333,0,0,0.26458333,48.105281,139.23702)"
       inkscape:export-xdpi="81"
       inkscape:export-ydpi="81" />
    <path
       style="fill:#f9f9f9;fill-opacity:1;stroke:#000000;stroke-width:0.79460031;stroke-miterlimit:4;stroke-dasharray:none;stroke-opacity:1"
       d="M 2.3349831,52.06655 C 1.9123495,51.954574 1.8633118,51.90399 1.9498036,51.669226 c 0.05451,-0.147957 0.1019772,-0.751992 0.1054819,-1.3423 0.00653,-1.100122 0.126321,-1.484336 0.6060656,-1.9439 0.1991564,-0.190779 0.2370046,-0.352558 0.1867628,-0.798303 -0.082779,-0.734411 0.2373109,-1.100825 1.0692846,-1.224036 0.5086398,-0.07533 0.6319753,-0.0489 0.8665308,0.185654 0.2188776,0.218877 0.3651834,0.258061 0.7327751,0.196254 0.2526119,-0.04248 0.993276,-0.1414 1.6459201,-0.219834 1.0699224,-0.128582 1.2241653,-0.120432 1.568325,0.08287 0.4237625,0.250323 0.6132774,0.251609 2.8303455,0.0192 l 1.544687,-0.161923 0.834532,2.503751 0.834532,2.503751 0.461836,-0.08198 c 0.254009,-0.04509 0.498275,-0.117706 0.542813,-0.161368 0.04454,-0.04366 -0.01652,-1.124049 -0.135683,-2.400859 -0.182681,-1.957402 -0.253299,-2.348264 -0.450292,-2.492308 -0.128497,-0.09396 -0.304931,-0.378231 -0.392073,-0.631713 l -0.158442,-0.460877 0.843428,0.08382 c 0.463886,0.0461 1.631615,0.119792 2.594952,0.163756 1.451151,0.06623 1.768937,0.04882 1.853065,-0.101511 0.08652,-0.154596 0.343419,-0.160685 1.736059,-0.04115 l 1.634514,0.140301 0.545348,0.589299 c 0.299941,0.324114 0.619831,0.589298 0.710866,0.589298 0.09103,0 0.165518,0.08805 0.165518,0.195662 0,0.107615 0.184669,0.385866 0.410375,0.618337 0.225706,0.23247 0.779711,0.831989 1.231123,1.332262 0.451412,0.500274 0.948597,1.027765 1.104855,1.172202 0.156258,0.144437 0.284105,0.366008 0.284105,0.49238 0,0.188211 -0.102991,0.229767 -0.569447,0.229767 -0.41319,0 -0.628779,0.0693 -0.785676,0.252538 -0.183905,0.214785 -0.372487,0.252539 -1.261455,0.252539 -0.876867,0 -1.085902,0.04068 -1.297763,0.252538 -0.228486,0.228487 -0.420896,0.252538 -2.020305,0.252538 -1.599409,0 -1.791819,0.02405 -2.020305,0.252538 -0.242287,0.242286 -0.420897,0.252538 -4.399847,0.252538 -3.986949,0 -4.156147,-0.0098 -4.375853,-0.252538 -0.21793,-0.240809 -0.388905,-0.252538 -3.6813736,-0.252538 -3.2844705,0 -3.4651428,0.01231 -3.7053673,0.252538 -0.2744352,0.274435 -0.5588708,0.295822 -1.305038,0.09813 z"
       id="path100"
       inkscape:connector-curvature="0"
       transform="matrix(0.26458333,0,0,0.26458333,48.105281,139.23702)"
       inkscape:export-xdpi="81"
       inkscape:export-ydpi="81" />
    <path
       style="fill:#f9f9f9;fill-opacity:1;stroke:#000000;stroke-width:0.79460031;stroke-miterlimit:4;stroke-dasharray:none;stroke-opacity:1"
       d="M 29.043834,48.527592 C 28.96256,47.607406 28.858725,46.407673 28.81309,45.861518 l -0.08297,-0.99301 0.618501,0.07894 c 0.340176,0.04342 2.173711,0.223854 4.074522,0.400973 3.35457,0.312582 3.463915,0.315248 3.724938,0.09083 0.173405,-0.149084 0.414645,-0.216265 0.679221,-0.18915 0.354936,0.03638 0.44524,0.123263 0.669202,0.643875 0.202629,0.471026 0.365885,0.649028 0.751162,0.819012 0.270745,0.119452 0.527439,0.328012 0.57043,0.463467 0.04299,0.135454 0.131159,0.246281 0.195927,0.246281 0.06477,0 0.11776,0.166404 0.11776,0.369787 0,0.203384 0.08523,0.45502 0.189403,0.559192 0.104172,0.104172 0.189404,0.335515 0.189404,0.514096 0,0.324692 0,0.324692 -1.136422,0.324692 -0.950493,0 -1.175907,0.03948 -1.377765,0.241344 -0.22512,0.225119 -0.5016,0.244219 -4.11271,0.284105 -3.529384,0.03898 -3.882282,0.06228 -3.994944,0.263732 -0.06797,0.121534 -0.25263,0.220971 -0.41036,0.220971 -0.276332,0 -0.292167,-0.06096 -0.434554,-1.673065 z"
       id="path102"
       inkscape:connector-curvature="0"
       transform="matrix(0.26458333,0,0,0.26458333,48.105281,139.23702)"
       inkscape:export-xdpi="81"
       inkscape:export-ydpi="81" />
    <path
       style="fill:#f9f9f9;fill-opacity:1;stroke:#000000;stroke-width:0.79460031;stroke-miterlimit:4;stroke-dasharray:none;stroke-opacity:1"
       d="m 42.104474,48.653861 c -0.217938,-0.600483 -0.545052,-1.72394 -1.016967,-3.492728 -0.297849,-1.116367 -0.303888,-1.198312 -0.09974,-1.353377 0.119517,-0.09078 0.365391,-0.166866 0.546386,-0.169075 0.416334,-0.0051 1.501819,-0.82305 1.501819,-1.131699 0,-0.284494 0.572596,-0.678658 1.006427,-0.692804 0.418325,-0.01364 1.392686,-0.799922 1.392686,-1.123859 0,-0.23843 0.06288,-0.246869 1.312237,-0.176119 1.188751,0.06732 1.342682,0.104756 1.635758,0.397832 0.264873,0.264873 0.443483,0.323521 0.985264,0.323521 0.533431,0 0.725492,0.06108 0.990519,0.314987 0.180826,0.173243 0.482353,0.327698 0.67006,0.343233 0.194061,0.01606 0.371019,0.121931 0.410214,0.245422 0.08571,0.270061 0.851753,0.535031 1.254537,0.433939 0.222704,-0.0559 0.319552,-0.01498 0.374528,0.158236 0.07559,0.238167 0.564715,0.524488 0.895986,0.524488 0.100904,0 0.183462,0.04283 0.183462,0.09518 0,0.05235 0.301661,0.411633 0.670358,0.798413 0.368697,0.38678 0.645699,0.777212 0.615562,0.867625 -0.101811,0.305434 -1.03162,1.142974 -1.268891,1.142974 -0.129531,0 -0.379983,0.113642 -0.55656,0.252538 -0.176577,0.138896 -0.41208,0.252538 -0.523341,0.252538 -0.111259,0 -0.299593,0.113642 -0.41852,0.252538 -0.118926,0.138896 -0.345655,0.252538 -0.50384,0.252538 -0.158186,0 -0.401253,0.113643 -0.540149,0.252539 -0.138896,0.138896 -0.36618,0.252538 -0.505076,0.252538 -0.138896,0 -0.470876,0.218337 -0.737732,0.485193 l -0.485194,0.485194 -1.377275,0.08688 c -0.983654,0.06205 -1.417341,0.139907 -1.517464,0.27242 -0.114229,0.151182 -0.562413,0.185541 -2.420236,0.185541 h -2.280047 z"
       id="path104"
       inkscape:connector-curvature="0"
       transform="matrix(0.26458333,0,0,0.26458333,48.105281,139.23702)"
       inkscape:export-xdpi="81"
       inkscape:export-ydpi="81" />
    <path
       style="fill:#f9f9f9;fill-opacity:1;stroke:#000000;stroke-width:0.14046682;stroke-miterlimit:4;stroke-dasharray:none;stroke-opacity:1"
       d=""
       id="path106"
       inkscape:connector-curvature="0"
       transform="matrix(0.26458333,0,0,0.26458333,48.105281,139.23702)"
       inkscape:export-xdpi="81"
       inkscape:export-ydpi="81" />
    <path
       style="fill:#f9f9f9;fill-opacity:1;stroke:#000000;stroke-width:0.02458169;stroke-miterlimit:4;stroke-dasharray:none;stroke-opacity:1"
       d="m 13.932289,45.249066 c -0.01791,-0.06271 -0.03416,-0.129364 -0.03204,-0.131481 0.0021,-0.0021 0.212798,0.01477 0.268505,0.02144 l 0.01839,0.0022 0.01636,0.04932 c 0.009,0.02713 0.017,0.05108 0.01778,0.05323 9.18e-4,0.0025 -0.02872,0.004 -0.08358,0.0043 -0.08286,3.49e-4 -0.106123,0.0028 -0.187147,0.01942 -0.01209,0.0025 -0.0124,0.0022 -0.01827,-0.01839 z"
       id="path108"
       inkscape:connector-curvature="0"
       transform="matrix(0.26458333,0,0,0.26458333,48.105281,139.23702)"
       inkscape:export-xdpi="81"
       inkscape:export-ydpi="81" />
  </g>
</svg>
