<?xml version="1.0" encoding="UTF-8" standalone="no"?>
<!-- Created with Inkscape (http://www.inkscape.org/) -->

<svg
   xmlns:dc="http://purl.org/dc/elements/1.1/"
   xmlns:cc="http://creativecommons.org/ns#"
   xmlns:rdf="http://www.w3.org/1999/02/22-rdf-syntax-ns#"
   xmlns:svg="http://www.w3.org/2000/svg"
   xmlns="http://www.w3.org/2000/svg"
   xmlns:sodipodi="http://sodipodi.sourceforge.net/DTD/sodipodi-0.dtd"
   xmlns:inkscape="http://www.inkscape.org/namespaces/inkscape"
   width="6.9083676mm"
   height="8.5220327mm"
   viewBox="0 0 6.9083676 8.5220327"
   version="1.1"
   id="svg5951"
   inkscape:version="0.92.3 (2405546, 2018-03-11)"
   sodipodi:docname="seeds_top.svg">
  <defs
     id="defs5945" />
  <sodipodi:namedview
     id="base"
     pagecolor="#ffffff"
     bordercolor="#666666"
     borderopacity="1.0"
     inkscape:pageopacity="0.0"
     inkscape:pageshadow="2"
     inkscape:zoom="0.35"
     inkscape:cx="-488.37096"
     inkscape:cy="-81.038225"
     inkscape:document-units="mm"
     inkscape:current-layer="layer1"
     showgrid="false"
     fit-margin-top="0"
     fit-margin-left="0"
     fit-margin-right="0"
     fit-margin-bottom="0"
     inkscape:window-width="1920"
     inkscape:window-height="1017"
     inkscape:window-x="-8"
     inkscape:window-y="-8"
     inkscape:window-maximized="1" />
  <metadata
     id="metadata5948">
    <rdf:RDF>
      <cc:Work
         rdf:about="">
        <dc:format>image/svg+xml</dc:format>
        <dc:type
           rdf:resource="http://purl.org/dc/dcmitype/StillImage" />
        <dc:title></dc:title>
      </cc:Work>
    </rdf:RDF>
  </metadata>
  <g
     inkscape:label="Layer 1"
     inkscape:groupmode="layer"
     id="layer1"
     transform="translate(-122.03327,-118.86994)">
    <path
       style="fill:#000000;fill-opacity:1;stroke:#000000;stroke-width:0.26458332px;stroke-linecap:butt;stroke-linejoin:miter;stroke-opacity:1"
       d="m 128.77304,126.58578 c -0.0128,0.0511 -0.0118,0.031 -0.0118,0.0591 0,0.004 0.003,0.009 0,0.0118 -0.003,0.003 -0.008,-0.002 -0.0118,0 -0.0492,0.0246 0.0126,-8.2e-4 -0.0118,0.0236 -0.003,0.003 -0.009,-0.003 -0.0118,0 -0.006,0.006 0.006,0.0181 0,0.0236 -0.003,0.003 -0.009,-0.003 -0.0118,0 -0.006,0.006 0.006,0.0181 0,0.0236 -0.003,0.003 -0.009,-0.003 -0.0118,0 -0.003,0.003 0.003,0.009 0,0.0118 -0.003,0.003 -0.009,-0.003 -0.0118,0 -0.006,0.006 0.006,0.0295 0,0.0354 -0.003,0.003 -0.009,-0.003 -0.0118,0 -0.003,0.003 0.002,0.008 0,0.0118 -0.002,0.005 -0.009,0.007 -0.0118,0.0118 -0.004,0.007 0.006,0.0181 0,0.0236 -0.003,0.003 -0.009,-0.003 -0.0118,0 -0.003,0.003 0.003,0.009 0,0.0118 -0.003,0.003 -0.009,-0.003 -0.0118,0 -0.003,0.003 0,0.008 0,0.0118 0,0.004 0,0.008 0,0.0118 0,0.0315 0.004,-0.004 -0.0118,0.0118 -0.006,0.006 0.006,0.0295 0,0.0354 -0.003,0.003 -0.009,-0.003 -0.0118,0 -0.006,0.006 0.006,0.0295 0,0.0354 -0.003,0.003 -0.009,-0.003 -0.0118,0 -0.006,0.006 0.006,0.018 0,0.0236 -0.003,0.003 -0.009,-0.003 -0.0118,0 -0.003,0.003 0,0.008 0,0.0118 0,0.004 0,0.008 0,0.0118 0,0.0354 0,0.0709 0,0.1063 0,0.004 -4.8e-4,0.0468 0,0.0472 0.003,0.003 0.009,-0.003 0.0118,0 0.003,0.003 -0.003,0.009 0,0.0118 0.003,0.003 0.009,-0.003 0.0118,0 0.006,0.006 -0.006,0.0181 0,0.0236 0.003,0.003 0.009,-0.003 0.0118,0 0.006,0.006 -0.006,0.0181 0,0.0236 0.003,0.003 0.009,-0.003 0.0118,0 0.003,0.003 -0.003,0.009 0,0.0118 0.003,0.003 0.009,-0.003 0.0118,0 0.003,0.003 -0.003,0.009 0,0.0118 0.003,0.003 0.009,-0.003 0.0118,0 0.006,0.006 -0.006,0.0181 0,0.0236 0.003,0.003 0.009,-0.003 0.0118,0 0.003,0.003 -0.003,0.009 0,0.0118 0.003,0.003 0.008,0 0.0118,0 0.003,0 0.0351,3.7e-4 0.0354,0 0.0244,-0.0244 -0.0374,9.5e-4 0.0118,-0.0236 0.004,-0.002 0.009,0.003 0.0118,0 0.006,-0.006 -0.006,-0.018 0,-0.0236 0.003,-0.003 0.009,0.003 0.0118,0 0.006,-0.006 -0.006,-0.0181 0,-0.0236 0.003,-0.003 0.009,0.003 0.0118,0 0.003,-0.003 -0.003,-0.0444 0,-0.0473 0.003,-0.003 0.009,0.003 0.0118,0 3.7e-4,-3.7e-4 0,-0.0326 0,-0.0354 0,-0.0315 -0.004,0.004 0.0118,-0.0118 0.004,-0.004 -0.004,-0.0509 0,-0.0591 0.002,-0.005 0.009,-0.007 0.0118,-0.0118 0.002,-0.004 0,-0.0301 0,-0.0354 0,-0.0276 0,-0.0551 0,-0.0827 0,-0.003 3.8e-4,-0.0351 0,-0.0354 -0.003,-0.003 -0.009,0.003 -0.0118,0 -0.003,-0.003 0.003,-0.0408 0,-0.0473 -0.002,-0.005 -0.009,-0.007 -0.0118,-0.0118 -0.002,-0.005 0.002,-0.033 0,-0.0354 -0.003,-0.003 -0.009,0.003 -0.0118,0 -0.006,-0.006 0.006,-0.0295 0,-0.0354 -0.003,-0.003 -0.009,0.003 -0.0118,0 -0.003,-0.003 0.003,-0.009 0,-0.0118 -0.003,-0.003 -0.009,0.003 -0.0118,0 -0.003,-0.003 0,-0.008 0,-0.0118 0,-0.004 0,-0.008 0,-0.0118 0,-0.004 0,-0.008 0,-0.0118 0,-0.004 -0.004,-0.0118 0,-0.0118 0.004,0 0,0.0157 0,0.0118 0,-0.008 0,-0.0157 0,-0.0236 0,-0.0157 0.004,-0.0118 -0.0118,-0.0118"
       id="path5421-7"
       inkscape:connector-curvature="0" />
    <path
       style="fill:#000000;fill-opacity:1;stroke:#000000;stroke-width:0.26458332px;stroke-linecap:butt;stroke-linejoin:miter;stroke-opacity:1"
       d="m 125.48924,120.98277 c -0.0157,0 -0.032,-0.004 -0.0472,0 -0.008,0.002 0.004,0.0166 0,0.0236 -0.002,0.005 -0.009,0.007 -0.0118,0.0118 0,0.0315 0.004,-0.004 -0.0118,0.0118 -0.006,0.006 0.006,0.0181 0,0.0236 -0.003,0.003 -0.009,-0.003 -0.0118,0 -0.003,0.003 0.003,0.009 0,0.0118 -0.003,0.003 -0.009,-0.003 -0.0118,0 -0.006,0.006 0.006,0.0181 0,0.0236 -0.003,0.003 -0.009,-0.003 -0.0118,0 -0.006,0.006 0.006,0.0181 0,0.0236 -0.003,0.003 -0.009,-0.003 -0.0118,0 -0.006,0.006 0.006,0.0295 0,0.0354 -0.006,0.006 -0.0181,-0.006 -0.0236,0 -0.006,0.006 0.006,0.0181 0,0.0236 -0.003,0.003 -0.009,-0.003 -0.0118,0 -0.006,0.006 0.006,0.0181 0,0.0236 -0.003,0.003 -0.009,-0.003 -0.0118,0 -0.003,0.003 0.003,0.009 0,0.0118 -0.003,0.003 -0.009,-0.003 -0.0118,0 -0.008,0.008 0.008,0.0158 0,0.0236 -0.003,0.003 -0.009,-0.003 -0.0118,0 -0.006,0.006 0.006,0.0181 0,0.0236 -0.003,0.003 -0.009,-0.003 -0.0118,0 -0.006,0.006 0.006,0.0295 0,0.0354 -0.003,0.003 -0.009,-0.003 -0.0118,0 -0.003,0.003 0,0.008 0,0.0118 0,0.0315 0,0.063 0,0.0945 0,0.004 0,0.008 0,0.0118 0,0.004 -0.003,0.009 0,0.0118 0.003,0.003 0.009,-0.003 0.0118,0 0.006,0.006 -0.006,0.0181 0,0.0236 0.003,0.003 0.009,-0.003 0.0118,0 0.003,0.003 0,0.008 0,0.0118 0.004,0 0.009,-0.003 0.0118,0 0.003,0.003 -0.003,0.009 0,0.0118 0.006,0.006 0.0181,-0.006 0.0236,0 0.006,0.006 -0.006,0.0181 0,0.0236 0.003,0.003 0.0444,-0.003 0.0473,0 0.003,0.003 -0.003,0.009 0,0.0118 0.003,0.003 0.008,0 0.0118,0 0.004,0 0.008,0 0.0118,0 0.0591,0 0.11812,0 0.17718,0 0.003,0 0.0351,3.8e-4 0.0354,0 0.003,-0.003 -0.003,-0.009 0,-0.0118 0.003,-0.003 0.009,0.003 0.0118,0 0.003,-0.003 -0.003,-0.009 0,-0.0118 0.006,-0.006 0.0181,0.006 0.0236,0 0.003,-0.003 -0.003,-0.009 0,-0.0118 0.003,-0.003 0.009,0.003 0.0118,0 0.003,-0.003 -0.003,-0.009 0,-0.0118 0.006,-0.006 0.0181,0.006 0.0236,0 0.003,-0.003 0,-0.008 0,-0.0118 0.004,0 0.009,0.003 0.0118,0 0.003,-0.003 0,-0.008 0,-0.0118 0,-0.005 0.002,-0.0318 0,-0.0354 -0.0246,-0.0491 8.2e-4,0.0126 -0.0236,-0.0118 -0.003,-0.003 0.003,-0.009 0,-0.0118 -0.003,-0.003 -0.009,0.003 -0.0118,0 -0.003,-0.003 0.003,-0.009 0,-0.0118 -0.003,-0.003 -0.009,0.003 -0.0118,0 -0.006,-0.006 0.006,-0.018 0,-0.0236 -0.003,-0.003 -0.008,0.002 -0.0118,0 -0.0492,-0.0246 0.0126,8.2e-4 -0.0118,-0.0236 -0.003,-0.003 -0.009,0.003 -0.0118,0 -0.006,-0.006 0.006,-0.0181 0,-0.0236 -0.003,-0.003 -0.009,0.003 -0.0118,0 -0.003,-0.003 0.003,-0.009 0,-0.0118 -0.006,-0.006 -0.0181,0.006 -0.0236,0 -0.003,-0.003 0.002,-0.008 0,-0.0118 -0.005,-0.01 -0.0186,-0.0137 -0.0236,-0.0236 -0.002,-0.004 0.003,-0.009 0,-0.0118 -0.003,-0.003 -0.009,0.003 -0.0118,0 -0.003,-0.003 0.003,-0.009 0,-0.0118 -0.003,-0.003 -0.009,0.003 -0.0118,0 -0.006,-0.006 0.003,-0.0166 0,-0.0236 -0.002,-0.005 -0.009,-0.007 -0.0118,-0.0118 -0.003,-0.007 0.006,-0.0181 0,-0.0236 -0.003,-0.003 -0.009,0.003 -0.0118,0 -0.003,-0.003 0.003,-0.0444 0,-0.0473 -0.003,-0.003 -0.009,0.003 -0.0118,0 -0.006,-0.006 0.006,-0.0181 0,-0.0236 -0.003,-0.003 -0.009,0.003 -0.0118,0 -0.006,-0.006 0.006,-0.0181 0,-0.0236 -0.003,-0.003 -0.009,0.003 -0.0118,0 -0.006,-0.006 0.006,-0.018 0,-0.0236 -0.003,-0.003 -0.008,0 -0.0118,0 -0.0236,0 -0.0472,0 -0.0709,0"
       id="path5458-2-9"
       inkscape:connector-curvature="0" />
    <path
       style="fill:#000000;fill-opacity:1;stroke:#000000;stroke-width:0.26458332px;stroke-linecap:butt;stroke-linejoin:miter;stroke-opacity:1"
       d="m 126.84468,124.32291 c -0.008,0.008 -0.0157,0.0158 -0.0236,0.0236 -0.002,0 -0.005,-10e-4 -0.006,0 -10e-4,0.001 0.001,0.005 0,0.006 -10e-4,0.001 -0.004,-10e-4 -0.006,0 -10e-4,0.001 0.001,0.005 0,0.006 -10e-4,0.001 -0.004,-10e-4 -0.006,0 -10e-4,0.001 0.001,0.005 0,0.006 -10e-4,0.001 -0.004,-8.7e-4 -0.006,0 -0.002,0.001 -0.004,0.004 -0.006,0.006 -0.002,0.002 -0.005,0.003 -0.006,0.006 -8.8e-4,0.002 0.001,0.005 0,0.006 -10e-4,0.001 -0.005,-10e-4 -0.006,0 -10e-4,0.001 0.001,0.005 0,0.006 -0.0122,0.0122 4.7e-4,-0.0187 -0.0118,0.006 -8.8e-4,0.002 0.001,0.005 0,0.006 -0.001,0.001 -0.005,-10e-4 -0.006,0 -0.001,0.001 0.001,0.005 0,0.006 -0.001,0.001 -0.005,-10e-4 -0.006,0 -0.003,0.003 0.003,0.009 0,0.0118 -0.001,10e-4 -0.005,-0.001 -0.006,0 -0.0143,0.0143 0.0143,-0.002 0,0.0118 -0.001,0.001 -0.004,-0.001 -0.006,0 -0.001,0.001 0.001,0.005 0,0.006 -0.001,0.001 -0.004,-0.001 -0.006,0 -0.001,0.001 8.7e-4,0.004 0,0.006 -0.001,0.002 -0.005,0.003 -0.006,0.006 -0.002,0.004 0.003,0.009 0,0.0118 -0.001,0.001 -0.005,-10e-4 -0.006,0 -0.003,0.003 0.003,0.0148 0,0.0177 -0.001,0.001 -0.005,-0.001 -0.006,0 -0.001,0.001 0.001,0.005 0,0.006 -0.001,0.001 -0.005,-0.001 -0.006,0 -10e-4,0.001 0.001,0.0154 0,0.0177 -10e-4,0.002 -0.005,0.003 -0.006,0.006 -0.002,0.003 0.002,0.022 0,0.0236 -10e-4,10e-4 -0.005,-0.001 -0.006,0 -10e-4,10e-4 0,0.004 0,0.006 0,0.01 0,0.0197 0,0.0295 0,0.002 0,0.004 0,0.006 0,0.002 -10e-4,0.005 0,0.006 0.001,10e-4 0.004,-0.001 0.006,0 0.001,10e-4 -10e-4,0.005 0,0.006 0.001,10e-4 0.004,-0.001 0.006,0 0.001,10e-4 -10e-4,0.005 0,0.006 0.001,10e-4 0.004,-0.001 0.006,0 0.003,0.003 -0.003,0.009 0,0.0118 0.001,0.001 0.005,-0.001 0.006,0 0.001,0.001 -0.001,0.005 0,0.006 0.001,0.001 0.005,-0.001 0.006,0 0.001,0.001 -0.001,0.005 0,0.006 0.001,0.001 0.005,-0.001 0.006,0 0.001,0.001 -0.001,0.005 0,0.006 0.001,0.001 0.005,-0.001 0.006,0 0.003,0.003 -0.003,0.009 0,0.0118 0.001,0.001 0.005,-10e-4 0.006,0 0.003,0.003 -0.003,0.009 0,0.0118 0.001,0.001 0.005,-0.001 0.006,0 0.001,0.001 -8.8e-4,0.004 0,0.006 0.001,0.002 0.005,0.003 0.006,0.006 8.7e-4,0.002 -0.001,0.005 0,0.006 0.003,0.003 0.009,-0.003 0.0118,0 0.001,10e-4 -10e-4,0.005 0,0.006 0.001,10e-4 0.004,-0.001 0.006,0 0.001,10e-4 -10e-4,0.005 0,0.006 0.001,10e-4 0.005,-0.001 0.006,0 0.001,10e-4 -10e-4,0.005 0,0.006 0.001,10e-4 0.005,-0.001 0.006,0 0.001,10e-4 -10e-4,0.005 0,0.006 0.001,10e-4 0.005,-0.001 0.006,0 0.0122,0.0122 -0.0187,-4.7e-4 0.006,0.0118 0.004,0.002 0.009,-0.003 0.0118,0 0.001,0.001 -0.001,0.005 0,0.006 0.003,0.003 0.009,-0.003 0.0118,0 0.001,0.001 -10e-4,0.005 0,0.006 0.001,0.001 0.005,-0.001 0.006,0 0.001,0.001 -10e-4,0.005 0,0.006 2.4e-4,2.4e-4 0.0215,0 0.0236,0 0.002,0 0.004,0 0.006,0 0.002,0 0.005,-0.001 0.006,0 0.008,0.008 -0.01,0.006 0.006,0.006 0.002,0 0.004,0 0.006,0 0.002,0 0.005,-0.001 0.006,0 0.001,0.001 -0.001,0.005 0,0.006 0.001,0.001 0.004,0 0.006,0 0.002,0 0.004,0 0.006,0 0.0138,0 0.0276,0 0.0413,0 0.002,0 0.005,0.001 0.006,0 10e-4,-0.001 -0.001,-0.005 0,-0.006 10e-4,-0.001 0.004,8.8e-4 0.006,0 0.002,-0.001 0.003,-0.005 0.006,-0.006 0.002,-0.001 0.0165,0.001 0.0177,0 0.001,-0.001 -0.001,-0.005 0,-0.006 0.001,-0.001 0.005,0.001 0.006,0 0.001,-0.001 -0.001,-0.005 0,-0.006 0.003,-0.003 0.009,0.003 0.0118,0 10e-4,-10e-4 -0.001,-0.005 0,-0.006 10e-4,-10e-4 0.005,0.001 0.006,0 10e-4,-10e-4 -0.001,-0.005 0,-0.006 10e-4,-10e-4 0.004,0.001 0.006,0 10e-4,-10e-4 -0.001,-0.005 0,-0.006 10e-4,-10e-4 0.004,0.001 0.006,0 10e-4,-10e-4 -0.001,-0.005 0,-0.006 10e-4,-10e-4 0.004,0.001 0.006,0 10e-4,-10e-4 -0.001,-0.005 0,-0.006 10e-4,-10e-4 0.005,0.001 0.006,0 0.001,-10e-4 -8.7e-4,-0.004 0,-0.006 0.001,-0.002 0.005,-0.003 0.006,-0.006 8.7e-4,-0.002 -10e-4,-0.005 0,-0.006 0.003,-0.003 0.009,0.003 0.0118,0 0.003,-0.003 -0.003,-0.009 0,-0.0118 0.001,-0.001 0.004,8.8e-4 0.006,0 0.005,-0.002 0.007,-0.009 0.0118,-0.0118 0.002,-8.7e-4 0.005,0.001 0.006,0 0.003,-0.003 -0.003,-0.009 0,-0.0118 0.003,-0.003 0.009,0.003 0.0118,0 10e-4,-0.001 -0.001,-0.005 0,-0.006 10e-4,-0.001 0.004,0.001 0.006,0 10e-4,-0.001 -0.001,-0.005 0,-0.006 10e-4,-0.001 0.004,8.8e-4 0.006,0 0.0246,-0.0123 -0.006,4e-4 0.006,-0.0118 10e-4,-0.001 0.005,10e-4 0.006,0 10e-4,-0.001 -0.001,-0.005 0,-0.006 10e-4,-0.001 0.005,10e-4 0.006,0 10e-4,-0.001 -0.001,-0.005 0,-0.006 10e-4,-0.001 0.005,10e-4 0.006,0 10e-4,-0.001 -8.7e-4,-0.004 0,-0.006 0.002,-0.005 0.009,-0.007 0.0118,-0.0118 8.8e-4,-0.002 -0.001,-0.005 0,-0.006 0.0122,-0.0122 -4.7e-4,0.0187 0.0118,-0.006 8.8e-4,-0.002 -8.7e-4,-0.004 0,-0.006 0.002,-0.005 0.009,-0.007 0.0118,-0.0118 8.7e-4,-0.002 0,-0.004 0,-0.006 0.002,-0.002 0.005,-0.003 0.006,-0.006 8.7e-4,-0.002 -0.001,-0.005 0,-0.006 0.0122,-0.0122 -4.8e-4,0.0187 0.0118,-0.006 8.7e-4,-0.002 -8.8e-4,-0.004 0,-0.006 0.001,-0.002 0.005,-0.003 0.006,-0.006 8.7e-4,-0.002 0,-0.004 0,-0.006 0.002,-0.002 0.005,-0.003 0.006,-0.006 8.7e-4,-0.002 -10e-4,-0.005 0,-0.006 0.001,-0.001 0.005,0.001 0.006,0 0.003,-0.003 -0.002,-0.008 0,-0.0118 0.001,-0.002 0.005,-0.003 0.006,-0.006 8.7e-4,-0.002 -10e-4,-0.005 0,-0.006 0.001,-0.001 0.005,10e-4 0.006,0 0.003,-0.003 -0.003,-0.0148 0,-0.0177 0.001,-0.001 0.005,0.001 0.006,0 0.002,-0.002 -0.002,-0.0277 0,-0.0295 0.001,-0.001 0.005,10e-4 0.006,0 0.001,-0.001 0,-0.004 0,-0.006 0,-0.002 0,-0.004 0,-0.006 0,-0.0216 0,-0.0433 0,-0.065 0,-0.002 0,-0.004 0,-0.006 0,-0.002 0.001,-0.005 0,-0.006 -10e-4,-0.001 -0.004,10e-4 -0.006,0 -0.003,-0.003 0.003,-0.009 0,-0.0118 -10e-4,-10e-4 -0.004,0.001 -0.006,0 -10e-4,-10e-4 8.7e-4,-0.004 0,-0.006 -0.0123,-0.0246 3.9e-4,0.006 -0.0118,-0.006 -0.001,-10e-4 0.001,-0.005 0,-0.006 -0.001,-10e-4 -0.005,0.001 -0.006,0 -0.001,-10e-4 0.001,-0.005 0,-0.006 -0.001,-10e-4 -0.0222,0.001 -0.0236,0 -0.001,-10e-4 0.001,-0.005 0,-0.006 -0.001,-10e-4 -0.004,0 -0.006,0 -0.002,0 -0.004,0 -0.006,0 -0.0295,0 -0.0591,0 -0.0886,0 -0.002,0 -0.0234,2.3e-4 -0.0236,0 -0.001,-10e-4 0.001,-0.005 0,-0.006 -0.001,-10e-4 -0.004,0 -0.006,0 -0.0118,0 -0.0236,0 -0.0354,0 -0.0157,0 -0.0315,0 -0.0472,0 -0.003,0 -0.0159,-9e-4 -0.0177,0 -0.002,0.001 -0.003,0.005 -0.006,0.006 -0.004,0.002 -0.008,-0.002 -0.0118,0 -0.0246,0.0123 0.006,-4e-4 -0.006,0.0118 -0.003,0.003 -0.009,-0.003 -0.0118,0 -0.0122,0.0122 0.0187,-4.8e-4 -0.006,0.0118 -0.002,8.7e-4 -0.004,-10e-4 -0.006,0 -0.003,0.003 0.003,0.009 0,0.0118 -0.001,10e-4 -0.004,0 -0.006,0 -0.008,0.002 -0.0183,-2.6e-4 -0.0236,0.006 -0.008,0.009 -0.006,0.0243 -0.0118,0.0354 -4.8e-4,9.8e-4 -0.0162,0 -0.0177,0"
       id="path5460-1-8"
       inkscape:connector-curvature="0" />
    <path
       style="fill:#000000;fill-opacity:1;stroke:#000000;stroke-width:0.26458332px;stroke-linecap:butt;stroke-linejoin:miter;stroke-opacity:1"
       d="m 124.28457,123.37298 c -0.0128,0.0511 -0.0118,0.031 -0.0118,0.0591 0,0.004 0.003,0.009 0,0.0118 -0.003,0.003 -0.008,-0.002 -0.0118,0 -0.0492,0.0246 0.0126,-8.2e-4 -0.0118,0.0236 -0.003,0.003 -0.009,-0.003 -0.0118,0 -0.006,0.006 0.006,0.0181 0,0.0236 -0.003,0.003 -0.009,-0.003 -0.0118,0 -0.006,0.006 0.006,0.0181 0,0.0236 -0.003,0.003 -0.009,-0.003 -0.0118,0 -0.003,0.003 0.003,0.009 0,0.0118 -0.003,0.003 -0.009,-0.003 -0.0118,0 -0.006,0.006 0.006,0.0295 0,0.0354 -0.003,0.003 -0.009,-0.003 -0.0118,0 -0.003,0.003 0.002,0.008 0,0.0118 -0.002,0.005 -0.009,0.007 -0.0118,0.0118 -0.004,0.007 0.006,0.0181 0,0.0236 -0.003,0.003 -0.009,-0.003 -0.0118,0 -0.003,0.003 0.003,0.009 0,0.0118 -0.003,0.003 -0.009,-0.003 -0.0118,0 -0.003,0.003 0,0.008 0,0.0118 0,0.004 0,0.008 0,0.0118 0,0.0315 0.004,-0.004 -0.0118,0.0118 -0.006,0.006 0.006,0.0295 0,0.0354 -0.003,0.003 -0.009,-0.003 -0.0118,0 -0.006,0.006 0.006,0.0295 0,0.0354 -0.003,0.003 -0.009,-0.003 -0.0118,0 -0.006,0.006 0.006,0.018 0,0.0236 -0.003,0.003 -0.009,-0.003 -0.0118,0 -0.003,0.003 0,0.008 0,0.0118 0,0.004 0,0.008 0,0.0118 0,0.0354 0,0.0709 0,0.1063 0,0.004 -4.8e-4,0.0468 0,0.0472 0.003,0.003 0.009,-0.003 0.0118,0 0.003,0.003 -0.003,0.009 0,0.0118 0.003,0.003 0.009,-0.003 0.0118,0 0.006,0.006 -0.006,0.0181 0,0.0236 0.003,0.003 0.009,-0.003 0.0118,0 0.006,0.006 -0.006,0.0181 0,0.0236 0.003,0.003 0.009,-0.003 0.0118,0 0.003,0.003 -0.003,0.009 0,0.0118 0.003,0.003 0.009,-0.003 0.0118,0 0.003,0.003 -0.003,0.009 0,0.0118 0.003,0.003 0.009,-0.003 0.0118,0 0.006,0.006 -0.006,0.0181 0,0.0236 0.003,0.003 0.009,-0.003 0.0118,0 0.003,0.003 -0.003,0.009 0,0.0118 0.003,0.003 0.008,0 0.0118,0 0.003,0 0.0351,3.7e-4 0.0354,0 0.0244,-0.0244 -0.0374,9.5e-4 0.0118,-0.0236 0.004,-0.002 0.009,0.003 0.0118,0 0.006,-0.006 -0.006,-0.018 0,-0.0236 0.003,-0.003 0.009,0.003 0.0118,0 0.006,-0.006 -0.006,-0.0181 0,-0.0236 0.003,-0.003 0.009,0.003 0.0118,0 0.003,-0.003 -0.003,-0.0444 0,-0.0473 0.003,-0.003 0.009,0.003 0.0118,0 3.7e-4,-3.7e-4 0,-0.0326 0,-0.0354 0,-0.0315 -0.004,0.004 0.0118,-0.0118 0.004,-0.004 -0.004,-0.0509 0,-0.0591 0.002,-0.005 0.009,-0.007 0.0118,-0.0118 0.002,-0.004 0,-0.0301 0,-0.0354 0,-0.0276 0,-0.0551 0,-0.0827 0,-0.003 3.7e-4,-0.0351 0,-0.0354 -0.003,-0.003 -0.009,0.003 -0.0118,0 -0.003,-0.003 0.003,-0.0408 0,-0.0473 -0.002,-0.005 -0.009,-0.007 -0.0118,-0.0118 -0.002,-0.005 0.002,-0.033 0,-0.0354 -0.003,-0.003 -0.009,0.003 -0.0118,0 -0.006,-0.006 0.006,-0.0295 0,-0.0354 -0.003,-0.003 -0.009,0.003 -0.0118,0 -0.003,-0.003 0.003,-0.009 0,-0.0118 -0.003,-0.003 -0.009,0.003 -0.0118,0 -0.003,-0.003 0,-0.008 0,-0.0118 0,-0.004 0,-0.008 0,-0.0118 0,-0.004 0,-0.008 0,-0.0118 0,-0.004 -0.004,-0.0118 0,-0.0118 0.004,0 0,0.0157 0,0.0118 0,-0.008 0,-0.0157 0,-0.0236 0,-0.0157 0.004,-0.0118 -0.0118,-0.0118"
       id="path5421-3-4"
       inkscape:connector-curvature="0" />
    <path
       style="fill:#000000;fill-opacity:1;stroke:#000000;stroke-width:0.26458332px;stroke-linecap:butt;stroke-linejoin:miter;stroke-opacity:1"
       d="m 122.30896,125.45685 c -0.008,0.008 -0.0157,0.0158 -0.0236,0.0236 -0.002,0 -0.005,-0.001 -0.006,0 -10e-4,10e-4 0.001,0.005 0,0.006 -10e-4,10e-4 -0.004,-0.001 -0.006,0 -10e-4,10e-4 0.001,0.005 0,0.006 -10e-4,10e-4 -0.004,-0.001 -0.006,0 -10e-4,10e-4 0.001,0.005 0,0.006 -10e-4,10e-4 -0.004,-8.7e-4 -0.006,0 -0.002,10e-4 -0.004,0.004 -0.006,0.006 -0.002,0.002 -0.005,0.003 -0.006,0.006 -8.7e-4,0.002 0.001,0.005 0,0.006 -10e-4,10e-4 -0.005,-0.001 -0.006,0 -10e-4,10e-4 0.001,0.005 0,0.006 -0.0122,0.0122 4.8e-4,-0.0187 -0.0118,0.006 -8.7e-4,0.002 0.001,0.005 0,0.006 -0.001,10e-4 -0.005,-0.001 -0.006,0 -0.001,10e-4 0.001,0.005 0,0.006 -0.001,10e-4 -0.005,-0.001 -0.006,0 -0.003,0.003 0.003,0.009 0,0.0118 -0.001,0.001 -0.004,-0.001 -0.006,0 -0.0143,0.0143 0.0143,-0.002 0,0.0118 -0.001,0.001 -0.004,-10e-4 -0.006,0 -0.001,0.001 0.001,0.005 0,0.006 -0.001,0.001 -0.005,-10e-4 -0.006,0 -0.001,0.001 8.8e-4,0.004 0,0.006 -0.001,0.002 -0.005,0.003 -0.006,0.006 -0.002,0.004 0.003,0.009 0,0.0118 -0.001,10e-4 -0.005,-0.001 -0.006,0 -0.003,0.003 0.003,0.0148 0,0.0177 -0.001,0.001 -0.005,-10e-4 -0.006,0 -0.001,0.001 0.001,0.005 0,0.006 -0.001,0.001 -0.005,-10e-4 -0.006,0 -0.001,0.001 0.001,0.0154 0,0.0177 -0.001,0.002 -0.005,0.003 -0.006,0.006 -0.002,0.003 0.002,0.022 0,0.0236 -0.001,0.001 -0.005,-0.001 -0.006,0 -0.001,0.001 0,0.004 0,0.006 0,0.01 0,0.0197 0,0.0295 0,0.002 0,0.004 0,0.006 0,0.002 -0.001,0.005 0,0.006 0.001,0.001 0.005,-0.001 0.006,0 0.001,0.001 -0.001,0.005 0,0.006 0.001,0.001 0.004,-0.001 0.006,0 0.001,0.001 -0.001,0.005 0,0.006 0.001,0.001 0.004,-0.001 0.006,0 0.003,0.003 -0.003,0.009 0,0.0118 0.001,0.001 0.005,-10e-4 0.006,0 0.001,0.001 -0.001,0.005 0,0.006 0.001,0.001 0.005,-10e-4 0.006,0 0.001,0.001 -0.001,0.005 0,0.006 0.001,0.001 0.005,-10e-4 0.006,0 0.001,0.001 -0.001,0.005 0,0.006 0.001,0.001 0.005,-10e-4 0.006,0 0.003,0.003 -0.003,0.009 0,0.0118 0.001,10e-4 0.005,-0.001 0.006,0 0.003,0.003 -0.003,0.009 0,0.0118 0.001,0.001 0.005,-10e-4 0.006,0 0.001,0.001 -8.7e-4,0.004 0,0.006 0.001,0.002 0.005,0.003 0.006,0.006 8.8e-4,0.002 -0.001,0.005 0,0.006 0.003,0.003 0.009,-0.003 0.0118,0 0.001,0.001 -10e-4,0.005 0,0.006 0.001,0.001 0.004,-0.001 0.006,0 0.001,0.001 -10e-4,0.005 0,0.006 0.001,0.001 0.004,-0.001 0.006,0 0.001,0.001 -10e-4,0.005 0,0.006 0.001,0.001 0.005,-0.001 0.006,0 0.001,0.001 -10e-4,0.005 0,0.006 0.001,0.001 0.005,-0.001 0.006,0 0.0122,0.0122 -0.0187,-4.7e-4 0.006,0.0118 0.004,0.002 0.009,-0.003 0.0118,0 10e-4,0.001 -0.001,0.005 0,0.006 0.003,0.003 0.009,-0.003 0.0118,0 0.001,0.001 -0.001,0.005 0,0.006 0.001,0.001 0.005,-10e-4 0.006,0 0.001,0.001 -0.001,0.005 0,0.006 2.4e-4,2.4e-4 0.0215,0 0.0236,0 0.002,0 0.004,0 0.006,0 0.002,0 0.004,-10e-4 0.006,0 0.008,0.008 -0.01,0.006 0.006,0.006 0.002,0 0.004,0 0.006,0 0.002,0 0.005,-10e-4 0.006,0 0.001,0.001 -0.001,0.005 0,0.006 0.001,0.001 0.004,0 0.006,0 0.002,0 0.004,0 0.006,0 0.0138,0 0.0276,0 0.0413,0 0.002,0 0.004,0.001 0.006,0 0.001,-10e-4 -10e-4,-0.005 0,-0.006 0.001,-10e-4 0.004,8.8e-4 0.006,0 0.002,-10e-4 0.003,-0.005 0.006,-0.006 0.002,-10e-4 0.0165,0.001 0.0177,0 0.001,-10e-4 -0.001,-0.005 0,-0.006 0.001,-10e-4 0.005,0.001 0.006,0 0.001,-10e-4 -0.001,-0.005 0,-0.006 0.003,-0.003 0.009,0.003 0.0118,0 0.001,-10e-4 -10e-4,-0.005 0,-0.006 0.001,-10e-4 0.005,0.001 0.006,0 0.001,-10e-4 -10e-4,-0.005 0,-0.006 0.001,-0.001 0.005,10e-4 0.006,0 0.001,-0.001 -10e-4,-0.005 0,-0.006 0.001,-0.001 0.004,10e-4 0.006,0 0.001,-0.001 -10e-4,-0.005 0,-0.006 0.001,-0.001 0.004,10e-4 0.006,0 0.001,-0.001 -10e-4,-0.005 0,-0.006 0.001,-0.001 0.005,10e-4 0.006,0 0.001,-0.001 -8.7e-4,-0.004 0,-0.006 0.001,-0.002 0.005,-0.003 0.006,-0.006 8.8e-4,-0.002 -10e-4,-0.005 0,-0.006 0.003,-0.003 0.009,0.003 0.0118,0 0.003,-0.003 -0.003,-0.009 0,-0.0118 10e-4,-10e-4 0.004,8.8e-4 0.006,0 0.005,-0.002 0.007,-0.009 0.0118,-0.0118 0.002,-8.7e-4 0.005,10e-4 0.006,0 0.003,-0.003 -0.003,-0.009 0,-0.0118 0.003,-0.003 0.009,0.003 0.0118,0 10e-4,-10e-4 -0.001,-0.005 0,-0.006 10e-4,-10e-4 0.004,0.001 0.006,0 10e-4,-10e-4 -0.001,-0.005 0,-0.006 10e-4,-10e-4 0.004,8.8e-4 0.006,0 0.0246,-0.0123 -0.006,4e-4 0.006,-0.0118 10e-4,-0.001 0.005,0.001 0.006,0 10e-4,-0.001 -0.001,-0.005 0,-0.006 10e-4,-0.001 0.005,0.001 0.006,0 10e-4,-0.001 -0.001,-0.005 0,-0.006 10e-4,-0.001 0.005,0.001 0.006,0 0.001,-0.001 -8.7e-4,-0.004 0,-0.006 0.002,-0.005 0.009,-0.007 0.0118,-0.0118 8.8e-4,-0.002 -0.001,-0.005 0,-0.006 0.0122,-0.0122 -4.7e-4,0.0187 0.0118,-0.006 8.8e-4,-0.002 -8.7e-4,-0.004 0,-0.006 0.002,-0.005 0.009,-0.007 0.0118,-0.0118 8.8e-4,-0.002 0,-0.004 0,-0.006 0.002,-0.002 0.005,-0.003 0.006,-0.006 8.8e-4,-0.002 -0.001,-0.005 0,-0.006 0.0122,-0.0122 -4.7e-4,0.0187 0.0118,-0.006 8.8e-4,-0.002 -8.7e-4,-0.004 0,-0.006 0.001,-0.002 0.005,-0.003 0.006,-0.006 8.8e-4,-0.002 0,-0.004 0,-0.006 0.002,-0.002 0.005,-0.003 0.006,-0.006 8.8e-4,-0.002 -10e-4,-0.005 0,-0.006 0.001,-10e-4 0.005,0.001 0.006,0 0.003,-0.003 -0.002,-0.008 0,-0.0118 0.001,-0.002 0.005,-0.003 0.006,-0.006 8.8e-4,-0.002 -0.001,-0.005 0,-0.006 0.001,-0.001 0.005,0.001 0.006,0 0.003,-0.003 -0.003,-0.0148 0,-0.0177 0.001,-10e-4 0.005,0.001 0.006,0 0.002,-0.002 -0.002,-0.0277 0,-0.0295 0.001,-0.001 0.005,0.001 0.006,0 0.001,-0.001 0,-0.004 0,-0.006 0,-0.002 0,-0.004 0,-0.006 0,-0.0216 0,-0.0433 0,-0.065 0,-0.002 0,-0.004 0,-0.006 0,-0.002 0.001,-0.005 0,-0.006 -0.001,-0.001 -0.004,0.001 -0.006,0 -0.003,-0.003 0.003,-0.009 0,-0.0118 -0.001,-0.001 -0.004,10e-4 -0.006,0 -0.001,-0.001 8.8e-4,-0.004 0,-0.006 -0.0123,-0.0246 4e-4,0.006 -0.0118,-0.006 -0.001,-0.001 10e-4,-0.005 0,-0.006 -0.001,-0.001 -0.005,10e-4 -0.006,0 -0.001,-0.001 10e-4,-0.005 0,-0.006 -0.001,-0.001 -0.0222,10e-4 -0.0236,0 -0.001,-0.001 0.001,-0.005 0,-0.006 -0.001,-0.001 -0.004,0 -0.006,0 -0.002,0 -0.004,0 -0.006,0 -0.0295,0 -0.0591,0 -0.0886,0 -0.002,0 -0.0234,2.3e-4 -0.0236,0 -0.001,-0.001 0.001,-0.005 0,-0.006 -0.001,-0.001 -0.004,0 -0.006,0 -0.0118,0 -0.0236,0 -0.0354,0 -0.0157,0 -0.0315,0 -0.0472,0 -0.003,0 -0.0159,-9e-4 -0.0177,0 -0.002,10e-4 -0.003,0.005 -0.006,0.006 -0.004,0.002 -0.008,-0.002 -0.0118,0 -0.0246,0.0123 0.006,-4e-4 -0.006,0.0118 -0.003,0.003 -0.009,-0.003 -0.0118,0 -0.0122,0.0122 0.0187,-4.8e-4 -0.006,0.0118 -0.002,8.7e-4 -0.004,-0.001 -0.006,0 -0.003,0.003 0.003,0.009 0,0.0118 -10e-4,0.001 -0.004,0 -0.006,0 -0.008,0.002 -0.0183,-2.6e-4 -0.0236,0.006 -0.008,0.009 -0.006,0.0243 -0.0118,0.0354 -4.7e-4,9.8e-4 -0.0162,0 -0.0177,0"
       id="path5460-1-8-2"
       inkscape:connector-curvature="0" />
    <path
       style="fill:#000000;fill-opacity:1;stroke:#000000;stroke-width:0.26458332px;stroke-linecap:butt;stroke-linejoin:miter;stroke-opacity:1"
       d="m 125.65474,118.93176 c -0.0128,0.0511 -0.0118,0.031 -0.0118,0.0591 0,0.004 0.003,0.009 0,0.0118 -0.003,0.003 -0.008,-0.002 -0.0118,0 -0.0492,0.0246 0.0126,-8.2e-4 -0.0118,0.0236 -0.003,0.003 -0.009,-0.003 -0.0118,0 -0.006,0.006 0.006,0.0181 0,0.0236 -0.003,0.003 -0.009,-0.003 -0.0118,0 -0.006,0.006 0.006,0.0181 0,0.0236 -0.003,0.003 -0.009,-0.003 -0.0118,0 -0.003,0.003 0.003,0.009 0,0.0118 -0.003,0.003 -0.009,-0.003 -0.0118,0 -0.006,0.006 0.006,0.0295 0,0.0354 -0.003,0.003 -0.009,-0.003 -0.0118,0 -0.003,0.003 0.002,0.008 0,0.0118 -0.002,0.005 -0.009,0.007 -0.0118,0.0118 -0.004,0.007 0.006,0.0181 0,0.0236 -0.003,0.003 -0.009,-0.003 -0.0118,0 -0.003,0.003 0.003,0.009 0,0.0118 -0.003,0.003 -0.009,-0.003 -0.0118,0 -0.003,0.003 0,0.008 0,0.0118 0,0.004 0,0.008 0,0.0118 0,0.0315 0.004,-0.004 -0.0118,0.0118 -0.006,0.006 0.006,0.0295 0,0.0354 -0.003,0.003 -0.009,-0.003 -0.0118,0 -0.006,0.006 0.006,0.0295 0,0.0354 -0.003,0.003 -0.009,-0.003 -0.0118,0 -0.006,0.006 0.006,0.018 0,0.0236 -0.003,0.003 -0.009,-0.003 -0.0118,0 -0.003,0.003 0,0.008 0,0.0118 0,0.004 0,0.008 0,0.0118 0,0.0354 0,0.0709 0,0.1063 0,0.004 -4.7e-4,0.0468 0,0.0472 0.003,0.003 0.009,-0.003 0.0118,0 0.003,0.003 -0.003,0.009 0,0.0118 0.003,0.003 0.009,-0.003 0.0118,0 0.006,0.006 -0.006,0.0181 0,0.0236 0.003,0.003 0.009,-0.003 0.0118,0 0.006,0.006 -0.006,0.0181 0,0.0236 0.003,0.003 0.009,-0.003 0.0118,0 0.003,0.003 -0.003,0.009 0,0.0118 0.003,0.003 0.009,-0.003 0.0118,0 0.003,0.003 -0.003,0.009 0,0.0118 0.003,0.003 0.009,-0.003 0.0118,0 0.006,0.006 -0.006,0.0181 0,0.0236 0.003,0.003 0.009,-0.003 0.0118,0 0.003,0.003 -0.003,0.009 0,0.0118 0.003,0.003 0.008,0 0.0118,0 0.003,0 0.0351,3.8e-4 0.0354,0 0.0244,-0.0244 -0.0374,9.5e-4 0.0118,-0.0236 0.004,-0.002 0.009,0.003 0.0118,0 0.006,-0.006 -0.006,-0.018 0,-0.0236 0.003,-0.003 0.009,0.003 0.0118,0 0.006,-0.006 -0.006,-0.0181 0,-0.0236 0.003,-0.003 0.009,0.003 0.0118,0 0.003,-0.003 -0.003,-0.0444 0,-0.0473 0.003,-0.003 0.009,0.003 0.0118,0 3.7e-4,-3.8e-4 0,-0.0326 0,-0.0354 0,-0.0315 -0.004,0.004 0.0118,-0.0118 0.004,-0.004 -0.004,-0.0509 0,-0.0591 0.002,-0.005 0.009,-0.007 0.0118,-0.0118 0.002,-0.004 0,-0.0301 0,-0.0354 0,-0.0276 0,-0.0551 0,-0.0827 0,-0.003 3.7e-4,-0.0351 0,-0.0354 -0.003,-0.003 -0.009,0.003 -0.0118,0 -0.003,-0.003 0.003,-0.0408 0,-0.0473 -0.002,-0.005 -0.009,-0.007 -0.0118,-0.0118 -0.002,-0.005 0.002,-0.033 0,-0.0354 -0.003,-0.003 -0.009,0.003 -0.0118,0 -0.006,-0.006 0.006,-0.0295 0,-0.0354 -0.003,-0.003 -0.009,0.003 -0.0118,0 -0.003,-0.003 0.003,-0.009 0,-0.0118 -0.003,-0.003 -0.009,0.003 -0.0118,0 -0.003,-0.003 0,-0.008 0,-0.0118 0,-0.004 0,-0.008 0,-0.0118 0,-0.004 0,-0.008 0,-0.0118 0,-0.004 -0.004,-0.0118 0,-0.0118 0.004,0 0,0.0157 0,0.0118 0,-0.008 0,-0.0157 0,-0.0236 0,-0.0157 0.004,-0.0118 -0.0118,-0.0118"
       id="path5421-8-3"
       inkscape:connector-curvature="0" />
  </g>
</svg>
